<?xml version="1.0" encoding="utf-8"?>
<!-- Generator: Adobe Illustrator 25.4.1, SVG Export Plug-In . SVG Version: 6.00 Build 0)  -->
<svg version="1.1" id="Ebene_1" xmlns="http://www.w3.org/2000/svg" xmlns:xlink="http://www.w3.org/1999/xlink" x="0px" y="0px"
	 viewBox="0 0 251 312" style="enable-background:new 0 0 251 312;" xml:space="preserve">
<style type="text/css">
	.st0{fill:#FFFFFF;}
	.st1{clip-path:url(#SVGID_00000173883303250706268400000013769232549699107499_);}
	.st2{filter:url(#Adobe_OpacityMaskFilter);}
	.st3{clip-path:url(#SVGID_00000061449601108351840290000012074295434443756188_);}
	.st4{clip-path:url(#SVGID_00000042702245502893243300000010195012380772557204_);}
	.st5{clip-path:url(#SVGID_00000146482074787315699830000014568706531714034340_);}
	.st6{clip-path:url(#SVGID_00000054987153620083244040000012247499603573003690_);}
	.st7{clip-path:url(#SVGID_00000118375419558342793710000013204562174390512797_);}
	.st8{clip-path:url(#SVGID_00000093896356581098892580000001370898505583315134_);}
	.st9{clip-path:url(#SVGID_00000042008319013299848030000004306071307738091425_);}
	
		.st10{clip-path:url(#SVGID_00000105392711203141987940000011486146843545835701_);fill:url(#SVGID_00000114793500779019281140000006606458598817849771_);}
	
		.st11{clip-path:url(#SVGID_00000061449601108351840290000012074295434443756188_);mask:url(#SVGID_00000059270853164931987580000015385418061318647170_);fill:url(#SVGID_00000155128063580331285910000006374358550856494224_);}
	.st12{fill:#CCCCCC;}
	.st13{fill:#1F3284;}
	.st14{fill:#EC928E;}
	.st15{fill:#F8CCBC;}
	.st16{fill:#F3BEC0;}
	.st17{fill:#6D6D6D;}
	.st18{fill:#535353;}
	.st19{fill:#ECECEC;}
	.st20{fill:#BFBFBF;}
	.st21{clip-path:url(#SVGID_00000000920482324624632340000000976418655165742976_);}
	.st22{filter:url(#Adobe_OpacityMaskFilter_00000089539199624552181020000006144030416373451145_);}
	.st23{clip-path:url(#SVGID_00000174571115394319943860000007701690947885576585_);}
	.st24{clip-path:url(#SVGID_00000019675959316079526820000017854928712688489131_);}
	.st25{clip-path:url(#SVGID_00000156577363701758404960000015248873006022533560_);}
	.st26{clip-path:url(#SVGID_00000093153432452245377870000009472570328329598872_);}
	.st27{clip-path:url(#SVGID_00000105396184935838368670000000390272676802366381_);}
	.st28{clip-path:url(#SVGID_00000094594810241474842890000002439161335477414027_);}
	.st29{clip-path:url(#SVGID_00000114758809657594258610000008818160885179928766_);}
	
		.st30{clip-path:url(#SVGID_00000078043824661677678400000013807318583452688006_);fill:url(#SVGID_00000070095201266372646030000014711196620130143151_);}
	
		.st31{clip-path:url(#SVGID_00000174571115394319943860000007701690947885576585_);mask:url(#SVGID_00000160190895530259248910000003088933917347266742_);fill:url(#SVGID_00000176723409213679935970000008596332901095053738_);}
	.st32{fill:#4358A4;}
	.st33{fill:#E9D5C5;}
	.st34{fill:#A5B7E1;}
	.st35{fill:#F8CBCB;}
	.st36{fill:#242424;}
	.st37{fill:#443530;}
	.st38{clip-path:url(#SVGID_00000147222410448017516810000016758746572176511667_);}
	.st39{filter:url(#Adobe_OpacityMaskFilter_00000021119261588132745880000013512540790502177976_);}
	.st40{clip-path:url(#SVGID_00000172427025349644998900000011303285802746054537_);}
	.st41{clip-path:url(#SVGID_00000057116640250842182690000013872465708652058286_);}
	.st42{clip-path:url(#SVGID_00000118374405265878034990000006761095588531909255_);}
	.st43{clip-path:url(#SVGID_00000000200350221870102140000009746752159838651778_);}
	.st44{clip-path:url(#SVGID_00000103982533466920618260000017000526235363046842_);}
	.st45{clip-path:url(#SVGID_00000131366483438879053410000002676971211580082816_);}
	.st46{clip-path:url(#SVGID_00000052090676437729931160000007558305024479829940_);}
	
		.st47{clip-path:url(#SVGID_00000059269927953200582230000000723563019901871532_);fill:url(#SVGID_00000056397558901251713060000002798954364650524861_);}
	
		.st48{clip-path:url(#SVGID_00000172427025349644998900000011303285802746054537_);mask:url(#SVGID_00000102520771053270772580000004704808789454953389_);fill:url(#SVGID_00000168082114142951107820000007737695572067992461_);}
	.st49{fill:#9BA37B;}
	.st50{fill:#8EA7D9;}
	.st51{opacity:0.19;fill:#FFFFFF;enable-background:new    ;}
</style>
<polyline class="st0" points="250.5,-0.5 250.5,311.5 -0.5,311.5 -0.5,-0.5 "/>
<g>
	<g>
		<g>
			<g>
				<g>
					<defs>
						<polygon id="SVGID_1_" points="1,1 2,1 1,2 						"/>
					</defs>
					<clipPath id="SVGID_00000007426483422530816650000009979123633862158476_">
						<use xlink:href="#SVGID_1_"  style="overflow:visible;"/>
					</clipPath>
				</g>
				<g>
					<defs>
						<polygon id="SVGID_00000093143731611451018670000002135175406422988186_" points="1,1 2,1 1,2 						"/>
					</defs>
					<defs>
						<polygon id="SVGID_00000104706283745385754950000007164748458571915178_" points="-1,-1 -2,-1 -1,-2 						"/>
					</defs>
					<clipPath id="SVGID_00000012460186019974916890000011154721599531979436_">
						<use xlink:href="#SVGID_00000093143731611451018670000002135175406422988186_"  style="overflow:visible;"/>
					</clipPath>
					
						<clipPath id="SVGID_00000020382207832011575500000016665968707727287207_" style="clip-path:url(#SVGID_00000012460186019974916890000011154721599531979436_);">
						<use xlink:href="#SVGID_00000104706283745385754950000007164748458571915178_"  style="overflow:visible;"/>
					</clipPath>
					<defs>
						<filter id="Adobe_OpacityMaskFilter" filterUnits="userSpaceOnUse" x="97.75" y="277.89" width="59.77" height="8.78">
							<feColorMatrix  type="matrix" values="1 0 0 0 0  0 1 0 0 0  0 0 1 0 0  0 0 0 1 0"/>
						</filter>
					</defs>
					
						<mask maskUnits="userSpaceOnUse" x="97.75" y="277.89" width="59.77" height="8.78" id="SVGID_00000059270853164931987580000015385418061318647170_">
						<g class="st2">
							<g>
								<g>
									<defs>
										<polygon id="SVGID_00000060753514117082995030000015128106794459897998_" points="1,1 2,1 1,2 										"/>
									</defs>
									<defs>
										<polygon id="SVGID_00000151513270511756547280000015126888471283113092_" points="-1,-1 -2,-1 -1,-2 										"/>
									</defs>
									
										<clipPath id="SVGID_00000112616508809441524780000012056984983314972840_" style="clip-path:url(#SVGID_00000020382207832011575500000016665968707727287207_);">
										<use xlink:href="#SVGID_00000060753514117082995030000015128106794459897998_"  style="overflow:visible;"/>
									</clipPath>
									
										<clipPath id="SVGID_00000104698834330173442110000014197717631094421649_" style="clip-path:url(#SVGID_00000112616508809441524780000012056984983314972840_);">
										<use xlink:href="#SVGID_00000151513270511756547280000015126888471283113092_"  style="overflow:visible;"/>
									</clipPath>
								</g>
								<g>
									<defs>
										<polygon id="SVGID_00000075879061919109323020000018356601913671331979_" points="1,1 2,1 1,2 										"/>
									</defs>
									<defs>
										<polygon id="SVGID_00000077303461947446909070000014331567287484227762_" points="-1,-1 -2,-1 -1,-2 										"/>
									</defs>
									<defs>
										<polygon id="SVGID_00000133510163322700077930000013717241515677068970_" points="1,1 2,1 1,2 										"/>
									</defs>
									
										<clipPath id="SVGID_00000049925302666871143190000012359379549062810258_" style="clip-path:url(#SVGID_00000020382207832011575500000016665968707727287207_);">
										<use xlink:href="#SVGID_00000075879061919109323020000018356601913671331979_"  style="overflow:visible;"/>
									</clipPath>
									
										<clipPath id="SVGID_00000062153423000213895820000005329044300612644024_" style="clip-path:url(#SVGID_00000049925302666871143190000012359379549062810258_);">
										<use xlink:href="#SVGID_00000077303461947446909070000014331567287484227762_"  style="overflow:visible;"/>
									</clipPath>
									
										<clipPath id="SVGID_00000041989869116862823310000016733466384115585171_" style="clip-path:url(#SVGID_00000062153423000213895820000005329044300612644024_);">
										<use xlink:href="#SVGID_00000133510163322700077930000013717241515677068970_"  style="overflow:visible;"/>
									</clipPath>
								</g>
								<g>
									<defs>
										<polygon id="SVGID_00000057131198144331166250000014173415259705025706_" points="1,1 2,1 1,2 										"/>
									</defs>
									<defs>
										<polygon id="SVGID_00000165232632027852171210000002197716611870999448_" points="-1,-1 -2,-1 -1,-2 										"/>
									</defs>
									<defs>
										<polygon id="SVGID_00000036936694127902439990000001610884557378810283_" points="1,1 2,1 1,2 										"/>
									</defs>
									<defs>
										<polygon id="SVGID_00000096020179522493654600000017389196045661017001_" points="-1,-1 -2,-1 -1,-2 										"/>
									</defs>
									
										<clipPath id="SVGID_00000052798938634583475300000010542579647158678455_" style="clip-path:url(#SVGID_00000020382207832011575500000016665968707727287207_);">
										<use xlink:href="#SVGID_00000057131198144331166250000014173415259705025706_"  style="overflow:visible;"/>
									</clipPath>
									
										<clipPath id="SVGID_00000071550415312954161150000014835916083231713956_" style="clip-path:url(#SVGID_00000052798938634583475300000010542579647158678455_);">
										<use xlink:href="#SVGID_00000165232632027852171210000002197716611870999448_"  style="overflow:visible;"/>
									</clipPath>
									
										<clipPath id="SVGID_00000051375665130594569060000011090819606735071139_" style="clip-path:url(#SVGID_00000071550415312954161150000014835916083231713956_);">
										<use xlink:href="#SVGID_00000036936694127902439990000001610884557378810283_"  style="overflow:visible;"/>
									</clipPath>
									
										<clipPath id="SVGID_00000176034029215913052580000000261101435376059016_" style="clip-path:url(#SVGID_00000051375665130594569060000011090819606735071139_);">
										<use xlink:href="#SVGID_00000096020179522493654600000017389196045661017001_"  style="overflow:visible;"/>
									</clipPath>
									
										<linearGradient id="SVGID_00000161604176614450936390000017311781997803231165_" gradientUnits="userSpaceOnUse" x1="97.7476" y1="282.2756" x2="157.5223" y2="282.2756">
										<stop  offset="0" style="stop-color:#4D4D4D"/>
										<stop  offset="1" style="stop-color:#000000"/>
									</linearGradient>
									
										<path style="clip-path:url(#SVGID_00000176034029215913052580000000261101435376059016_);fill:url(#SVGID_00000161604176614450936390000017311781997803231165_);" d="
										M126.76,286.54c5.64-0.09,11.28-0.18,16.9-0.7c2.81-0.26,5.62-0.62,8.33-1.43c2.13-0.63,4.34-1.68,5.32-3.68
										c0.14-0.28,0.25-0.6,0.2-0.91s-0.24-0.57-0.46-0.79c-1.14-1.11-2.91-1.16-4.5-1.14c-15.55,0.21-31.11,0.51-46.62,1.77
										c-2.79,0.23-5.94,0.69-7.55,2.98c-3.5,5,8.57,3.91,10.74,3.95C115,286.73,120.88,286.64,126.76,286.54z"/>
								</g>
							</g>
						</g>
					</mask>
					
						<linearGradient id="SVGID_00000103232029100600682160000000914613432911601052_" gradientUnits="userSpaceOnUse" x1="97.7476" y1="282.2756" x2="157.5223" y2="282.2756">
						<stop  offset="0" style="stop-color:#4D4D4D"/>
						<stop  offset="1" style="stop-color:#000000"/>
					</linearGradient>
					
						<path style="clip-path:url(#SVGID_00000020382207832011575500000016665968707727287207_);mask:url(#SVGID_00000059270853164931987580000015385418061318647170_);fill:url(#SVGID_00000103232029100600682160000000914613432911601052_);" d="
						M126.76,286.54c5.64-0.09,11.28-0.18,16.9-0.7c2.81-0.26,5.62-0.62,8.33-1.43c2.13-0.63,4.34-1.68,5.32-3.68
						c0.14-0.28,0.25-0.6,0.2-0.91s-0.24-0.57-0.46-0.79c-1.14-1.11-2.91-1.16-4.5-1.14c-15.55,0.21-31.11,0.51-46.62,1.77
						c-2.79,0.23-5.94,0.69-7.55,2.98c-3.5,5,8.57,3.91,10.74,3.95C115,286.73,120.88,286.64,126.76,286.54z"/>
				</g>
			</g>
		</g>
		<path class="st12" d="M126.76,286.54c5.64-0.09,11.28-0.18,16.9-0.7c2.81-0.26,5.62-0.62,8.33-1.43c2.13-0.63,4.34-1.68,5.32-3.68
			c0.14-0.28,0.25-0.6,0.2-0.91s-0.24-0.57-0.46-0.79c-1.14-1.11-2.91-1.16-4.5-1.14c-15.55,0.21-31.11,0.51-46.62,1.77
			c-2.79,0.23-5.94,0.69-7.55,2.98c-3.5,5,8.57,3.91,10.74,3.95C115,286.73,120.88,286.64,126.76,286.54z"/>
		<g>
			<path class="st13" d="M87.13,212.75c4.19,20.64,16.14,39.07,20.31,59.71c0.27,1.35,0.53,2.74,1.28,3.88
				c0.76,1.15,2.17,1.98,3.49,1.62c2.39-0.65,2.38-3.99,2.05-6.44c-0.99-7.32-0.13-14.75,0.72-22.09c1.33-11.44,2.66-22.88,4-34.32
				c0.99-1.03,2.81-0.8,3.9,0.13c1.09,0.93,1.62,2.34,2.06,3.71c1.93,6.09,2.75,12.47,3.56,18.81c1.62,12.68,3.24,25.4,3.44,38.18
				c1.16,0.07,2.32,0.15,3.48,0.22c4.74-12.66,8.31-25.73,11.68-38.82c1.7-6.63,3.36-13.28,4.43-20.04c1.4-8.89,1.78-17.9,2.08-26.9
				c0.06-1.82,0.08-3.77-0.96-5.27c-0.93-1.34-2.52-2.03-4.04-2.61c-13.12-5.03-27.23-6.91-41.23-8c-3.93-0.31-7.92-0.55-11.8,0.15
				c-3.07,0.56-6.4,1.76-8.69,3.96c-2.6,2.49-1.75,6.44-1.76,9.87C85.09,196.64,85.52,204.79,87.13,212.75z"/>
			<path class="st14" d="M78.84,166.96c-1.3,3.93-2.32,8.57,0.08,11.95c1.13,1.59,2.86,2.63,4.6,3.5c9.8,4.95,21.03,6.1,31.96,7.16
				c9.85,0.96,19.74,1.91,29.62,1.39c4.71-0.25,9.67-0.95,13.34-3.9c3.5-2.8,5.31-7.29,5.8-11.74c0.49-4.45-0.19-8.95-0.86-13.38
				c-0.74-4.86-1.49-9.73-2.77-14.48c-2.23-8.25-6.07-16.06-11.26-22.85c-3.91-5.12-8.69-9.75-14.53-12.49
				c-5.53-2.6-13.92-3.8-19.68-1c-5.75,2.79-11.03,10.81-14.87,15.75C90.92,138.88,83.61,152.49,78.84,166.96z"/>
			<path class="st15" d="M133.63,97.83c-0.05,1.05-0.11,2.1-0.42,3.12c-0.73,2.42-2.92,4.59-5.9,5.75
				c-2.97,1.17-6.68,1.29-9.76,0.28c-3.04-1-5.28-2.96-7.07-5.02c-3.73-4.32-5.91-9.45-5.38-14.55c0.08-0.76,0.24-1.55,0.88-2.15
				c0.92-0.86,2.56-1.05,4.03-1.19c4.84-0.44,18.27-3.49,22.26-1.16C136.22,85.23,133.83,94.6,133.63,97.83z"/>
			<path class="st16" d="M94.48,83.18c0.71,3.01,4.53,5.28,8.63,5.8c4.09,0.52,8.32-0.46,11.88-2.04c3.81-1.69,7.37-4.14,11.81-4.28
				c0.82-0.03,1.66,0.04,2.38,0.32c0.79,0.32,1.35,0.88,1.81,1.45c2.53,3.14,2.91,6.94,3.22,10.58c1.36-3.16,2.43-6.38,3.2-9.65
				c0.85-3.56,1.08-7.74-2.46-10.25c-2.7-1.91-6.83-2.23-10.55-1.9c-5.24,0.47-10.28,2.07-14.35,4.54c-1.62,0.98-3.09,2.1-4.84,2.95
				c-1.75,0.85-3.87,1.43-5.93,1.15c-2.28-0.31-2.72-1.7-4.31-2.49C94.3,80.49,94.19,81.97,94.48,83.18z"/>
			<path class="st15" d="M141.72,134.31c-1.44-2.66-3.59-4.85-5.4-7.28c-1.81-2.43-3.32-5.29-3.16-8.31s2.53-6.07,5.56-6.05
				c1.25,0.01,2.44,0.51,3.55,1.07c3.64,1.82,6.93,4.32,9.67,7.34c1.06,1.17,2.05,2.44,2.73,3.87c1,2.1,1.28,4.47,1.53,6.78
				c0.43,4.07,0.79,8.23-0.1,12.22c-1.27,5.7-5.36,10.82-10.76,13.1c-1.16,0.49-2.92,1.33-4.03,0.71c-1.18-0.66-1.39-2.2-1.14-3.35
				c0.67-3.18,2.84-5.81,3.33-9.19C144.03,141.52,143.53,137.63,141.72,134.31z"/>
			<path class="st15" d="M135.43,156.64c-0.23,0.16-0.46,0.33-0.64,0.55c-0.44,0.55-0.46,1.3-0.46,2c0,1.11,0.11,2.44,1.07,3
				c0.44,0.26,0.96,0.29,1.47,0.32c0.53,0.03,1.05,0.06,1.58,0.09c0.57,0.03,1.18,0.05,1.65-0.26c0.49-0.32,0.71-0.91,0.9-1.46
				c0.47-1.35,0.94-2.69,1.4-4.04c0.08-0.23,0.16-0.49,0.05-0.7c-0.06-0.13-0.19-0.23-0.3-0.32c-1.12-0.86-1.65-1.3-3.09-0.98
				C137.89,155.09,136.3,155.77,135.43,156.64z"/>
			<path d="M146.01,277.11c-0.71-0.64-1.74-0.74-2.69-0.81c-1.41-0.11-2.83-0.21-4.24-0.32c-0.61-0.05-1.25-0.1-1.74-0.46
				c-0.2-0.14-0.35-0.33-0.48-0.53c-0.44,0-0.89-0.02-1.32-0.03c-1.63-0.03-3.26,0.57-4.84,1.06c0.33,1.38,0.65,2.77,0.98,4.15
				c0.06,0.27,0.14,0.57,0.36,0.75s0.53,0.2,0.82,0.21c4.71,0.12,9.43-0.05,14.12-0.5C146.98,279.37,146.94,277.95,146.01,277.11z"
				/>
			<path d="M113.53,275.86c0.08,1.87,0.14,3.83-0.72,5.49c-0.61,1.17-1.63,2.07-2.62,2.94c-0.52,0.46-1.04,0.91-1.56,1.37
				c-0.14,0.13-0.29,0.26-0.48,0.32c-0.2,0.07-0.41,0.05-0.62,0.04c-0.89-0.05-1.79,0.05-2.68-0.03c-0.89-0.07-1.81-0.34-2.43-0.99
				s-0.82-1.74-0.27-2.44c0.36-0.46,0.93-0.67,1.46-0.91c1.54-0.71,2.88-1.87,3.79-3.3c0.58-0.9,1.1-1.85,2.15-2.22
				C109.9,276,113.52,275.59,113.53,275.86z"/>
			<g>
				<g id="XMLID_4400_">
					<path id="XMLID_4403_" class="st17" d="M145.19,152.73c-0.22-0.45-0.45-0.91-0.83-1.21c-0.5-0.39-1.15-0.42-1.77-0.44
						c-10.93-0.36-21.86-0.73-32.79-1.09c-0.89-0.03-1.69,0.53-2.06,1.38c-1.77,4.15-3.87,7.64-5.19,11.98
						c-0.18,0.59,0.24,1.19,0.82,1.19c14.75,0.19,30.27,1.79,44.99,0.55c1-0.08,1.61-1.22,1.18-2.18
						C148.09,159.61,146.65,155.72,145.19,152.73z"/>
					<path id="XMLID_4402_" class="st18" d="M144.9,151.77c-0.21-0.45-0.44-0.91-0.82-1.21c-0.49-0.39-1.13-0.42-1.74-0.44
						c-10.72-0.36-21.45-0.73-32.17-1.09c-0.87-0.03-1.66,0.53-2.02,1.38c-1.74,4.15-3.8,7.64-5.1,11.98
						c-0.18,0.59,0.24,1.19,0.81,1.19c14.48,0.19,29.7,1.79,44.14,0.55c0.98-0.08,1.58-1.22,1.16-2.18
						C147.74,158.65,146.33,154.76,144.9,151.77z"/>
					<path id="XMLID_4401_" class="st19" d="M143.2,152.64c-0.19-0.32-0.4-0.65-0.74-0.87c-0.44-0.28-1.02-0.3-1.57-0.32
						c-9.67-0.26-19.34-0.52-29.02-0.78c-0.79-0.02-1.49,0.38-1.82,0.99c-1.57,2.98-3.42,5.49-4.6,8.61
						c-0.16,0.42,0.21,0.85,0.73,0.86c13.06,0.14,26.78,1.29,39.81,0.4c0.89-0.06,1.42-0.87,1.05-1.57
						C145.76,157.59,144.49,154.79,143.2,152.64z"/>
				</g>
				<path id="XMLID_4399_" class="st12" d="M130.47,153.52c-0.05,0.08-0.04,0.18-0.02,0.27c0.39,2.26,0.79,4.54,1.65,6.67
					c2.59,0,5.18,0.01,7.77,0.01c0.82,0,1.64,0,2.44-0.16c-0.87-2.24-1.75-4.48-2.62-6.72c-2.96,0.08-5.92,0.02-8.87-0.17
					C130.69,153.42,130.54,153.42,130.47,153.52z"/>
				<path id="XMLID_4398_" class="st20" d="M127.22,153.29c-4.76,0.25-9.49,0.17-14.26,0c-0.38-0.01-0.37,0.56,0,0.58
					c4.74,0.35,9.51,0.28,14.26,0.06C127.63,153.91,127.63,153.26,127.22,153.29z"/>
				<path id="XMLID_4397_" class="st20" d="M127.7,155.1c-4.66-0.02-9.33,0.13-13.98,0.37c-0.36,0.02-0.36,0.57,0,0.56
					c4.66-0.22,9.32-0.28,13.98-0.26C128.13,155.76,128.13,155.1,127.7,155.1z"/>
				<path id="XMLID_4396_" class="st20" d="M127.7,157.4c-4.91-0.22-9.83-0.25-14.74-0.24c-0.36,0-0.36,0.56,0,0.57
					c4.91,0.07,9.83,0.24,14.74,0.35C128.14,158.09,128.13,157.42,127.7,157.4z"/>
				<path id="XMLID_4395_" class="st20" d="M126.4,159.15c-4.36-0.05-8.73,0.04-13.09,0.08c-0.37,0-0.37,0.57,0,0.57
					c4.36,0.04,8.73,0.12,13.09,0.07C126.86,159.86,126.86,159.15,126.4,159.15z"/>
			</g>
			<path class="st15" d="M108.34,156.73c0.81,0.07,1.63,0.15,2.43,0.01c0.67-0.12,1.31-0.39,1.86-0.78
				c0.86-0.62,1.52-1.59,1.56-2.65s-0.62-2.16-1.64-2.45c-0.47-0.13-0.97-0.09-1.45-0.01c-2.15,0.38-4.12,1.61-6.3,1.76
				c-0.8,0.06-1.7,0-2.28,0.55c-0.32,0.31-0.47,0.75-0.55,1.19c-0.09,0.48-0.1,0.99,0.14,1.42c0.45,0.81,1.77,0.55,2.54,0.62
				C105.88,156.5,107.11,156.62,108.34,156.73z"/>
			<path class="st15" d="M94.02,119.07c-3.61,2.72-6.54,6.21-9.35,9.75c-2.6,3.27-5.16,6.7-6.44,10.68s-1.07,8.67,1.53,11.94
				c2.62,3.31,7.03,4.54,11.17,5.34c1.65,0.32,3.33,0.6,5.01,0.5c1.87-0.12,4.86,0.24,6.64-0.35c0.95-0.32,0.96-1.24,1.68-1.94
				s0.89-2.24,0.37-3.1c-3.03-0.2-6.04-0.51-9.05-0.94c-2.49-0.36-5.2-0.91-6.81-2.85c-1.74-2.09-1.63-5.28-0.33-7.67
				c1.29-2.39,3.55-4.11,5.88-5.5c2.33-1.39,4.82-2.54,6.98-4.19c3.69-2.83,19.22-14.05,14.8-18.79
				C112.64,108.22,97.06,116.78,94.02,119.07z"/>
			<path class="st14" d="M156.74,126.7c0.17-1.13-0.59-2.16-1.3-3.05c-1.55-1.93-3.11-3.86-4.66-5.79c-0.74-0.93-1.5-1.86-2.41-2.62
				c-1.83-1.52-4.17-2.25-6.45-2.92c-2.6-0.76-5.64-1.41-7.84,0.18c-1.5,1.09-2.19,3.04-2.19,4.9s0.61,3.66,1.27,5.39
				c0.99,2.58,2.04,5.27,3.42,7.67c1.17,2.01,2.45,1.86,4.42,0.97C146.1,129.16,151.17,127.37,156.74,126.7z"/>
			<path class="st14" d="M96.73,124.4c1.69,2.68,3.77,5.09,5.84,7.49c0.16,0.19,0.36,0.39,0.6,0.4c0.19,0.01,0.36-0.11,0.52-0.23
				c1.63-1.25,2.73-3.05,4.15-4.53c2.8-2.94,6.85-4.66,9.06-8.07c1.26-1.94,1.81-4.33,1.53-6.63c-0.1-0.8-0.31-1.62-0.82-2.24
				c-0.72-0.88-1.93-1.23-3.07-1.23c-1.63-0.01-3.19,0.57-4.7,1.16c-4.3,1.67-8.53,3.51-12.69,5.5c-1.03,0.49-2.05,0.99-3.07,1.51
				c-1.34,0.68-1.66,0.67-0.8,1.83C94.51,121.01,95.63,122.65,96.73,124.4z"/>
		</g>
	</g>
	<g>
		<g>
			<g>
				<g>
					<defs>
						<polygon id="SVGID_00000153676662815631220740000006444305671021850000_" points="1,1 2,1 1,2 						"/>
					</defs>
					<clipPath id="SVGID_00000157265710768725564810000000217032165655469213_">
						<use xlink:href="#SVGID_00000153676662815631220740000006444305671021850000_"  style="overflow:visible;"/>
					</clipPath>
				</g>
				<g>
					<defs>
						<polygon id="SVGID_00000121994843378095101980000001945791310022519208_" points="1,1 2,1 1,2 						"/>
					</defs>
					<defs>
						<polygon id="SVGID_00000045608647271761350450000004932937346277394304_" points="-1,-1 -2,-1 -1,-2 						"/>
					</defs>
					<clipPath id="SVGID_00000072266862005939160660000008350999051521328574_">
						<use xlink:href="#SVGID_00000121994843378095101980000001945791310022519208_"  style="overflow:visible;"/>
					</clipPath>
					
						<clipPath id="SVGID_00000124844524504988573390000006724735990241801608_" style="clip-path:url(#SVGID_00000072266862005939160660000008350999051521328574_);">
						<use xlink:href="#SVGID_00000045608647271761350450000004932937346277394304_"  style="overflow:visible;"/>
					</clipPath>
					<defs>
						
							<filter id="Adobe_OpacityMaskFilter_00000043428237344241387100000008750213838574154379_" filterUnits="userSpaceOnUse" x="182.63" y="284.34" width="54.61" height="5.66">
							<feColorMatrix  type="matrix" values="1 0 0 0 0  0 1 0 0 0  0 0 1 0 0  0 0 0 1 0"/>
						</filter>
					</defs>
					
						<mask maskUnits="userSpaceOnUse" x="182.63" y="284.34" width="54.61" height="5.66" id="SVGID_00000160190895530259248910000003088933917347266742_">
						<g style="filter:url(#Adobe_OpacityMaskFilter_00000043428237344241387100000008750213838574154379_);">
							<g>
								<g>
									<defs>
										<polygon id="SVGID_00000031177616467460135000000013438481443575679651_" points="1,1 2,1 1,2 										"/>
									</defs>
									<defs>
										<polygon id="SVGID_00000018928236502700992880000003545836118986709125_" points="-1,-1 -2,-1 -1,-2 										"/>
									</defs>
									
										<clipPath id="SVGID_00000025427887248454978150000005833714708489974420_" style="clip-path:url(#SVGID_00000124844524504988573390000006724735990241801608_);">
										<use xlink:href="#SVGID_00000031177616467460135000000013438481443575679651_"  style="overflow:visible;"/>
									</clipPath>
									
										<clipPath id="SVGID_00000019671927267978811590000015702340479556093118_" style="clip-path:url(#SVGID_00000025427887248454978150000005833714708489974420_);">
										<use xlink:href="#SVGID_00000018928236502700992880000003545836118986709125_"  style="overflow:visible;"/>
									</clipPath>
								</g>
								<g>
									<defs>
										<polygon id="SVGID_00000057869325458692422190000016780833192433547408_" points="1,1 2,1 1,2 										"/>
									</defs>
									<defs>
										<polygon id="SVGID_00000032638474033077571190000003890432677673851050_" points="-1,-1 -2,-1 -1,-2 										"/>
									</defs>
									<defs>
										<polygon id="SVGID_00000076580211811707380640000010607342747611250586_" points="1,1 2,1 1,2 										"/>
									</defs>
									
										<clipPath id="SVGID_00000118365565097519132850000016758896959760883643_" style="clip-path:url(#SVGID_00000124844524504988573390000006724735990241801608_);">
										<use xlink:href="#SVGID_00000057869325458692422190000016780833192433547408_"  style="overflow:visible;"/>
									</clipPath>
									
										<clipPath id="SVGID_00000018230050296936063790000011478504458736373143_" style="clip-path:url(#SVGID_00000118365565097519132850000016758896959760883643_);">
										<use xlink:href="#SVGID_00000032638474033077571190000003890432677673851050_"  style="overflow:visible;"/>
									</clipPath>
									
										<clipPath id="SVGID_00000075850279785999061550000000742413282887162773_" style="clip-path:url(#SVGID_00000018230050296936063790000011478504458736373143_);">
										<use xlink:href="#SVGID_00000076580211811707380640000010607342747611250586_"  style="overflow:visible;"/>
									</clipPath>
								</g>
								<g>
									<defs>
										<polygon id="SVGID_00000103236037265429205750000005026771017220106914_" points="1,1 2,1 1,2 										"/>
									</defs>
									<defs>
										<polygon id="SVGID_00000097470500292626739190000007596635985889928862_" points="-1,-1 -2,-1 -1,-2 										"/>
									</defs>
									<defs>
										<polygon id="SVGID_00000018228885794375013440000018119446992316227485_" points="1,1 2,1 1,2 										"/>
									</defs>
									<defs>
										<polygon id="SVGID_00000068667371233938361310000014046345875620651920_" points="-1,-1 -2,-1 -1,-2 										"/>
									</defs>
									
										<clipPath id="SVGID_00000129194058610476050850000008082081798605545387_" style="clip-path:url(#SVGID_00000124844524504988573390000006724735990241801608_);">
										<use xlink:href="#SVGID_00000103236037265429205750000005026771017220106914_"  style="overflow:visible;"/>
									</clipPath>
									
										<clipPath id="SVGID_00000138539255490417155130000016984278548329120940_" style="clip-path:url(#SVGID_00000129194058610476050850000008082081798605545387_);">
										<use xlink:href="#SVGID_00000097470500292626739190000007596635985889928862_"  style="overflow:visible;"/>
									</clipPath>
									
										<clipPath id="SVGID_00000176009135641546891990000007411605366611790488_" style="clip-path:url(#SVGID_00000138539255490417155130000016984278548329120940_);">
										<use xlink:href="#SVGID_00000018228885794375013440000018119446992316227485_"  style="overflow:visible;"/>
									</clipPath>
									
										<clipPath id="SVGID_00000072267757179484136470000001774938680997517985_" style="clip-path:url(#SVGID_00000176009135641546891990000007411605366611790488_);">
										<use xlink:href="#SVGID_00000068667371233938361310000014046345875620651920_"  style="overflow:visible;"/>
									</clipPath>
									
										<linearGradient id="SVGID_00000181072535682927162190000007741907002386240138_" gradientUnits="userSpaceOnUse" x1="182.6258" y1="287.1699" x2="237.2332" y2="287.1699">
										<stop  offset="0" style="stop-color:#4D4D4D"/>
										<stop  offset="1" style="stop-color:#000000"/>
									</linearGradient>
									
										<path style="clip-path:url(#SVGID_00000072267757179484136470000001774938680997517985_);fill:url(#SVGID_00000181072535682927162190000007741907002386240138_);" d="
										M225.95,290c3.77,0,7.62-0.04,11.21-1.2c0.27-0.85-0.24-1.8-0.98-2.31c-0.74-0.5-1.66-0.66-2.54-0.78
										c-3.03-0.4-6.08-0.49-9.13-0.58c-11.87-0.36-23.75-0.71-35.63-0.79c-1.49-0.01-7.71,0.39-5.94,3.41
										c1.18,2.02,6.68,1.32,8.6,1.41c7.31,0.35,14.64,0.59,21.96,0.72C217.64,289.96,221.79,290,225.95,290z"/>
								</g>
							</g>
						</g>
					</mask>
					
						<linearGradient id="SVGID_00000157996367466683151470000008230299050362109883_" gradientUnits="userSpaceOnUse" x1="182.6258" y1="287.1699" x2="237.2332" y2="287.1699">
						<stop  offset="0" style="stop-color:#4D4D4D"/>
						<stop  offset="1" style="stop-color:#000000"/>
					</linearGradient>
					
						<path style="clip-path:url(#SVGID_00000124844524504988573390000006724735990241801608_);mask:url(#SVGID_00000160190895530259248910000003088933917347266742_);fill:url(#SVGID_00000157996367466683151470000008230299050362109883_);" d="
						M225.95,290c3.77,0,7.62-0.04,11.21-1.2c0.27-0.85-0.24-1.8-0.98-2.31c-0.74-0.5-1.66-0.66-2.54-0.78
						c-3.03-0.4-6.08-0.49-9.13-0.58c-11.87-0.36-23.75-0.71-35.63-0.79c-1.49-0.01-7.71,0.39-5.94,3.41
						c1.18,2.02,6.68,1.32,8.6,1.41c7.31,0.35,14.64,0.59,21.96,0.72C217.64,289.96,221.79,290,225.95,290z"/>
				</g>
			</g>
		</g>
		<path class="st12" d="M225.95,290c3.77,0,7.62-0.04,11.21-1.2c0.27-0.85-0.24-1.8-0.98-2.31c-0.74-0.5-1.66-0.66-2.54-0.78
			c-3.03-0.4-6.08-0.49-9.13-0.58c-11.87-0.36-23.75-0.71-35.63-0.79c-1.49-0.01-7.71,0.39-5.94,3.41c1.18,2.02,6.68,1.32,8.6,1.41
			c7.31,0.35,14.64,0.59,21.96,0.72C217.64,289.96,221.79,290,225.95,290z"/>
		<g>
			<path class="st32" d="M235.61,169.86c0,0,0.66-10.51-18.38-9.76c-0.37,0.01-0.73,0.03-1.08,0.04c-0.13,0.07-0.26,0.15-0.39,0.22
				c-0.27,0.7-0.5,1.42-0.69,2.14c-0.05,0.2-0.11,0.51-0.15,0.8c-0.13,1.14-0.09,0.64,0,0c0.03-0.23,0.06-0.53,0.1-0.9
				c-0.05,0.47-0.16,0.93-0.22,1.4c-0.58,4.2-0.45,8.43-0.82,12.64c-0.31,3.59-1.05,7.17-1.82,10.73c0.74-0.03,1.59-0.03,2.07,0.15
				c0.95,0.35,1.41,87.43-0.23,92.86l7.58,0.08C221.56,280.25,236.25,190.81,235.61,169.86z"/>
			<g>
				<path class="st33" d="M214.82,120.98c-2.21-0.32-4.57,0.85-5.65,2.81c-0.69,1.26-0.87,2.73-1.05,4.16
					c-0.63,5.08-1.43,10.15-2.39,15.18c-0.65,3.41-0.72,10.19-5.55,10.53c-1.81,0.13-3.66-1.23-5.44-1.51
					c-2.92-0.46-5.67-0.62-8.49-1.65c-2.27-0.83-3.79-2.03-5.49-3.68c-1.03-1-2.45-2.97-3.82-3.35c-0.98-0.27-2.22,0.87-1.6,1.67
					c-1.22-0.73-2.96,0.44-3.01,1.86c-0.11,2.72,5.26,4.27,7.16,5.45c2.95,1.83,5.84,3.78,9.04,5.16
					c5.03,2.16,10.48,3.37,15.96,3.48c0.97,0.02,1.99-0.01,2.81-0.52c1.76-1.08,2.72-3.62,4.05-5.17c1.24-1.44,1.9-2.41,2.47-4.3
					c1.56-5.17,2.92-10.5,3.94-15.8C218.71,130.81,222.03,122.03,214.82,120.98z"/>
				<path class="st32" d="M192.61,201.13c0.13,3.36,0.35,6.71,0.57,10.07c0.33,5.02,0.66,10.04,0.99,15.05
					c0.11,1.6,0.25,3.32,1.23,4.59c0.1,0.13,0.22,0.26,0.37,0.32c0.52,0.2,0.93-0.46,1.11-0.99c2.09-6.31,5.2-12.29,9.18-17.62
					c1.01-1.36,2.12-2.71,3.59-3.56c1.11-0.64,2.36-0.96,3.6-1.27c2.48-0.62,4.96-1.25,7.44-1.87c1.45-0.37,2.96-0.76,4.1-1.73
					c0.9-0.77,1.49-1.82,2.06-2.86c2.89-5.23,5.82-10.54,7.29-16.34c1.08-4.23,1.35-8.62,1.28-12.99c-0.01-0.43-0.02-0.88-0.18-1.28
					c-0.21-0.56-0.68-0.98-1.18-1.31c-1.87-1.24-4.23-1.39-6.47-1.49c-8.5-0.38-17.17-0.56-25.51,1.44
					c-2.56,0.61-6.93,1.23-8.17,3.95c-1.52,3.34-1.06,8.51-1.24,12.12C192.45,190.61,192.42,195.87,192.61,201.13z"/>
				<g>
					<g>
						<path class="st32" d="M209.97,195.3c-4.76-0.64-9.51-1.28-14.27-1.92c-0.24-0.6,0.95,0.02,0.87,0.65
							c-2.49,19.87-1.54,40.04,0.45,60.04c0.86,8.62,0.92,17.26,0.02,25.85c1.96,0.21,5.33,0.52,7.29,0.73
							c3.6-26.77,5.79-53.63,9.4-80.39c0.18-1.35,0.29-2.92-0.75-3.91C212.21,195.63,211.05,195.45,209.97,195.3z"/>
					</g>
				</g>
				<path class="st33" d="M203.8,107.64c2.84-0.1,5.74-2.02,8.8-2.65c-0.8-2.48,0.16-5.13,0.42-7.73c0.34-3.51-0.63-6.99-1.65-10.36
					c-0.83-2.72-1.75-5.52-3.7-7.59c-0.39-0.41-0.83-0.8-1.38-0.94c-0.47-0.12-0.96-0.05-1.44,0.03c-3.36,0.52-12.67,0.9-13.56,4.67
					c-1.21,5.17,2.34,12.01,4.33,16.57c0.94,2.15,1.91,4.35,3.56,6.02C200.71,107.21,202.24,107.7,203.8,107.64z"/>
				<path class="st34" d="M236.33,181.46l0.06-0.05c0.04-0.04,0.07-0.07,0.1-0.11c0.07-0.11,0.15-0.22,0.23-0.33
					c1-1.53,1.86-3.13,2.74-4.74c1.65-18.56-0.46-37.29-6.27-55.52c-1.83-5.73-3.63-12.03-10.47-15.97c-0.35-0.2-0.72-0.4-1.17-0.47
					c-0.57-0.09-1.16,0.05-1.71,0.19c-3.69,0.95-7.38,1.89-11.08,2.84c-0.74,0.19-1.47,0.38-2.22,0.55
					c-0.78,0.18-1.57,0.33-2.38,0.45c-1.36,0.19-6.77,1.48-6.96,2.78c-0.47,3.32-0.9,6.63-1.28,9.96
					c-0.94,8.21-1.65,16.41-1.62,24.65c0.03,8.21-0.73,16.41-2.08,24.55c-0.1,0.63-0.59,3.94-1.18,7.33
					c0.03,0.06,0.06,0.12,0.09,0.18c0.48,0.9,0.99,1.77,1.55,2.62c0.05,0.08,0.15,0.22,0.26,0.36c0.05,0.06,0.1,0.12,0.13,0.16
					c0.64,0.73,1.33,1.42,2.06,2.06c0.06,0.05,0.16,0.14,0.27,0.25c-1-0.94,0.06,0.01,0.36,0.21c0.76,0.51,1.54,0.97,2.35,1.39
					c0.2,0.11,1.02,0.45,1.1,0.5c0.08,0.03,0.17,0.06,0.26,0.09c11.58-0.48,23.13-1.3,34.59-2.45
					C234.78,182.43,235.56,181.85,236.33,181.46z"/>
				<path class="st35" d="M197.56,279.18c-0.12,0-0.24,0-0.34,0.02c-0.15,0.04-0.25,0.13-0.34,0.22c-0.42,0.41-0.73,0.87-0.89,1.36
					c-0.16,0.45-0.2,0.94-0.54,1.34c-0.38,0.45-1.07,0.72-1.74,0.94c-1.75,0.57-3.62,0.96-5.54,1.14c-0.43,0.04-0.86,0.07-1.25,0.2
					c-1.09,0.37-1.36,1.34-1.51,2.18c-0.04,0.24-0.05,0.54,0.24,0.67c0.16,0.07,0.36,0.08,0.55,0.08c5.48-0.01,7.82-0.01,13.31-0.02
					c1.34,0,2.72-0.04,4.01-0.27c0.17-0.03,0.36-0.07,0.49-0.16c0.14-0.09,0.2-0.23,0.25-0.37c0.72-1.89,0.81-3.94,0.65-5.89
					c-0.05-0.61-0.16-1.11-1.12-1.24c-1.37-0.19,0.13-0.04-1.26-0.08C200.87,279.26,199.22,279.22,197.56,279.18z"/>
				<path class="st36" d="M221.27,88.25c0.02-1.69-0.95-3.21-1.78-4.69c-1.38-2.46-2.46-5.1-4.15-7.35
					c-1.69-2.25-4.18-4.13-6.99-4.22c-1.17-0.03-2.33,0.24-3.47,0.52c-4.86,1.17-9.77,2.36-14.19,4.69
					c-0.55,0.29-1.12,0.62-1.46,1.14c-0.31,0.46-0.41,1.02-0.51,1.57c-0.14,0.77-0.27,1.54-0.41,2.31
					c-0.09,0.48-0.17,0.98-0.08,1.46c0.28,1.47,2.03,2.13,3.52,2.21c1.48,0.09,2.97-0.13,4.44-0.34c1.41-0.2,4.74-1.37,5.89-0.09
					c0.57,0.63,0.4,1.68,0.78,2.43c0.47,0.92,1.36,1.47,1.95,2.29c0.62,0.76,1.04,1.83,0.59,2.7c0.83-0.49,1.85-0.64,2.79-0.42
					c0.33,0.08,0.66,0.21,0.88,0.47c0.42,0.5,0.23,1.3-0.22,1.77c-0.45,0.47-1.1,0.69-1.72,0.89c2.66,2.58,3.64,6.75,2.41,10.25
					c2.05-0.21,3.75-1.63,5.16-3.13c1.28-1.35,2.45-2.82,3.25-4.5c0.37-0.78,0.66-1.59,0.95-2.4c0.58-1.62,1.15-3.23,1.73-4.85
					C220.94,90.09,221.26,89.19,221.27,88.25z"/>
			</g>
			<path class="st35" d="M214.6,279.35c-0.12,0-0.24-0.01-0.34,0.02c-0.15,0.04-0.25,0.13-0.34,0.22c-0.42,0.41-0.73,0.87-0.89,1.36
				c-0.16,0.45-0.2,0.94-0.54,1.34c-0.38,0.45-1.07,0.72-1.74,0.94c-1.75,0.57-3.62,0.96-5.54,1.14c-0.43,0.04-0.86,0.07-1.25,0.2
				c-1.09,0.37-1.36,1.34-1.51,2.18c-0.04,0.24-0.05,0.54,0.24,0.67c0.16,0.07,0.36,0.08,0.55,0.08c5.48-0.01,7.82-0.01,13.31-0.02
				c1.34,0,2.72-0.04,4.01-0.27c0.17-0.03,0.36-0.07,0.49-0.15c0.14-0.09,0.2-0.23,0.25-0.37c0.72-1.89,0.81-3.94,0.65-5.89
				c-0.05-0.61-0.16-1.11-1.12-1.24c-1.37-0.19,0.13-0.04-1.26-0.08C217.91,279.43,216.25,279.39,214.6,279.35z"/>
			<g>
				<g>
					<g>
						<g>
							<path class="st12" d="M176.43,148.57c-0.57,1.14-1.21,2.25-1.92,3.32c-0.1,0.15-0.21,0.31-0.38,0.35
								c-0.18,0.05-0.36-0.03-0.53-0.12c-1.89-0.94-3.79-1.87-5.68-2.81c0.44-4.47,0.2-9.89,1.49-14.15
								c0.18-0.61,9.52,1.03,10.14,2.72c0.61,1.68-1.12,5.76-1.7,7.37C177.44,146.39,176.96,147.49,176.43,148.57z"/>
						</g>
					</g>
					<path class="st37" d="M168.76,135.65c0.27,0.06,0.54,0.07,0.82,0.09c0.58,0.05,1.16,0.17,1.73,0.3
						c2.81,0.64,5.54,1.58,8.23,2.61c0.18,0.07,0.36,0.14,0.55,0.11c0.29-0.04,0.51-0.31,0.58-0.6c0.07-0.29,0.03-0.59-0.01-0.88
						c-0.01-0.06-0.02-0.12-0.05-0.16c-0.03-0.04-0.09-0.07-0.14-0.09c-0.14-0.06-0.27-0.11-0.41-0.16
						c-0.63-0.24-1.28-0.42-1.93-0.61c-2.8-0.78-5.62-1.51-8.46-2.17c-0.15-0.03-0.31-0.06-0.44,0.02c-0.22,0.15-0.33,0.54-0.4,0.79
						C168.77,135.11,168.46,135.58,168.76,135.65z"/>
				</g>
				<polygon class="st14" points="168.63,143.65 177.02,147.29 178.72,142.87 168.63,138.77 				"/>
			</g>
			<g>
				<path class="st36" d="M200.13,93.38c-0.05-0.18-0.26-0.36-0.47-0.34c-2.09,0.21-4.15,0.69-6.18,1.2c-0.7,0.18-0.4,1.21,0.3,1.03
					c1.83-0.48,3.68-0.83,5.52-1.23c0.24,0.95,0.44,1.9,0.55,2.88c0.05,0.43,0.07,0.87,0.08,1.3c0.01,0.78-1.16,0.85-1.67,0.94
					c-0.62,0.12-1.25,0.15-1.88,0.18c-0.93,0.04-0.98-0.38-1.33-0.98c-0.53-0.91-0.95-1.89-1.31-2.87
					c-0.11-0.31-0.62-0.19-0.52,0.14c0.41,1.41,0.94,2.84,1.73,4.11c0.57,0.91,2.69,0.36,3.55,0.24c0.96-0.14,2.19-0.35,2.31-1.45
					C201,96.86,200.57,95,200.13,93.38z"/>
				<path class="st36" d="M205.15,91.54c-1.79,0.68-3.54,1.72-5.25,2.59c-0.33,0.17-0.1,0.7,0.25,0.59
					c1.82-0.61,3.79-1.12,5.54-1.92C206.39,92.48,205.88,91.26,205.15,91.54z"/>
			</g>
			<path class="st33" d="M220.77,121.11c-0.71-2.7-3.65-8.36-6.76-4.29c-0.95,1.24-1.17,2.88-1.36,4.43
				c-1.52,12.49-3.03,24.97-4.55,37.46c-0.79,6.51-1.65,13.23-5.03,18.85c-0.54,0.9-1.15,1.78-1.42,2.8
				c-0.27,1.01-0.11,2.22,0.69,2.9c-1.1,1.38-0.19,4.35,1.82,4.19c0.43-0.03,0.83-0.23,1.18-0.47c2.01-1.39,1.52-3.99,1.98-6.14
				c0.63-2.93,1.54-5.8,2.44-8.66c3.46-11,7.79-21.73,10.1-32.98C221.1,133.24,222.31,127.01,220.77,121.11z"/>
			<path class="st14" d="M212.91,114.37c-0.78,0.18-1.58,0.38-2.18,0.9c-0.77,0.68-1.03,1.76-1.24,2.77
				c-2.35,11.3-4.14,22.72-5.36,34.2c3.89,0.98,7.78,1.97,11.67,2.95c4.95-10.74,7.16-22.73,6.37-34.53
				c-0.14-2.1-0.49-4.43-2.13-5.76C218.13,113.34,215.32,113.82,212.91,114.37z"/>
		</g>
	</g>
	<g>
		<g>
			<g>
				<g>
					<defs>
						<polygon id="SVGID_00000067917431465209862080000005327529018468861605_" points="1,1 2,1 1,2 						"/>
					</defs>
					<clipPath id="SVGID_00000116951241693645900510000014483215313800057518_">
						<use xlink:href="#SVGID_00000067917431465209862080000005327529018468861605_"  style="overflow:visible;"/>
					</clipPath>
				</g>
				<g>
					<defs>
						<polygon id="SVGID_00000003791076620606360930000010997602196074457274_" points="1,1 2,1 1,2 						"/>
					</defs>
					<defs>
						<polygon id="SVGID_00000143577953177917280960000007700485794485539721_" points="-1,-1 -2,-1 -1,-2 						"/>
					</defs>
					<clipPath id="SVGID_00000107547720119518867800000015113518279004621241_">
						<use xlink:href="#SVGID_00000003791076620606360930000010997602196074457274_"  style="overflow:visible;"/>
					</clipPath>
					
						<clipPath id="SVGID_00000060019642799280742370000016683085761538374293_" style="clip-path:url(#SVGID_00000107547720119518867800000015113518279004621241_);">
						<use xlink:href="#SVGID_00000143577953177917280960000007700485794485539721_"  style="overflow:visible;"/>
					</clipPath>
					<defs>
						
							<filter id="Adobe_OpacityMaskFilter_00000033343603873813191220000013028100132678097307_" filterUnits="userSpaceOnUse" x="18.8" y="283.33" width="52.37" height="5.57">
							<feColorMatrix  type="matrix" values="1 0 0 0 0  0 1 0 0 0  0 0 1 0 0  0 0 0 1 0"/>
						</filter>
					</defs>
					
						<mask maskUnits="userSpaceOnUse" x="18.8" y="283.33" width="52.37" height="5.57" id="SVGID_00000102520771053270772580000004704808789454953389_">
						<g style="filter:url(#Adobe_OpacityMaskFilter_00000033343603873813191220000013028100132678097307_);">
							<g>
								<g>
									<defs>
										<polygon id="SVGID_00000017499887009021401050000006841273907576349354_" points="1,1 2,1 1,2 										"/>
									</defs>
									<defs>
										<polygon id="SVGID_00000031919528902491931180000002935873008519331714_" points="-1,-1 -2,-1 -1,-2 										"/>
									</defs>
									
										<clipPath id="SVGID_00000160899042046357766570000010143867256491939772_" style="clip-path:url(#SVGID_00000060019642799280742370000016683085761538374293_);">
										<use xlink:href="#SVGID_00000017499887009021401050000006841273907576349354_"  style="overflow:visible;"/>
									</clipPath>
									
										<clipPath id="SVGID_00000129194727512691841920000014058271602700078521_" style="clip-path:url(#SVGID_00000160899042046357766570000010143867256491939772_);">
										<use xlink:href="#SVGID_00000031919528902491931180000002935873008519331714_"  style="overflow:visible;"/>
									</clipPath>
								</g>
								<g>
									<defs>
										<polygon id="SVGID_00000129163531382068808630000000904623043024500379_" points="1,1 2,1 1,2 										"/>
									</defs>
									<defs>
										<polygon id="SVGID_00000090996165564136622870000012816063744468133040_" points="-1,-1 -2,-1 -1,-2 										"/>
									</defs>
									<defs>
										<polygon id="SVGID_00000121240075199236726450000015775742647488896422_" points="1,1 2,1 1,2 										"/>
									</defs>
									
										<clipPath id="SVGID_00000107548277140409236110000017574227743349939624_" style="clip-path:url(#SVGID_00000060019642799280742370000016683085761538374293_);">
										<use xlink:href="#SVGID_00000129163531382068808630000000904623043024500379_"  style="overflow:visible;"/>
									</clipPath>
									
										<clipPath id="SVGID_00000027588198109935264490000000768498464719117964_" style="clip-path:url(#SVGID_00000107548277140409236110000017574227743349939624_);">
										<use xlink:href="#SVGID_00000090996165564136622870000012816063744468133040_"  style="overflow:visible;"/>
									</clipPath>
									
										<clipPath id="SVGID_00000075162456538647444710000010792151766139939251_" style="clip-path:url(#SVGID_00000027588198109935264490000000768498464719117964_);">
										<use xlink:href="#SVGID_00000121240075199236726450000015775742647488896422_"  style="overflow:visible;"/>
									</clipPath>
								</g>
								<g>
									<defs>
										<polygon id="SVGID_00000096761291517729346070000017855183709799209144_" points="1,1 2,1 1,2 										"/>
									</defs>
									<defs>
										<polygon id="SVGID_00000047765049939073802100000001058881415020768700_" points="-1,-1 -2,-1 -1,-2 										"/>
									</defs>
									<defs>
										<polygon id="SVGID_00000021803947246569049920000005410322369725392278_" points="1,1 2,1 1,2 										"/>
									</defs>
									<defs>
										<polygon id="SVGID_00000067920477836897550950000011709001077448142762_" points="-1,-1 -2,-1 -1,-2 										"/>
									</defs>
									
										<clipPath id="SVGID_00000005988956270757470630000010009892424315999153_" style="clip-path:url(#SVGID_00000060019642799280742370000016683085761538374293_);">
										<use xlink:href="#SVGID_00000096761291517729346070000017855183709799209144_"  style="overflow:visible;"/>
									</clipPath>
									
										<clipPath id="SVGID_00000049212048429105397050000006328758794875340193_" style="clip-path:url(#SVGID_00000005988956270757470630000010009892424315999153_);">
										<use xlink:href="#SVGID_00000047765049939073802100000001058881415020768700_"  style="overflow:visible;"/>
									</clipPath>
									
										<clipPath id="SVGID_00000049205160931128695480000015311642265898734505_" style="clip-path:url(#SVGID_00000049212048429105397050000006328758794875340193_);">
										<use xlink:href="#SVGID_00000021803947246569049920000005410322369725392278_"  style="overflow:visible;"/>
									</clipPath>
									
										<clipPath id="SVGID_00000124151922697380301070000012939140425529740687_" style="clip-path:url(#SVGID_00000049205160931128695480000015311642265898734505_);">
										<use xlink:href="#SVGID_00000067920477836897550950000011709001077448142762_"  style="overflow:visible;"/>
									</clipPath>
									
										<linearGradient id="SVGID_00000016791796712195657230000011449895121954078900_" gradientUnits="userSpaceOnUse" x1="18.8021" y1="286.1201" x2="71.17" y2="286.1201">
										<stop  offset="0" style="stop-color:#4D4D4D"/>
										<stop  offset="1" style="stop-color:#000000"/>
									</linearGradient>
									
										<path style="clip-path:url(#SVGID_00000124151922697380301070000012939140425529740687_);fill:url(#SVGID_00000016791796712195657230000011449895121954078900_);" d="
										M52.21,288.34c3.94-0.13,7.88-0.25,11.81-0.54c1.91-0.14,3.86-0.33,5.58-1.16c0.94-0.45,1.9-1.44,1.46-2.39
										c-0.36-0.79-1.42-0.91-2.29-0.91c-14.22-0.02-28.46-0.04-42.65,0.9c-2.57,0.17-5.49,0.56-6.95,2.68
										c-1.81,2.62,3.59,1.89,4.7,1.9c3.11,0.04,6.23,0.03,9.34-0.01C39.55,288.75,45.88,288.54,52.21,288.34z"/>
								</g>
							</g>
						</g>
					</mask>
					
						<linearGradient id="SVGID_00000168098864219855237760000007698834717891020956_" gradientUnits="userSpaceOnUse" x1="18.8021" y1="286.1201" x2="71.17" y2="286.1201">
						<stop  offset="0" style="stop-color:#4D4D4D"/>
						<stop  offset="1" style="stop-color:#000000"/>
					</linearGradient>
					
						<path style="clip-path:url(#SVGID_00000060019642799280742370000016683085761538374293_);mask:url(#SVGID_00000102520771053270772580000004704808789454953389_);fill:url(#SVGID_00000168098864219855237760000007698834717891020956_);" d="
						M52.21,288.34c3.94-0.13,7.88-0.25,11.81-0.54c1.91-0.14,3.86-0.33,5.58-1.16c0.94-0.45,1.9-1.44,1.46-2.39
						c-0.36-0.79-1.42-0.91-2.29-0.91c-14.22-0.02-28.46-0.04-42.65,0.9c-2.57,0.17-5.49,0.56-6.95,2.68
						c-1.81,2.62,3.59,1.89,4.7,1.9c3.11,0.04,6.23,0.03,9.34-0.01C39.55,288.75,45.88,288.54,52.21,288.34z"/>
				</g>
			</g>
		</g>
		<path class="st12" d="M52.21,288.34c3.94-0.13,7.88-0.25,11.81-0.54c1.91-0.14,3.86-0.33,5.58-1.16c0.94-0.45,1.9-1.44,1.46-2.39
			c-0.36-0.79-1.42-0.91-2.29-0.91c-14.22-0.02-28.46-0.04-42.65,0.9c-2.57,0.17-5.49,0.56-6.95,2.68c-1.81,2.62,3.59,1.89,4.7,1.9
			c3.11,0.04,6.23,0.03,9.34-0.01C39.55,288.75,45.88,288.54,52.21,288.34z"/>
		<g>
			<g>
				<path class="st0" d="M80.99,146.98c0.36,0.33,0.75,0.65,1.22,0.79c0.65,0.18,1.33-0.04,1.97-0.25c0.42-0.14,0.84-0.29,1.27-0.43
					c0.16-0.06,0.34-0.12,0.44-0.27c0.1-0.15,0.08-0.34,0.07-0.52c-0.41-3.96-1.17-7.88-2.25-11.71c-1.74,0.8-3.47,1.61-5.21,2.41
					c-0.93,0.43-4.1,1.29-4.16,2.44c-0.07,1.15,2.18,3.04,2.9,3.82C78.41,144.56,79.67,145.81,80.99,146.98z"/>
				<path class="st36" d="M81.81,133.85c0.52-0.21,1.07-0.43,1.62-0.36c0.56,0.08,1.1,0.57,1.01,1.12c-0.06,0.4-2.13,1.34-2.51,1.56
					c-0.91,0.53-1.83,1.03-2.77,1.5c-0.94,0.47-1.89,0.91-2.86,1.32c-0.54,0.23-1.69,0.95-2.31,0.74c-2.3-0.8,1.7-2.99,2.4-3.38
					C78.13,135.37,79.97,134.61,81.81,133.85z"/>
			</g>
			<g>
				<path class="st16" d="M61.57,281.58c-0.85,0.06-1.72,0.12-2.54-0.1s-1.6-0.77-1.86-1.58c-0.22-0.69-0.11-1.59-0.72-1.99
					c-0.14-0.09-0.3-0.14-0.46-0.17c-0.08-14.37,0.27-22.68,0.17-37.33c0.73-4.88,0.29-9.41,0.18-14.13
					c-0.35-14.93-0.7-29.85-1.04-44.78c-0.05-1.98-0.11-4.03-1.09-5.88c-1.58-2.98-5.12-4.67-8.43-5.95
					c-9.84-3.84-20.98-9.34-23.7,3.02c-0.72,3.27-1.32,6.57-1.81,9.9c-0.35,2.37-0.62,4.85,0.24,7.21c1.47,4,4.2,13.83,7.66,16.73
					c9,7.56,12.92,16.13,15.89,26.17c-0.93,3.35,0.16,8.1,0.57,10.69c1.93,12.41,5.89,23.97,7.83,36.38
					c-0.82,1.53-1.17,3.31-0.94,5.04c0.05,0.35,0.12,0.71,0.36,0.97c0.33,0.37,0.88,0.44,1.38,0.48c1.39,0.1,2.78,0.14,4.17,0.11
					c1.08-0.02,2.24-0.12,3.05-0.82C61.54,284.61,61.6,282.99,61.57,281.58z"/>
				<path class="st16" d="M49.85,196.66c-2.77-6.1-12.88-10.2-22.44-3.24c-5.7,4.15-1.37,8.8-0.11,12.9c1.54,5,2.54,10.15,3.02,15.4
					c0.92,10.1-0.12,20.57-3.13,31.07c-2.01,6.98-2.05,14.63-3.43,21.59c-0.77,3.89-3.19,9.08-2.63,12.96
					c2.15,0.02,4.31,0.04,6.46,0.06c1.9,0.02,3.93,0,5.52-1.04s2.37-3.52,1.04-4.87c-1.31,0.43-2.7,0.87-4.05,0.55
					c-5.95-1.41,1.82-14.84,2.95-17.81c4.85-12.62,9.69-25.26,13.19-37.9C48.8,217.12,53.64,205,49.85,196.66z"/>
				<path class="st49" d="M51.67,129.34c2.35,5.78,4.71,11.56,7.06,17.33c0.64,1.58,1.3,3.27,0.99,4.95
					c-0.55,2.95-3.78,4.55-6.71,5.21c-5.79-8.21-11.88-16.21-18.26-23.98c-3.63-4.42-9.28-14.62-0.95-17.69
					C43.24,111.69,48.85,122.42,51.67,129.34z"/>
				<path class="st34" d="M72.86,120.55c0.76-1.14,1.87-0.62,2.83,0.35c-2.68,9.73-5.07,19.53-7.18,29.4
					c-0.65,3.06-1.48,6.44-4.07,8.19c-1.11,0.75-2.43,1.11-3.75,1.33c-2.37,0.41-5.24,0.2-6.57-1.8c-1.91-2.87,0.45-5.65,2.33-7.64
					c2.22-2.34,3.16-3.85,4.52-7.02C64.14,136.02,68.42,127.21,72.86,120.55z"/>
				<path class="st15" d="M77.35,120.09c0.21-0.28,0.34-0.61,0.47-0.93c0.34-0.85,0.67-1.7,1.01-2.55c0.15-0.39,0.31-0.78,0.33-1.19
					c0.03-0.41-0.09-0.86-0.41-1.13c-0.29-0.25-0.71-0.31-1.09-0.23c-0.38,0.08-0.71,0.29-1.02,0.52c-0.69,0.53-1.26,1.22-1.64,2
					c-0.3,0.62-0.51,1.32-0.99,1.81c-0.22,0.22-0.48,0.39-0.67,0.64c-0.28,0.37-0.35,0.9-0.17,1.33
					C73.79,121.78,76.61,121.08,77.35,120.09z"/>
				<path class="st50" d="M62.03,198.7c-0.98-20.99-3.16-41.92-6.01-62.76c-1.04-7.65-2.29-16.74-10.3-20.32
					c-7.42-3.32-16.54-4.16-21.37,3.29c-2.7,4.18-3.32,9.25-3.88,14.13c-3.41,29.99-6.82,59.98-10.24,89.97
					c3.75,0.22,48.57,6.86,48.78,4.06c0-0.04,0.01-0.07,0.01-0.11c0.29-0.02,0.57-0.07,0.82-0.19c1-0.45,1.3-1.65,1.46-2.69
					C62.62,215.71,62.42,207.18,62.03,198.7z"/>
				<g>
					<path class="st15" d="M75.85,143.72c0.1-0.22,0.17-0.45,0.31-0.64c0.29-0.41,0.81-0.58,1.31-0.63s1-0.01,1.49-0.1
						c1.53-0.28,2.78-1.79,4.31-1.56c0.47,0.07,0.91,0.31,1.3,0.6c0.51,0.37,0.98,0.86,1.11,1.47c0.2,0.97-0.48,1.88-1.12,2.63
						c-0.35,0.42-0.72,0.84-1.2,1.1c-0.4,0.21-0.85,0.29-1.29,0.39c-1.09,0.25-2.16,0.66-3.01,1.38c-0.7,0.6-1.29,1.45-2.19,1.67
						c-1.6,0.4-3.12-1.37-3.3-2.83C73.37,145.71,75.29,144.94,75.85,143.72z"/>
					<path class="st34" d="M76.92,148.87c-0.7-1.41-1.4-2.83-2.11-4.24c-2.22,0.37-3.88,2.13-5.48,3.72
						c-2.2,2.18-4.58,4.18-7.1,5.98c-1.48,1.05-3.2,2.08-5,1.81c-2.2-0.34-3.61-2.47-4.74-4.39c-4.23-7.25-8.47-14.49-12.7-21.74
						c-3.35-5.73-7.11-3.64-9.51,1.51c-2.18,4.69,0.64,9.97,2.79,14.21c2.79,5.47,5.87,10.8,9.23,15.94
						c1.97,3.02,4.36,6.2,7.88,7.01c1.7,0.39,3.48,0.17,5.15-0.31c5.39-1.54,9.68-5.55,13.64-9.52c2.58-2.58,5.11-5.19,7.61-7.84
						c0.28-0.29,0.57-0.61,0.62-1.01C77.27,149.61,77.09,149.23,76.92,148.87z"/>
				</g>
				<path class="st15" d="M52.89,86.75c-0.89-2.63-2.27-5.86-5.12-6.54c-3.09-0.74-7.43,1.3-9.66,3.25
					c-2.76,2.41-4.49,5.82-5.46,9.35c-1.05,3.85-1.23,8.12,0.5,11.72c1.72,3.6,5.67,6.31,9.62,5.72c2.64-0.39,4.9-2.13,6.63-4.17
					C53.83,100.85,55.07,93.21,52.89,86.75z"/>
				<path class="st37" d="M39.65,96.62c-0.88-1.54-3.55-1.47-4.34,0.11c-0.59,1.18,1.53,5.97,1.84,7.43
					c0.83,3.91-3.37,30.55-2.3,34.4c-6.3,0.14-12.65-0.55-18.64-2.47c-0.62-0.2-1.26-0.43-1.68-0.92c-0.55-0.65-0.57-1.59-0.54-2.44
					c0.47-12.64,12.13-55.63,27.78-55.26c1.93,0.05,3.83,0.47,5.71,0.93c1.23,0.3,2.48,0.63,3.58,1.26c2.28,1.31,3.68,3.8,4.26,6.37
					c0.58,2.56,0.44,5.23,0.3,7.85c-0.04,0.8-9.44-0.02-10.33-0.16c-1.02-0.16-2.92-0.96-3.93-0.53
					C40.2,93.69,40.04,95.55,39.65,96.62z"/>
				<path class="st51" d="M25.97,179.27c-2.7-0.52-5.17-1.85-7.6-3.16c0.39-1.18,0.78-2.36,1.16-3.54
					c11.07,3.98,23.63,3.63,34.47-0.96c0.17,1.86,0.34,3.73,0.51,5.59c-2.94,0.62-5.93,0.87-8.92,1.12
					c-4.07,0.34-8.15,0.67-12.22,1.01C30.91,179.54,28.4,179.74,25.97,179.27z"/>
			</g>
		</g>
	</g>
</g>
</svg>
