<?xml version="1.0" encoding="utf-8"?>
<!-- Generator: Adobe Illustrator 26.0.0, SVG Export Plug-In . SVG Version: 6.00 Build 0)  -->
<svg version="1.1" id="Ebene_1" xmlns="http://www.w3.org/2000/svg" xmlns:xlink="http://www.w3.org/1999/xlink" x="0px" y="0px"
	 viewBox="0 0 251 312" style="enable-background:new 0 0 251 312;" xml:space="preserve">
<style type="text/css">
	.st0{fill:none;}
	.st1{opacity:6.000000e-02;enable-background:new    ;}
	.st2{fill:#EABB8B;}
	.st3{fill:#C59D76;}
	.st4{fill:#B8926E;}
	.st5{fill:#E4EBE5;}
	.st6{fill:#FFFFFF;}
	.st7{fill:#E8EEE9;}
	.st8{fill:#DAE0DB;}
	.st9{fill:#F3BEC0;}
	.st10{fill:#4358A4;}
	.st11{fill:#7A6353;}
	.st12{fill:#8E7461;}
	.st13{fill:#655044;}
	.st14{fill:#D6DCD7;}
	.st15{fill:#355E71;}
	.st16{fill:#C9C9C9;}
	.st17{fill:#9C7D62;}
	.st18{fill:#C1C1C1;}
	.st19{fill:#E9D5C5;}
	.st20{fill:#171836;}
	.st21{fill:#E8E8E8;}
	.st22{fill:#EC928E;}
	.st23{fill:#EEEEEE;}
	.st24{fill:#8EA7D9;}
	.st25{fill:#A5B7E1;}
	.st26{fill:#888888;}
</style>
<rect x="-0.5" y="-0.5" class="st0" width="251" height="312"/>
<g>
	<path class="st1" d="M215.6,276.4l-2.4,0.5c-3.5-3.8-10.6-5.8-14.2-6.9c-38-11.3-78.3-11.8-118-10.8c-19.5,0.5-39.7,1.5-56.9,10.6
		c-5.2,2.7-10.5,7.2-10.1,13c0.2,3.6,2.8,6.8,5.9,8.7s6.8,2.6,10.4,3.2c20.1,3.3,40.5,2.4,61,1.2c29.5,1.5,59.1,0.4,88.4-3.2
		c11.6-0.7,23.1-1.7,34.6-3.6c2.4-0.4,5.2-1.1,6.4-3.3C222.6,282.4,218.9,278.6,215.6,276.4z"/>
	<g>
		<g>
			<path class="st2" d="M167.2,138.5c-0.5-0.5-0.9-1.3-1.1-2.1c-0.2-0.7-0.4-1.4-0.4-2.1c-0.1-1.3,0.1-2.6,0.5-3.9
				c0.3-0.9,0.7-1.7,1.2-2.3s1.2-1.1,1.9-1.2c1.3-0.2,2.7,0.7,3.4,2.1c0.6,1.1,0.8,2.4,1,3.8c0.1,1,0.2,2.1,0.1,3.1s-0.5,2-1.2,2.6
				c-0.4,0.3-0.8,0.5-1.2,0.6c-0.8,0.2-1.6,0.4-2.4,0.2C168.4,139.1,167.8,139.1,167.2,138.5z"/>
		</g>
		<g>
			<path class="st2" d="M184.5,138.5c-0.5-0.5-0.9-1.3-1.1-2.1c-0.2-0.7-0.4-1.4-0.4-2.1c-0.1-1.3,0.1-2.6,0.5-3.9
				c0.3-0.9,0.7-1.7,1.2-2.3s1.2-1.1,1.9-1.2c1.3-0.2,2.7,0.7,3.4,2.1c0.6,1.1,0.8,2.4,1,3.8c0.1,1,0.2,2.1,0.1,3.1s-0.5,2-1.2,2.6
				c-0.4,0.3-0.8,0.5-1.2,0.6c-0.8,0.2-1.6,0.4-2.4,0.2C185.7,139.1,185.1,139.1,184.5,138.5z"/>
		</g>
		<g>
			<path class="st2" d="M163.6,128.6c1,1.4,1.6,3.1,1.7,4.9c0,1-0.1,2-0.5,2.9c-0.2,0.6-0.6,1.1-0.9,1.6c-0.5,0.8-1.1,1.6-1.9,1.9
				c-0.8,0.3-1.6,0.1-2.3-0.4c-0.7-0.4-1.2-1.1-1.7-1.8c-0.3-0.4-0.5-0.8-0.6-1.2c-0.1-0.4-0.2-0.9-0.2-1.4
				c-0.1-0.9-0.1-1.9,0.1-2.8c0.1-0.4,0.2-0.9,0.4-1.3c0.2-0.5,0.4-1,0.6-1.5c0.4-0.7,0.8-1.4,1.5-1.8c0.6-0.4,1.4-0.7,2.2-0.6
				C162.6,127.4,163.2,128,163.6,128.6z"/>
		</g>
		<g>
			<path class="st2" d="M181.1,128.6c1,1.4,1.6,3.1,1.7,4.9c0,1-0.1,2-0.5,2.9c-0.2,0.6-0.6,1.1-0.9,1.6c-0.5,0.8-1.1,1.6-1.9,1.9
				c-0.8,0.3-1.6,0.1-2.3-0.4c-0.7-0.4-1.2-1.1-1.7-1.8c-0.3-0.4-0.5-0.8-0.6-1.2c-0.1-0.4-0.2-0.9-0.2-1.4
				c-0.1-0.9-0.1-1.9,0.1-2.8c0.1-0.4,0.2-0.9,0.4-1.3c0.2-0.5,0.4-1,0.6-1.5c0.4-0.7,0.8-1.4,1.5-1.8c0.6-0.4,1.4-0.7,2.2-0.6
				C180.1,127.4,180.6,128,181.1,128.6z"/>
		</g>
		<g>
			<g>
				<path class="st3" d="M157.4,137c0.3,0.9,0.6,1.8,1.2,2.6c0.2,0.3,0.5,0.5,0.8,0.6c0.2,0.1,0.4,0.1,0.5,0.1
					c0.7,0,1.4,0.1,2.1,0.1c0.3,0,0.7,0,1-0.1c0.6-0.2,1-0.7,1.3-1.2c0.7-1.1,1.2-2.4,1.3-3.8c0-0.2,0-0.4-0.1-0.5
					c-0.1-0.1-0.2-0.1-0.4-0.1c-1.9-0.3-3.8-0.2-5.7-0.1c-0.5,0-1,0.1-1.4,0.1c-0.3,0-1-0.1-1.2,0.2c-0.2,0.2,0.1,0.7,0.2,0.9
					C157.1,136.1,157.2,136.6,157.4,137z"/>
			</g>
			<g>
				<path class="st3" d="M166,137c0.3,0.9,0.6,1.8,1.2,2.6c0.2,0.3,0.5,0.5,0.8,0.6c0.2,0.1,0.4,0.1,0.5,0.1c0.7,0,1.4,0.1,2.1,0.1
					c0.3,0,0.7,0,1-0.1c0.6-0.2,1-0.7,1.3-1.2c0.7-1.1,1.2-2.4,1.3-3.8c0-0.2,0-0.4-0.1-0.5c-0.1-0.1-0.2-0.1-0.4-0.1
					c-1.9-0.3-3.8-0.2-5.7-0.1c-0.5,0-1,0.1-1.4,0.1c-0.3,0-1-0.1-1.2,0.2c-0.2,0.2,0.1,0.7,0.2,0.9
					C165.7,136.1,165.9,136.6,166,137z"/>
			</g>
			<g>
				<path class="st3" d="M174.7,137c0.3,0.9,0.6,1.8,1.2,2.6c0.2,0.3,0.5,0.5,0.8,0.6c0.2,0.1,0.4,0.1,0.5,0.1
					c0.7,0,1.4,0.1,2.1,0.1c0.3,0,0.7,0,1-0.1c0.6-0.2,1-0.7,1.3-1.2c0.7-1.1,1.2-2.4,1.3-3.8c0-0.2,0-0.4-0.1-0.5
					c-0.1-0.1-0.2-0.1-0.4-0.1c-1.9-0.3-3.8-0.2-5.7-0.1c-0.5,0-1,0.1-1.4,0.1c-0.3,0-1-0.1-1.2,0.2c-0.2,0.2,0.1,0.7,0.2,0.9
					C174.4,136.1,174.6,136.6,174.7,137z"/>
			</g>
			<g>
				<path class="st3" d="M183.3,137c0.3,0.9,0.6,1.8,1.2,2.6c0.2,0.3,0.5,0.5,0.8,0.6c0.2,0.1,0.4,0.1,0.5,0.1
					c0.7,0,1.4,0.1,2.1,0.1c0.3,0,0.7,0,1-0.1c0.6-0.2,1-0.7,1.3-1.2c0.7-1.1,1.2-2.4,1.3-3.8c0-0.2,0-0.4-0.1-0.5
					c-0.1-0.1-0.2-0.1-0.4-0.1c-1.9-0.3-3.8-0.2-5.7-0.1c-0.5,0-1,0.1-1.4,0.1c-0.3,0-1-0.1-1.2,0.2c-0.2,0.2,0.1,0.7,0.2,0.9
					C183,136.1,183.2,136.6,183.3,137z"/>
			</g>
			<g>
				<path class="st4" d="M155.9,134.9c0.5,0.2,1.1,0.3,1.6,0.2c3.8-0.1,7.6,0.1,11.4,0c7.1-0.1,14.3,0.2,21.4-0.2
					c0.6,0,1.2-0.1,1.8-0.4c0.5-0.3-0.1-0.9-0.5-1.3c-2.6,0.2-4.3,0.1-7,0.2c-8.5,0.2-17-0.2-25.5-0.1c-0.9,0-2.4-0.2-3.3,0.1
					C155.1,133.7,155.3,134.6,155.9,134.9z"/>
			</g>
		</g>
	</g>
	<g>
		<g>
			<g>
				<path class="st5" d="M183.2,65.7c-0.3,1.3-0.3,2.7-0.3,4.1c0,1.3,0.1,2.7,0.1,4c0,0.3,0,0.5,0.1,0.8c0.2,0.5,0.8,0.6,1.2,0.7
					c1.1,0.1,2.2,0.2,3.2,0.3c0.6,0.1,1.1,0.1,1.7,0c0.6-0.2,1.1-0.6,1.3-1.2c0.2-0.4,0.2-1,0.2-1.5c0.1-1.8,0.2-3.6,0.2-5.4
					c0.1-1.4,0.1-3.1-0.7-4c-0.6-0.8-1.6-0.9-2.5-0.9C185.9,62.5,183.9,62.8,183.2,65.7z"/>
			</g>
		</g>
		<g>
			<path class="st6" d="M188.7,67.4c0.4,0,0.9,0,1.2,0.4c0.3,0.3,0.4,0.8,0.4,1.3s-0.1,1-0.1,1.5c0,0.7,0,1.3,0,2
				c-0.1,0.7-0.3,1.4-0.7,1.7c-0.3,0.2-0.7,0.3-1.1,0.3c-1.1,0.1-2.3,0.1-3.4,0.2c-0.4,0-0.9,0-1.2-0.4c-0.3-0.4-0.4-1-0.4-1.5
				c0-0.8-0.1-1.7-0.1-2.6c0-0.7-0.1-1.7,0.1-2.4c0.2-0.6,0.7-0.5,1.2-0.5c0.6,0,1.3,0,1.9-0.1C187.3,67.4,188,67.4,188.7,67.4z"/>
		</g>
		<g>
			<path class="st7" d="M236.4,56.2c0-0.6-0.1-1.2-0.5-1.6c-0.8-1-2.4-1.2-3.9-1.3c-6.2-0.3-12.4-0.4-18.6,0c-0.4,0-0.9,0.1-1.1,0.4
				l-0.4,0.5c0,0.5,0.1,1,0.1,1.5c0.1,1.3,0.1,2.7,0.6,3.9c0.8,1.8,2.4,3.3,4.4,4.3c2,0.9,4.3,1.4,6.5,1.5c2,0.1,4-0.1,5.9-0.7
				c2.1-0.7,3.9-2,5.1-3.6C236,59.5,236.6,58.1,236.4,56.2z"/>
		</g>
		<g>
			<path class="st8" d="M236.4,60.4c0-0.6-0.1-1.2-0.5-1.6c-0.8-1-2.5-1.2-3.9-1.3c-6.3-0.3-12.7-0.4-19,0c-0.4,0-0.9,0.1-1.1,0.4
				l-0.4,0.5c0,0.5,0.1,1,0.1,1.5c0.1,1.3,0.1,2.7,0.6,3.9c0.8,1.8,2.5,3.3,4.5,4.3s4.4,1.3,6.7,1.4c2,0.1,4.1-0.1,6-0.7
				c2.1-0.7,4-2,5.2-3.6C235.9,63.7,236.6,62.3,236.4,60.4z"/>
		</g>
		<g>
			<g>
				<path class="st9" d="M210.2,72c0.2,0.4,0.7,0.8,1.3,0.9c0.6,0.2,1.2,0.2,1.8,0.2c4.1,0.1,8.2,0.2,12.3,0.2
					c3.4,0.1,6.8,0.1,10.2-0.1c0.7-0.1,1.4-0.1,2.1-0.3c0.7-0.2,1.4-0.8,1.1-1.4c-0.2-0.6-1.3-0.8-2.1-0.8c-1.1-0.1-2.1-0.1-3.2-0.1
					c-7-0.1-13.9-0.1-20.9,0.1C211.7,70.8,209.7,70.7,210.2,72z"/>
			</g>
		</g>
		<g>
			<path class="st5" d="M210.2,70c0.2,0.4,0.7,0.8,1.3,0.9c0.6,0.2,1.2,0.2,1.8,0.2c4.1,0.1,8.2,0.2,12.3,0.2
				c3.4,0.1,6.8,0.1,10.2-0.1c0.7-0.1,1.4-0.1,2.1-0.3c0.7-0.2,1.4-0.8,1.1-1.4c-0.2-0.6-1.3-0.8-2.1-0.8c-1.1-0.1-2.1-0.1-3.2-0.1
				c-7-0.1-13.9-0.1-20.9,0.1C211.7,68.7,209.7,68.6,210.2,70z"/>
		</g>
		<g>
			<g>
				<path class="st10" d="M210.2,74.3c0.2,0.4,0.7,0.8,1.3,0.9c0.6,0.2,1.2,0.2,1.8,0.2c4.1,0.1,8.2,0.2,12.3,0.2
					c3.4,0.1,6.8,0.1,10.2-0.1c0.7-0.1,1.4-0.1,2.1-0.3c0.7-0.2,1.4-0.8,1.1-1.4c-0.2-0.6-1.3-0.8-2.1-0.8c-1.1-0.1-2.1-0.1-3.2-0.1
					c-7-0.1-13.9-0.1-20.9,0.1C211.7,73.1,209.7,73,210.2,74.3z"/>
			</g>
		</g>
		<g>
			<g>
				<path class="st11" d="M215.6,129.7c0.5,2.9,0.9,5.8,0.7,8.8c0,0.4-0.1,0.8-0.2,1.1c-0.2,0.3-0.4,0.5-0.7,0.7
					c-0.6,0.4-1.4,0.8-2.1,0.9c-0.8,0.1-1.6-0.2-2-0.9c-0.4-0.6-0.4-1.4-0.4-2.1c-0.1-5,0.6-10,1.4-15c0.1-0.7,0-1.6,0.8-1.8
					c0.5-0.1,1.2,0.7,1.4,1.1C215.3,124.3,215.3,127.6,215.6,129.7z"/>
			</g>
			<g>
				<path class="st12" d="M195.7,138.2c-0.1,0.6-0.2,1.2,0,1.8c0.4,0.9,1.6,1.2,2.6,1.3c4.1,0.5,8.2,1.1,12.3,0.8
					c1.1-0.1,2.3-0.3,2.9-1.2c0.4-0.5,0.4-1.2,0.5-1.9c0.1-2,0.3-4.1,0.4-6.1c0.1-1.5,0.2-3.1,0-4.6c-0.2-1.1-0.6-2.2-0.6-3.4
					c-0.1-1.2,0.2-2.7-0.6-3.6c-0.8-0.9-2.1-0.9-3.3-0.9c-3.9,0.1-7.9,0.2-11.8,0.3c-1.4,0-2.1,0.4-2.1,1.7c0.1,1.7,0.4,3.4,0.4,5.2
					C196.5,131.2,196.3,134.7,195.7,138.2z"/>
			</g>
			<g>
				<path class="st13" d="M195.6,122.3c0,0.1,0,0.2,0.1,0.3s0.2,0.1,0.2,0.2c0.6,0.2,1.2,0.2,1.8,0.1c4.7-0.5,9.5-0.6,14.2-0.7
					c0.4,0,0.8,0,1.1-0.2c0.3-0.2,0.6-0.7,0.5-1.1c-0.1-0.5-0.6-0.8-1-0.9c-1-0.3-2.1-0.3-3.1-0.3c-4.2,0.1-8.5,0.9-12.7,0.7
					C195.9,120.1,195.5,121.2,195.6,122.3z"/>
			</g>
			<g>
				<path class="st3" d="M205.3,138.5c1,0.1,2,0.2,3,0c1-0.2,1.9-0.9,2.2-1.9c0.1-0.4,0.1-0.7-0.1-1c-0.3-0.5-0.9-0.7-1.1-1.1
					c-0.1-0.2-0.2-0.5-0.2-0.8c-0.2-1.1-0.6-2.1-1.1-2.9c-0.2-0.2-0.3-0.5-0.6-0.7c-0.2-0.2-0.5-0.2-0.8-0.3
					c-0.8-0.3-1.7-0.6-2.6-0.4c-0.5,0.1-0.9,0.4-1.4,0.7c-0.9,0.6-1.8,1.2-2.4,2c-0.9,1.1-1.2,2.6-1.4,4c-0.1,0.4-0.1,0.8-0.1,1.1
					C199.1,138.5,204,138.3,205.3,138.5z"/>
			</g>
		</g>
		<g>
			<g>
				<g>
					<path class="st9" d="M122,61.9c-0.6,1.8-0.6,3.7-0.6,5.6c0,1.8,0.1,3.7,0.2,5.5c0,0.4,0,0.8,0.2,1.1c0.4,0.7,1.3,0.9,2.2,0.9
						c1.9,0.2,3.9,0.3,5.8,0.5c1,0.1,2,0.2,3-0.1c1-0.2,1.9-0.8,2.4-1.7c0.3-0.6,0.4-1.3,0.4-2c0.1-2.4,0.3-4.9,0.4-7.4
						c0.1-2,0.1-4.2-1.3-5.6c-1.1-1.1-2.9-1.3-4.4-1.3C126.8,57.6,123.2,58.1,122,61.9z"/>
				</g>
			</g>
			<g>
				<path class="st14" d="M124.4,58.8c2.6,0.8,5.3,0.8,8,0.8c0.5,0,1,0,1.5-0.2c0.5-0.1,0.9-0.4,1.2-0.8c0.2-0.3,0.4-0.6,0.4-1
					c-0.1-0.7-0.8-1.1-1.5-1.3c-1.6-0.5-3.2-0.8-4.9-0.9c-1.3,0-3.1-0.1-4.2,0.6C123.9,56.7,122.6,58.2,124.4,58.8z"/>
			</g>
			<g>
				<path class="st15" d="M128.4,53.6c-0.2,0.2-0.3,0.5-0.4,0.8c-0.1,0.4-0.1,0.8,0,1.2c0.1,0.4,0.3,0.7,0.7,0.9
					c0.2,0.1,0.6,0.2,0.8,0.2c0.6,0,1.2,0,1.6-0.4c0.5-0.4,0.5-1.2,0.2-1.8C130.9,53.6,129.3,52.7,128.4,53.6z"/>
			</g>
		</g>
		<g>
			<g>
				<path class="st8" d="M225.7,99.1c1.7,0.3,2.8,2.1,3.1,3.8c0.2,1.2,0,2.7-1.1,3.3c-0.4,0.2-0.9,0.3-1.2,0.6
					c-0.5,0.4-0.5,1.2-0.6,1.8c-0.1,8.7,0.1,17.3,0.4,26c0,0.6,0.1,1.2-0.2,1.7c-0.2,0.5-0.9,0.9-1.4,0.7c-0.7-0.3-0.8-1.2-0.7-2
					c0.5-5.9,0.4-11.8,0-17.7c-0.2-2.7,0.2-7-0.1-9.7c-0.2-1.9-1.7-1.9-2.1-3.7C221.4,101.5,223.1,98.6,225.7,99.1z"/>
			</g>
			<g>
				<path class="st7" d="M223.4,104.1c-0.3-0.8-0.2-1.7,0-2.5c0.1-0.2,0.1-0.4,0.2-0.6c0.2-0.3,0.7-0.5,1.1-0.5c1-0.1,2,0.3,2.6,1.1
					s0.7,1.9,0.3,2.8C226.6,106.4,224.1,106.2,223.4,104.1z"/>
			</g>
		</g>
		<g>
			<g>
				<path class="st16" d="M237.9,98.5c0-1.1-0.2-2.1-0.7-2.9c-0.5-0.9-1.4-1.6-2.4-1.8l0,0c-0.2,0-0.3,0-0.5,0c0,0,0-0.1,0-0.1
					c-0.1-0.3-0.4-0.7-0.9-0.8c-0.3,0-0.6,0.2-0.9,0.3c-0.4-0.2-0.7-0.3-1-0.3c-0.4-0.1-1-0.2-1.6-0.1c-0.8,0.1-1.5,0.6-2,1.4
					c-0.5,0.7-0.7,1.6-0.9,2.2c-0.5,2.2-0.4,4.8,0.2,7.5c0.6,2.4,1.5,4.7,2.4,7.1c0,0.1,0.1,0.2,0.1,0.4c0.2,0.8,0.5,1.4,0.9,1.6
					c0,0.1,0.1,0.1,0.1,0.2l0.2,0.2l0.2-0.3c0.1-0.1,0.1-0.2,0.2-0.3c0.1-0.1,0.2-0.2,0.3-0.4c0.5-0.5,0.9-1.2,1.3-1.8
					c0.1-0.2,0.2-0.3,0.3-0.4c0.7-1,1.1-2.1,1.6-3.2c0.1-0.3,0.2-0.6,0.4-0.9c0.2-0.4,0.4-0.9,0.6-1.4
					C236.9,102.8,237.9,100.7,237.9,98.5z M233,94c0.1,0.1,0.2,0.3,0.4,0.5c-0.9,1.3-1.3,2.9-1.6,4.4c-0.5,2.1-0.8,4.3-0.9,6.4
					l-0.1-1.8c-0.1-1.8-0.2-3.6,0-5.3c0.2-1.3,0.7-3.1,2.1-4.4C232.8,93.9,232.9,94,233,94z M233.8,96.2c0.3,2.9,0.1,6.1-0.8,10
					c-0.4,1.8-0.8,3.5-1.2,4.9c0,0.1,0,0.2-0.1,0.3c0,0.1,0,0.2-0.1,0.3c-0.1,0.2-0.2,0.3-0.2,0.5c-0.2-0.5-0.2-1.5-0.2-2.2
					c0-0.2,0-0.5,0-0.6c0-1.2,0-2.3,0-3.5c0.1-2.3,0.4-4.6,0.9-6.9c0.3-1.3,0.7-2.7,1.4-3.9C233.7,95.4,233.7,95.8,233.8,96.2z
					 M234.2,96.1c-0.1-0.5-0.1-1.1-0.3-1.6c0.1-0.1,0.1-0.2,0.2-0.2c0.9,2,1.2,4.3,1,6.8c-0.2,2.3-0.9,4.7-2,7.1
					c-0.1,0.2-0.2,0.4-0.2,0.5c0.2-0.8,0.4-1.7,0.6-2.5C234.3,102.4,234.5,99.1,234.2,96.1z M233.4,93.4
					C233.5,93.4,233.5,93.4,233.4,93.4c0.2,0,0.3,0.2,0.5,0.5l0,0c-0.1,0.1-0.2,0.1-0.3,0.2c-0.1-0.2-0.2-0.3-0.3-0.4
					c-0.1-0.1-0.1-0.1-0.2-0.2C233.2,93.4,233.4,93.4,233.4,93.4z M230.5,111.2c-0.1-0.2-0.1-0.3-0.1-0.4c-1-2.3-1.9-4.6-2.4-7
					c-0.6-2.7-0.7-5.1-0.2-7.3c0.2-0.9,0.4-1.5,0.8-2c0.4-0.6,1-1.1,1.7-1.2c0.4-0.1,0.8,0,1.1,0c0.1,0,0.2,0,0.3,0.1
					c0.2,0.1,0.5,0.1,0.8,0.2c-1.3,1.4-1.9,3.2-2.1,4.5c-0.3,1.8-0.2,3.6,0,5.4l0.5,7.5c0,0.1,0,0.3,0,0.4c0,0.1,0,0.2,0,0.3
					C230.6,111.5,230.5,111.3,230.5,111.2z M235.6,104.6c-0.2,0.4-0.4,0.9-0.6,1.4c-0.1,0.3-0.2,0.6-0.4,0.9
					c-0.4,1.1-0.9,2.2-1.5,3.1c-0.1,0.1-0.2,0.3-0.3,0.4c0,0-0.1,0.1-0.1,0.1c0.1-0.2,0.1-0.3,0.2-0.4c0.2-0.6,0.5-1.1,0.7-1.6
					c1.2-2.5,1.9-5,2.1-7.3c0.2-2.5-0.1-4.8-1-6.9c0.1,0,0.1,0,0.2,0l0,0c0.8,0.2,1.6,0.7,2,1.6c0.4,0.7,0.6,1.6,0.6,2.6
					C237.4,100.6,236.5,102.6,235.6,104.6z"/>
			</g>
			<g>
				<g>
					<path class="st3" d="M231.2,133.6c-0.2,0.1-0.5,0-0.8-0.1c-0.1,0-0.1,0-0.2,0c-0.8,0-1.8-0.4-1.9-0.9c-0.5-1.5-0.2-2.9-0.1-4.3
						c0.3-2.6,0.4-5.3,0.6-7.9c0.1-1.3,0.2-2.6,0.4-3.9c0.1-0.8,0.3-1.6,0.5-2.4c0,0,0-0.1,0-0.1c0-0.3-0.1-0.7,0-1
						c0.1-0.2,0.2-0.4,0.5-0.5c0.1-0.1,0.4-0.1,0.6-0.1c0.1,0,0.3,0,0.4,0c0.2,0,0.3,0,0.5,0.1c0.1,0,0.1,0,0.2,0
						c0.4,0.1,0.7,0.3,0.7,0.7c0,0.4,0,0.8-0.1,1.3c0,0.2,0.1,0.5,0.1,0.7c0.1,0.8,0.1,1.5,0.1,2.2c0,1.3-0.1,2.6-0.2,3.9l-0.4,11
						C232.1,132.3,232.4,133.2,231.2,133.6z"/>
				</g>
			</g>
		</g>
		<g>
			<g>
				<path class="st3" d="M225.3,127.1c-1.6-4.2-2.7-8.6-3.7-12.9c-0.4-1.8-0.9-3.6-1.3-5.4c-0.1-0.4-0.2-0.8-0.4-1.2
					c0-0.1,0-0.1,0.1-0.2c0.4-0.7,1.2-0.4,1.9-0.8c1.9-1.1,1.1-3.8,1-5.7c-0.1-2,0-5.5-1.1-7.3c-1.1-1.7-3.5-1.2-5.1-1
					c-1.6,0.1-5.1,0.2-6.2,1.6c-1,1.3,0.4,4.5,0.8,5.8c0.5,2,0.9,5.4,2.5,6.8c0.8,0.8,1.7,0,2.7,0.3c0.2,0.1,0.4,0.2,0.6,0.4
					c0,0.3,0.1,0.6,0.2,0.9c0.4,1.3,0.7,2.6,1,3.9c0.1,0.5,0.3,1.1,0.4,1.6c0.1,0.3,0.1,0.6,0.2,1c0,0.1,0.1,0.2,0.1,0.3
					c0.4,1.7,0.8,3.4,1.2,5c0.4,1.6,0.8,3.3,1.1,4.9c0.6,3.5,0.9,7,1.9,10.4c0.2,0.9,0.6,1.8,1.4,2.4c0.8,0.6,2.2,0.7,2.8-0.1
					c0.2-0.3,0.3-0.6,0.3-1C228.1,133.5,226.5,130.3,225.3,127.1z"/>
			</g>
			<g>
				<g>
					<path class="st17" d="M215.2,101.5c-0.8-1.8-1.7-3.6-2.4-5.5c-0.1-0.3-0.5-0.2-0.4,0.1c0.6,2,1.2,3.9,2,5.9
						C214.6,102.4,215.4,102,215.2,101.5z"/>
				</g>
				<g>
					<path class="st17" d="M218.2,101c-0.4-1.9-0.9-3.8-1.5-5.6c0-0.1-0.2-0.1-0.2,0c-0.1,1.9,0.3,4.1,0.9,5.8
						C217.5,101.8,218.3,101.6,218.2,101z"/>
				</g>
				<g>
					<path class="st17" d="M220.9,100.8c-0.4-2.1-1-4.1-1.2-6.1c0-0.3-0.5-0.3-0.5,0c0.2,2.1,0.2,4.3,0.6,6.4
						C219.9,101.8,221,101.6,220.9,100.8z"/>
				</g>
			</g>
		</g>
		<g>
			<g>
				<path class="st10" d="M217.5,135.8c0.1,1.9-0.2,4.1,1.6,5.2c1,0.6,2.4,0.7,3.7,0.8c3.3,0.1,7.7,1.2,10.1-0.7
					c2.3-1.9,1.8-5.9,1.9-8.6c0.2-4.6-0.7-9.3-0.5-13.9c0-0.4,0.1-0.8-0.1-1.2c-1.7-2.5-12.5-2.4-15.5-1c-2.8,1.3-1.5,5.9-1.3,8.3
					C217.8,128.3,217.2,130.1,217.5,135.8z"/>
			</g>
		</g>
		<g>
			<path class="st18" d="M242.2,77.7c-28.5-0.1-48.6,0-72.3,0c-18.4,0-36.8,0-55.2,0c-1.1-0.8-1.3-1.8,0.1-2.6
				c42.4-0.1,83.5,0.1,127.2,0C242.3,75.9,242.3,76.8,242.2,77.7z"/>
		</g>
		<g>
			<g>
				<g>
					<path class="st9" d="M136.2,69.6c0,1.5,0.1,3.1,1.1,4.2c1,1,2.5,1.2,3.9,1.3c2,0.1,4-0.1,6-0.2c0.8-0.1,1.7-0.2,2.2-0.8
						c0.4-0.4,0.5-1.1,0.6-1.6c0.4-3.1,0.5-6.2,0.3-9.3c0-0.8-0.1-1.7-0.5-2.5s-1.1-1.2-1.9-1.5c-0.8-0.3-1.6-0.4-2.5-0.5
						c-2.6-0.2-5.2,0-7.7,0.6c-0.4,0.1-1,0.1-1.3,0.4c-0.3,0.3-0.2,0.5-0.2,0.9c0,1,0,2,0,3C136.1,65.6,136.2,67.6,136.2,69.6z"/>
				</g>
			</g>
			<g>
				<path class="st14" d="M137.2,59.3c0.1,0.3,0.6,0.5,0.9,0.6c1.8,0.4,3.6,0.5,5.5,0.5c1.5,0,3.1-0.1,4.4-1
					c0.4-0.3,0.8-0.7,0.7-1.2c-0.1-0.5-0.6-0.8-1-1c-2.3-1-4.9-0.9-7.5-0.7c-0.8,0.1-1.9,0.2-2.5,0.6
					C137.3,57.6,137,58.7,137.2,59.3z"/>
			</g>
			<g>
				<path class="st15" d="M141.4,56.8c0.1,0.2,0.3,0.3,0.5,0.4c0.5,0.3,1.1,0.4,1.7,0.2s1-0.7,1-1.3c0-0.9-1.2-2.3-2.1-2
					C141.4,54.4,140.7,55.8,141.4,56.8z"/>
			</g>
		</g>
		<g>
			<g>
				<path class="st9" d="M150.3,71.1c0,1.1,0.1,2.4,0.9,3.1c0.5,0.5,1.2,0.6,1.9,0.7c2.8,0.4,5.6,0.4,8.3,0c0.3-0.1,0.6-0.1,0.9-0.2
					c0.9-0.4,1.3-1.5,1.5-2.5c0.2-0.9,0-1.8,0.1-2.7c0.2-2,0.1-4,0.1-6c0-0.8,0.1-1.7-0.1-2.5c-0.2-0.8-0.6-1.6-1.2-2.1
					c-0.5-0.4-1.2-0.6-1.9-0.8c-3-0.7-5.6-1-8.6,0.1c-0.8,0.3-1.7,0.7-1.9,1.6c-0.2,1.1-0.1,2.4-0.2,3.5
					C150.3,65.9,150.3,68.5,150.3,71.1z"/>
			</g>
		</g>
		<g>
			<path class="st14" d="M151.3,57.6c-0.1,0.5,0.1,1.1,0.5,1.4c0.3,0.3,0.8,0.4,1.2,0.4c2.4,0.4,4.8,0.4,7.2,0.2
				c0.6-0.1,1.1-0.2,1.6-0.5c0.5-0.3,0.8-0.9,0.7-1.5c-0.1-0.4-0.4-0.8-0.8-0.9s-0.8-0.2-1.2-0.3c-1.7-0.2-3.4-0.4-5.1-0.3
				C154.2,56.2,151.7,56.1,151.3,57.6z"/>
		</g>
		<g>
			<path class="st15" d="M155.4,54.4c-0.4,0.5-0.6,1.1-0.6,1.7c0,0.2,0,0.3,0.1,0.5c0.1,0.1,0.2,0.2,0.3,0.3
				c0.5,0.4,1.1,0.6,1.8,0.6c0.4,0,0.9-0.1,1.2-0.4c0.3-0.3,0.5-0.7,0.5-1.2c-0.1-0.5-0.4-0.9-0.8-1.3
				C157.1,54,156.3,53.5,155.4,54.4z"/>
		</g>
		<g>
			<g>
				<path class="st5" d="M174.2,70.9c0,1.1,0.1,2.3,0.6,3.1c0.6,0.8,1.5,0.9,2.3,1c1.2,0,2.4-0.1,3.5-0.2c0.5,0,1-0.1,1.3-0.6
					c0.2-0.3,0.3-0.8,0.3-1.2c0.2-2.3,0.3-4.6,0.2-7c0-0.6-0.1-1.3-0.3-1.8c-0.2-0.5-0.7-0.9-1.1-1.2s-1-0.3-1.4-0.3
					c-1.5-0.1-3.1,0-4.5,0.4c-0.2,0.1-0.6,0.1-0.8,0.3c-0.2,0.2-0.1,0.4-0.1,0.7c0,0.8,0,1.5,0,2.3
					C174.2,67.9,174.2,69.4,174.2,70.9z"/>
			</g>
		</g>
		<g>
			<path class="st6" d="M175.1,73.1c0.5,0.7,1.3,0.9,2.1,1c1.1,0.1,2.1,0.1,3.2-0.2c0.3-0.1,0.6-0.2,0.8-0.4
				c0.4-0.3,0.5-0.9,0.6-1.5c0.1-0.6,0.2-1.2,0-1.7c-0.2-0.5-0.7-0.7-1.1-0.9c-0.6-0.2-1.2-0.5-1.8-0.7c-0.4-0.2-0.7-0.3-1.1-0.3
				c-0.6-0.1-1.2,0.1-1.9,0.3c-0.3,0.1-0.6,0.2-0.8,0.4C174.1,69.9,174.5,72.2,175.1,73.1z"/>
		</g>
		<g>
			<g>
				<path class="st5" d="M165.5,70.9c0,1.1,0.1,2.3,0.6,3.1c0.6,0.8,1.5,0.9,2.3,0.9c1.2,0,2.4-0.1,3.5-0.2c0.5,0,1-0.1,1.3-0.6
					c0.2-0.3,0.3-0.8,0.3-1.2c0.2-2.3,0.3-4.6,0.2-6.9c0-0.6-0.1-1.3-0.3-1.8s-0.7-0.9-1.1-1.1s-0.9-0.3-1.4-0.3
					c-1.5-0.1-3,0-4.5,0.4c-0.2,0.1-0.6,0.1-0.8,0.3c-0.2,0.2-0.1,0.4-0.1,0.7c0,0.8,0,1.5,0,2.3C165.5,68,165.5,69.5,165.5,70.9z"
					/>
			</g>
		</g>
		<g>
			<path class="st6" d="M166.5,72.5c0.5,1.1,1.3,1.4,2.1,1.6c1.1,0.2,2.1,0.1,3.2-0.3c0.3-0.1,0.6-0.2,0.8-0.6
				c0.4-0.5,0.5-1.4,0.6-2.3c0.1-0.8,0.2-1.8,0-2.5c-0.2-0.8-0.7-1.1-1.1-1.3c-0.6-0.4-1.2-0.7-1.8-1.1c-0.4-0.2-0.7-0.4-1.1-0.5
				c-0.6-0.1-1.2,0.2-1.9,0.4c-0.3,0.1-0.6,0.3-0.8,0.6C165.4,67.6,165.8,71.1,166.5,72.5z"/>
		</g>
		<g>
			<path class="st13" d="M166.1,62.9c0,0.1,0,0.2,0,0.3c0.1,0.3,0.5,0.5,0.9,0.6c0.7,0.1,1.4,0.1,2.1,0.2c1,0,2,0.1,3-0.2
				c0.1,0,0.2-0.1,0.4-0.1c0.1-0.1,0.2-0.2,0.2-0.4c0.1-0.4,0.1-0.7,0.1-1.1c0-0.2,0-0.5-0.2-0.6c-0.1-0.1-0.3-0.2-0.5-0.3
				c-0.8-0.2-1.6-0.2-2.4-0.2c-0.8,0-1.6,0-2.4,0.1c-0.5,0-1,0-1.1,0.6C166.1,62,166.1,62.5,166.1,62.9z"/>
		</g>
		<g>
			<g>
				<path class="st5" d="M191.9,70.9c0,1.1,0.1,2.3,0.6,3.1c0.6,0.8,1.5,0.9,2.3,0.9c1.2,0,2.3-0.1,3.5-0.2c0.5,0,1-0.1,1.3-0.6
					c0.2-0.3,0.3-0.8,0.3-1.2c0.2-2.3,0.3-4.6,0.2-6.9c0-0.6-0.1-1.3-0.3-1.8s-0.7-0.9-1.1-1.1s-0.9-0.3-1.4-0.3
					c-1.5-0.1-3,0-4.5,0.4c-0.2,0.1-0.6,0.1-0.8,0.3c-0.2,0.2-0.1,0.4-0.1,0.7c0,0.8,0,1.5,0,2.3C191.9,68,191.9,69.5,191.9,70.9z"
					/>
			</g>
		</g>
		<g>
			<path class="st6" d="M192.8,72.5c0.5,1.1,1.3,1.4,2.1,1.6c1.1,0.2,2.1,0.1,3.2-0.3c0.3-0.1,0.6-0.2,0.8-0.6
				c0.4-0.5,0.5-1.4,0.6-2.3c0.1-0.8,0.2-1.8,0-2.5c-0.2-0.8-0.7-1.1-1.1-1.3c-0.6-0.4-1.2-0.7-1.8-1.1c-0.4-0.2-0.7-0.4-1.1-0.5
				c-0.6-0.1-1.2,0.2-1.9,0.4c-0.3,0.1-0.6,0.3-0.8,0.6C191.8,67.6,192.2,71.1,192.8,72.5z"/>
		</g>
		<g>
			<path class="st13" d="M192.4,62.9c0,0.1,0,0.2,0,0.3c0.1,0.3,0.5,0.5,0.9,0.6c0.7,0.1,1.4,0.1,2.1,0.2c1,0,2,0.1,3-0.2
				c0.1,0,0.2-0.1,0.4-0.1c0.1-0.1,0.2-0.2,0.2-0.4c0.1-0.4,0.1-0.7,0.1-1.1c0-0.2,0-0.5-0.2-0.6c-0.1-0.1-0.3-0.2-0.5-0.3
				c-0.8-0.2-1.6-0.2-2.4-0.2c-0.8,0-1.6,0-2.4,0.1c-0.5,0-1,0-1.1,0.6C192.4,62,192.4,62.5,192.4,62.9z"/>
		</g>
		<g>
			<path class="st13" d="M174.8,63.4c0,0.1,0,0.2,0.1,0.3c0.1,0.2,0.3,0.2,0.4,0.3c0.9,0.3,1.9,0.3,2.9,0.4c0.7,0,1.4,0,2-0.2
				c0.4-0.1,0.8-0.3,1-0.7c0.2-0.4,0.2-0.9,0.2-1.3c0-0.2,0-0.3-0.1-0.4c-0.1-0.2-0.3-0.2-0.5-0.3c-1.6-0.4-3.2-0.5-4.8-0.4
				c-0.4,0-1,0.1-1.2,0.6C174.8,62.2,174.8,62.9,174.8,63.4z"/>
		</g>
		<g>
			<path class="st13" d="M184.3,62.6c0,0.3,0.1,0.6,0.3,0.8c0.2,0.2,0.5,0.2,0.8,0.3c1.4,0.2,2.7,0.2,4.1,0c0.1,0,0.3,0,0.4-0.1
				c0.2-0.2,0.3-0.5,0.3-0.7c0-0.3,0.1-0.6-0.1-0.8c-0.2-0.5-0.9-0.6-1.4-0.7c-1-0.1-2-0.1-2.9,0C184.9,61.5,184.3,61.6,184.3,62.6z
				"/>
		</g>
		<g>
			<path class="st18" d="M247,147.6c-28.5-0.1-48.6,0-72.3,0c-18.4,0-36.8,0-55.2,0c-1.1-0.8-1.3-1.8,0.1-2.6
				c42.4-0.1,83.5,0.1,127.2,0C247.2,145.8,247.1,146.7,247,147.6z"/>
		</g>
	</g>
	<g>
		<path class="st19" d="M68.4,279c0,1.1,0.2,2.3,1.1,2.9c0.3,0.2,0.7,0.4,1.1,0.5c2.1,0.6,4.2,0.7,6.4,0.6c1.3,0,2.8-0.1,3.6-1.2
			c0.3-0.4,0.5-0.9,0.3-1.4c-0.2-0.9-1.3-1.1-2.2-1.2c-1.1-0.1-2.2-0.1-3.2,0c-0.8,0-1.6,0.1-2.4-0.1s-1.5-0.9-1.6-1.7
			c0-0.4,0.1-0.8-0.1-1.1c-0.4-0.6-2.2-0.8-2.7-0.2C68.2,276.8,68.4,278.4,68.4,279z"/>
	</g>
	<g>
		<g>
			<g>
				<path class="st20" d="M34.9,117.8c0.2-0.6,0.7-1.1,1.7-1.5c1.4-0.6,2.6,1.6,1.5,2.6c0.3,0.3,0.5,0.7,0.8,1.1
					c0.7,0.3,1.4,0.5,2.1,0.6c1.7,0.9,3.2,0.5,4.6-1.1c1.4-1.9,0.1-5.4-0.5-7.4c-0.9-2.7-2.1-5.2-3.1-7.9c-2-5.2-3.2-10.7-1.2-16.1
					c2.5-6.9,11.4-14.1,17.7-6.7c0.3,0.3,0.4,0.7,0.4,1c0,0.1,0.1,0.2,0.1,0.3c1.1,2.4,1.1,5.8-1.5,7.2c-1.5,0.8-3.5,0.6-5.1,0.7
					c-6.4,0.7-7,6.5-5,11.5c2.8,6.9,9.6,18.7-1.2,22.7C42.2,126.2,31.5,122.8,34.9,117.8z"/>
			</g>
		</g>
		<g>
			<g>
				<path class="st19" d="M135.5,121.1c0.7-0.1,1.4-0.2,2.1-0.1c0.7,0.1,1.5,0.4,1.6,1.1c0.1,0.7-0.6,1.2-1.2,1.5
					c-2.9,1.3-6.1,1.5-9.3,1.7c-0.3-1.1-0.3-2.2-0.2-3.3c1.3,0.1,2.7-0.1,3.9-0.7c1.3-0.6,2.6-1.5,3.9-1.3c0,0.2,0,0.4,0,0.6
					C136,120.8,135.8,121,135.5,121.1z"/>
			</g>
			<g>
				<g>
					<path class="st21" d="M73.8,108.2c-1.2-6.1,5.4-10.4,9.8-4c4.1,5.7,7.3,12,12.9,16.8c2.7,2.3,6.1,3.4,9.9,3.1
						c7.6-0.7,15.2-1.6,22.7-2.7c0.4,1.6,0.7,3.1,1,4.7c-9.2,2.5-18.3,5-27.5,7.5c-1.8,0.5-3.6,1-5.4,0.8c-1.8-0.2-3.4-1-4.9-1.8
						C82.7,126.9,75.8,117.9,73.8,108.2z"/>
				</g>
			</g>
		</g>
		<g>
			<g>
				<path class="st22" d="M43.7,277.9c-2.3,0.5-4.8,0.2-6.9-0.8c2.4-8,4.8-16,7.1-24.1c0.8-2.5,1.5-5.1,1.8-7.7
					c0.4-3.2,0.1-6.5-0.2-9.7c-1.2-12.6-2.4-25.1-3.6-37.7c-0.1-1.1-0.2-2.1,0.1-3.1c0.9-2.9,4.6-3.6,7.6-3.9
					c0.7-0.1,1.4-0.1,1.9,0.3c0.6,0.4,0.8,1.3,0.9,2c1.5,9.8,2,0.7,3.5,10.5c0.5,3.5,2,25.9,1.7,29.4c-0.5,6.2-1.5,12.7-4.1,18.3
					C49.6,260.1,47.4,267.8,43.7,277.9z"/>
			</g>
		</g>
		<g>
			<g>
				<path class="st22" d="M69.5,196.1c4.2-0.1,8.5-0.2,12.7-0.3c0.3-0.6-0.8-0.1-0.8,0.5c0.3,19.1-1.4,38.3-5.1,57.1
					c-1.6,8.1-3.5,16.2-3.6,24.5c-1.7,0-3.5,0-5.2,0c-0.6-25.8-1.2-51.6-1.8-77.4c0-1.3,0-2.8,1-3.6
					C67.5,196.1,68.5,196.1,69.5,196.1z"/>
			</g>
		</g>
		<g>
			<path class="st23" d="M51.9,96.4c0.5-1.3,1.4-2.8,2.8-2.9c0.9-0.1,1.7,0.5,2.5,1.1c1.9,1.2,4,2.1,6.2,2.5
				c1.9,0.2,12.8,0.1,14.1-1.1c0.9,3.3,2.5,6.4,3.8,9.6c8,18.8,10.6,39.8,7.3,59.9c-1,6-2.5,12-3,18c-0.9,9.9,0.8,19.9,3.3,29.5
				l-33.9-2.4c-7.1,0.2-13.9,0.4-18,0.7C36.9,172.4,36.9,132.2,51.9,96.4z"/>
		</g>
		<g>
			<path class="st19" d="M63.5,91.3c-0.9-1.6-1.5-3.7-1.4-6.1c0.1-4.5,0.6-9.1,2.6-13c2.3-4.5,7.8-8.7,13-7c6.1,2,5.1,10.4,4.3,15.9
				c-0.7,4.4-2.5,8.8-5.8,11.5C71.2,96.6,66,95.5,63.5,91.3z"/>
		</g>
		<g>
			<g>
				<path class="st20" d="M54,75.5c0.2-1.5,0.3-3,0.3-4.5c0.2-4.8,2.3-7.3,6-9.7c5.9-3.9,14.1-4.1,20,0c0.2,0.1,0.3,0.2,0.5,0.3
					c1.8,2.5,3.1,5.3,3.2,8.6c0.1,2-0.3,4.3-1.2,6.2c-0.1,0.2-0.3,0.5-0.4,0.7c0.4-2.1,0.5-4.5-0.4-5.3c-0.8-0.8-6-0.3-7.4-0.7
					c-2.4-0.8-6.3-3.5-8.3-0.8c-1,1.3-0.6,3.3-0.4,4.8c0,0.1,0,0.2,0,0.2c0.2,1,0.3,1.9,0.3,2.2c-0.4,7.7-1.5,13.3-6.9,11.1
					C55.8,87.1,52.1,78.7,54,75.5z"/>
			</g>
		</g>
		<g>
			<g>
				<path class="st24" d="M95.4,212.7c-1.3-7.9-0.7-16.1-0.6-24.2c0.1-5.6-0.1-11.1-0.4-16.7c-0.2-2.9-0.4-5.7-0.7-8.6
					c-0.2-1.4-0.3-2.8-0.5-4.2c-0.1-0.5-0.1-1.5-0.2-2.4c0-0.1,0-0.3,0-0.4c-0.3-10.7-2.5-21.9-5.2-32.2c-1.1-4.1-2.3-8.1-3.6-12.1
					c-1.5-4.9-3.1-9.8-4.6-14.7c-0.1-0.4-0.3-0.8-0.6-1.1c-0.4-0.3-1-0.4-1.5-0.4c-0.5,0-1.1,0-1.6,0c-0.4,0-1,0-1.2,0.4
					c-0.2,0.3,0,0.7,0.1,1.1c2.2,4.9,5.4,9.7,5.2,15.1c0,0.8-0.1,1.6-0.5,2.2c-1,1.7-3.3,2-5.3,2.1c-1.4,0.1-2.9,0.1-4-0.8
					c-0.7-0.6-1.1-1.4-1.4-2.3c-1.4-3.5-2.5-7.1-3.3-10.7c-0.1-0.6-0.3-1.3-0.6-1.8c-0.2-0.4-0.5-0.8-0.7-1.2
					c-0.7-1.3-1.1-4.7-3.1-4.4c-2.7,0.3-0.4,4.3,0.1,5.5c1.8,5,3.4,10.1,4.8,15.2c0.8,2.9,1.4,5.7,2.1,8.6c0.4,2.1,0.8,4.1,0.9,6.2
					c0.2,6.5-2.6,12.8-6.7,17.8c-1.1,1.3-2.3,2.6-3.7,3.6c-2.4,1.7-5.4,2.6-8,4.2c-0.2,0.1-0.4,0.2-0.5,0.4c-0.1,0-0.1,0-0.2,0
					c-2,0.6-4.1,0.9-6.2,1.1c-1.5,0.1-3.8,0.4-5.4-0.1c0-0.2,0-0.4,0-0.6c-0.1-0.5-0.4-0.7-0.8-0.8c-0.2-1.2-0.4-2.3-0.8-3.5
					c-0.3-1-0.5-2.1-1.6-2.6c-1.1-0.5-4.7-1-4.5,1.1c0.1,1,1.4,1.8,2.1,2.4c1.1,0.9,2.2,1.8,2.9,3c-0.5,0.4-0.9,1-0.8,1.6
					c0,0,0,0,0,0c0,0.1,0,0.2,0,0.3c-1.7,1.1-2.8,2.6-3,4.8c-0.2,1.6,0.1,3.3,0.2,4.9c0,0.4,0,0.8,0,1.1c-0.4,1.2-0.1,3.5-1.5,4
					c-0.3,0.1-0.4,0.4-0.3,0.7l0,0c-0.1,0.1,0,0.2,0.1,0.1l0,0c0,0,0,0,0.1,0.1c0.7,0.5,2.3,1.3,3,0.5c0.8-0.9,0.8-3.6,0.8-4.7
					c0-2.1-0.6-4.2-0.6-6.3c0-1.8,0.9-3,2-4.1c-0.2,5.2,1,10.7-0.9,15.7c-0.8,2.2-2.6,3.8-3.4,6c-0.8,1.9-0.7,4,0.1,5.9
					c0.1,0.3,0.5,0.4,0.8,0.3c0.3,0.3,1,0.2,0.9-0.4c-0.1-2.4,1.3-4.2,2.4-6.2c0.9-1.5,1.5-3.1,1.6-4.9c0.1-2.2-0.1-4.5-0.2-6.7
					c0-2.3,0-4.6,0-6.9c0-1,0.1-2.2,0.1-3.3c0.2-0.1,0.5-0.3,0.6-0.5c1.6,0.8,3.9,0.9,5.5,1.1c1.7,0.2,3.9,0.5,5.8,0.3
					c-0.1,1.6,0,3.2,0.1,4.9c0.8,16.1-0.6,32.3,1.7,48.2c12.2,2.1,24.5,2.9,36.9,2.6c2-0.1,3.9-0.1,5.9-0.5c0.6-0.1,1.2-0.3,1.5-0.9
					C95.6,214.1,95.5,213.4,95.4,212.7z M35.7,155.4c-0.9-1-2.1-1.9-3.1-2.8c-0.2-0.1-0.3-0.2-0.3-0.3c0.1-0.4,0.3-0.7,0.5-0.9
					c0.8-0.1,2,1.1,2.2,1.4c0.3,0.4,0.5,0.8,0.7,1.2c0.2,0.5,0.5,1.1,0.7,1.6c0,0,0,0.1,0,0.1c0,0.1,0,0.2,0,0.3
					C36.1,155.9,35.9,155.6,35.7,155.4z"/>
			</g>
			<g>
				<path class="st25" d="M93,209c-0.9,0.4-1.8,0.8-2.6,1.1c0-2.7,0-5.4,0-8.2c0.5-0.1,1-0.2,1.5-0.3c0.7-0.1,0.4-1.2-0.3-1.1
					c-0.4,0.1-0.8,0.2-1.2,0.2c0-1.1,0-2.2,0-3.3c0.7-0.1,1.3-0.1,2-0.2c0.6-0.1,0.7-1.1,0-1c-0.7,0-1.3,0-2,0.1
					c0-2.5,0-4.9-0.1-7.4c0.7-0.1,1.4-0.2,2.1-0.2c0.6-0.1,0.7-1,0-1c-0.7,0.1-1.4,0.1-2.1,0.2c0-1.6-0.1-3.2-0.1-4.8
					c0.9-0.1,1.8-0.2,2.6-0.3c0.8-0.1,0.8-1.2,0-1.2c-0.9,0.1-1.8,0.2-2.7,0.2c-0.1-2.2-0.1-4.4-0.2-6.5c0.8,0,1.5,0.1,2.2,0.3
					c0.7,0.2,1-0.9,0.3-1.1c-0.8-0.2-1.7-0.4-2.6-0.4c0-1.6-0.1-3.3-0.1-4.9c0.7-0.1,1.3-0.2,2-0.3c0.6-0.1,0.5-1.1-0.1-1
					c-0.6,0.1-1.3,0.1-1.9,0.2c0-1.6-0.1-3.3-0.1-5c0.2,0,0.3,0,0.5-0.1c0.7-0.1,0.7-1.1,0-1c-0.2,0-0.3,0-0.5,0.1
					c-0.1-1.8-0.1-3.5-0.2-5.3c0.4,0,0.7,0,1.1,0.1c0.6,0,0.6-0.9,0-1c-0.4,0-0.8,0-1.2-0.1c-0.1-2-0.1-3.9-0.2-5.9
					c0.2,0,0.5,0,0.7,0c0.6,0,0.6-1,0-1c-0.2,0-0.5,0-0.8,0c-0.1-2.2-0.2-4.5-0.3-6.7c0.3,0,0.6-0.1,0.8-0.1c0.6-0.1,0.6-1,0-1
					c-0.3,0-0.6,0.1-0.9,0.1c-0.1-1-0.1-2-0.2-3.1c-0.3-4.3-0.6-8.7-1.5-12.9c0.5-0.1,0.5-0.9-0.1-0.9c-0.1,0-0.1,0-0.1,0
					c-0.4-1.6-0.8-3.2-1.3-4.8c0.2,0,0.4,0,0.6,0c0.6,0,0.6-1,0-1c-1.6,0-3.2,0.1-4.8,0.2c0-0.1,0-0.2,0-0.3c0-0.2-0.3-0.2-0.3,0
					c0,0.1,0,0.2,0,0.3c-4.1,0.2-8.2,0.7-12.2,1.3c-0.3,0.1-0.2,0.6,0.1,0.5c2.6-0.3,5.2-0.5,7.8-0.7c0,1.5,0,3,0,4.5
					c-1.8,0.1-3.6,0.1-5.4,0.2c0-1.1-0.1-2.1-0.1-3.2c0-0.2-0.3-0.2-0.3,0c0,1.1,0,2.1,0,3.2c-0.4,0-0.9,0-1.3,0.1
					c-0.3,0-0.3,0.4,0,0.4c0.4,0,0.9,0,1.3,0c0,2.3,0,4.6,0,7c-0.2,0.1-0.5,0.1-0.7,0.1c-0.2,0.1-0.2,0.4,0.1,0.4
					c0.2,0,0.4,0,0.7-0.1c0,1.7,0,3.3,0,5c-0.4,0-0.7,0.1-1.1,0.1c-0.2,0-0.2,0.3,0,0.3c0.4,0,0.7,0,1.1-0.1c0,1.8,0,3.6,0,5.3
					c-0.2,0-0.5,0.1-0.8,0.1c-0.3,0-0.2,0.5,0.1,0.5c0.2,0,0.5,0,0.7-0.1c0,1.9,0,3.9,0,5.8c-2.1,0.1-4.1,0.2-6.2,0.3
					c-0.2,0-0.2,0.3,0,0.3c2.1-0.1,4.1-0.1,6.2-0.1c0,1.7,0,3.5,0,5.2c-1.5,0-3,0-4.5,0.1c0-1.6,0-3.2,0-4.8c0-0.3-0.4-0.3-0.4,0
					c0,1.6-0.1,3.2-0.1,4.8c-2.1,0-4.3,0.1-6.4,0.2c0-1.1-0.1-2.3-0.1-3.4c0-0.1-0.2-0.1-0.2,0c0,1.1,0,2.3,0,3.4
					c-0.8,0-1.5,0.1-2.3,0.1c-0.4,0-0.4,0.6,0,0.6c0.8,0,1.5,0,2.3-0.1c0,2.2,0,4.4,0,6.6c-1.7-0.1-3.3-0.2-5-0.3
					c-0.2-2-0.5-4-1.1-6c-0.1-0.2-0.4-0.1-0.4,0.1c0.4,1.9,0.7,3.9,0.9,5.8c-0.5,0-1-0.1-1.6-0.1c-0.3,0-0.3,0.4,0,0.4
					c0.5,0.1,1.1,0.1,1.6,0.1c0.2,2.2,0.2,4.5,0.2,6.8c-0.6,0-1.2,0-1.7-0.1c-0.2,0-0.2,0.4,0,0.4c0.6,0,1.2,0.1,1.7,0.1
					c0,2.1-0.2,4.1-0.3,6.2c-0.9,0-1.9-0.1-2.8-0.1c-0.4,0-0.4,0.5,0,0.6c0.9,0.1,1.8,0.1,2.8,0.2c-0.1,2.2-0.3,4.4-0.3,6.6
					c-0.8,0-1.6,0.1-2.4,0.1c-0.3,0-0.3,0.4,0,0.4c0.8,0.1,1.6,0.1,2.4,0.2c-0.1,2.2-0.1,4.4-0.1,6.6c-0.8,0.1-1.5,0.1-2.3,0.2
					c-0.3,0-0.3,0.4,0,0.4c0.8,0,1.5-0.1,2.3-0.1c0,2,0,4.1,0.1,6.1c-0.9,0-1.7,0-2.6,0.1c-0.3,0-0.2,0.4,0,0.4
					c0.9,0.1,1.7,0.1,2.6,0.2c0.1,1.8,0.1,3.5,0.2,5.2c-0.7-0.1-1.5-0.1-2.2-0.2c-0.3,0-0.3,0.4,0,0.4c0.7,0.1,1.5,0.1,2.2,0.2
					c0.1,1.7,0.2,3.5,0.4,5.2c-0.1,0-0.3,0-0.4-0.1c-0.2,0-0.2,0.3,0,0.3c0.2,0,0.3,0.1,0.5,0.1c0,0.6,0.1,1.2,0.2,1.9
					c0,0.5,0.9,0.5,0.8,0c0-0.6-0.1-1.1-0.1-1.6c1.8,0.4,3.6,0.8,5.4,1.1c0.1,0.4,0.1,0.8,0.2,1.2c0.1,0.6,1.1,0.4,0.9-0.3
					c0-0.2-0.1-0.5-0.1-0.7c1,0.2,2,0.3,3,0.5c0.4,0.1,0.9,0.1,1.3,0.2c0,0.1,0,0.2,0,0.3c0.1,0.6,1,0.6,0.9,0c0-0.1,0-0.1,0-0.2
					c2.6,0.4,5.2,0.9,7.8,1.2c1.3,0.1,2.5,0.2,3.8,0.2c0,0,0,0,0,0.1c0,0.7,1.1,0.7,1.1,0c0,0,0,0,0,0c1.7,0,3.4-0.2,5.1-0.4
					c0.2,0.2,0.6,0.1,0.8-0.1c1.3-0.2,2.7-0.6,4-1c0,0.1,0,0.3,0,0.5c0,0.8,1.2,0.8,1.2,0c0-0.3,0-0.6,0-0.9
					c1.1-0.4,2.2-0.8,3.2-1.3C94.2,209.6,93.6,208.7,93,209z M89.2,201c-1.2,0.2-2.4,0.5-3.6,0.7c0-1.3,0-2.6,0-3.9
					c1.2-0.1,2.4-0.2,3.6-0.3C89.2,198.7,89.2,199.9,89.2,201z M60.6,196.8c0-1.9-0.1-3.8-0.1-5.7c1.7-0.1,3.3-0.1,5-0.2
					c0,2,0,4.1-0.1,6.1c0,0.1,0,0.3,0,0.4c-1.6,0-3.2,0-4.8,0C60.6,197.1,60.6,197,60.6,196.8z M60.3,182c0-1.6-0.1-3.3-0.1-4.9
					c1.8,0,3.6,0.1,5.4,0c0,1.5-0.1,3-0.1,4.5c0,0.5,0,1.1,0,1.6c-1.7,0-3.5,0.1-5.2,0.1C60.3,182.9,60.3,182.5,60.3,182z
					 M77.6,140.2c0-0.8-0.1-1.6-0.1-2.4c1.6-0.1,3.3-0.2,4.9-0.3c0.1,1.5,0.2,3,0.3,4.4c-1.7,0.2-3.3,0.4-5,0.6
					C77.6,141.8,77.6,141,77.6,140.2z M87.6,136.1c-1.4,0.1-2.9,0.2-4.3,0.4c-0.1-1.6-0.3-3.1-0.4-4.7c1.4-0.1,2.9-0.2,4.4-0.3
					C87.4,133,87.5,134.6,87.6,136.1z M82.8,130.8c-0.2-1.8-0.3-3.6-0.5-5.4c1.4,0,2.8,0,4.2-0.1c0.3,1.8,0.5,3.5,0.7,5.3
					C85.7,130.6,84.2,130.7,82.8,130.8z M81.9,130.9c-1.6,0.1-3.1,0.2-4.7,0.4c-0.1-2-0.1-3.9-0.2-5.9c1.5,0,3,0,4.5,0
					C81.7,127.2,81.8,129,81.9,130.9z M82,131.9c0.1,1.6,0.2,3.1,0.3,4.7c-1.6,0.1-3.2,0.3-4.9,0.5c-0.1-1.6-0.1-3.2-0.2-4.8
					C78.9,132.1,80.4,132,82,131.9z M82.7,142.8c0.1,2.1,0.3,4.2,0.4,6.3c-1.7,0.1-3.5,0.2-5.2,0.2c-0.1-2-0.1-4.1-0.2-6.1
					C79.4,143.2,81.1,143,82.7,142.8z M83.2,150.1c0.1,1.6,0.2,3.2,0.3,4.9c0,0.2,0,0.4,0,0.7c-1.8-0.1-3.6-0.1-5.4-0.1
					c-0.1-1.8-0.1-3.6-0.2-5.3C79.7,150.1,81.4,150.1,83.2,150.1z M83.5,156.5c0.1,2,0.2,4,0.3,6.1c-1.8,0.1-3.7,0.2-5.5,0.3
					c-0.1-2.2-0.1-4.4-0.2-6.6C79.9,156.4,81.7,156.4,83.5,156.5z M84.4,191.4c0,1.7,0,3.4,0,5.1c-1.8,0.1-3.6,0.2-5.4,0.3
					c0-2.3-0.1-4.6-0.1-6.9c1.8-0.1,3.7-0.3,5.5-0.5C84.4,190.1,84.4,190.8,84.4,191.4z M66.5,190.8c1.6-0.1,3.2-0.2,4.8-0.3
					c0,0.5,0,1.1,0,1.6c0,1.7,0,3.4,0.1,5.2c-1.7,0.1-3.3,0.1-4.9,0.1c0-0.1,0-0.3,0-0.4C66.4,194.9,66.5,192.8,66.5,190.8z
					 M66.6,177.1c1.5,0,3.1-0.1,4.6-0.2c0,2,0,4.1,0.1,6.1c-1.6,0.1-3.1,0.1-4.7,0.2c0-0.5,0-1.1,0-1.6
					C66.5,180.1,66.5,178.6,66.6,177.1z M72.3,184c1.8-0.1,3.5-0.1,5.3-0.2c0,1.6,0.1,3.3,0.1,4.9c-1.8,0.1-3.6,0.3-5.3,0.5
					C72.3,187.5,72.3,185.8,72.3,184z M72.3,183c0-2,0-4.1-0.1-6.1c1.7-0.1,3.5-0.2,5.2-0.4c0,2.1,0.1,4.1,0.1,6.2
					C75.8,182.8,74,182.9,72.3,183z M72.5,175.9c-0.1,0-0.2,0-0.3,0c0-1.8,0-3.6-0.1-5.4c1.7,0,3.4-0.1,5.2-0.2
					c0,1.7,0.1,3.4,0.1,5.1C75.8,175.6,74.2,175.8,72.5,175.9z M71.1,176c-1.5,0.1-3.1,0.2-4.6,0.3c0-1.9,0-3.8,0-5.7
					c1.5,0,3,0,4.6,0C71.1,172.3,71.1,174.1,71.1,176z M71.2,184.1c0,1.8,0,3.5,0.1,5.2c-1.6,0.1-3.2,0.3-4.8,0.4c0-1.8,0-3.7,0-5.5
					C68.1,184.2,69.7,184.1,71.2,184.1z M72.3,190.4c1.8-0.1,3.6-0.2,5.3-0.4c0,0.9,0,1.7,0.1,2.5c0,1.4,0.1,2.9,0.1,4.4
					c-1.8,0.1-3.6,0.2-5.4,0.3C72.4,194.9,72.4,192.7,72.3,190.4z M78.8,188.7c0-1.6-0.1-3.3-0.1-4.9c1.9-0.1,3.7-0.2,5.6-0.3
					c0,1.6,0,3.2,0.1,4.8C82.5,188.4,80.7,188.5,78.8,188.7z M78.7,182.6c0-2.1-0.1-4.2-0.1-6.3c1.2-0.1,2.4-0.3,3.6-0.4
					c0.7-0.1,1.3-0.2,2-0.3c0.1,2.2,0.1,4.4,0.1,6.6C82.4,182.4,80.6,182.5,78.7,182.6z M83.9,174.6c-1.8,0.3-3.6,0.5-5.4,0.7
					c0-1.7-0.1-3.4-0.1-5.1c1.8-0.1,3.7-0.2,5.6-0.4c0.1,1.6,0.1,3.2,0.1,4.8C84.1,174.6,84,174.6,83.9,174.6z M78.4,169
					c0-1.7-0.1-3.5-0.1-5.2c1.8-0.1,3.7-0.1,5.5-0.2c0.1,1.7,0.1,3.4,0.2,5C82.1,168.7,80.3,168.9,78.4,169z M77.2,162.9
					c-1.7,0.1-3.4,0.1-5.1,0.2c0-2.3-0.1-4.6-0.1-6.9c1.7,0,3.4,0,5.1,0.1C77.1,158.5,77.1,160.7,77.2,162.9z M77.2,163.8
					c0,1.8,0.1,3.5,0.1,5.3c-1.7,0.1-3.4,0.2-5.1,0.3c0-1.9-0.1-3.7-0.1-5.6C73.8,163.9,75.5,163.8,77.2,163.8z M71.1,169.5
					c-1.5,0.1-3,0.1-4.5,0.2c0-2,0-3.9,0-5.9c1.5,0.1,3,0.1,4.5,0.1C71.1,165.7,71.1,167.6,71.1,169.5z M65.7,169.7
					c-1.9,0.1-3.8,0.1-5.8,0.1c-0.1-2.1-0.1-4.3-0.2-6.4c2,0.1,4,0.2,6,0.3C65.8,165.7,65.8,167.7,65.7,169.7z M65.7,170.5
					c0,1.9-0.1,3.9-0.1,5.8c-1.8,0.1-3.6,0.1-5.5,0.1c0-2-0.1-4-0.2-6C61.9,170.4,63.8,170.5,65.7,170.5z M60.3,184.3
					c1.7,0,3.5,0,5.2-0.1c0,1.9,0,3.7-0.1,5.6c-1.7,0.1-3.3,0.3-5,0.4C60.4,188.3,60.4,186.3,60.3,184.3z M65.4,198.3
					c0,1.8-0.1,3.6-0.1,5.4c-1.6,0-3.1,0-4.7,0c0-1.8,0-3.6,0-5.4C62.2,198.3,63.8,198.3,65.4,198.3z M66.4,198.3
					c1.7,0,3.3-0.1,5-0.1c0,1.7,0,3.5,0.1,5.2c-1.7,0.1-3.4,0.2-5.2,0.2C66.3,201.9,66.4,200.1,66.4,198.3z M72.4,198.2
					c1.8,0,3.6-0.1,5.4-0.1c0,1.6,0.1,3.1,0.1,4.7c-1.8,0.2-3.7,0.4-5.5,0.5C72.4,201.6,72.4,199.9,72.4,198.2z M79,198.1
					c1.8,0,3.6-0.1,5.3-0.2c0,1.3,0,2.7-0.1,4c-1.7,0.3-3.5,0.5-5.2,0.8C79,201.2,79,199.6,79,198.1z M89.1,191.1
					c0,1.7,0,3.4,0.1,5.1c-1.2,0.1-2.4,0.1-3.6,0.2c0-2.4,0-4.8,0-7.1c1.2-0.1,2.3-0.2,3.5-0.4C89.1,189.7,89.1,190.4,89.1,191.1z
					 M89.1,187.8c-1.2,0.1-2.3,0.2-3.5,0.3c0-1.6,0-3.2-0.1-4.8c1.2-0.1,2.3-0.2,3.5-0.3C89,184.6,89.1,186.2,89.1,187.8z
					 M85.5,182.1c0-2.1-0.1-4.2-0.1-6.4c0-0.1,0-0.2,0-0.3c1.2-0.2,2.3-0.3,3.5-0.3c0.1,2.2,0.1,4.4,0.2,6.7
					C87.8,181.9,86.6,182,85.5,182.1z M88.8,174.1c-1.2,0-2.3,0.2-3.5,0.3c0-1.6-0.1-3.1-0.1-4.7c1.2-0.1,2.3-0.2,3.5-0.4
					C88.7,170.9,88.8,172.5,88.8,174.1z M88.6,168.1c-1.2,0.1-2.3,0.2-3.5,0.3c-0.1-1.7-0.1-3.3-0.2-5c1.2-0.1,2.4-0.2,3.6-0.3
					C88.5,164.8,88.6,166.5,88.6,168.1z M88.5,162.1c-1.2,0.1-2.4,0.2-3.6,0.3c-0.1-2-0.2-3.9-0.3-5.9c1.2,0.1,2.5,0.1,3.7,0.2
					C88.4,158.5,88.4,160.3,88.5,162.1z M88.2,154.4c0,0.4,0,0.9,0,1.3c-1.2-0.1-2.5-0.1-3.7-0.1c-0.1-1.9-0.2-3.7-0.3-5.6
					c1.3,0,2.6-0.1,3.9-0.1C88.2,151.4,88.2,152.9,88.2,154.4z M88.1,149c-1.3,0-2.6,0.1-3.9,0.1c-0.1-2.1-0.3-4.2-0.4-6.4
					c1.4-0.1,2.8-0.3,4.2-0.4C88,144.5,88.1,146.8,88.1,149z M83.7,141.8c-0.1-0.8-0.1-1.7-0.2-2.5c-0.1-0.6-0.1-1.3-0.2-1.9
					c1.4-0.1,2.9-0.2,4.3-0.3c0.1,1.4,0.2,2.9,0.2,4.3C86.5,141.5,85.1,141.6,83.7,141.8z M85.3,119.6c0.4,1.6,0.7,3.2,1,4.7
					c-1.4,0-2.8,0-4.1,0c-0.2-1.6-0.4-3.1-0.6-4.6C82.8,119.7,84.1,119.6,85.3,119.6z M76.9,120c1.4-0.1,2.9-0.2,4.3-0.2
					c0.1,1.5,0.2,3.1,0.3,4.6c-1.5,0-3,0.1-4.4,0.1C77,123,76.9,121.5,76.9,120z M71.3,125.3c1.8,0,3.6,0.1,5.4,0.1c0,2,0,4,0,6
					c-1.8,0.2-3.6,0.5-5.3,0.8C71.4,129.8,71.4,127.6,71.3,125.3z M71.5,132.7c1.8-0.1,3.5-0.3,5.3-0.4c0,1.6,0,3.2,0,4.8
					c-1.7,0.2-3.5,0.4-5.2,0.6C71.6,136,71.5,134.4,71.5,132.7z M71.7,141.6c0-1.2-0.1-2.3-0.1-3.5c1.7-0.1,3.5-0.2,5.2-0.3
					c0,1.6,0,3.2,0.1,4.8c-1.7,0.2-3.4,0.5-5.1,0.7C71.7,142.7,71.7,142.2,71.7,141.6z M71.8,143.9c1.7-0.2,3.4-0.3,5.1-0.5
					c0,2,0.1,4,0.1,6.1c-1.7,0.1-3.4,0.2-5.1,0.3C71.8,147.8,71.8,145.8,71.8,143.9z M71.9,150.2c1.7,0,3.4,0,5.1-0.1
					c0,1.8,0.1,3.5,0.1,5.3c-1.7,0-3.4,0-5.1,0C71.9,153.7,71.9,152,71.9,150.2z M71,156.2c0,2.3,0,4.6,0.1,6.9c-1.5,0-3,0-4.5,0
					c0-2.3,0-4.6,0-6.9C68,156.2,69.5,156.2,71,156.2z M59.6,156.3c2.1-0.1,4.2-0.1,6.4-0.1c-0.1,2.3-0.1,4.6-0.1,6.9
					c-2,0-4-0.1-6.1-0.2C59.7,160.7,59.7,158.5,59.6,156.3z M54.4,163c1.7,0.1,3.3,0.3,5,0.4c0,2.1,0,4.3,0,6.4
					c-1.6,0-3.1,0-4.7-0.1C54.7,167.5,54.6,165.2,54.4,163z M54.7,170.2c1.6,0.1,3.1,0.1,4.7,0.2c0,2,0,4,0,6.1
					c-1.7,0-3.3,0-4.9-0.1C54.6,174.3,54.7,172.2,54.7,170.2z M54.2,183.3c0.1-2.1,0.2-4.2,0.3-6.4c1.7,0.1,3.3,0.1,5,0.2
					c0,1.9,0,3.7,0,5.6c0,0.2,0,0.4,0,0.7c-1.8,0-3.5,0.1-5.3,0.1C54.2,183.4,54.2,183.4,54.2,183.3z M54.1,184.2
					c1.8,0.1,3.5,0.1,5.3,0.1c0,2,0,4,0.1,6c-1.8,0.1-3.7,0.3-5.5,0.4C54,188.6,54.1,186.4,54.1,184.2z M54,191.3
					c1.8-0.1,3.7-0.1,5.5-0.2c0,2.1,0.1,4.2,0.1,6.3c-1.8,0-3.6,0-5.5,0C54.1,195.3,54,193.3,54,191.3z M54.2,198.1
					c1.8,0.1,3.6,0.2,5.5,0.2c0,1.8,0,3.6,0,5.3c-1.8-0.1-3.5-0.1-5.2-0.3C54.3,201.6,54.2,199.9,54.2,198.1z M54.8,209.1
					c-0.1-1.7-0.3-3.5-0.4-5.2c1.8,0.1,3.5,0.3,5.2,0.4c0,1.9,0.2,3.7,0.4,5.6C58.3,209.5,56.6,209.3,54.8,209.1z M61.1,209.9
					c-0.3-1.9-0.4-3.8-0.5-5.7c1.5,0.1,3.1,0.1,4.7,0.1c0,2.1,0.1,4.2,0.2,6.3C64,210.4,62.6,210.1,61.1,209.9z M66.3,204.4
					c1.7,0,3.4,0,5.2-0.1c0,2.4,0.1,4.9,0.1,7.3c-1.7-0.2-3.4-0.5-5.1-0.8C66.3,208.6,66.3,206.5,66.3,204.4z M73.5,211.8
					c-0.3,0-0.6-0.1-0.9-0.1c0-2.5-0.1-5-0.1-7.5c1.8-0.1,3.7-0.2,5.5-0.4c0.1,2.8,0.1,5.5,0.2,8.3C76.6,212,75,211.9,73.5,211.8z
					 M79.2,212.1c-0.1-2.8-0.1-5.6-0.2-8.4c1.7-0.2,3.5-0.4,5.2-0.7c0,2.9-0.1,5.8-0.1,8.6C82.5,211.9,80.9,212,79.2,212.1z
					 M85.3,211.4c0.1-2.9,0.2-5.8,0.3-8.7c1.2-0.2,2.4-0.4,3.7-0.6c0,2.8,0,5.6,0,8.3C87.9,210.9,86.6,211.2,85.3,211.4z"/>
			</g>
		</g>
		<g>
			<g>
				<path class="st19" d="M103.8,152.8c0.5,0.2,1.1,0.4,1.5,0.7c0.4,0.4,0.8,0.9,0.7,1.5c-0.1,0.6-0.6,1.1-1.1,1
					c0,0.2,0,0.3-0.1,0.5c-1.2,0.3-2.3-0.4-3.4-1c-0.8-0.4-1.7-0.8-2.6-1.1c-0.8-0.2-1.6-0.5-2-1.1c-0.3-0.5-0.2-1.1-0.1-1.7
					c0.2-0.5,0.5-1,0.7-1.5c1.4,0.3,2.8,0.5,4.2,0.8c0.2,0,0.5,0.1,0.6,0.2s0.3,0.4,0.2,0.6c-0.3,0-0.6,0.2-0.8,0.4
					C102.5,152.3,103.2,152.5,103.8,152.8z"/>
			</g>
			<g>
				<g>
					<path class="st21" d="M52.5,114.8c1.4-6.1,9.2-7.4,10.8,0.3c1.4,7,1.9,14.1,5,20.8c1.5,3.2,4.2,5.7,7.9,6.9
						c7.3,2.4,14.7,4.7,22.2,6.8c-0.3,1.6-0.6,3.2-1,4.8c-9.5-1.4-19-2.9-28.5-4.3c-1.8-0.3-3.7-0.6-5.4-1.5
						c-1.6-0.9-2.7-2.3-3.8-3.7C53,135.8,50.3,124.6,52.5,114.8z"/>
				</g>
			</g>
		</g>
	</g>
	<g>
		<g>
			<path class="st26" d="M94.7,142.7c2.1-2.3,3.9-4.8,5.8-7.1c3.6-4.5,7.5-8.7,11.5-12.9c0.9-0.9,1.8-1.9,3-2.4
				c1.6-0.7,3.3-0.3,5-0.1c8,1.1,16.1,0.8,24.2,1.1c1.1,0,2.1,0.1,3.1,0.6c1.8,1.1,2.1,3.6,1.7,5.7c-1,4.5-4.3,8.1-7.3,11.6
				c-4.4,5.1-8.4,10.4-12.1,16c-1.1,1.6-2.1,3.3-3.8,4.3c-1.5,0.9-3.3,1.1-5,1.2c-10.8,0.6-21.2-3-31.8-4.9
				c-0.9-0.2-3.6-0.5-3.8-1.8c-0.2-1.1,1.9-3.1,2.5-3.8C89.7,147.5,92.4,145.3,94.7,142.7z"/>
		</g>
		<g>
			<path class="st18" d="M95.9,142.4c2-2.1,3.7-4.5,5.5-6.8c3.4-4.3,7.1-8.2,10.8-12.2c0.8-0.9,1.7-1.8,2.8-2.3
				c1.5-0.6,3.2-0.3,4.8-0.1c7.6,1.1,15.2,0.8,22.9,1c1,0,2,0.1,2.9,0.6c1.7,1,2,3.4,1.6,5.4c-0.9,4.3-4.1,7.6-6.9,10.9
				c-4.2,4.8-8,9.8-11.4,15.1c-1,1.5-2,3.1-3.6,4.1c-1.4,0.8-3.1,1.1-4.7,1.1c-10.2,0.6-20.1-2.9-30.1-4.6c-0.9-0.1-3.4-0.5-3.6-1.7
				c-0.2-1,1.8-2.9,2.3-3.6C91.2,147,93.7,144.8,95.9,142.4z"/>
		</g>
	</g>
	<g>
		<path class="st19" d="M36.6,279.4c-0.1,0.3-0.2,0.7-0.2,1c0.1,0.5,0.5,0.8,0.9,1c0.8,0.4,1.7,0.5,2.5,0.5c2.8,0.2,5.5,0.5,8.2,0.9
			c0.5,0.1,1,0.1,1.5,0.1c0.7-0.1,1.3-0.4,1.7-0.9c0.4-0.5,0.6-1.2,0.4-1.9c-0.2-0.7-0.8-1.1-1.4-1.4s-1.3-0.3-2-0.3
			c-0.9,0-1.9,0-2.8,0.1c-0.7,0.1-1.4,0.1-1.8-0.4c-0.2-0.2-0.3-0.5-0.4-0.7c-0.4-0.5-1.1-0.6-1.8-0.7c-1-0.1-1.9-0.2-2.9-0.3
			c-0.7-0.1-0.9,0.1-1.1,0.7C37.2,277.8,36.9,278.6,36.6,279.4z"/>
	</g>
	<g>
		<path class="st10" d="M45,279.4c0.7-1.4,2.2-2.2,3.6-2.9c0.6-0.3,1.2-0.6,1.9-0.6c0.8,0,1.4,0.4,2,0.9c1.5,1.2,2.4,3.1,2.3,5.1
			c-0.1,0.8-0.3,1.6-0.9,2.1c-1,1-2.5,0.9-3.9,0.8c-4-0.3-7.9-0.7-11.9-1c-2.3-0.2-5-0.5-6.4-2.4c-0.2-0.3-0.4-0.8-0.2-1
			c0.2-0.2,0.5-0.2,0.8-0.1c2.7,0.5,5.3,1,8,1.5c0.8,0.1,2.7,0.9,3.4,0.4C44.5,281.7,44.7,280.1,45,279.4z"/>
	</g>
	<g>
		<path class="st10" d="M78.6,284.1c1.8,0.1,3.7,0.2,5.3-0.5s3.1-2.3,2.9-4.1c-0.1-0.6-0.3-1.2-0.7-1.8c-1.1-1.7-3.3-2.8-5.3-2.6
			c-2.1,0.2-4,1.5-4.8,3.5c-0.3,0.7-0.5,1.5-1.1,2.1c-0.6,0.6-1.6,0.7-2.4,0.7c-1.6,0-3.2-0.1-4.8-0.4c-0.9-0.2-3-0.7-3.3,0.7
			c-0.3,1.6,1.7,1.6,2.6,1.7C70.9,283.6,74.8,283.9,78.6,284.1z"/>
	</g>
	<g>
		<path class="st6" d="M121,157.4c0.7,0,1.4,0.1,2-0.2c0.6-0.3,1-0.9,1.4-1.4c4.3-6.3,10.6-12.7,14.9-19c2.2-3.3,4.5-6.7,6.2-10.4
			c0.2-0.4,0.3-0.9,0-1.2c-0.1-0.1-0.3-0.1-0.4-0.2c-8.1-1.7-18.4-2.5-26.6-2.7c-1.1,0-2.3,0-3.3,0.5c-0.9,0.4-1.5,1.2-2.1,2
			c-5.4,6.9-11.1,13.6-17,20c-1.5,1.6-3,3.2-4.5,4.8c-0.5,0.6-1.6,1.3-1.3,2.1c0.3,0.8,1.5,0.9,2.2,1.1c4.4,0.9,8.9,1.9,13.3,2.6
			C110.9,156.4,115.9,157.1,121,157.4z"/>
	</g>
	<g>
		<g>
			<path class="st3" d="M116.3,149.8c-0.3,0.5-0.6,1-0.7,1.6c-0.2,0.7-0.3,1.4-0.2,2c0.2,1.1,1.1,1.9,2,2.3c1,0.4,2.1,0.4,3.2,0.2
				c1-0.2,2-0.7,2.7-1.5s1.1-1.9,0.9-2.9c-0.1-0.5-0.3-0.9-0.5-1.4c-0.2-0.5-0.5-1-0.9-1.3c-0.9-0.7-2.5-0.7-3.6-0.6
				C118.1,148.4,117,148.9,116.3,149.8z"/>
		</g>
		<g>
			<g>
				<path class="st12" d="M121.4,153.1c-0.2,0.1-0.4,0.4-0.3,0.6c0.2,0.5,0.8,0.5,1,0.1C122.4,153.4,121.9,152.8,121.4,153.1z"/>
			</g>
			<g>
				<path class="st12" d="M118.9,152c0.1-0.2,0.1-0.5-0.1-0.6c-0.1-0.1-0.2-0.1-0.3-0.1c-0.1-0.1-0.2-0.1-0.2-0.1
					c-0.2,0.1-0.3,0.2-0.3,0.4C117.9,152.2,118.6,152.4,118.9,152z"/>
			</g>
			<g>
				<path class="st12" d="M120.9,150c0-0.1-0.1-0.1-0.1-0.1c0,0-0.1,0.1-0.1,0.1c-0.1,0-0.1,0.1-0.1,0.2c0,0,0,0,0,0.1
					c0,0.1,0.1,0.3,0.3,0.3C121.1,150.5,121.1,150.1,120.9,150z"/>
			</g>
			<g>
				<path class="st12" d="M118.6,154c-0.1,0-0.1,0.1-0.1,0.1c-0.1,0-0.1,0.1-0.1,0.1c-0.1,0.2,0.1,0.4,0.3,0.4
					c0.2,0,0.4-0.2,0.4-0.4C119.1,154,118.8,154,118.6,154z"/>
			</g>
			<g>
				<path class="st12" d="M122.9,150.9c-0.1,0-0.1,0.1-0.1,0.1c-0.1,0.1-0.2,0.2-0.2,0.3c0.1,0.2,0.3,0.2,0.4,0.2
					C123.4,151.4,123.3,150.8,122.9,150.9z"/>
			</g>
		</g>
	</g>
	<g>
		<g>
			<path class="st3" d="M96.3,146.1c-0.7,0.6-1.3,1.4-1.4,2.4c-0.1,1.2,0.6,2.3,1.6,3s2.2,0.9,3.4,0.8c1.3-0.1,2.6-0.5,3.3-1.6
				c0.2-0.3,0.3-0.6,0.4-1c0.2-0.8,0.3-1.8,0.1-2.6c-0.3-0.9-1.1-1.6-1.9-1.9C99.9,144.5,97.8,144.9,96.3,146.1z"/>
		</g>
		<g>
			<g>
				<path class="st12" d="M99.3,150L99.3,150c0.1,0,0.1-0.1,0-0.2c-0.2,0-0.4,0-0.6,0.1c-0.1,0-0.2,0.1-0.2,0.1
					c-0.1,0-0.1,0.1-0.2,0.1c-0.3,0.4-0.1,0.8,0.3,0.9c0.4,0.1,0.9,0.1,1-0.4C99.7,150.4,99.6,150.1,99.3,150z"/>
			</g>
			<g>
				<path class="st12" d="M96.7,147.4c-0.2,0.1-0.4,0.4-0.3,0.6c0,0.1,0.2,0.2,0.3,0.3c0,0,0,0,0.1,0c0,0,0.1,0,0.1,0c0,0,0,0,0,0h0
					c0,0,0.1,0,0.1,0c0,0,0,0,0,0c0,0,0,0,0,0c0,0,0.1-0.1,0.1-0.1c0,0,0,0,0,0c0.1-0.1,0.1-0.2,0.1-0.3
					C97.1,147.6,96.9,147.3,96.7,147.4z"/>
			</g>
			<g>
				<path class="st12" d="M99.3,147.3c-0.2,0-0.3,0.1-0.4,0.3c-0.2,0.2-0.3,0.4-0.1,0.7c0.1,0.2,0.4,0.2,0.6,0.1
					c0.2-0.1,0.4-0.3,0.4-0.6C99.8,147.5,99.6,147.2,99.3,147.3z"/>
			</g>
			<g>
				<path class="st12" d="M102.4,148.3c0-0.1-0.1-0.2-0.2-0.2c0,0-0.1-0.1-0.1-0.1c0,0-0.1,0-0.1,0c-0.1,0-0.1,0-0.2,0
					c-0.1,0-0.2,0.1-0.2,0.1c-0.1,0.1-0.1,0.3,0,0.4C102,148.9,102.5,148.7,102.4,148.3z"/>
			</g>
			<g>
				<path class="st12" d="M101.2,146.1C101.2,146.1,101.2,146.1,101.2,146.1C101.2,146.1,101.2,146.1,101.2,146.1
					c-0.1,0-0.2,0-0.2,0c-0.1,0-0.2,0.1-0.2,0.2c-0.1,0.3,0.2,0.5,0.5,0.4c0.1,0,0.2-0.1,0.3-0.2c0,0,0,0,0-0.1c0,0,0,0,0,0
					c0,0,0,0,0-0.1c0,0,0,0,0,0C101.7,146.2,101.5,146.1,101.2,146.1z"/>
			</g>
		</g>
	</g>
	<g>
		<g>
			<path class="st3" d="M105.5,149.4c-0.3,0.5-0.4,1.1-0.4,1.6c0,1,0.3,2.1,1.1,2.7c0.4,0.3,1,0.4,1.5,0.6c0.8,0.2,1.5,0.3,2.3,0.3
				c0.4,0,0.9-0.1,1.3-0.2c0.4-0.1,0.9-0.2,1.3-0.4c0.8-0.6,1.1-1.7,1.2-2.7c0.1-0.5,0.1-1.1,0-1.6c-0.2-0.9-1-1.6-1.9-1.9
				C109.9,147.1,106.6,147.4,105.5,149.4z"/>
		</g>
		<g>
			<g>
				<path class="st12" d="M109.2,149.5c0,0.1-0.1,0.1-0.1,0.2c-0.1,0.2,0.1,0.4,0.2,0.6c0.2,0.1,0.4,0.2,0.6,0.1
					c0.2-0.1,0.3-0.3,0.2-0.5C110.1,149.4,109.5,149.1,109.2,149.5z"/>
			</g>
			<g>
				<path class="st12" d="M108.7,152c-0.1-0.1-0.3-0.1-0.4,0c-0.2,0-0.4,0.1-0.3,0.4c0.1,0.4,0.7,0.4,0.8,0.1
					C108.9,152.3,108.9,152.1,108.7,152z"/>
			</g>
			<g>
				<path class="st12" d="M111.5,151c-0.2-0.1-0.5,0.1-0.5,0.3c0,0.1-0.1,0.2,0,0.2c0.1,0.2,0.4,0.2,0.6,0
					C111.8,151.4,111.7,151.1,111.5,151z"/>
			</g>
			<g>
				<path class="st12" d="M111.2,148.3C111.2,148.3,111.2,148.3,111.2,148.3c-0.4,0-0.4,0.5-0.1,0.5
					C111.5,148.9,111.5,148.4,111.2,148.3z"/>
			</g>
			<g>
				<path class="st12" d="M107.1,150.3c0-0.2-0.3-0.3-0.5-0.2c-0.2,0.2-0.3,0.6-0.1,0.8c0.1,0.2,0.5,0.3,0.7,0.1
					C107.4,150.8,107.3,150.6,107.1,150.3C107.1,150.4,107.1,150.4,107.1,150.3z"/>
			</g>
		</g>
	</g>
	<g>
		<g>
			<path class="st3" d="M102.1,139.6c-0.3,0.5-0.4,1.1-0.4,1.6c0,1,0.3,2.1,1.1,2.7c0.4,0.3,1,0.4,1.5,0.6c0.8,0.2,1.5,0.3,2.3,0.3
				c0.4,0,0.9-0.1,1.3-0.2c0.4-0.1,0.9-0.2,1.3-0.4c0.8-0.6,1.1-1.7,1.2-2.7c0.1-0.5,0.1-1.1,0-1.6c-0.2-0.9-1-1.6-1.9-1.9
				C106.5,137.3,103.2,137.6,102.1,139.6z"/>
		</g>
		<g>
			<g>
				<path class="st12" d="M105.8,139.7c0,0.1-0.1,0.1-0.1,0.2c-0.1,0.2,0.1,0.4,0.2,0.6c0.2,0.1,0.4,0.2,0.6,0.1
					c0.2-0.1,0.3-0.3,0.2-0.5C106.7,139.6,106.1,139.3,105.8,139.7z"/>
			</g>
			<g>
				<path class="st12" d="M105.3,142.2c-0.1-0.1-0.3-0.1-0.4,0c-0.2,0-0.4,0.1-0.3,0.4c0.1,0.4,0.7,0.4,0.8,0.1
					C105.5,142.5,105.5,142.3,105.3,142.2z"/>
			</g>
			<g>
				<path class="st12" d="M108.1,141.2c-0.2-0.1-0.5,0.1-0.5,0.3c0,0.1-0.1,0.2,0,0.2c0.1,0.2,0.4,0.2,0.6,0
					C108.4,141.6,108.3,141.4,108.1,141.2z"/>
			</g>
			<g>
				<path class="st12" d="M107.8,138.5C107.8,138.5,107.8,138.5,107.8,138.5c-0.4,0-0.4,0.5-0.1,0.5
					C108.1,139.1,108.1,138.6,107.8,138.5z"/>
			</g>
			<g>
				<path class="st12" d="M103.7,140.6c0-0.2-0.3-0.3-0.5-0.2c-0.2,0.2-0.3,0.6-0.1,0.8c0.1,0.2,0.5,0.3,0.7,0.1
					C104.1,141.1,103.9,140.8,103.7,140.6C103.8,140.6,103.8,140.6,103.7,140.6z"/>
			</g>
		</g>
	</g>
	<g>
		<g>
			<path class="st3" d="M117,133.9c-0.3,0.5-0.4,1.1-0.4,1.6c0,1,0.3,2.1,1.1,2.7c0.4,0.3,1,0.4,1.5,0.6c0.8,0.2,1.5,0.3,2.3,0.3
				c0.4,0,0.9-0.1,1.3-0.2c0.4-0.1,0.9-0.2,1.3-0.4c0.8-0.6,1.1-1.7,1.2-2.7c0.1-0.5,0.1-1.1,0-1.6c-0.2-0.9-1-1.6-1.9-1.9
				C121.4,131.5,118.1,131.8,117,133.9z"/>
		</g>
		<g>
			<g>
				<path class="st12" d="M120.7,133.9c0,0.1-0.1,0.1-0.1,0.2c-0.1,0.2,0.1,0.4,0.2,0.6c0.2,0.1,0.4,0.2,0.6,0.1
					c0.2-0.1,0.3-0.3,0.2-0.5C121.6,133.8,121,133.5,120.7,133.9z"/>
			</g>
			<g>
				<path class="st12" d="M120.2,136.4c-0.1-0.1-0.3-0.1-0.4,0c-0.2,0-0.4,0.1-0.3,0.4c0.1,0.4,0.7,0.4,0.8,0.1
					C120.4,136.7,120.4,136.5,120.2,136.4z"/>
			</g>
			<g>
				<path class="st12" d="M123,135.4c-0.2-0.1-0.5,0.1-0.5,0.3c0,0.1-0.1,0.2,0,0.2c0.1,0.2,0.4,0.2,0.6,0
					C123.3,135.9,123.2,135.6,123,135.4z"/>
			</g>
			<g>
				<path class="st12" d="M122.7,132.7C122.7,132.7,122.7,132.7,122.7,132.7c-0.4,0-0.4,0.5-0.1,0.5
					C123,133.3,123,132.8,122.7,132.7z"/>
			</g>
			<g>
				<path class="st12" d="M118.7,134.8c0-0.2-0.3-0.3-0.5-0.2c-0.2,0.2-0.3,0.6-0.1,0.8c0.1,0.2,0.5,0.3,0.7,0.1
					C119,135.2,118.8,135,118.7,134.8C118.7,134.8,118.7,134.8,118.7,134.8z"/>
			</g>
		</g>
	</g>
	<g>
		<g>
			<path class="st3" d="M127.8,135.1c-0.3,0.5-0.4,1.1-0.4,1.6c0,1,0.3,2.1,1.1,2.7c0.4,0.3,1,0.4,1.5,0.6c0.8,0.2,1.5,0.3,2.3,0.3
				c0.4,0,0.9-0.1,1.3-0.2c0.4-0.1,0.9-0.2,1.3-0.4c0.9-0.6,1.1-1.7,1.2-2.7c0.1-0.5,0.1-1.1,0-1.6c-0.2-0.9-1-1.6-1.9-1.9
				C132.3,132.7,128.9,133,127.8,135.1z"/>
		</g>
		<g>
			<g>
				<path class="st12" d="M131.6,135.2c0,0.1-0.1,0.1-0.1,0.2c-0.1,0.2,0.1,0.4,0.2,0.6c0.2,0.1,0.4,0.2,0.6,0.1
					c0.2-0.1,0.3-0.3,0.2-0.5C132.5,135.1,131.8,134.7,131.6,135.2z"/>
			</g>
			<g>
				<path class="st12" d="M131.1,137.6c-0.1-0.1-0.3-0.1-0.4,0c-0.2,0-0.4,0.1-0.4,0.4c0.1,0.4,0.7,0.4,0.8,0.1
					C131.3,137.9,131.2,137.7,131.1,137.6z"/>
			</g>
			<g>
				<path class="st12" d="M133.9,136.7c-0.2-0.1-0.5,0.1-0.5,0.3c0,0.1-0.1,0.2,0,0.2c0.1,0.2,0.4,0.2,0.6,0
					C134.1,137.1,134.1,136.8,133.9,136.7z"/>
			</g>
			<g>
				<path class="st12" d="M133.6,134C133.6,134,133.6,134,133.6,134c-0.4,0-0.4,0.5-0.1,0.5C133.9,134.6,133.9,134,133.6,134z"/>
			</g>
			<g>
				<path class="st12" d="M129.5,136c0-0.2-0.3-0.3-0.5-0.2c-0.2,0.2-0.3,0.6-0.1,0.8c0.1,0.2,0.5,0.3,0.7,0.1
					C129.8,136.5,129.7,136.2,129.5,136C129.5,136,129.5,136,129.5,136z"/>
			</g>
		</g>
	</g>
	<g>
		<g>
			<path class="st3" d="M114.3,125.2c-0.3,0.5-0.4,1.1-0.4,1.7c0,1,0.3,2.1,1.1,2.7c0.4,0.3,1,0.4,1.5,0.6c0.8,0.2,1.5,0.3,2.3,0.3
				c0.4,0,0.9-0.1,1.3-0.2c0.4-0.1,0.9-0.2,1.3-0.4c0.8-0.6,1.1-1.7,1.2-2.7c0.1-0.5,0.1-1.1,0-1.6c-0.2-0.9-1-1.6-1.9-1.9
				C118.7,122.8,115.4,123.1,114.3,125.2z"/>
		</g>
		<g>
			<g>
				<path class="st12" d="M118.1,125.2c0,0.1-0.1,0.1-0.1,0.2c-0.1,0.2,0.1,0.4,0.2,0.6c0.2,0.2,0.4,0.2,0.6,0.1
					c0.2-0.1,0.3-0.3,0.2-0.5C118.9,125.1,118.3,124.8,118.1,125.2z"/>
			</g>
			<g>
				<path class="st12" d="M117.5,127.7c-0.1-0.1-0.3-0.1-0.4,0c-0.2,0-0.4,0.1-0.3,0.4c0.1,0.4,0.7,0.4,0.8,0.1
					C117.7,128,117.7,127.8,117.5,127.7z"/>
			</g>
			<g>
				<path class="st12" d="M120.3,126.7c-0.2-0.1-0.5,0.1-0.5,0.3c0,0.1-0.1,0.2,0,0.2c0.1,0.2,0.4,0.2,0.6,0
					C120.6,127.2,120.6,126.8,120.3,126.7z"/>
			</g>
			<g>
				<path class="st12" d="M120.1,124C120,124,120,124,120.1,124c-0.4,0-0.4,0.5-0.1,0.5C120.3,124.6,120.4,124.1,120.1,124z"/>
			</g>
			<g>
				<path class="st12" d="M116,126.1c0-0.2-0.3-0.3-0.5-0.2c-0.2,0.2-0.3,0.6-0.1,0.8c0.1,0.2,0.5,0.3,0.7,0.1
					C116.3,126.6,116.2,126.3,116,126.1C116,126.1,116,126.1,116,126.1z"/>
			</g>
		</g>
	</g>
	<g>
		<g>
			<path class="st3" d="M112.2,141.2c-0.3,0.5-0.6,1-0.7,1.6c-0.2,0.7-0.3,1.4-0.2,2c0.2,1.1,1.1,1.9,2,2.3c1,0.4,2.1,0.4,3.2,0.2
				c1-0.2,2-0.7,2.7-1.5s1.1-1.9,0.9-2.9c-0.1-0.5-0.3-0.9-0.5-1.4c-0.2-0.5-0.5-1-0.9-1.3c-0.9-0.7-2.5-0.7-3.6-0.6
				C114,139.8,112.9,140.4,112.2,141.2z"/>
		</g>
		<g>
			<g>
				<path class="st12" d="M117.3,144.5c-0.2,0.1-0.4,0.4-0.3,0.6c0.2,0.5,0.8,0.5,1,0.1C118.3,144.8,117.8,144.2,117.3,144.5z"/>
			</g>
			<g>
				<path class="st12" d="M114.8,143.4c0.1-0.2,0.1-0.5-0.1-0.6c-0.1-0.1-0.2-0.1-0.3-0.1c-0.1-0.1-0.2-0.1-0.2-0.1
					c-0.2,0.1-0.3,0.2-0.3,0.4C113.8,143.6,114.5,143.8,114.8,143.4z"/>
			</g>
			<g>
				<path class="st12" d="M116.8,141.4c0-0.1-0.1-0.1-0.1-0.1c0,0-0.1,0.1-0.1,0.1c-0.1,0-0.1,0.1-0.1,0.2c0,0,0,0,0,0.1
					c0,0.1,0.1,0.3,0.3,0.3C117,141.9,116.9,141.6,116.8,141.4z"/>
			</g>
			<g>
				<path class="st12" d="M114.5,145.4c-0.1,0-0.1,0.1-0.1,0.1c-0.1,0-0.1,0.1-0.1,0.1c-0.1,0.2,0.1,0.4,0.3,0.4
					c0.2,0,0.4-0.2,0.4-0.4C115,145.4,114.7,145.4,114.5,145.4z"/>
			</g>
			<g>
				<path class="st12" d="M118.8,142.3c-0.1,0-0.1,0.1-0.1,0.1c-0.1,0.1-0.2,0.2-0.2,0.3c0.1,0.2,0.3,0.2,0.4,0.2
					C119.3,142.8,119.2,142.2,118.8,142.3z"/>
			</g>
		</g>
	</g>
	<g>
		<g>
			<path class="st3" d="M108.2,131.6c-0.3,0.5-0.6,1-0.7,1.6c-0.2,0.7-0.3,1.4-0.2,2c0.2,1.1,1.1,1.9,2,2.3c1,0.4,2.1,0.4,3.2,0.2
				c1-0.2,2-0.7,2.7-1.5s1.1-1.9,0.9-2.9c-0.1-0.5-0.3-0.9-0.5-1.4c-0.2-0.5-0.5-1-0.9-1.3c-0.9-0.7-2.5-0.7-3.6-0.6
				C110,130.2,108.9,130.8,108.2,131.6z"/>
		</g>
		<g>
			<g>
				<path class="st12" d="M113.3,135c-0.2,0.1-0.4,0.4-0.3,0.6c0.2,0.5,0.8,0.5,1,0.1C114.3,135.2,113.8,134.7,113.3,135z"/>
			</g>
			<g>
				<path class="st12" d="M110.8,133.8c0.1-0.2,0.1-0.5-0.1-0.6c-0.1-0.1-0.2-0.1-0.3-0.1c-0.1-0.1-0.2-0.1-0.2-0.1
					c-0.2,0.1-0.3,0.2-0.3,0.4C109.8,134,110.5,134.3,110.8,133.8z"/>
			</g>
			<g>
				<path class="st12" d="M112.8,131.9c0-0.1-0.1-0.1-0.1-0.1c0,0-0.1,0.1-0.1,0.1c-0.1,0-0.1,0.1-0.1,0.2c0,0,0,0,0,0.1
					c0,0.1,0.1,0.3,0.3,0.3C113,132.4,112.9,132,112.8,131.9z"/>
			</g>
			<g>
				<path class="st12" d="M110.5,135.9c-0.1,0-0.1,0.1-0.1,0.1c-0.1,0-0.1,0.1-0.1,0.1c-0.1,0.2,0.1,0.4,0.3,0.4
					c0.2,0,0.4-0.2,0.4-0.4C111,135.9,110.7,135.8,110.5,135.9z"/>
			</g>
			<g>
				<path class="st12" d="M114.8,132.7c-0.1,0-0.1,0.1-0.1,0.1c-0.1,0.1-0.2,0.2-0.2,0.3c0.1,0.2,0.3,0.2,0.4,0.2
					C115.3,133.3,115.2,132.6,114.8,132.7z"/>
			</g>
		</g>
	</g>
	<g>
		<g>
			<path class="st3" d="M123.1,142.3c-0.7,0.6-1.3,1.4-1.4,2.4c-0.1,1.2,0.6,2.3,1.6,3s2.2,0.9,3.4,0.8c1.3-0.1,2.6-0.5,3.3-1.6
				c0.2-0.3,0.3-0.6,0.4-1c0.2-0.8,0.3-1.8,0.1-2.6c-0.3-0.9-1.1-1.6-1.9-1.9C126.7,140.7,124.6,141.1,123.1,142.3z"/>
		</g>
		<g>
			<g>
				<path class="st12" d="M126.1,146.2L126.1,146.2c0.1,0,0.1-0.1,0-0.2c-0.2,0-0.4,0-0.6,0.1c-0.1,0-0.2,0.1-0.2,0.1
					c-0.1,0-0.1,0.1-0.2,0.1c-0.3,0.4-0.1,0.8,0.3,0.9c0.4,0.1,0.9,0.1,1-0.4C126.5,146.6,126.3,146.3,126.1,146.2z"/>
			</g>
			<g>
				<path class="st12" d="M123.4,143.6c-0.2,0.1-0.4,0.4-0.3,0.6c0,0.1,0.2,0.2,0.3,0.3c0,0,0,0,0.1,0c0,0,0.1,0,0.1,0c0,0,0,0,0,0
					c0,0,0,0,0,0c0,0,0.1,0,0.1,0c0,0,0,0,0,0c0,0,0,0,0,0c0,0,0.1-0.1,0.1-0.1c0,0,0,0,0,0c0.1-0.1,0.1-0.2,0.1-0.3
					C123.8,143.8,123.7,143.5,123.4,143.6z"/>
			</g>
			<g>
				<path class="st12" d="M126.1,143.5c-0.2,0-0.3,0.1-0.4,0.3c-0.2,0.2-0.3,0.4-0.1,0.7c0.1,0.2,0.4,0.2,0.6,0.1
					c0.2-0.1,0.4-0.3,0.4-0.6C126.6,143.7,126.4,143.4,126.1,143.5z"/>
			</g>
			<g>
				<path class="st12" d="M129.2,144.5c0-0.1-0.1-0.2-0.2-0.2c0,0-0.1-0.1-0.1-0.1c0,0-0.1,0-0.1,0c-0.1,0-0.1,0-0.1,0
					c-0.1,0-0.2,0.1-0.2,0.1c-0.1,0.1-0.1,0.3,0,0.4C128.8,145.1,129.3,144.9,129.2,144.5z"/>
			</g>
			<g>
				<path class="st12" d="M128,142.3C128,142.3,128,142.3,128,142.3c-0.1,0-0.1,0-0.1,0c0,0-0.1,0-0.1,0c-0.1,0-0.2,0.1-0.2,0.2
					c-0.1,0.3,0.2,0.5,0.5,0.4c0.1,0,0.2-0.1,0.3-0.2c0,0,0,0,0-0.1c0,0,0,0,0,0c0,0,0,0,0-0.1c0,0,0,0,0,0
					C128.4,142.4,128.2,142.2,128,142.3z"/>
			</g>
		</g>
	</g>
	<g>
		<g>
			<path class="st3" d="M124.9,125.1c-0.7,0.6-1.3,1.4-1.4,2.4c-0.1,1.2,0.6,2.3,1.6,3s2.2,0.9,3.4,0.8c1.3-0.1,2.6-0.5,3.3-1.6
				c0.2-0.3,0.3-0.6,0.4-1c0.2-0.8,0.3-1.8,0.1-2.6c-0.3-0.9-1.1-1.6-1.9-1.9C128.6,123.5,126.5,123.9,124.9,125.1z"/>
		</g>
		<g>
			<g>
				<path class="st12" d="M128,129L128,129c0.1,0,0.1-0.1,0-0.2c-0.2,0-0.4,0-0.6,0.1c-0.1,0-0.2,0.1-0.2,0.1
					c-0.1,0-0.1,0.1-0.2,0.1c-0.3,0.4-0.1,0.8,0.3,0.9c0.4,0.1,0.9,0.1,1-0.4C128.4,129.4,128.2,129.1,128,129z"/>
			</g>
			<g>
				<path class="st12" d="M125.3,126.4c-0.2,0.1-0.4,0.3-0.3,0.6c0,0.2,0.2,0.2,0.3,0.3c0,0,0,0,0.1,0c0,0,0.1,0,0.1,0c0,0,0,0,0,0
					c0,0,0,0,0,0c0,0,0.1,0,0.1,0c0,0,0,0,0,0c0,0,0,0,0,0c0,0,0.1-0.1,0.1-0.1c0,0,0,0,0,0c0.1-0.1,0.1-0.2,0.1-0.3
					C125.7,126.6,125.6,126.3,125.3,126.4z"/>
			</g>
			<g>
				<path class="st12" d="M127.9,126.2c-0.2,0-0.3,0.1-0.4,0.3c-0.2,0.2-0.3,0.4-0.1,0.7c0.1,0.2,0.4,0.2,0.6,0.1
					c0.2-0.1,0.4-0.3,0.4-0.6C128.4,126.5,128.2,126.2,127.9,126.2z"/>
			</g>
			<g>
				<path class="st12" d="M131.1,127.3c0-0.1-0.1-0.2-0.2-0.2c0,0-0.1-0.1-0.1-0.1c0,0-0.1,0-0.1,0c-0.1,0-0.1,0-0.1,0
					c-0.1,0-0.2,0.1-0.2,0.2c-0.1,0.1-0.1,0.3,0,0.4C130.6,127.9,131.2,127.7,131.1,127.3z"/>
			</g>
			<g>
				<path class="st12" d="M129.9,125.1C129.9,125.1,129.9,125.1,129.9,125.1c-0.1,0-0.1,0-0.1,0c0,0-0.1,0-0.1,0
					c-0.1,0-0.2,0.1-0.2,0.2c-0.1,0.3,0.2,0.5,0.5,0.4c0.1,0,0.2-0.1,0.3-0.2c0,0,0,0,0-0.1c0,0,0,0,0,0c0,0,0,0,0-0.1c0,0,0,0,0,0
					C130.3,125.2,130.1,125,129.9,125.1z"/>
			</g>
		</g>
	</g>
	<g>
		<g>
			<path class="st3" d="M134.9,126.9c-0.7,0.6-1.3,1.5-1.4,2.4c-0.1,1.2,0.6,2.3,1.6,3c1,0.7,2.2,0.9,3.4,0.8
				c1.3-0.1,2.6-0.5,3.3-1.6c0.2-0.3,0.3-0.6,0.4-1c0.2-0.8,0.3-1.8,0.1-2.6c-0.3-0.9-1.1-1.6-1.9-1.9
				C138.5,125.3,136.4,125.7,134.9,126.9z"/>
		</g>
		<g>
			<g>
				<path class="st12" d="M137.9,130.8L137.9,130.8c0.1,0,0.1-0.1,0-0.2c-0.2,0-0.4,0-0.6,0.1c-0.1,0-0.2,0.1-0.2,0.1
					c-0.1,0-0.1,0.1-0.1,0.1c-0.3,0.4-0.1,0.8,0.3,0.9c0.4,0.1,0.9,0.1,1-0.4C138.3,131.2,138.1,130.9,137.9,130.8z"/>
			</g>
			<g>
				<path class="st12" d="M135.2,128.2c-0.2,0.1-0.4,0.4-0.3,0.6c0,0.1,0.2,0.2,0.3,0.3c0,0,0,0,0.1,0c0,0,0.1,0,0.1,0c0,0,0,0,0,0
					c0,0,0,0,0,0c0,0,0.1,0,0.1,0c0,0,0,0,0,0c0,0,0,0,0,0c0,0,0.1-0.1,0.1-0.1c0,0,0,0,0,0c0.1-0.1,0.1-0.2,0.1-0.3
					C135.7,128.4,135.5,128.1,135.2,128.2z"/>
			</g>
			<g>
				<path class="st12" d="M137.9,128.1c-0.2,0-0.3,0.1-0.4,0.3c-0.2,0.2-0.3,0.4-0.1,0.7c0.1,0.2,0.4,0.2,0.6,0.1
					c0.2-0.1,0.4-0.3,0.4-0.6C138.4,128.3,138.2,128,137.9,128.1z"/>
			</g>
			<g>
				<path class="st12" d="M141,129.1c0-0.1-0.1-0.2-0.2-0.2c0,0-0.1-0.1-0.1-0.1c0,0-0.1,0-0.1,0c-0.1,0-0.1,0-0.1,0
					c-0.1,0-0.2,0.1-0.2,0.1c-0.1,0.1-0.1,0.3,0,0.4C140.6,129.7,141.1,129.5,141,129.1z"/>
			</g>
			<g>
				<path class="st12" d="M139.8,126.9C139.8,126.9,139.8,126.9,139.8,126.9c-0.1,0-0.1,0-0.1,0c0,0-0.1,0-0.1,0
					c-0.1,0-0.2,0.1-0.2,0.2c-0.1,0.3,0.2,0.5,0.5,0.4c0.1,0,0.2-0.1,0.3-0.2c0,0,0,0,0-0.1c0,0,0,0,0,0c0,0,0,0,0-0.1c0,0,0,0,0,0
					C140.2,127,140.1,126.8,139.8,126.9z"/>
			</g>
		</g>
	</g>
</g>
</svg>
