<?xml version="1.0" encoding="utf-8"?>
<!-- Generator: Adobe Illustrator 26.0.1, SVG Export Plug-In . SVG Version: 6.00 Build 0)  -->
<svg version="1.1" id="Ebene_1" xmlns="http://www.w3.org/2000/svg" xmlns:xlink="http://www.w3.org/1999/xlink" x="0px" y="0px"
	 viewBox="0 0 1920 1080" style="enable-background:new 0 0 1920 1080;" xml:space="preserve">
<style type="text/css">
	.st0{opacity:0.62;fill:#9EB7E0;}
</style>
<g>
	<path class="st0" d="M-310.4,353.2c268.4-98.4,456.8,25.5,762.3,13.4c151.7-6,400.5-182.7,547.7-204.1
		c131.6-19.2,317.7-1.7,393.3,31.7c106.9,47.3,188.8,104.9,132.8,200.8c-48,82.1-415.8,88.3-533.5,112.5
		c-245.6,50.4,177.4,377.2-164.7,467.8C636.6,1025.8,187.1,808.4-63,762.1c-215.1-39.8-649.1,40.8-764.9,25.6
		C-1216,736.6-1256.4,596-707.5,523.6C-401.5,483.1-456.3,406.7-310.4,353.2z"/>
	<path class="st0" d="M-360,285.6c268.4-98.4,456.8,25.5,762.3,13.4C553.9,293,802.7,116.3,950,94.9
		c131.6-19.2,317.7-1.7,393.3,31.7c106.9,47.3,188.8,104.9,132.8,200.8c-48,82.1-415.8,88.3-533.5,112.5
		C697,490.2,1120,817.1,777.9,907.7C587,958.3,137.5,740.9-112.6,694.6c-215.1-39.8-649.1,40.8-764.9,25.6
		C-1265.6,669.1-1306,528.5-757.2,456C-451.1,415.6-505.9,339.1-360,285.6z"/>
</g>
</svg>
