<?xml version="1.0" encoding="utf-8"?>
<!-- Generator: Adobe Illustrator 26.0.1, SVG Export Plug-In . SVG Version: 6.00 Build 0)  -->
<svg version="1.1" id="Ebene_1" xmlns="http://www.w3.org/2000/svg" xmlns:xlink="http://www.w3.org/1999/xlink" x="0px" y="0px"
	 viewBox="0 0 1920 1080" style="enable-background:new 0 0 1920 1080;" xml:space="preserve">
<style type="text/css">
	.st0{opacity:0.62;fill:#9EB7E0;enable-background:new    ;}
</style>
<g>
	<path class="st0" d="M892.5,972.4c242.3,125.4,434.4,2.7,721.7,36.3c142.6,16.7,357.6,226.3,494.2,259.5
		c122.2,29.7,300,23,375.2-8.4c106.4-44.5,125.4-75.9,133.6-111.8c0.1-0.3,6.5-95.7,6.5-96c11-49.4-374.7-126.8-483.2-161
		c-226.3-71.4,210.5-400-102.4-521.9c-174.6-68-624,139.5-865.5,173.3c-207.8,29.1-608.6-87.9-719.8-79
		C80.3,493.2,26.2,644.1,536.4,759.9C821.2,824.4,760.7,904.3,892.5,972.4z"/>
	<path class="st0" d="M840.5,899.1c242.3,125.4,434.4,2.7,721.7,36.3c142.6,16.7,357.6,226.3,494.2,259.5
		c122.2,29.7,300,23,375.2-8.4c106.4-44.5,125.4-75.9,133.6-111.8c0.1-0.3,6.5-95.7,6.5-96c11-49.4-374.7-126.8-483.2-161
		c-226.3-71.4,210.5-400-102.4-521.9c-174.6-68-624,139.5-865.5,173.3c-207.8,29.1-608.6-87.9-719.8-79
		C28.3,419.9-25.8,570.8,484.4,686.6C769.2,751,708.7,830.9,840.5,899.1z"/>
</g>
</svg>
