<?xml version="1.0" encoding="utf-8"?>
<!-- Generator: Adobe Illustrator 26.0.1, SVG Export Plug-In . SVG Version: 6.00 Build 0)  -->
<svg version="1.1" id="Ebene_1" xmlns="http://www.w3.org/2000/svg" xmlns:xlink="http://www.w3.org/1999/xlink" x="0px" y="0px"
	 viewBox="0 0 1920 1080" style="enable-background:new 0 0 1920 1080;" xml:space="preserve">
<style type="text/css">
	.st0{opacity:0.62;fill:#9EB7E0;}
</style>
<g>
	<path class="st0" d="M1298.3,352.6c242.3-125.4,434.4-2.7,721.7-36.3c142.6-16.7,357.6-226.3,494.2-259.5
		c122.2-29.7,300-23,375.2,8.4c106.4,44.5,125.4,75.9,133.6,111.8c0.1,0.3,6.5,95.7,6.5,96c11,49.4-374.7,126.8-483.2,161
		c-226.3,71.4,210.5,400-102.4,521.9c-174.6,68-624-139.5-865.5-173.3c-207.8-29.1-608.6,87.9-719.8,79
		c-372.5-29.8-426.6-180.7,83.6-296.5C1227,500.6,1166.5,420.7,1298.3,352.6z"/>
	<path class="st0" d="M1246.3,425.9c242.3-125.4,434.4-2.7,721.7-36.3c142.6-16.7,357.6-226.3,494.2-259.5
		c122.2-29.7,300-23,375.2,8.4c106.4,44.5,125.4,75.9,133.6,111.8c0.1,0.3,6.5,95.7,6.5,96c11,49.4-374.7,126.8-483.2,161
		c-226.3,71.4,210.5,400-102.4,521.9c-174.6,68-624-139.5-865.5-173.3c-207.8-29.1-608.6,87.9-719.8,79
		c-372.5-29.8-426.6-180.7,83.6-296.5C1175,574,1114.5,494.1,1246.3,425.9z"/>
</g>
</svg>
