<?xml version="1.0" encoding="utf-8"?>
<!-- Generator: Adobe Illustrator 26.0.0, SVG Export Plug-In . SVG Version: 6.00 Build 0)  -->
<svg version="1.1" id="Ebene_1" xmlns="http://www.w3.org/2000/svg" xmlns:xlink="http://www.w3.org/1999/xlink" x="0px" y="0px"
	 viewBox="0 0 251 312" style="enable-background:new 0 0 251 312;" xml:space="preserve">
<style type="text/css">
	.st0{fill:none;}
	.st1{fill:#EC928E;}
	.st2{fill:#F0A996;}
	.st3{fill:#A5B7E1;}
	.st4{fill:#242424;}
	.st5{fill:#262626;}
	.st6{fill:#898989;}
	.st7{fill:#EED59F;}
	.st8{fill:#1F3284;}
	.st9{fill:#8EA7D9;}
	.st10{fill:#191919;}
	.st11{fill:#232323;}
	.st12{fill:#EB8E83;}
	.st13{fill:#292929;}
	.st14{fill:#252525;}
	.st15{fill:#1A1A1A;}
	.st16{fill:#363636;}
	.st17{fill:#A8A8A8;}
	.st18{fill:#F3BEC0;}
	.st19{fill:#FFD8CC;}
	.st20{fill:#352A26;}
	.st21{fill:#787878;}
	.st22{fill:#BEBEBE;}
	.st23{opacity:6.000000e-02;enable-background:new    ;}
</style>
<rect x="-0.5" y="-0.5" class="st0" width="251" height="312"/>
<g>
	<path class="st1" d="M62.7,204.4c1.5,3.4,3.1,6.7,4.4,10.2c3.7,10.3,4.2,21.6,3.6,32.7c-0.6,11-2.3,22-2.9,33
		c-2.1,0.5-4.2,0.7-6.3,0.4c-0.7-14-1.5-28.1-2.4-42.1c-0.1-1.1-0.2-2.1-0.5-3.1c-0.3-1.1-1-2-1.6-3c-7.7-11.9-15.3-23.8-23-35.7
		c-2-3.1-4-6.2-5.1-9.6c-1.2-3.5-1.5-7.4-0.2-10.8c2.1-5.2,8.1-8.1,13.4-7.1c6.1,1.1,10.3,5.5,11.7,11.6
		C55.7,188.8,59.2,196.8,62.7,204.4z"/>
	<path class="st1" d="M19.2,272.1c-2.7,0.3-5.4-0.3-7.7-1.7c3.9-8.5,4.8-17.3,8.7-25.8c1.2-2.7,2.5-5.4,3.2-8.2
		c0.9-3.5,1.1-7.1,1.2-10.7c0.6-13.9-3.9-29.8-3.4-43.7c0-1.2,0.1-2.4,0.6-3.4c1.5-3.1,14-1.1,17.5-1c0.8,0,1.6,0.1,2.2,0.6
		c0.6,0.6,1.7-1.2,1.7-0.4c0.5,6.9,1.2,3.7,1.3,14.7c0,3.9-1.8,28.6-2.6,32.4c-1.5,6.7-3.7,13.7-7.5,19.6
		C28.7,253.3,25,261.5,19.2,272.1z"/>
	<path class="st2" d="M71.5,132.7c2-1.5,3.5-3.5,4.9-5.5c1.5-2.2,2.9-4.4,4.3-6.7c1.4-2.3,2.9-5,2.2-7.6c-0.1-0.5-0.3-1-0.1-1.4
		c0.2-0.6,1-0.7,1.5-1.1c1.2-1,0.6-3.2,1.8-4.3s3.4-0.2,4,1.3c0.6,1.5,0.2,3.1-0.2,4.6c-1.2,4.3-2.4,8.6-4.6,12.5
		c-2,3.6-4.9,6.8-7.8,9.8c-2.5,2.7-5.1,5.4-8.3,7.2c-4.1,2.3-9.1,3.1-13.8,2.2c-1.7-0.3-3.4-0.9-4.3-2.3c-1-1.6-1-5.1,0.4-6.5
		c1.6-1.6,3.8-0.3,5.6,0.3C62,136.6,67.6,135.7,71.5,132.7z"/>
	<path class="st2" d="M66.3,89.6c-0.6-1.6-2-2.8-3.6-3.4c-1.6-0.6-3.3-0.8-5-1.1c-1.9-0.3-3.8-0.6-5.7-0.6c-1.9,0-3.9,0.4-5.5,1.4
		s-2.8,2.9-2.7,4.8l-0.7,5.5c-0.7,4.1,0,8.5,2.1,12.1c0.6,1,1.2,2,2.2,2.7c1.2,0.8,2.6,1.1,4,1.3c1.6,0.2,3.2,0.2,4.7-0.4
		c1.2-0.5,2.3-1.3,3.2-2.2c1.5-1.3,3-2.6,3.9-4.4c1.3-2.6,1.1-5.6,1.8-8.4c0.3-1.2,0.8-2.4,1.1-3.6C66.6,92.1,66.7,90.8,66.3,89.6z"
		/>
	<path class="st3" d="M53.7,115c2,0.1,4.4-0.2,5.5,1.4c0.4,0.6,0.5,1.3,0.7,1.9c2.3,12.6-0.7,25.6-1.9,38.4c-1,10.1-0.9,20.3-2,30.4
		c0,0.4-0.1,0.8-0.3,1.1c-0.3,0.3-0.7,0.5-1.1,0.6c-3.9,1.3-8.2,1.2-12.3,1c-5.5-0.2-11-0.5-16.2-2c-1.7-0.5-3.4-1.2-4.8-2.2
		c-4.4-3.3-5.3-9.5-4.5-14.9c0.7-4.4,2.3-8.6,4-12.8c2.4-5.9,4.8-11.7,7.5-17.4c2.5-5.3,5.1-10.6,8.3-15.5c2.3-3.5,5-6.8,7.9-9.8
		C47.8,111.8,49.5,114.8,53.7,115z"/>
	<g>
		<path class="st4" d="M81.5,81.3c0-0.6,0.1-1.2,0.5-1.7c0.5-0.6,1.2-0.7,1.9-0.8c0.7-0.1,1.4-0.2,2.1-0.2c0.4-0.1,0.9-0.1,1.2,0.1
			c0.7,0.3,0.9,1.1,1.1,1.8c0.4,1.4,0.8,2.8,1.2,4.3c0.2,0.7,0.4,1.7-0.2,2.2c-0.3,0.3-0.8,0.3-1.2,0.5c-0.9,0.4-1.3,1.4-1.5,2.3
			c-0.3,1.1-0.4,2.3-0.4,3.4c-1.1,0.2-2.2,0.4-3.2,0.5c-1.9,0.2-1.7-3.8-1.7-5.2C81.2,86.1,81.3,83.7,81.5,81.3z"/>
		<path class="st5" d="M86.5,92.8c0.3,0,0.6,0,0.9,0.2c0.4,0.3,0.6,0.8,0.6,1.4c-1.2,0.2-2.3,0.3-3.5,0.4c-0.7,0.1-3.9,0.4-3-1.4
			C82,92.4,85.4,92.8,86.5,92.8z"/>
		<path class="st4" d="M90.8,99.6c2.2,0,11,0,13.2,0.2c0.8,0.1,1.6,0.1,2.2,0.7c0.4,0.4,0.6,1,0.8,1.6c0.8,3.2,0.6,6.6-0.8,9.6
			c-0.1,0.2-0.2,0.4-0.4,0.5c-0.2,0.1-0.3,0.1-0.5,0.1c-3.4,0.3-13.5,0.7-16.8-0.2c-0.3-0.1-0.6-0.2-0.8-0.4
			c-0.1-0.2-0.2-0.4-0.2-0.6c-0.6-2.4-0.7-5-0.3-7.4C87.6,101.2,88.1,99.6,90.8,99.6z"/>
		<path class="st5" d="M83.8,94.2c1.8-0.2,4-0.3,5.1,1.1c0.6,0.8,0.8,1.9,0.9,2.9c0.4,4.8-0.2,9.7-0.8,14.5c-0.1,1-0.3,2-0.8,2.8
			c-0.8,1.2-2.4,1.7-3.8,1.8c-1.4,0.1-3-0.2-3.8-1.3c-0.6-0.8-0.6-1.9-0.6-2.9c-0.1-5.4-0.3-10.9-0.4-16.3
			C79.4,94.8,82.3,94.3,83.8,94.2z"/>
		<path class="st5" d="M106.4,99.2c1.6-0.5,3.2-0.7,4.8-0.6c0.3,0,0.7,0.1,0.9,0.2c0.5,0.3,0.7,0.9,0.7,1.5c0,0.6-0.3,1.1-0.4,1.7
			c-0.4,1.2-0.7,2.4-0.4,3.6c0.2,0.9,0.6,1.8,0.7,2.7c0.2,1.4-0.6,2.8-1.7,3.7c-1.1,0.9-2.6,1.3-4,1.3c-0.3,0-0.6,0-0.8-0.2
			c-0.3-0.2-0.3-0.7-0.3-1.1c0-1.9,0-3.8-0.1-5.8c0-1,0-2-0.1-2.9c0-0.9,0.1-1.9-0.1-2.8c-0.1-0.2-0.3-0.5-0.2-0.8
			C105.5,99.5,106.1,99.3,106.4,99.2z"/>
		<path class="st6" d="M90.8,107.1c0,0.1,0,0.2,0,0.2c0.1,0.2,0.3,0.2,0.5,0c0.1-0.1,0.1-0.3,0.2-0.5c0.1-1.9,0.2-3.8,0.3-5.7
			c0-0.1,0-0.2-0.1-0.2c0,0-0.1,0-0.2,0c-0.7,0-0.4,0.4-0.4,1c0,0.6,0,1.2,0,1.8C91.1,104.8,90.8,105.9,90.8,107.1z"/>
		<path class="st4" d="M86.6,93.9c-0.1-0.4-0.1-0.8-0.2-1.3c0-0.1,0-0.2-0.1-0.3c-0.1-0.1-0.3-0.1-0.4-0.1c-0.3,0-0.5,0-0.8,0
			s-0.5,0-0.7,0.1c-0.4,0.2-0.6,0.6-0.6,1c0,0.4,0.1,0.8,0.2,1.2l0,0c0.8,0.1,1.6,0,2.4-0.2c0.1,0,0.1,0,0.2-0.1
			C86.6,94.2,86.6,94.1,86.6,93.9z"/>
	</g>
	<path class="st7" d="M69.4,88.4c-0.1-0.7-0.6-1.2-1.1-1.7c-3.8-4-9.4-5.9-14.8-6.9c-2.5-0.4-5.2-0.7-7.5,0.4l1.6,0.2
		c-2.1-0.1-3.8,1.5-5.3,2.9c-2.1,1.9-4.4,3.8-6.8,5.4c0.6,0.4,1.3,0.6,2,0.8c-1.7,2.2-2.6,5-2.3,7.8c0.1-0.7,0.7-1.3,1.4-1.4
		c0.5,2.2-0.2,4.6-1.7,6.3c0.6,0.2,1.3,0.1,1.9-0.2c-0.1,1.3-0.6,2.5-1.5,3.4c1.1,0.1,2.2-0.2,3.1-0.8c-0.2,0.9,0.5,1.7,1.1,2.4
		c1.2,1.2,2.5,2.2,3.9,3.1c-0.4-0.6-0.6-1.4-0.5-2.1c0.7,1.8,1.8,3.4,3.3,4.6c0-0.5,0.1-1.1,0.1-1.6c1,0.4,2,0.8,3,1.2
		c-0.1-1.7-1.4-3.2-1.3-4.9c0-2,1.9-3.9,1.3-5.8c-0.2-0.5-0.5-1-0.6-1.6s0-1.2,0.5-1.5c0.4-0.2,0.9,0,1.2,0.3s0.5,0.7,0.7,1.1
		c0.7-0.4,1-1.2,1.3-2c0.6-1.6,1.2-3.2,1.7-4.9c0.1-0.2,0.2-0.5,0.4-0.6c0.2-0.1,0.4-0.2,0.6-0.2c1.4-0.2,2.9,0.8,3.4,2.2
		c0.1,0.2,0.2,0.5,0.4,0.5c0.1,0,0.3-0.1,0.4-0.2c0.5-0.4,0.9-1,1.1-1.6c0.7,0.7,1.3,1.5,1.8,2.4c0.5-0.8,1-1.5,1.7-2.1
		c1.3,0.8,2.2,2.3,2.1,3.8c0.9-0.8,1.3-1.9,1.7-3c0.5-1.3,0.9-2.6,1.3-3.9C69.3,89.7,69.5,89.1,69.4,88.4z"/>
	<g>
		<g>
			<path class="st8" d="M20.3,270.8c1,0.9-0.1,2.8,0.9,3.7c1.5,1.4,4.3,0.2,5.8,1.7c0.5,0.5,0.8,1.1,1,1.8c0.3,1.1,0.4,2.4,0.3,3.5
				c0,0.2-0.1,0.5-0.2,0.7c-0.1,0.2-0.3,0.3-0.4,0.4c-1,0.7-2.3,0.8-3.5,0.5c-1.2-0.2-2.3-0.8-3.4-1.4c-3.8-1.9-7.6-3.9-11.3-5.8
				c-0.2-0.1-0.4-0.2-0.5-0.4c-0.1-0.2-0.1-0.4-0.1-0.6c0.1-1.6,0.7-3.1,1.2-4.6c0.4-1.2,0.9-2.4,1.4-3.6
				C11.4,266.8,17.1,267.9,20.3,270.8z"/>
		</g>
	</g>
	<g>
		<g>
			<path class="st8" d="M68.8,278.7c1,0.1,0.8,1.9,1.6,2.3c0.7,0.4,1.5,0.4,2.3,0.4c1,0,2,0,3,0c0.7,0,1.4,0,2,0.5
				c0.6,0.5,0.7,1.4,0.8,2.3c0.1,0.9,0.1,1.8-0.3,2.5c-0.6,1-1.9,1.1-3,1.2c-3.9,0.2-9.7,0.2-13.6,0.1c-0.5,0-1-0.1-1.2-0.5
				c-0.2-0.3-0.2-0.6-0.2-0.9v-7.2C60.2,279.3,65.7,278.2,68.8,278.7z"/>
		</g>
	</g>
	<path class="st5" d="M33.7,165.6c2.8,0.4,6,1.2,7.5,3.7c0.8,1.3,1,2.9,1.1,4.4c0.6,6.8,0.3,13.7-0.7,20.5c-0.2,1.5-0.5,3-1.4,4.3
		c-1.7,2.3-4.9,2.8-7.8,3c-8,0.6-16.4,0.6-23.9-2.2c-0.7-0.2-1.4-0.5-1.9-1c-1-0.9-1.2-2.4-1.4-3.8c-0.6-5.3-0.9-10.7-0.8-16
		c0-3.3,0.3-6.7,2.9-9c2-1.8,5.1-3.4,7.6-4.5C20.3,162.7,28.3,164.6,33.7,165.6z"/>
	<path class="st4" d="M19,152c2.8-3.8,6-7.1,9-10.7c5.5-6.6,10-14.2,16.7-19.8c1.2-1,2.6-2,4.1-2.4s3.4-0.2,4.5,0.9
		c0.7,0.7,1.1,1.7,1.4,2.7c1.3,3.8,2,7.9,1.5,11.9c-0.5,3.8-1.9,7.4-3.3,10.9c-3.5,8.7-7.1,17.5-11.7,25.7c-0.2,0.4-0.5,0.9-0.5,1.3
		c0,1,1.4,1.6,2.3,1.3c1-0.3,1.7-1.2,2.2-2.1c3-4.5,5-9.5,7-14.5c1-2.5,2-5,2.9-7.5c0.7-1.7,1.3-3.4,1.9-5.1c1.1-3.5,1.7-7.1,2-10.8
		c0.3-3.6,0.3-7.4-1.1-10.8s-4.3-6.3-8-6.8c-2.4-0.3-4.9,0.6-6.9,1.9s-3.8,3.1-5.4,4.9c-2.5,2.7-5.1,5.3-7.6,8c-2,2.1-4.1,4.2-6,6.5
		c-5,5.9-9.2,12.4-12.4,19.4c-0.8,1.8-1.6,3.6-2.2,5.4c-0.5,1.2-2.1,4.3-1.8,5.6c0.6,2.5,3.7-2.7,4.2-3.7
		C14,160.1,16.2,155.9,19,152z"/>
	<path class="st2" d="M44.9,144.5c0.1,3.2,0.6,6.7,3.3,9.2c1.4,1.2,3.2,2.1,5,2.8c2.8,1,5.9,1.5,8.7,0.9c2.2-0.4,4.1-1.5,5.7-2.7
		c4.9-3.7,7.6-9.1,9.3-14.5c1.7-5.4,2.6-11,4.7-16.3c0.4-0.9,0.8-1.8,1.4-2.6c0.4-0.6,0.9-1.1,1.3-1.6c0.8-1.3,0.8-2.8,1.2-4.3
		c0.3-1.2,0.8-2.5,0.4-3.8s-1.9-2.6-3.4-2.3c-1,0.2-1.6,0.9-2.1,1.6c-0.6,0.7-1.1,1.5-1.7,2.2c-0.2,0.2-0.3,0.4-0.7,0.5
		c-0.3,0.1-0.6,0-0.9,0c-0.8,0.1-1.2,0.6-1.4,1.2c-0.1,0.6,0.1,1.2,0.2,1.8c0.7,2.8,0.8,5.7,0.1,8.4c-0.6,2.4-1.7,4.6-2.8,6.9
		c-3,5.9-6.4,11.8-12.2,15.9c-0.8,0.6-2,1.2-3.1,0.8c-0.9-0.3-1.4-1.1-1.5-1.9s0.2-1.4,0.4-2.1c0.8-2.3,1-4.8,0.6-7.2
		c-0.1-0.7-0.3-1.5-0.9-2.1c-0.7-0.7-1.7-1-2.7-1.4c-2.7-0.9-7.5-2.4-8.7,0.3C44.1,137.2,44.8,141.4,44.9,144.5z"/>
	<path class="st9" d="M57.7,146.2c0.3,0,0.6-0.1,0.8-0.3c0.3-0.2,0.3-0.6,0.3-1c0.1-6.6-0.7-13.3-2.4-19.8c-0.4-1.5-0.8-2.9-1.6-4.2
		c-0.8-1.3-2-2.3-3.5-2.7c-2.1-0.4-4.2,0.7-5.5,2.4s-1.9,3.8-2.3,5.8c-1,5-1.4,10.2-1.1,15.3c0.1,1.7-0.1,6.4,1.1,7.7
		c1.1,1.1,4.6-1.1,6-1.6C52.1,147.2,54.9,146.6,57.7,146.2z"/>
	<path class="st10" d="M39.8,172.1c-2.7,0.6-5.6,1.2-7.5,3.4c-1.9,2.3-1.1,4.7-1.6,7.4c-1,5.5-6.7,4.9-11,4.9
		c-4.4-0.1-8.8-0.3-13.1-1.1c-0.2,0-0.4,0.3-0.1,0.4c4,1,8.1,1.4,12.2,1.5c3,0.1,6.9,0.7,9.6-0.8c2.1-1.2,3.3-3.3,3.5-5.6
		c0.2-2.4-0.2-4.6,1.8-6.5c1.8-1.6,4.3-2.1,6.5-2.5C40.8,173,40.5,171.9,39.8,172.1z"/>
	<path class="st10" d="M24.1,187.7c-0.3-0.7-1.1-0.9-1.8-1c-0.6-0.1-1.8-0.3-2.2,0.3c0,0.1,0,0.1-0.1,0.2c-0.2-0.1-0.5,0-0.5,0.2
		c-0.1,1.2-0.2,2.4-0.2,3.6c0,0.8,0.2,1.3,1.1,1.5c0.8,0.2,1.8,0.4,2.5-0.1c0.7-0.5,0.8-1.3,1-2.1C24,189.6,24.4,188.5,24.1,187.7z
		 M22.5,187.9c0.4,0.1,0.6,0.3,0.6,0.6c-0.1,0-0.1,0-0.2,0c-0.1-0.1-0.2-0.1-0.3-0.2c-0.2-0.3-0.6-0.4-0.9-0.1c0-0.1,0-0.1,0-0.2
		c0-0.1,0-0.1,0-0.2C22,187.8,22.2,187.8,22.5,187.9z"/>
	<path class="st10" d="M13.1,189.4c-0.1-0.5-0.1-1.1-0.2-1.6c-0.1-0.6,0-1.8-0.4-2.2c-0.2-0.2-0.4-0.2-0.6-0.2c-0.3,0-0.5,0-0.8,0.1
		c-0.5-0.2-1-0.1-1.5,0.3c-0.6,0.5-0.6,1.3-0.7,2.1c0,0.8-0.2,1.9,0.4,2.6c0.5,0.6,1.3,0.9,2.1,0.9c0.5,0,1.3-0.1,1.6-0.7
		C13.2,190.3,13.1,189.8,13.1,189.4z"/>
	<path class="st4" d="M60.3,116.9c1.8,1.3,3.4,2.8,5.2,4.2c3,2.2,6.5,3.6,10.1,4.1c1.9,0.3,3.9,0.3,5.8-0.3s3.6-1.7,4.7-3.4
		c0.8-1.4,1.2-3,1.2-4.7c0.2-4.1-1-8.3-3.4-11.7c-1-1.4-2.2-2.9-2.1-4.6c0.3-0.7,1.4-0.8,2.1-0.4c0.7,0.4,1.1,1.2,1.4,1.9
		c0.5,1,0.9,1.9,1.4,2.9c1.4,2.8,2.8,5.6,3.3,8.7c0.6,3.1,0.3,6.4-1.5,9c-1.4,1.9-3.5,3.3-5.8,4c-2.3,0.7-4.7,0.9-7.1,0.9
		c-1.8,0-3.6-0.1-5.2-0.8c-1.3-0.5-2.5-1.3-3.7-2.1c-2.4-1.6-4.8-3.3-7.2-4.9c-2.2-1.5-4.5-3.1-7.1-4s-5.5-1.1-8,0.1
		c-0.3,0.1-0.5,0.3-0.8,0.3c-0.6,0-1.2-0.7-0.9-1.3c0.2-0.5,1.5-0.6,2-0.7c1.7-0.4,3.5-0.5,5.2-0.5
		C53.9,113.8,57.4,114.9,60.3,116.9z"/>
</g>
<g>
	<g>
		<path class="st11" d="M212.8,209.2c0.4,0.1,0.8,0.1,1.3-0.1c1.1-0.4,1.7-1.6,1.3-2.8c-4.5-12.6-6.2-26-7.9-38.9
			c-1.6-12.3-3.2-25-7.2-37.2c-0.5-1.5-1.8-2.4-3.1-2.2c-1.2,0.2-2.1,1.2-2,2.4c0.1,0.8,0.6,1.6,1.3,2.1c3.7,11.5,5.2,23.7,6.8,35.5
			c1.7,13.2,3.5,26.8,8.1,39.9C211.5,208.6,212.1,209.1,212.8,209.2z"/>
	</g>
	<g>
		<path class="st11" d="M230.7,258.2c0.3,0.1,0.6,0,0.9-0.1c0.6-0.3,0.9-1.1,0.6-1.7c-8.7-17.6-14-37-18.3-53.9
			c-0.2-0.7-0.9-1.1-1.6-0.9c-0.7,0.2-1.1,0.9-0.9,1.6c4.3,17,9.7,36.6,18.5,54.4C230,257.9,230.3,258.1,230.7,258.2z"/>
	</g>
	<path class="st12" d="M176.8,112.6c3.2,1.9,7.3,1.8,10.6,0.2c3.3-1.6,5.8-4.7,7.3-8.1c0.7-1.6,1.1-3.2,1.9-4.7
		c0.8-1.5,1.9-2.9,3.4-3.6c1.6-0.7,3.6-0.4,4.6,1c0.6,0.8,0.8,1.9,0.9,2.9c0.3,2.4,0.6,5-0.3,7.3c-0.6,1.5-1.7,2.7-2.7,4
		c-1.6,1.9-3.3,3.9-5.5,5.2c-3,1.9-6.7,2.3-10.2,2.6c-2.3,0.2-4.6,0.4-6.9-0.1c-3.2-0.7-6.1-2.8-8.1-5.4s-3.3-5.7-4.2-8.9
		c2.8-1.9,3.1,0,4.5,2.3C173.3,109.4,174.7,111.3,176.8,112.6z"/>
	<g>
		<rect x="153.4" y="88" class="st13" width="21" height="29.4"/>
	</g>
	<g>
		<path class="st14" d="M144.8,117.6c3.4,4,9.7,0.6,10.1-3.8c0.8-8.2,0.8-16.6,0-24.8c-0.4-4.5-7.9-2.2-11.4-2.7
			c-0.1,1.4-0.3,3.2-0.2,4.7c0,1.5,0.8,3.3,2.3,3.6c0.4,0.1,0.9,0.1,1.3,0.3c0.4,0.3,0.5,0.9,0.5,1.4c0.1,3.6,0.1,7.3,0,10.9
			c0,0.7-0.1,1.4-0.5,1.9c-0.2,0.2-0.5,0.4-0.8,0.6c-1.3,0.9-1.9,2.5-2,4.1C143.9,115.7,144.2,116.8,144.8,117.6z"/>
	</g>
	<g>
		<g>
			<g>
				<path class="st15" d="M188.6,216C188.6,216,188.6,216,188.6,216c1.2,0,2.2-1,2.2-2.2c-0.6-27.9-1.4-56.2-2.6-84.1
					c0,0,0-0.1,0-0.1c-0.1-1.2-1.1-2.1-2.3-2c-1.2,0.1-2.1,1.1-2,2.3c1.2,27.9,2.1,56.2,2.6,84.1C186.4,215,187.4,216,188.6,216z"/>
			</g>
		</g>
		<g>
			<g>
				<path class="st15" d="M188.9,272.9C188.9,272.9,188.9,272.9,188.9,272.9c0.7,0,1.3-0.6,1.3-1.3c-0.6-46-1.4-92.7-2.6-138.7
					c0-0.7-0.6-1.4-1.3-1.3c-0.7,0-1.3,0.5-1.3,1.2v0.1c1.2,46.1,2.1,92.7,2.6,138.8C187.6,272.3,188.2,272.9,188.9,272.9z"/>
			</g>
		</g>
	</g>
	<g>
		<path class="st11" d="M172.1,133c0.4,0.3,0.9,0.5,1.4,0.7c2.8,0.8,7,0,9.9,0c1.1,0,16.4,0,16.4,0c0-1.1,0.1-11.1,0.1-11.1
			c-9.1-1.4-19.4-1-28.5,0C170.6,125.8,169.3,130.9,172.1,133z"/>
	</g>
	<g>
		<rect x="182.4" y="113.5" class="st11" width="5.2" height="11.3"/>
	</g>
	<g>
		<path class="st14" d="M174.3,84c0.1-0.1,0.2-0.2,0.4-0.3c1.1-0.7,5.1-0.3,6.4-0.4c4.5-0.3,9-0.7,13.5,0c0.9,6.3,1.3,12.7,1.4,19
			c0.1,3.8,2.1,13.5-2,14.9c-5.9,2-13.6-1.3-19.4,0.8c-1.6-9.4-0.7-19.9-0.8-29.4C173.8,87,173.3,85,174.3,84z"/>
	</g>
	<g>
		<path class="st14" d="M182.4,89c2.4-0.1,4.3,0.4,5.4-1.7c0.7-1.3,0-3.7,0-5.1c0.1-1.1,0.4-2.2-0.1-3.2c-0.8-1.5-3-2-4.8-1.5
			c-0.3,0.1-0.6,0.2-0.8,0.4c-0.2,0.2-0.2,0.6-0.2,0.9c0.1,3.4,0.3,6.8,0.4,10.2C182.3,89,182.3,89,182.4,89z"/>
	</g>
	<g>
		<path class="st16" d="M169.7,117c0.7,0.9,1.8,1.4,2.8,1.6c0.7,0.1,1.5,0,2.1-0.6c0.9-1.1,0.1-6,0-7.6c0-3.6-0.1-7.2-0.1-10.8
			c0-2.8-0.1-5.5-0.1-8.2c0-3.6,0.1-5.4-3.2-4.5c-0.5,0.1-1,0.3-1.3,0.8c-0.2,0.4-0.3,0.9-0.3,1.4c-0.8,7.8-1.1,15.7-0.9,23.6
			c0,1.4,0.1,2.8,0.7,4C169.5,116.6,169.6,116.8,169.7,117z"/>
	</g>
	<g>
		<path class="st14" d="M176.8,62c0.3-0.6,0.9-1.1,1.4-1.5c1.9-1.3,4.3-1.9,6.7-1.9c1,0,2,0,2.9,0.5c1.3,0.6,2.2,1.8,2.7,3.1
			c0.5,1.3,0.7,2.7,0.8,4.1c0.3,3.7,0.3,7.3,0,11c0,0.5-0.1,1.1-0.4,1.5c-0.5,0.7-1.4,0.8-2.2,0.8c-2.4,0.2-4.8,0.3-7.2,0.5
			c-0.9,0.1-1.9,0.1-2.6-0.5c-0.5-0.5-0.8-1.2-0.9-1.9c-1-4.2-1.5-8.6-1.6-12.9C176.4,63.8,176.4,62.8,176.8,62z"/>
	</g>
	<g>
		<path class="st17" d="M177.8,79.5c-0.3-0.3-0.4-0.8-0.6-1.2c-1-3.1-1.7-6.4-2.1-9.7c-0.2-2.4-0.2-5,0.8-6.9
			c0.9,0.2,1.9-0.4,2.8,0.2c0.8,0.6,1,2.1,1.2,3.3c0.1,1.3,0.3,2.7,0.5,4c0.3,2.6,0.6,5.2,0.1,7.7c-0.2,0.9-0.4,1.8-0.9,2.3
			C179,79.9,178.3,80.1,177.8,79.5z"/>
	</g>
	<g>
		<path class="st14" d="M187,61.6c-0.8,0.1-1.4,0.6-2.1,0.9c-1.9,0.9-5.1,1.2-7.3,1.3c-1.4,0.1-2.9,0.2-4.2-0.4
			c-1.3-0.5-2.4-1.9-2.1-3.3c0.5-2.6,7.1-3.9,9.5-4.1c3-0.2,6.4,0.8,8,3.4c0.4,0.7,0.7,1.7,0,2.1C188.4,61.8,187.7,61.5,187,61.6z"
			/>
	</g>
	<g>
		<path class="st11" d="M155.6,214.8c0.7-0.2,1.2-0.7,1.5-1.4c0.1-0.2,0.1-0.3,0.1-0.5c0.1-0.3,0.2-0.6,0.2-0.8
			c0.3-1.2,0.5-2.5,0.7-3.7c0.2-1.5,0.5-3,0.9-4.4c2.2-7.6,4.4-15.6,6.6-24.6c1.4-6,2.6-12.1,3.8-18c0.9-4.6,1.8-9.4,2.9-14
			c0.4-1.8,0.7-3.5,1.1-5.3c0.4-2,0.8-4.1,1.3-6.1c0.1-0.5,0.2-1.1,0.3-1.8c0.1-0.9,0.4-2.8,0.7-3.4c0.9-0.6,1.2-1.7,0.8-2.7
			c-0.5-1.1-1.8-1.6-2.9-1.1c-2.2,1-2.6,4-2.9,6.6c-0.1,0.6-0.1,1.1-0.2,1.4c-0.5,2.1-0.9,4.1-1.3,6.2c-0.4,1.7-0.7,3.5-1.1,5.2
			c-1.1,4.7-2,9.5-2.9,14.1c-1.1,5.9-2.3,11.9-3.7,17.8c-2.1,8.9-4.3,16.9-6.5,24.4c-0.5,1.7-0.8,3.3-1,4.9
			c-0.2,1.2-0.4,2.4-0.7,3.5c-0.3,0.6-0.4,1.1-0.4,1.8c0.1,1,0.9,1.9,1.9,2C155.1,214.9,155.4,214.8,155.6,214.8z"/>
	</g>
	<g>
		<path class="st11" d="M141.3,270.3c0.4-0.1,0.8-0.4,0.9-0.9c0.1-0.3,0.2-0.7,0.3-1c0.2-0.2,0.2-0.5,0.2-0.8
			c0.5-2.1,0.9-4.2,1.2-6.2c0.4-2.5,0.8-5.1,1.6-7.6c3.8-12.5,7.3-25.7,10.9-40.6c2.4-9.8,4.4-19.9,6.3-29.6
			c1.5-7.6,3.1-15.5,4.8-23.2c0.6-2.9,1.2-5.8,1.8-8.6c0.7-3.3,1.4-6.7,2.2-10.1c0.2-0.7,0.3-1.6,0.4-2.7c0.3-2.2,0.9-6.6,2.1-7.2
			c0.6-0.3,0.9-1.1,0.6-1.7c-0.3-0.6-1.1-0.9-1.7-0.6c-2.4,1.1-3.1,5.4-3.6,9.2c-0.1,1-0.3,1.9-0.4,2.5c-0.8,3.4-1.5,6.8-2.2,10.1
			c-0.6,2.8-1.2,5.7-1.8,8.6c-1.8,7.7-3.3,15.6-4.8,23.3c-1.9,9.7-3.9,19.8-6.3,29.5c-3.6,14.8-7.2,28-10.9,40.4
			c-0.8,2.6-1.2,5.3-1.6,7.9c-0.4,2.2-0.7,4.3-1.2,6.3c-0.4,0.6-0.5,1.2-0.5,1.9c0.1,0.6,0.5,1.1,1.1,1.2
			C141,270.4,141.1,270.4,141.3,270.3z"/>
	</g>
	<path class="st8" d="M242.4,260.7c-0.2-0.5-0.4-1-0.6-1.5c0.1,0,0.3-0.1,0.4-0.1c0-4.6,0-9.2,0-13.9c0-6.1-0.3-11.9-0.9-17.9
		c-1.7-17.8,4-37.1,2.4-55.2c-0.4-4.2-0.8-8.4-1.9-12.6c-1.4-5.3-5-4.6-10.1-5.6c-8-1.5-24.4-1.8-32.2,0.3
		c-0.1,34.5,7.3,73,10.6,107.1h0.7c-1.9,1.6-4.1,2.9-6.4,3.8c-0.6,0.2-1.2,0.4-1.6,0.8c-0.9,0.8-0.8,2.5,0.3,3.2
		c1,0.6,2.3,0.4,3.5,0.2c3.4-0.7,6.7-1.4,10.1-2.1c0.6-0.1,1.3-0.3,1.7-0.7c0.5-0.5,0.6-1.3,0.6-2c0-1,0-2,0.1-2.2h0.3
		c2.5-19.5,0.7-60.8,1.3-79.5c1.1,8.7,4.4,37.4,6.6,48.2c1,5,2.3,9.9,3.1,14.9c0.4,2.6,0.9,5.1,1.5,7.7c0.5,2.2,1.3,4.5,1.2,6.8
		c0.2,0,0.3,0,0.5,0c-1.2,2.1-2.7,4.1-4.5,5.7c-0.4,0.4-0.9,0.8-1.2,1.3c-0.5,1.1,0.3,2.6,1.5,2.8c1.2,0.2,2.4-0.4,3.4-1.1
		c2.9-1.8,5.7-3.6,8.6-5.4c0.5-0.3,1.1-0.7,1.3-1.2C242.9,262,242.7,261.3,242.4,260.7z"/>
	<path class="st18" d="M215.2,93.1c3.5-0.8,6.9-2.3,10.5-2.7c0.8-0.1,1.7-0.1,2.4,0.4c0.5,0.4,0.8,1,1.1,1.6
		c3.9,8.5,7.8,17.1,10,26.3c1.1,4.9,1.8,9.8,2.4,14.8c0.8,6.3,1.6,12.5,2.4,18.8c0.3,2,0.4,4.3-1,5.8c-0.8,0.9-2.1,1.2-3.2,1.4
		c-4.5,1-9.1,1.6-13.8,1.8c-5.6,0.3-11.2,0-16.8-0.3c-3.5-0.2-6.9-0.3-10.4-0.5c-0.7,0-1.4-0.1-2.1-0.4c-2-0.8-2.5-3.4-2.4-5.6
		c0.1-2.6,0.7-5.1,1.2-7.6c3.1-14.3,4.3-28.9,6.2-43.4c0.4-2.8,0.1-8.7,3.1-10.2c1.3-0.6,2.7-0.3,4-0.1
		C211,93.6,213.1,93.6,215.2,93.1z"/>
	<path class="st19" d="M202.1,79.9c0.1,1.5,0.2,3.1,0.7,4.5c1.1,3.1,3.9,4.9,6.5,6.3c2,1.1,4.3,2.1,6.4,1.1c1.7-0.9,2.8-3,4.1-4.6
		c1-1.2,2.2-2.1,3.2-3.4c2.2-2.8,2.7-6.9,2.7-10.7c0-4.8-0.8-10.1-4-13.2c-1.6-1.6-3.8-2.5-5.9-3c-2-0.5-4-0.6-6,0
		c-2.4,0.8-4.4,2.8-5.9,5.2C200.7,67.9,201.7,73.3,202.1,79.9z"/>
	<path class="st20" d="M201.9,66.1c-0.8,2.1-1.8,4.4-3.8,5.5c1.2-0.1,2.4-0.4,3.4-1.1c0.3-0.2,0.5-0.3,0.8-0.3
		c0.5,0,0.9,0.4,1.1,0.8c0.2,0.4,0.3,0.9,0.7,1.3c0.9-0.8,1.7-1.5,2.5-2.3c0.2-0.2,0.4-0.3,0.6-0.3c0.3,0,0.5,0.2,0.7,0.3
		c1.4,1.1,2.8,2.2,4.1,3.5c0.4-0.7,0.6-1.6,0.5-2.4c0.8,0.2,1.4,0.9,1.9,1.6c0.9,1.2,1.7,2.3,2.6,3.5c0.5-1,1-2.1,1.5-3.1
		c2.2,2.6,3.6,5.8,3.8,9.2c0.8-0.5,1.4-1.3,1.8-2.1c-1,2.8-2.5,5.4-4.5,7.7c2.1-1.5,3.1-4.2,5.2-5.8c0.9-0.7,2.1-1.1,2.7-2.1
		c0.1,1.1-0.3,2.2-0.9,3c1.5-0.8,2.4-2.6,2.2-4.3c-0.1-0.8-0.4-1.5-0.7-2.2c-0.7-1.6-1.3-3.2-2.3-4.6c-0.7-1.1-1.7-2-2.3-3.2
		c-1-1.8-1.3-3.9-2.6-5.6c-0.9-1.2-2.1-2-3.2-2.8c-1.3-0.9-2.7-1.8-4.3-2.3c-1.5-0.4-3.1-0.3-4.7,0c-1.2,0.2-3,0.4-3.9,1.4
		c-0.6,0.6-0.9,1.7-1.2,2.4C202.9,63.3,202.4,64.7,201.9,66.1z"/>
	<path class="st1" d="M234.2,77.2c1.4,0.7,3,1.4,4.3,0.6c0.4-0.2,0.8-0.7,0.7-1.2c-0.1-0.4-0.4-0.7-0.7-1c-1.7-1.4-3.6-2.5-5.7-3.3
		c-1.5-0.5-5.3-1.8-6.8-1c-1.7,0.9-0.5,2.3,0.7,2.9C229.1,75.5,231.8,76.1,234.2,77.2z"/>
	<path class="st1" d="M228.1,60.3c-0.6-0.8-1.6-1.4-2.5-2c-4.6-2.6-10-4.2-15.2-3.2c-1.1,0.2-2.1,0.5-3.1,1.1
		c-1.9,1.1-2.9,3.2-3.9,5.1c-0.6,1.2-1.2,2.3-1.8,3.5c-0.3,0.6-1,1.7-0.9,2.4c0.2,0.8,1.1,0.4,1.8,0.4c1.9-0.1,3.8,0.2,5.6,0.5
		c2,0.3,4.1,0.6,6,1.3c1.2,0.4,2.4,1,3.5,1.5c2.6,1.2,5.3,2.2,8,3.2c0.5,0.2,1.1,0.3,1.5,0c0.4-0.3,0.4-0.8,0.4-1.3
		c0.1-2.2,0.9-4.2,1.4-6.3C229.3,64.4,229.4,62,228.1,60.3z M210.6,66c-0.1,0.2-0.1,0.5-0.3,0.6c-0.2,0.2-0.6,0.1-0.9,0
		c-1.6-0.5-3.4-0.8-5.1-0.9c-0.7-0.1-1.6,0.2-1.7-0.6c-0.1-0.6,0.6-1.6,0.9-2.1c0.1-0.1,0.1-0.2,0.2-0.3c0.1-0.1,0.3-0.1,0.4-0.1
		c1.6-0.1,3.2,0.1,4.8,0.5c0.5,0.1,0.9,0.2,1.3,0.5c0.4,0.3,0.7,0.7,0.7,1.2C210.9,65.2,210.7,65.6,210.6,66z"/>
	<g>
		<path class="st21" d="M221.7,90.7c-2.2,4.1-4.6,8.1-6.6,12.2c-1.7,3.5-2.3,7.1-3,10.9c-0.2,0.8-0.2,2.2-0.7,3
			c-1.9,3-2.6-1.2-2.8-2.1c-0.3-2.2-0.5-4.4-0.7-6.6c-0.4-4.7-0.7-9.4-0.9-14.1c0-0.2-0.2-0.2-0.2,0c-0.1,6,0.3,11.9,0.9,17.9
			c0.1,1.3,0,7.8,2.8,7.2c1.3-0.3,1.6-2.3,1.9-3.4c0.7-2.7,0.9-5.5,1.6-8.2c1.6-5.8,5.4-11.3,8.3-16.5
			C222.4,90.7,221.9,90.3,221.7,90.7z"/>
		<path class="st22" d="M214.5,119.1c-0.7-0.3-2.2-0.1-3-0.1c-1.7,0-3.4,0-5.1,0c-0.2-0.2-0.8-0.2-0.7,0.2c0.3,2.7-0.3,5.4-1.1,8
			c-0.5,1.7-1.7,4-1.4,5.7c0.2,1.2,1.4,1.6,2.7,1.8c1.5,0.2,3.1,0.2,4.6,0.3c0.7,0,1.8,0.2,2.4-0.2c1.4-0.8,1.2-3.5,1.4-4.8
			c0.4-2.5,0.8-5,1-7.5C215.4,121.5,215.9,119.6,214.5,119.1z"/>
		<path class="st21" d="M211.8,131.8c0.6,0.1,1.3,0.2,1.6,0.8c0.2,0.3,0.2,0.8,0.1,1.2c0,0.3-0.1,0.7-0.3,0.8
			c-0.1,0.1-0.3,0.1-0.4,0.1c-1.8,0.2-3.6,0.3-5.4,0.2c-1.1,0-2.3-0.1-3.3-0.8c-0.6-0.4-1.3-1.5-1-2.2c0.3-0.8,1.4-0.6,2-0.6
			C207.4,131.4,209.6,131.5,211.8,131.8z"/>
		<path class="st21" d="M210.2,120.6c-0.4-0.9-2.2-0.8-3-0.7c-0.4,0.1-0.5,0.4-0.4,0.7c-0.1,0.7-0.1,1.4-0.2,2.2
			c0,0.3-0.1,0.8,0.2,1.1c0.3,0.3,1.1,0.2,1.5,0.3c0.4,0,0.8,0,1.1-0.4c0.3-0.4,0.5-1,0.6-1.5C210.2,121.9,210.4,121.1,210.2,120.6z
			"/>
		<g>
			<path class="st21" d="M214,125.3c-0.6-0.2-1.3-0.3-1.9-0.4c-0.6-0.1-1.3,0-1.9,0c-0.4,0-0.7,0.1-1.1,0.1c-0.2,0-0.4-0.1-0.6-0.2
				c-0.1-0.1-0.2-0.1-0.3-0.1c-0.3,0-0.6,0.1-0.9,0.1c-0.3,0-0.6-0.1-0.9,0c0,0,0,0.1,0,0.1c0.3-0.1,0.6,0,1,0.1
				c0.3,0,0.6-0.1,0.9-0.1c0.2,0,0.3,0.2,0.5,0.2c0.1,0,0.2,0.1,0.4,0.1c0.3,0,0.6,0,0.9-0.1c0.7,0,1.4-0.1,2,0
				c0.6,0.1,1.3,0.3,1.9,0.4C214.1,125.4,214.1,125.3,214,125.3z"/>
			<path class="st21" d="M208.3,125.6c0.6,0.1,1.1,0.1,1.7,0.2c1.1,0.1,2.1,0.4,3.2,0.4c0.1,0,0.1-0.1,0-0.1c-1.1,0-2.3-0.3-3.4-0.4
				c-0.6,0-1.1-0.1-1.6-0.2c-0.5-0.1-1-0.2-1.6,0c0,0,0,0.1,0,0.1C207.1,125.4,207.7,125.5,208.3,125.6z"/>
			<path class="st21" d="M207.9,126.6c0.6,0.1,1.2,0.1,1.8,0.1c1.2,0.1,2.4,0.4,3.6,0.4c0.1,0,0.1-0.1,0-0.1
				c-1.2-0.1-2.5-0.3-3.7-0.5c-0.6-0.1-1.2-0.1-1.8-0.1s-1.2-0.3-1.8-0.2c-0.1,0-0.1,0.1,0,0.1C206.6,126.3,207.2,126.5,207.9,126.6
				z"/>
			<path class="st21" d="M213.3,128.5c-0.5-0.1-1.1,0.1-1.6-0.1c-0.5-0.1-1.1-0.4-1.6-0.5c-1.1-0.3-2.2-0.4-3.4-0.5
				c0,0-0.1,0.1,0,0.1c1.1,0.1,2.3,0.2,3.4,0.6c0.5,0.2,1,0.4,1.6,0.5c0.5,0.1,1.1,0.1,1.7,0.1C213.4,128.6,213.4,128.5,213.3,128.5
				z"/>
			<path class="st21" d="M209,128.9c0.9,0.2,1.9,0.4,2.9,0.5c0.1,0,0.1-0.1,0-0.1c-1-0.1-1.9-0.4-2.9-0.5c-0.9-0.2-1.9-0.1-2.8-0.2
				c-0.1,0-0.1,0.1,0,0.1c0.5,0.1,0.9,0.1,1.4,0.1C208,128.7,208.5,128.8,209,128.9z"/>
			<path class="st21" d="M212.1,130.8c-0.5,0.1-1,0-1.4-0.1c-0.5-0.1-1-0.2-1.5-0.3c-1-0.2-1.9-0.5-2.9-0.7c0,0-0.1,0.1,0,0.1
				c1,0.2,2,0.5,3,0.8c0.9,0.2,1.9,0.5,2.8,0.4C212.2,130.9,212.2,130.8,212.1,130.8z"/>
		</g>
	</g>
	<g>
		<g>
			<path class="st11" d="M230.2,149.3c0.4,0,0.8-0.2,1.1-0.5c0.4-0.6,0.3-1.4-0.3-1.8c-0.8-0.6-1.6-1-2.5-1.3l-0.4-0.2
				c-1.6-0.8-3.3-1.7-4.9-2.6l-16.3-9.1c-3-1.7-6.2-3.5-8.8-5.8c-0.5-0.5-1.4-0.4-1.8,0.1c-0.5,0.5-0.4,1.4,0.1,1.8
				c2.8,2.5,6.1,4.3,9.2,6.1l16.3,9.1c1.6,0.9,3.3,1.8,5,2.6l0.4,0.2c0.7,0.3,1.4,0.6,2,1.1C229.6,149.2,229.9,149.3,230.2,149.3z"
				/>
		</g>
		<g>
			<path class="st11" d="M248.8,157.7c1.4,0,2.7-1,3-2.5c0.3-1.6-0.8-3.2-2.4-3.5c-9.3-1.6-18.2-5.6-25.7-11.3
				c-1.3-1-3.2-0.8-4.2,0.6c-1,1.3-0.8,3.2,0.6,4.2c8.3,6.3,18.1,10.6,28.3,12.4C248.4,157.7,248.6,157.7,248.8,157.7z"/>
		</g>
	</g>
	<path class="st19" d="M226.7,146.4c-0.3,1.1-0.5,2.5,0.1,3.5c0.7,1.2,2.3,1.5,3.7,1.6c0.3,0,0.5,0,0.8-0.1c0.2-0.1,0.3-0.4,0.4-0.6
		c1-2.4,1.8-5,2.2-7.6c0.1-0.5,0.2-1.1-0.1-1.6c-0.3-0.4-0.8-0.6-1.2-0.8C228.8,139.6,227.6,143.4,226.7,146.4z"/>
	<path class="st12" d="M227,92.5c3.6,0.9,6.9,7.5,8.1,11c2.4,7,2.2,14.7,1.7,22.1c-0.4,5.6-0.9,11.2-2.6,16.5
		c-1.5,0.1-3,0.1-4.5-0.2c-0.2,0-0.5-0.1-0.7-0.3c-0.4-0.4-0.3-1-0.1-1.6c1.6-5.6-0.3-10.7,0.1-16.6c0.2-2.6,0.2-5.2-0.6-7.6
		c-1.9-5.5-4.4-8.3-7.8-12.7C216.7,98.3,222.4,91.4,227,92.5z"/>
</g>
<path class="st23" d="M233.8,266.5l-2.6,0.8c-4.3-3.8-12.4-5.4-16.6-6.2c-43.7-8.8-89-5.5-133.4-0.8c-21.8,2.4-44.4,5.3-62.9,16.8
	c-5.6,3.4-11.1,8.8-10.2,15.1c0.6,3.9,3.8,7.1,7.5,8.9s7.9,2.2,12,2.5c22.9,1.7,45.7-1.1,68.5-4.3c33.2-1.2,66.3-5.1,98.9-11.7
	c12.9-1.8,25.8-4,38.5-7.1c2.7-0.7,5.8-1.6,6.9-4.1C242.1,272.4,237.6,268.6,233.8,266.5z"/>
</svg>
