<?xml version="1.0" encoding="utf-8"?>
<!-- Generator: Adobe Illustrator 26.0.0, SVG Export Plug-In . SVG Version: 6.00 Build 0)  -->
<svg version="1.1" id="Ebene_1" xmlns="http://www.w3.org/2000/svg" xmlns:xlink="http://www.w3.org/1999/xlink" x="0px" y="0px"
	 viewBox="0 0 251 312" style="enable-background:new 0 0 251 312;" xml:space="preserve">
<style type="text/css">
	.st0{fill:none;}
	.st1{fill:#242424;}
	.st2{fill:#FFFFFF;}
	.st3{fill:#282120;}
	.st4{fill:#EC928E;}
	.st5{fill:#F0A996;}
	.st6{fill:#CCCCCC;}
	.st7{fill:#C2A385;}
	.st8{fill:#F3BEC0;}
	.st9{fill:#A0A0A0;}
	.st10{fill:#2F2D2D;}
	.st11{fill:#E2E2E2;}
	.st12{fill:#3A3A3A;}
	.st13{fill:#2B3643;}
	.st14{fill:#1F3284;}
	.st15{fill:#EFD2C0;}
	.st16{fill:#CDCDCD;}
	.st17{fill:#4358A4;}
	.st18{fill:#7BAD89;}
	.st19{fill:#373737;}
	.st20{fill:#E5E5E5;}
	.st21{fill:#DFE1E2;}
	.st22{fill:#2C2C2C;}
	.st23{fill:#F4F4F4;}
	.st24{fill:#4E4140;}
	.st25{fill:#888888;}
	.st26{fill:#8EA7D9;}
	.st27{fill:#A5B7E1;}
	.st28{fill:#655044;}
	.st29{fill:#EED59F;}
	.st30{fill:#3B3B3B;}
	.st31{fill:#E0E0E0;}
</style>
<rect x="-0.5" y="-0.5" class="st0" width="251" height="312"/>
<g>
	<g>
		<g>
			<path class="st1" d="M197.4,82.2c0-0.6,0-1.2,0.3-1.7c0.4-0.7,1.3-0.9,2.1-1c4.2-0.5,7.8-0.4,12-0.2c7.3,0.2,15.3-0.4,22.6-0.2
				c0.4,0,0.9,0,1.3,0.2c1.2,0.5,1.5,2.1,1.6,3.4c0.6,6.7,0.5,14.3,0.6,21.1c0,8.8-1.3,19.5-0.6,28.3c0,0.4,0.1,0.9-0.2,1.3
				c-0.2,0.3-0.6,0.5-0.9,0.6c-7.1,0.4-12.1,0-19.6,0.2c-4.8,0.2-9.8,0-14.6,0c-5.3,0-4.7-2.1-4.9-5.7c-0.5-9.7,0.2-19.6,0-29.4
				C197.1,93.5,197.6,87.8,197.4,82.2z"/>
		</g>
		<g>
			<path class="st2" d="M198,82.9c0-0.6,0-1.2,0.3-1.7c0.4-0.7,1.3-0.8,2.1-0.9c4.1-0.5,7.5-0.3,11.6-0.2c7.1,0.2,14.9-0.4,22-0.2
				c0.4,0,0.9,0,1.3,0.2c1.1,0.5,1.4,2,1.6,3.3c0.6,6.5,0.5,13.9,0.5,20.5c0,8.5-1.2,19-0.5,27.5c0,0.4,0.1,0.9-0.2,1.3
				c-0.2,0.3-0.5,0.5-0.9,0.5c-6.9,0.4-11.8,0-19.1,0.2c-4.7,0.2-9.6,0-14.2,0c-5.1,0-4.5-2.1-4.7-5.6c-0.5-9.4,0.2-19.1,0-28.5
				C197.6,93.8,198.2,88.4,198,82.9z"/>
		</g>
		<g>
			<g>
				<path class="st3" d="M204.3,97.2c0.8-0.6,1.6-1.2,2.4-1.9c0.1,1.1,0.5,2.3,1.4,2.9c1.2,0.9,2.7,0.1,3.8-0.7
					c0.3-0.2,0.6-0.5,0.9-0.8c0.8,0.1,1.6-0.3,2.2-0.7c0.2-0.1,0.4-0.3,0.5-0.4c0,0.6,0.2,1,0.8,1c0.9,0,1.8-0.7,2.4-1.2
					c0.1-0.1,0.2-0.2,0.3-0.2c0,0.2,0,0.4,0,0.6c0,0.2,0.2,0.3,0.3,0.2c1.2-0.7,2.3-1.6,3.3-2.7c0.2,0.5,0.4,1.1,0.7,1.6
					c0.1,0.1,0.2,0.2,0.3,0.1c0.6-0.7,1.8-1.9,2.6-0.9c-0.1,0-0.1,0.1-0.1,0.1c-0.5,0.5-0.6,1.6,0.4,1.4c0.7-0.1,0.8-0.7,0.6-1.3
					c0,0,0.1,0,0.1-0.1c0.2,0,0.5,0,0.7,0.1c0.5,0.1,0.9,0.4,1.2,0.8c0.2,0.2,0.5-0.1,0.3-0.3c-0.6-0.7-1.7-1.2-2.6-1
					c-0.1-0.1-0.1-0.1-0.2-0.2c-1.1-0.9-2.3,0-3.1,0.8c-0.2-0.5-0.4-1.1-0.7-1.6c-0.1-0.1-0.2-0.2-0.4-0.1c-0.9,1-2,1.9-3.1,2.6
					c0-0.3,0-0.5,0.1-0.8c0.4-0.6,0.8-1.2,1-1.9c0.1-0.2-0.2-0.4-0.4-0.2c-0.6,0.6-0.9,1.2-1.1,1.9c-0.5,0.6-1.1,1.1-1.9,1.5
					c-1,0.5-1.2-0.2-1.1-1c0.7-0.9,1.1-1.9,1.3-3c0-0.2-0.2-0.4-0.4-0.2c-0.3,0.4-1.2,1.9-1.5,3.2c-0.5,0.6-1.2,1.1-2,1.4
					c-0.1,0-0.3,0.1-0.4,0.1c0.9-0.9,1.6-2.1,2.1-3.3c0.5-1.2,1-2.8-0.3-3.7c-0.1,0-0.1,0-0.2,0c-1.3,0.9-2.3,2.1-3,3.5
					c-0.5,1-1.1,2.6,0,3.5c0.2,0.1,0.3,0.2,0.5,0.3c-0.3,0.3-0.7,0.6-1,0.8c-0.9,0.6-2,1.1-2.9,0.4c-0.7-0.5-1-1.4-1.2-2.2
					c-0.1-0.2-0.1-0.5-0.1-0.7c1.9-1.6,3.7-3.5,4.7-5.8c0.6-1.2,1.2-2.8,0.8-4.1c-0.3-1-1.3-1.4-2.2-0.7c-1.4,1-2.2,3.1-2.7,4.7
					c-0.6,1.8-1,3.8-0.9,5.7c0,0.1,0,0.2,0,0.2c-0.8,0.7-1.7,1.4-2.5,2C204,97.2,204.2,97.3,204.3,97.2z M211.6,94.8
					c0-0.3,0.2-0.7,0.3-1.1c0.3-0.9,0.8-1.7,1.5-2.5c0.3-0.3,0.6-0.6,0.9-0.9s0.3-0.4,0.7-0.2s0.4,0.4,0.4,0.8
					c0.1,0.9-0.3,1.9-0.8,2.8c-0.5,1-1.2,1.9-2,2.7C212,96.2,211.5,95.7,211.6,94.8z M207.6,90.4c0.5-1.8,1.2-3.6,2.4-5.1
					c0.5-0.6,1.2-1.1,2-0.6c0.4,0.3,0.4,1.1,0.4,1.5c0,0.9-0.4,1.9-0.8,2.8c-1,2.3-2.7,4.1-4.6,5.7
					C206.9,93.3,207.2,91.8,207.6,90.4z"/>
			</g>
			<g>
				<path class="st3" d="M232.6,107.4c0,0.5-0.1,0.9-0.5,1.3c-0.3-0.3-0.6-0.7-0.8-1.1c-0.1-0.2-0.4,0-0.4,0.2
					c-0.1,0.8-1.1,1-1.7,0.8c-0.6-0.2-1.2-0.7-1.7-1.1c-0.4-0.3-0.7-0.5-1.1-0.6c0.2-0.5,0.3-1.1,0.3-1.7c0-0.1-0.1-0.2-0.3-0.3
					c-1.2-0.1-2.2,0.4-3.2,0.8c-0.7,0.3-1.4,0.6-2.1,0.6c-0.4,0-1.1-0.1-1.4-0.4c-0.4-0.4-0.4-0.9-0.2-1.3c0.2,0,0.4,0.1,0.6,0.1
					c3.5,0.4,6.8-2,7.1-5.6c0-0.1-0.1-0.2-0.2-0.2c-1.7-0.2-3.2,0.5-4.5,1.5c-1.2,0.9-2.6,2.3-3.3,3.8c-1-0.2-2-0.3-3-0.3
					c-1.6,0.1-3.4,0.9-4.6,2.1c-0.1,0.1-0.2,0.1-0.3,0.2c-2,1.2-3.7,2.9-5.8,4c-0.4,0.2-1.4,0.8-1.8,0c-0.1-0.3,0-1,0.1-1.3
					c0.1-0.6,0.3-1.1,0.6-1.7c0.5-1.1,1.4-1.9,2.4-2.6c0.1,0.9-0.1,1.8-0.5,2.7c-0.1,0.2,0.2,0.4,0.3,0.2c0.5-1.1,0.6-2.1,0.5-3.2
					c0-0.1-0.1-0.2-0.3-0.2c-1.4,0.8-2.5,1.9-3.1,3.4c-0.3,0.8-1,2.8,0,3.4c1.1,0.7,3.1-1,3.9-1.6c1-0.7,2-1.6,3.1-2.3
					c-0.5,0.8-0.7,1.6-0.7,2.6c0.1,1.3,0.9,2.4,2.3,2.2c1.6-0.2,3.5-1.7,4.2-3.1c0.6-1.2,0.4-2.9-0.9-3.5c-0.7-0.3-1.4-0.3-2.1-0.1
					c0.2-0.1,0.5-0.2,0.7-0.3c1.6-0.6,3.1-0.4,4.8-0.2c-0.4,1.4,0.7,2.3,2.1,2.3c1.8-0.1,3.2-1.4,5.1-1.4c0,0.5-0.1,0.9-0.3,1.3
					c-0.1,0-0.1,0-0.2,0c-1.4-0.1-2.6,0.8-3.1,2.1c-0.1,0.2,0.1,0.3,0.2,0.3c1.4,0,2.7-0.7,3.3-1.9c1,0.3,1.7,1.3,2.7,1.7
					c0.9,0.4,2,0.2,2.4-0.6c0.2,0.3,0.5,0.6,0.7,0.9c0.1,0.1,0.3,0.1,0.4,0c0.6-0.5,0.9-1.1,0.8-1.9
					C233.1,107.1,232.6,107.1,232.6,107.4z M219.9,103.9c1.4-2.3,3.9-4.7,6.8-4.6c-0.3,2.1-1.7,4-3.8,4.7c-1.1,0.4-2.1,0.3-3.2,0.2
					C219.8,104.1,219.8,104,219.9,103.9z M215.8,105.9c1.1,1,0.4,2.7-0.4,3.6c-0.6,0.7-1.7,1.4-2.6,1.7c-1.6,0.5-2.5-0.7-2.3-2.2
					c0.1-1.1,0.7-2,1.4-2.8c0.2-0.1,0.4-0.2,0.5-0.3C213.4,105.5,214.9,105.1,215.8,105.9z M223.1,108.7c0.4-0.9,1.4-1.5,2.4-1.4
					C225,108,224.1,108.6,223.1,108.7z"/>
			</g>
			<g>
				<path class="st3" d="M230.4,120.1c-0.9,0.7-1.9,1.3-2.8,2c-1.2-1.3-3,0.1-3.9,1.2c-0.2-0.7-0.1-1.4-0.4-2
					c-0.3-0.5-0.7-0.9-1.2-1.1c-1.1-0.5-2.4-0.2-3.4,0.3c-0.9,0.4-1.8,1-2.7,1.3c-0.2,0.1-0.4,0.1-0.6,0.2c1.7-1.1,2.9-3.2,2.8-5.1
					c0-0.2-0.2-0.3-0.3-0.2c-2.4,0.7-4.1,2.9-4.1,5.4c-0.3,0.1-0.6,0.1-0.9,0.1c-1-0.1-1.9-0.6-2-1.7c-0.1-0.8,0.4-1.7,0.8-2.4
					c0.7-1.1,1.6-2,2.7-2.7c-0.1,0.8-0.5,1.5-1.1,2.1c-0.2,0.2,0.1,0.4,0.2,0.2c0.8-0.8,1.1-1.7,1.2-2.7c0-0.2-0.2-0.2-0.3-0.2
					c-1.6,0.9-3,2.3-3.7,4c-0.6,1.4-0.5,3.2,1.2,3.7c0.8,0.2,1.6,0.2,2.3,0c1.9,0.2,3.3-0.9,5-1.6c1-0.4,2.4-0.6,3.3,0.2
					c0.8,0.8,0.5,1.9,1,2.9c0.1,0.1,0.3,0.2,0.4,0.1c0.4-0.5,0.9-1.1,1.5-1.5c0.6-0.3,1.4-0.4,1.9,0c-0.1,0.1-0.3,0.2-0.4,0.3
					c-1,0.7-2.5,1.4-3.1,2.4c-0.3,0.4-0.4,1,0.1,1.4c0.6,0.5,1.4,0.2,2-0.1c1.3-0.6,3.3-2.2,2.3-3.9c0.9-0.7,1.9-1.3,2.8-1.9
					C230.9,120.4,230.7,119.9,230.4,120.1z M214.2,121.9c-0.2-0.2-0.1-0.7,0-1.1c0.4-1.7,1.7-3,3.3-3.6
					C217.4,119.2,216.1,121.2,214.2,121.9z M226.4,125.4c-0.4,0.3-1.3,0.9-1.8,0.8c-0.3,0.1-0.4,0-0.4-0.4c-0.3-0.4-0.2-0.7,0.3-0.8
					c0.3-0.2,0.5-0.4,0.8-0.6c0.6-0.4,1.2-0.8,1.8-1.3c0.1-0.1,0.2-0.2,0.4-0.3c0.1,0.2,0.2,0.4,0.2,0.7
					C227.6,124.3,227,124.9,226.4,125.4z"/>
			</g>
			<g>
				<path class="st3" d="M217.6,126.2c-0.7,0.2-1.4,0.3-2.1,0.1c-0.4-0.1-0.8-0.5-1.2-0.4c-1.2,0.1-1.9,1.3-3.2,1.2
					c-0.2,0-0.2,0.4,0,0.4c0.5,0,0.9-0.1,1.3-0.3c0.9-0.4,1.4-1.1,2.5-0.7c1,0.3,1.8,0.5,2.8,0.1
					C217.9,126.5,217.8,126.2,217.6,126.2z"/>
			</g>
		</g>
	</g>
	<g>
		<g>
			<path class="st3" d="M189.9,133.9c5.1,0.1,8.3,0.2,12.4,0c3.1-0.1,6.3,0.1,9.4-0.1c0.2-8.6,0.2-19.7,0-28.3
				c-7.3-0.2-14.2,0.1-21.8,0C189.9,114.7,189.9,124.6,189.9,133.9z"/>
		</g>
		<g>
			<g>
				<path class="st2" d="M194.9,113.7c1.6,0.6,3.4-0.8,3.9-2.3c0,0,0,0,0,0c0.1,0,0.1,0,0.2,0c0.3,0,0.8,0.1,1,0.4
					c0.1,0.1,0.2,0.3,0.2,0.4c-0.7,0.2-1.2,0.8-0.9,1.5c0,0.1,0.2,0.2,0.3,0.2c0.7-0.1,1.2-0.7,1.2-1.3c0.1,0,0.3,0,0.4,0.1
					c0.2,0,0.3,0.1,0.5,0.1c0.3,0.1,0.6,0.2,0.9,0.2c0.4,0,0.9,0,1.3-0.3c0.4-0.2,0.7-0.6,0.9-1c0,0,0.1,0,0.1,0
					c0.4-0.1,0.6,0.1,0.7,0.6c-0.1,0.1-0.2,0.2-0.2,0.4s0.1,0.3,0.2,0.3c0.4,0,0.8-0.3,0.8-0.8c0.2-0.1,0.4-0.1,0.7,0
					c0.3,0.1,0.5-0.4,0.1-0.5c-0.3-0.1-0.6-0.1-0.9,0c-0.2-0.4-0.8-0.5-1.3-0.5c0.1-0.3,0.2-0.6,0.3-0.9c0-0.1-0.1-0.3-0.2-0.3
					c-0.8,0.1-1.4,0.5-1.7,1.3c-0.1,0.1,0.1,0.3,0.2,0.3c0.2,0.1,0.4,0.1,0.6,0.2c-0.2,0.3-0.6,0.6-1,0.7c-0.9,0.2-1.7-0.4-2.5-0.4
					c0-0.1,0-0.1-0.1-0.2c-0.4-0.8-1-0.9-1.8-0.9c0.1-0.4,0.1-0.8-0.3-1c-0.7-0.4-1.2,0.7-1.3,1.2c0,0.1,0,0.3,0.1,0.3
					c0.3,0.1,0.6,0,0.9,0c-0.1,0.3-0.5,0.8-0.6,1c-0.5,0.5-1.1,0.9-1.8,1c-0.2,0-0.5,0-0.7,0c0.5-0.6,1-1.4,1-2.2
					c0-0.5-0.4-0.9-0.9-0.7C193.9,110.8,193.5,113.2,194.9,113.7z M204,111.2c0.2-0.3,0.4-0.5,0.8-0.6c-0.1,0.2-0.1,0.5-0.2,0.7
					C204.4,111.2,204.2,111.2,204,111.2z M197.8,111.1c0.1-0.3,0.2-0.3,0.4-0.1c0.2,0,0.2,0.1,0.3,0.1
					C198.2,111.1,198,111.1,197.8,111.1z M194.5,111.8c0.1-0.3,0.2-0.5,0.5-0.7c0.3,0.2,0.5,0.3,0.8,0.4c-0.1,0.3-0.2,0.6-0.3,0.9
					c-0.2,0.3-0.4,0.6-0.6,0.9c0,0,0,0-0.1,0C194.3,112.8,194.2,112.2,194.5,111.8z"/>
			</g>
			<g>
				<path class="st2" d="M208.1,117.2c-0.5,0.1-0.8,0.2-1.1,0.5c0,0,0-0.1-0.1-0.1c-0.1-0.1-0.4-0.1-0.4,0.1c-0.1,0.2-0.7,0-1.2-0.2
					c0.1-0.3,0.1-0.6-0.2-0.9c-0.3-0.2-0.7-0.2-1-0.1c-0.8,0.2-1.5,0.6-2.3,0.7c0-0.1,0.1-0.3,0.1-0.4c0.8-0.4,1.4-0.9,1.8-1.7
					c0.1-0.2-0.1-0.4-0.3-0.3c-0.8,0.3-1.5,0.9-1.8,1.7c-0.6,0.3-1.3,0.5-1.9,0.8c0,0,0,0-0.1,0c-0.1-0.4-0.3-0.7-0.5-1.1
					c-0.1-0.1-0.3-0.2-0.4-0.1c-0.3,0.4-0.6,0.8-0.9,1.2c-0.2,0.3-0.5,0.7-0.8,1c-0.1,0.1-0.3,0.2-0.5,0.3c-0.4,0.3-0.8,0.3-1.1-0.2
					c-0.1,0-0.1,0-0.1,0c0.7-0.4,2.2-1.7,1.6-2.6c-0.7-1.2-2,0.5-2.3,1.1c-0.5,0.9-0.4,2.3,0.9,2.4c1.6,0.2,2.6-1.5,3.4-2.6
					c0.1,0.2,0.2,0.5,0.3,0.7c-0.6,0.3-1.2,0.9-1.1,1.5c0.2,0.7,1,0.2,1.3-0.2c0.2-0.3,0.3-0.7,0.3-1c0.5-0.3,1.1-0.5,1.7-0.7
					c0,0.1-0.1,0.2-0.1,0.3c0,0.2,0.1,0.3,0.2,0.3c0.6,0,1.1-0.1,1.6-0.3c0.3-0.1,0.6-0.3,0.9-0.3l0.5-0.1c0,0.1,0.1,0.2,0.1,0.3
					c0,0-0.1,0-0.1,0c-0.4,0.1-0.6,0.5-0.5,0.9c0.1,0.2,0.2,0.2,0.4,0.2c0.2-0.1,0.4-0.2,0.6-0.4c0.4,0.1,0.8,0.4,0.8,0.4
					c0.2,0.1,0.4,0.1,0.6,0.1c0.1,0,0.1,0,0.2-0.1c-0.1,0.2-0.1,0.3-0.1,0.5c0,0.2,0.2,0.4,0.4,0.3c0.4-0.2,0.5-0.6,0.5-1
					c0.2-0.3,0.5-0.5,0.9-0.6C208.4,117.6,208.4,117.2,208.1,117.2z M194.9,118.4c-0.2-0.2-0.3-0.4-0.1-0.7c0-0.3,0.1-0.5,0.3-0.7
					c0.1-0.1,0.1-0.2,0.2-0.3c0.2-0.5,0.4-0.5,0.7-0.1c0.5,0.4,0.3,0.6-0.1,1c-0.2,0.3-0.6,0.5-0.9,0.7
					C194.9,118.3,194.9,118.3,194.9,118.4z"/>
			</g>
			<g>
				<path class="st2" d="M207,123.5c-1.1,0.3-2.2,0.5-3.3,0.5c0-0.1,0-0.2,0-0.4c0-0.2-0.2-0.3-0.3-0.2c-0.3,0.1-0.7,0.2-1,0.4
					c-0.1-0.1-0.2-0.2-0.3-0.3c-0.4-0.3-1-0.2-1.4-0.1c-0.6,0.1-1.1,0.2-1.7,0.2c0.2-0.2,0.5-0.5,0.7-0.8c0.1-0.2-0.1-0.4-0.3-0.4
					c-0.9,0.1-1.5,0.6-1.9,1.4c0,0.1,0,0.2,0,0.2c-0.3,0.2-0.6,0.3-1,0.3c-0.2,0.1-0.6,0.2-0.8,0.1c-0.5-0.2-0.6-0.7-0.4-1.1
					c0.3-0.5,0.7-0.8,1.2-1c0,0.3-0.2,0.6-0.6,0.8c-0.2,0.1,0,0.4,0.2,0.3c0.6-0.3,0.8-0.8,0.8-1.5c0-0.2-0.2-0.2-0.3-0.2
					c-0.7,0.3-3.1,2.3-1.4,3c0.7,0.3,1.8-0.1,2.4-0.4c0.3-0.1,0.5-0.2,0.7-0.4c0.5-0.1,1-0.1,1.5-0.2c0.3,0,0.6-0.1,0.9-0.1
					c0.2,0,0.4-0.1,0.6-0.1c0.2,0.2,0.3,0.4,0.4,0.6c-0.2,0.2-0.5,0.4-0.7,0.7c-0.1,0.2,0,0.5,0.2,0.4c0.4-0.2,1.1-0.6,1.3-1.1
					c0.2-0.1,0.4-0.2,0.7-0.3c0,0.1,0,0.1,0,0.2c-0.1,0.2,0.1,0.3,0.2,0.3c1.3,0,2.6-0.2,3.8-0.6C207.5,123.9,207.3,123.5,207,123.5
					z"/>
			</g>
			<g>
				<path class="st2" d="M201.7,128.7c-0.4-0.1-0.8,0-1.3,0.1c-0.7,0.2-1.5,0.6-2.2,0.4c-0.5-0.2-0.8-0.4-1.2,0.1
					c-0.1,0.1,0.1,0.3,0.2,0.1c0.1-0.2,0.9,0.2,1.1,0.2c0.3,0,0.6,0,0.9-0.1c0.8-0.2,1.6-0.4,2.5-0.5
					C201.8,129,201.8,128.7,201.7,128.7z"/>
			</g>
			<g>
				<path class="st2" d="M203.5,128.8c-0.2,0-0.4-0.1-0.5-0.1c-0.2-0.1-0.2,0.2-0.1,0.2c0.2,0.1,0.4,0.1,0.6,0
					C203.6,129,203.6,128.8,203.5,128.8z"/>
			</g>
			<g>
				<path class="st2" d="M206.2,128.9C206.2,128.9,206.2,128.9,206.2,128.9c-0.1-0.1-0.2-0.1-0.2-0.2c-0.1-0.1-0.2-0.2-0.3-0.2
					c-0.2-0.1-0.4,0-0.5,0.2c-0.1,0.2,0.3,0.3,0.4,0.1c0,0,0,0,0.1,0.1c0.1,0,0.1,0.1,0.1,0.1c0.1,0.1,0.2,0.2,0.3,0.2
					c0.2,0.1,0.4,0,0.5-0.2C206.8,128.9,206.4,128.7,206.2,128.9z"/>
			</g>
		</g>
	</g>
	<g>
		<path class="st4" d="M140.8,283.5c-0.3,0.8-0.5,1.7,0.2,2.2c0.5,0.4,1.2,0.4,1.8,0.4c1.7-0.1,3.1-1,4.5-1.8
			c1.2-0.7,2.4-1.4,3.6-2.1c1.4-0.8,2.9-1.8,3.2-3.2c0.1-0.4,0-0.9-0.1-1.3c-0.2-0.9-0.6-1.7-1.4-2.3s-1.9-1-3-0.8
			c-1.2,0.2-2.2,1-2.9,1.9s-1.2,1.8-2,2.6c-0.8,0.7-1.8,1.2-2.5,1.9C141.6,281.8,141.2,282.7,140.8,283.5z"/>
	</g>
	<g>
		<path class="st4" d="M125.1,283.1c-0.1-1.2,0.1-2.4,0.8-3.4c0.8-1.1,2.2-1.6,3.6-1.9c0.6-0.1,1.2-0.2,1.8-0.1
			c1.1,0.2,2.1,0.9,2.8,1.8c0.5,0.5,0.9,1,1.1,1.6c0.2,0.6,0.3,1.2,0.3,1.9s0.1,1.3,0.1,1.9c0,0.4,0,0.8-0.2,1.1
			c-0.2,0.2-0.4,0.3-0.7,0.3c-1.9,0.5-3.8,0.6-5.8,0.6c-0.8,0-2.4,0.2-2.9-0.5C125.5,285.6,125.2,284,125.1,283.1z"/>
	</g>
	<g>
		<path class="st4" d="M134.9,286.1c-0.3-1.1-0.7-2.3-1.4-3.2c-0.1-0.2-0.3-0.4-0.5-0.5s-0.4-0.2-0.6-0.2c-1.3-0.3-2.6-0.4-3.8,0.1
			c-0.6,0.2-1.1,0.6-1.5,1.1l0.2-0.5c-0.1,0.2-0.2,0.4-0.2,0.6c-0.4,0.5-0.6,1.1-0.5,1.7c-0.2,0.8-0.3,1.6-0.4,2.5
			c0,0.1,0,0.3,0,0.4c0.1,0.1,0.2,0.2,0.3,0.3c1.8,1.1,4.1,1,6.2,0.7c0.8-0.1,1.6-0.3,2-0.9C135.2,287.5,135.1,286.7,134.9,286.1z"
			/>
	</g>
	<g>
		<path class="st5" d="M134.6,223.5c-1.2-0.2-4.4-0.5-5.5-0.9c-2,0.1-4,0-6.1-0.1c0.7,12.9,1.7,25.8,3,38.6
			c0.4,4.4,0.9,8.8,1.2,13.2c0.1,1.2,0.2,1.8,0.4,2.9c-0.2,2.3-0.2,4.6-0.2,6.9c0,0.8-0.1,1.6,0.2,2.3c0.1,0.2,0.2,0.5,0.4,0.6
			c0.2,0.2,0.5,0.2,0.8,0.3c0.8,0.1,1.7,0.1,2.5,0c0.5-0.1,1-0.2,1.4-0.5c0.9-0.7,0.8-2.1,0.6-3.2c-0.4-2.3-0.7-3.9-1.1-6.2
			c0-0.2-0.1-0.4-0.2-1c0-0.1-0.1-0.4-0.1-0.4c-0.6-6.1,0.4-11.3,0.3-17.6c-0.2-10,1.5-19.7,2.2-29.6
			C134.4,227,134.5,225.2,134.6,223.5z"/>
	</g>
	<g>
		<path class="st5" d="M153.3,223.4c-0.6,0-1.2-0.1-1.8-0.1c-2.4-0.1-6.1-0.3-8.6-0.2c1.1,10.8,0.6,24.4-0.4,34
			c-0.6,6.6,0,13.3-0.7,19.9c0,0,0,0,0,0.1c-0.2,0.9-0.2,2.2-0.2,2.9c0,0.7,0,1.4-0.1,2.1c-0.1,0.5-0.3,1-0.4,1.5
			c-0.1,0.5,0.1,1.1,0.5,1.3c0.3,0.2,0.8,0.2,1.2,0.2c1.5-0.2,3-0.8,4.2-1.8c0.9-0.7,1.7-1.7,1.9-2.9c0.1-1.2-0.6-2.5-1.8-2.6
			c-0.2,0-0.4,0-0.6-0.1c-0.4-0.2-0.7,0.1-1-0.2c-0.2-0.2,0.5-3.1,0.5-3.8c1.1-4.7,2.2-9.5,3.2-14.2c1.9-8.4,3.3-22.4,4-31.1
			C153.4,226.7,153.4,225.1,153.3,223.4z"/>
	</g>
	<g>
		<g>
			<g>
				<g>
					<path class="st6" d="M222.4,167.5c0,2.1,0.1,4.9,2.2,6.1c0.7,0.4,1.5,0.5,2.2,0.6c1.8,0.2,3.7,0,4.8-1.5
						c0.3-0.4,0.5-0.9,0.7-1.4c0.2-0.5,0.4-0.9,0.5-1.4c0.4-1.5,0.3-3.1,0.2-4.6c0-0.6-0.1-1.2-0.1-1.8c0-0.5-0.1-1-0.6-1.3
						c-0.2-0.1-0.5-0.2-0.7-0.2c-2.1-0.2-4.1-0.4-6.2-0.4c-0.9,0-2.1,0.1-2.5,1.1c-0.2,0.4-0.2,0.9-0.3,1.4
						C222.5,165.2,222.4,166.3,222.4,167.5z"/>
				</g>
				<g>
					<path class="st7" d="M232.1,161.8c0,0-0.1,0-0.1,0c-2.8-0.4-5.6-0.6-8.4-0.1c-0.2,0.1-0.5,0.1-0.6,0.3c-0.2,0.2-0.2,0.6,0,0.8
						c1.2,0.1,2.4,0.2,3.6,0.3c1.8,0.1,4.3,0.3,5.9-0.7C232.7,162.2,232.3,161.9,232.1,161.8z"/>
				</g>
			</g>
		</g>
		<g>
			<g>
				<path class="st8" d="M229.2,151.6c0.2,1.4,0.1,2.9-0.1,4.3c-0.1,0.4-0.1,0.9,0.1,1.2s0.8,0.5,1.1,0.2c0.4-0.5-0.5-1.3-0.2-1.8
					c0.3-0.4,0.9-0.1,1.2,0.2c0.6,0.8,0.3,2.1-0.5,2.6c-0.3,0.2-0.8,0.4-0.8,0.8c0.6,0.1,1.1,0.2,1.7,0.1s1.1-0.5,1.1-1.1
					c0-0.2,0-0.5,0-0.7c0-0.2,0.1-0.5,0.4-0.6c0.3-0.1,0.5,0.2,0.7,0.4c0.5,0.6,1,1.2,1.1,1.9c0.1,0.7-0.3,1.6-1,1.8
					c-0.9,0.2-1.8-0.9-2.7-0.6c-0.2,0.1-0.4,0.2-0.7,0.3c-0.4,0.1-0.8,0-1.1,0.1c-0.6,0.2-0.6,1-0.6,1.6c-0.6,0.1-1.2,0.1-1.8,0.1
					c-0.1,0-0.3,0-0.4-0.1c-0.2-0.1-0.2-0.4-0.2-0.6c0-0.7,0.1-1.5,0.1-2.2c0-0.2,0-0.4-0.1-0.6c-0.1-0.1-0.3-0.1-0.5-0.1
					c-0.7-0.1-1.3-0.7-1.5-1.3c-0.3-0.6-0.3-1.4-0.4-2.1c0.4,0,0.8,0.2,1,0.5c0.3,0.3,0.4,0.7,0.6,1c0.1,0.2,0.3,0.4,0.5,0.6
					c0.2,0.1,0.5,0.1,0.7-0.1c0.1-0.1,0.1-0.2,0.1-0.3c0.2-1.1-0.5-2.3-1.5-2.6c-0.2-0.1-0.4-0.1-0.5,0c-0.1,0-0.2,0.1-0.4,0.2
					c-0.3,0.1-0.6-0.1-0.8-0.4c-0.1-0.2-0.2-0.6,0-0.8c0.2-0.2,0.7-0.1,1,0s0.8,0.2,1-0.1c0.2-0.4-0.2-0.8-0.4-1.3
					c0-0.1,0-0.3,0.1-0.4c0.1-0.1,0.1-0.1,0.2-0.1c0.3,0,0.6,0.1,0.7,0.4c0.2,0.2,0.2,0.5,0.3,0.8c0.3,0.9,0.5,1.9,0.6,2.9
					c0.1,0.7,0.1,1.4,0.3,2.1c0.1,0.2,0.3,0.4,0.4,0.3c-0.3-2-0.5-4-0.6-6c0-0.4,0-0.8,0.1-1.1s0.5-0.6,0.9-0.5
					C228.9,150.5,229.1,151.1,229.2,151.6z"/>
			</g>
		</g>
	</g>
	<g>
		<g>
			<g>
				<path class="st9" d="M214.7,144.4c-0.1-1.1-0.1-2.1-0.3-3.2c-1.4,0.2-2.8,0.3-4.3,0.2c0.2,2,0.1,4,0.1,6.1c0,4.1,0,7,0,11.8
					c0,1.9,0.1,3.7,0,5.5c0,0.7-0.5,3.1,0,3.4c0.4,0.2,1.3,0,1.8,0c0.6,0,1.2,0,1.8-0.1c0.1,0,0.3,0,0.4-0.1
					c0.1-0.1,0.2-0.2,0.2-0.4c0.3-0.8,0.3-1.6,0.3-2.5C214.8,158.3,215,151.3,214.7,144.4z M212.9,143.3c-0.2,0.5-0.8,0.4-0.9-0.1
					c-0.1-0.3,0-0.6,0.2-0.7c0.1-0.1,0.1-0.1,0.2-0.1c0.2-0.1,0.4,0,0.5,0.2C212.9,142.8,212.9,143.1,212.9,143.3z"/>
			</g>
			<g>
				<path class="st10" d="M214.4,145.7c-0.8,0-1.6,0.2-2.4,0.4c-0.1,0-0.1,0.3,0,0.2c0.8-0.1,1.6-0.1,2.3-0.2
					C214.7,146.1,214.7,145.7,214.4,145.7z"/>
			</g>
			<g>
				<path class="st10" d="M214.2,150.5c-0.6,0-1.2,0.1-1.9,0.2c-0.1,0-0.2,0.3,0,0.3c0.6,0,1.2,0,1.9,0
					C214.4,150.9,214.4,150.5,214.2,150.5z"/>
			</g>
			<g>
				<path class="st10" d="M214.5,156.8c-0.7,0-1.4,0.1-2.1,0.2c-0.2,0-0.1,0.3,0.1,0.3c0.7-0.1,1.3-0.1,2-0.1
					C214.8,157.2,214.8,156.8,214.5,156.8z"/>
			</g>
			<g>
				<path class="st10" d="M214.5,163.3c-0.7-0.1-1.4,0.1-2.1,0.2c-0.2,0-0.2,0.3,0,0.3c0.7-0.1,1.4,0,2.1,0
					C214.7,163.7,214.7,163.3,214.5,163.3z"/>
			</g>
			<g>
				<path class="st10" d="M214.3,162.1c-0.2,0-0.4,0.1-0.7,0.1c-0.2,0-0.1,0.3,0,0.3c0.2,0,0.4-0.1,0.7-0.1
					C214.6,162.4,214.5,162.1,214.3,162.1z"/>
			</g>
			<g>
				<path class="st10" d="M214.2,160.7c-0.2,0-0.3,0-0.5,0.1c-0.2,0-0.2,0.3,0,0.3c0.2,0,0.4,0,0.6,0
					C214.5,161.1,214.5,160.7,214.2,160.7z"/>
			</g>
			<g>
				<path class="st10" d="M214.1,159.3c-0.1,0-0.3,0.1-0.4,0.1c-0.1,0-0.1,0.3,0,0.3c0.1,0,0.3,0,0.5,0
					C214.4,159.7,214.3,159.3,214.1,159.3z"/>
			</g>
			<g>
				<path class="st10" d="M214.4,157.9c-0.2,0-0.5,0.1-0.7,0.1c-0.2,0-0.1,0.4,0.1,0.4c0.2,0,0.5,0,0.7-0.1
					C214.6,158.3,214.6,157.9,214.4,157.9z"/>
			</g>
			<g>
				<path class="st10" d="M214.1,155.4c-0.2,0-0.4,0-0.7,0.1c-0.2,0-0.1,0.4,0.1,0.3c0.2,0,0.4,0,0.6,0
					C214.3,155.8,214.3,155.4,214.1,155.4z"/>
			</g>
			<g>
				<path class="st10" d="M214.2,153.8c-0.3,0-0.5,0.1-0.8,0.1c-0.2,0-0.2,0.3,0,0.3c0.2,0,0.5,0,0.8,0
					C214.4,154.1,214.4,153.7,214.2,153.8z"/>
			</g>
			<g>
				<path class="st10" d="M214.2,152.4c-0.2,0-0.5,0.1-0.8,0.1c-0.2,0.1-0.1,0.4,0.1,0.3c0.2,0,0.4,0,0.7,0
					C214.5,152.9,214.5,152.4,214.2,152.4z"/>
			</g>
			<g>
				<path class="st10" d="M214.4,149.3c-0.3,0-0.6,0.1-0.8,0.1c-0.1,0-0.1,0.2,0,0.2c0.3,0,0.6,0.1,0.9,0
					C214.6,149.7,214.6,149.3,214.4,149.3z"/>
			</g>
			<g>
				<path class="st10" d="M214.3,148c-0.2,0-0.4,0-0.6,0c-0.2,0-0.2,0.3,0,0.3c0.2,0,0.4,0,0.6,0C214.5,148.4,214.5,148,214.3,148z"
					/>
			</g>
			<g>
				<path class="st10" d="M214.1,147.1c-0.1,0-0.3-0.1-0.4-0.1c-0.2-0.1-0.3,0.3-0.1,0.3c0.1,0.1,0.3,0.1,0.4,0.2
					C214.2,147.6,214.3,147.1,214.1,147.1z"/>
			</g>
			<g>
				<path class="st10" d="M213.8,164.8c0,0-0.1,0-0.1,0c-0.2,0-0.2,0.4,0,0.4c0,0,0.1,0,0.1,0C214.1,165.2,214.1,164.8,213.8,164.8z
					"/>
			</g>
			<g>
				<path class="st10" d="M214.2,165.9c-0.2-0.1-0.4-0.1-0.6-0.1c-0.2,0-0.2,0.4,0,0.4c0.2,0,0.4,0.1,0.5,0.1
					C214.3,166.4,214.4,166,214.2,165.9z"/>
			</g>
		</g>
		<g>
			<g>
				<path class="st11" d="M208.1,148.2c-0.1-0.3-0.2-0.7-0.2-1.1c0,0,0,0,0-0.1c0,0,0.1-0.1,0.1-0.1c0.2-0.1,0.2-0.1,0.4-0.1
					c0.1-0.1,0.4-0.1,0.6-0.1c0.1,0,0.1,0.1,0.1,0.1c0,0.1,0,0.1,0,0.2c0,0.3,0,0.7,0,1C209.1,148.2,208.2,148.2,208.1,148.2z"/>
			</g>
			<g>
				<path class="st12" d="M208.8,163.2c-0.1-1.6-0.2-3.3-0.3-4.9c-0.2-3.4-0.4-6.7-0.6-10.1c0-0.2,0.1-0.3,0.3-0.4l0.6-0.1
					c0.2,0,0.4,0.1,0.4,0.3c-0.2,3.2,0.4,6.4,0.5,9.7c0.1,3.2,0.1,6.4,0.3,9.6c0,0.1,0.1,0.2,0,0.2c0,0.1-0.1,0.2-0.1,0.2l0,0
					c-0.1,0.1-0.2,0.1-0.4,0.1c-0.1,0-0.1,0-0.1,0c-0.1,0-0.2-0.1-0.3-0.2C208.6,166.4,208.9,164.6,208.8,163.2z"/>
			</g>
		</g>
		<g>
			<g>
				<path class="st11" d="M216.1,145.2c0.1-0.4,0.2-0.7,0.2-1.1c0,0,0,0,0-0.1c0,0,0,0,0,0c-0.2-0.1-0.3,0-0.5-0.1
					c-0.1-0.1-0.2-0.2-0.3-0.2c-0.1,0-0.1,0.1-0.1,0.1c0,0.1,0,0.1,0,0.2c0,0.3,0,0.7,0,1C215.2,145.3,216,145.2,216.1,145.2z"/>
			</g>
			<g>
				<path class="st13" d="M215.2,164.6c0.1-2.1,0.2-4.2,0.4-6.4c0.3-4.4,0.5-8.7,0.9-13c0-0.2-0.1-0.4-0.3-0.4l-0.6-0.1
					c-0.2,0-0.4,0.2-0.4,0.4c0.2,4.2-0.6,8.4-0.7,12.5c-0.1,4.1-0.2,8.3-0.5,12.4c0,0.1-0.1,0.2,0,0.3c0,0.1,0.1,0.2,0.1,0.3l0,0
					c0.1,0.1,0.2,0.2,0.4,0.1c0.1,0,0.1,0,0.1,0c0.1,0,0.3-0.1,0.3-0.3C215.3,168.6,215.1,166.4,215.2,164.6z"/>
			</g>
			<g>
				<path class="st13" d="M216.7,142.6c-0.1-0.2-0.5-0.3-0.7-0.3c-0.2-0.1-0.4-0.2-0.6,0c-0.2,0.1-0.3,0.4-0.3,0.6
					c-0.1,0.3-0.1,0.7-0.1,1c0,0.2,0.1,0.4,0.3,0.4c0.1,0,0.1,0,0.2,0c0.2,0.1,0.4,0.1,0.6,0.1c0.2,0.1,0.4,0,0.6-0.2
					c0.1-0.2,0.1-0.6,0.1-0.8C216.7,143.2,216.8,142.8,216.7,142.6z"/>
			</g>
			<g>
				<path class="st11" d="M216.6,145.2c0,0,0.1,0,0.1,0s0,0.1,0,0.1c-0.1,1.6-0.1,3.2-0.3,4.8c0,0-0.1,0-0.1,0
					c0.1-0.5,0.1-0.9,0.1-1.4c0.1-0.9,0-1.8,0.1-2.7c-0.3,0-0.7-0.1-1-0.1c0,0,0,0-0.1,0c0,0,0-0.1,0-0.1c0-0.2-0.1-0.8,0.2-0.8
					c0.1,0,0.3,0.1,0.4,0.1C216.3,145.1,216.4,145.2,216.6,145.2z"/>
			</g>
		</g>
		<g>
			<g>
				<path class="st14" d="M215.6,173.8c0.1-0.1,0.2-0.4,0.2-0.6c0.8-5.6,1.7-11.7,2.5-17.3c-3.8-0.7-7.8-0.4-11.6-0.2
					c0.3,6.2,0.7,12.3,1.2,18.4c2.4-0.1,4.9-0.1,7.3-0.2C215.3,173.9,215.4,173.9,215.6,173.8z"/>
			</g>
		</g>
	</g>
	<g>
		<g>
			<path class="st11" d="M177.5,173.6C177.5,173.6,177.5,173.6,177.5,173.6L177.5,173.6c-0.1,0-0.1,0-0.2,0.1c0,0,0,0,0,0.1
				c0,0,0,0,0.1,0c0,0,0.1,0,0.1,0C177.4,173.7,177.5,173.7,177.5,173.6C177.5,173.6,177.5,173.6,177.5,173.6
				C177.5,173.6,177.5,173.6,177.5,173.6z"/>
		</g>
		<g>
			<path class="st12" d="M180.7,169.1c1.1-1.2,2.1-2.5,3.2-3.8c2.1-2.6,2.9-3.4,5-6.1c0.1-0.1,0.3-0.1,0.5,0l0.5,0.3
				c0.1,0.1,0.2,0.4,0.1,0.5c-2.4,2.2-2.7,3.3-4.8,5.7c-2.1,2.4-4.3,4.8-6.3,7.2c0,0.1-0.1,0.1-0.1,0.2c-0.1,0.1-0.2,0.1-0.2,0.1h0
				c-0.1,0-0.3-0.1-0.4-0.2c0,0-0.1-0.1-0.1-0.1c-0.1-0.1-0.1-0.2-0.1-0.4C178.4,171.3,179.8,170.2,180.7,169.1z"/>
		</g>
		<g>
			<path class="st12" d="M178.7,171.2c1-1.2,2.1-2.5,3.1-3.7c0.1-0.1,0.1-0.1,0.2-0.2c0.1,0,0.1,0,0.2,0.1c0.3,0.1,0.5,0.3,0.8,0.5
				c0.1,0,0.1,0.1,0.1,0.1c0,0.1,0,0.1-0.1,0.1c-0.3,0.5-0.7,0.9-1.1,1.3c-1,1.2-2,2.4-3.1,3.6c-0.1,0.1-0.1,0.2-0.2,0.2
				c-0.1,0-0.1,0-0.2-0.1c-0.3-0.1-0.9-0.4-0.8-0.8c0-0.2,0.3-0.4,0.4-0.6C178.3,171.7,178.5,171.5,178.7,171.2z"/>
		</g>
		<g>
			<path class="st12" d="M178.7,172.9c-0.1-0.1-0.1-0.2-0.2-0.3c-0.1,0-0.1-0.1-0.2-0.1c-0.2-0.1-0.5-0.1-0.6,0.1
				c-0.2,0.2-0.2,0.6-0.3,0.9c0,0,0,0.1,0,0.1c0,0,0,0.1,0.1,0.1c0.2,0.1,0.4,0.1,0.6,0.1c0.2-0.1,0.4-0.2,0.5-0.3
				c0.1,0,0.1-0.1,0.1-0.1C178.8,173.1,178.7,173,178.7,172.9z"/>
		</g>
	</g>
	<g>
		<path class="st15" d="M179,169.1c0.5-0.2,1.1-0.3,1.7-0.3c1,0,2,0.3,2.7,1.1c0.5,0.6,0.7,1.4,0.8,2.1c0,0.3,0.1,0.6-0.1,0.9
			c-0.1,0.2-0.3,0.4-0.5,0.6c-1.1,0.8-2.6,0.9-3.8,0.2C178.2,172.9,176.9,170.1,179,169.1z"/>
	</g>
	<g>
		<path class="st3" d="M189.9,174.1c-10.6,0.1-18.8-0.1-28.3,0.1c0,0.2,0,0.4,0,0.7l28.3,0C190,174.5,190,174.3,189.9,174.1z"/>
	</g>
	<g>
		<path class="st16" d="M158,172.6c-19,0.3-33.5-0.4-50.6,0.2c0,0.6,0,1.3,0,2l-0.4,0.1c17,0.1,34,0,51-0.2
			C158.1,174,158.1,173.3,158,172.6z"/>
	</g>
	<g>
		<g>
			<path class="st17" d="M113.1,172.4c2.1-0.7,4.1-1.7,6.1-2.7c0.8-0.4,1.7-0.9,2.2-1.6s0.7-2,0.1-2.7c-0.5-0.5-1.3-0.6-2-0.6
				c-5.9-0.1-11.8,1-17.3,3.3c-0.9,0.4-1.8,0.8-2.4,1.6c-0.6,0.9-1.2,3.6-0.4,4.6c0.8,1,2.2,0.3,3.2,0.1
				C106.1,173.7,109.7,173.5,113.1,172.4z"/>
		</g>
	</g>
	<g>
		<g>
			<path class="st8" d="M242.9,166.9c0.1,0,0.1-0.2,0-0.2c-0.2,0-0.4,0-0.6,0c0-0.1-0.1-0.2-0.1-0.3c0.1-0.1,0.2-0.3,0.3-0.4
				c0.1-0.1-0.1-0.1-0.1-0.1c-0.1,0.1-0.2,0.2-0.3,0.3c-0.1-0.2-0.2-0.4-0.3-0.6c0,0,0,0,0,0c0.1-0.1,0.3-0.2,0.4-0.3
				c0.1-0.1,0-0.2-0.1-0.2c-0.1,0.1-0.3,0.2-0.5,0.3c0,0,0,0,0,0c-0.1-0.2-0.3-0.3-0.5-0.4c-0.1-0.1-0.2-0.1-0.3-0.2
				c0.1-0.2,0.2-0.5,0.4-0.7c0.1-0.1-0.1-0.2-0.1-0.1c-0.1,0.2-0.3,0.4-0.4,0.7c-0.1-0.1-0.2-0.1-0.3-0.1c0,0,0,0,0,0
				c-0.1-0.2-0.2-0.4-0.3-0.5c0-0.1-0.1,0-0.1,0c0.1,0.1,0.1,0.3,0.2,0.4c-0.2-0.1-0.4-0.1-0.7-0.1c0,0,0,0,0,0c0-0.1,0-0.3,0-0.4
				c0-0.1-0.1-0.1-0.1,0c0,0.1-0.1,0.3-0.1,0.4c0,0,0,0.1,0,0.1c-0.1,0-0.2,0-0.4,0c-0.1,0-0.2,0-0.3,0.1c-0.1-0.1-0.2-0.2-0.3-0.4
				c-0.1-0.1-0.2,0-0.1,0.1c0.1,0.1,0.1,0.2,0.2,0.3c-0.2,0.1-0.4,0.2-0.6,0.3c0,0-0.1,0-0.1,0.1c0-0.2-0.1-0.3-0.2-0.5
				c0,0-0.1,0-0.1,0c0,0.1,0,0.4,0,0.5c-0.2,0-0.3-0.1-0.6-0.2c0.1-0.1,0.1-0.2,0.2-0.3c0.1-0.1-0.1-0.2-0.1-0.1
				c-0.1,0.1-0.2,0.2-0.3,0.4c-0.2-0.1-0.4-0.1-0.6-0.1c0-0.1-0.1-0.3-0.1-0.4c0-0.1-0.2,0-0.2,0c0,0.1,0,0.2,0,0.4
				c-0.4,0-0.9,0.2-1.3,0.4c0,0,0,0,0,0c-0.1-0.1-0.1-0.2-0.2-0.4c0-0.1-0.2-0.1-0.1,0c0,0.1,0.1,0.2,0.1,0.4c0,0,0,0.1,0,0.1
				c0,0,0,0-0.1,0c0,0,0,0,0,0c-0.2,0-0.5,0-0.7,0.1c-0.1,0-0.1,0.1,0,0.1c0.1,0,0.3,0,0.5,0c-0.3,0.2-0.5,0.4-0.7,0.7l0,0
				c-0.1-0.2-0.3-0.3-0.5-0.4c-0.1,0-0.1,0-0.1,0.1c0.1,0.2,0.3,0.3,0.4,0.5c0,0,0,0,0.1,0c-0.1,0.1-0.2,0.3-0.2,0.4
				c-0.1-0.1-0.2-0.2-0.3-0.3c-0.1-0.1-0.1,0-0.1,0.1c0.1,0.1,0.2,0.3,0.3,0.4l0,0c-0.1,0.2-0.1,0.3-0.1,0.5c-0.1,0-0.3,0-0.4,0
				c-0.1,0-0.1,0.2,0,0.2c0.1,0,0.3,0,0.4,0c-0.1,0.5,0,0.9,0.2,1.3c-0.1,0.1-0.1,0.1-0.2,0.2c-0.1,0.1,0,0.2,0.1,0.1
				c0.1-0.1,0.2-0.1,0.2-0.1c0.1,0.2,0.2,0.4,0.4,0.5c-0.1,0.1-0.2,0.3-0.4,0.4c-0.1,0.1,0,0.1,0.1,0.1c0.1-0.1,0.3-0.3,0.4-0.4
				c0.5,0.5,1.2,0.9,2,1.2c0,0.1,0.1,0.1,0.2,0.1c2,0.1,4.6,0.6,6.1-1.1c0,0,0,0,0.1-0.1c0.2,0,0.4,0,0.5,0c0.1,0,0.1-0.1,0-0.1
				c-0.1,0-0.3-0.1-0.4-0.1c0.2-0.2,0.3-0.5,0.3-0.8c0.1,0.1,0.1,0.1,0.1,0.2c0.1,0.1,0.2,0,0.1-0.1c-0.1-0.1-0.1-0.2-0.2-0.4
				c0-0.1,0-0.2,0-0.4c0,0,0,0,0.1-0.1c0.1-0.1,0.2-0.3,0.4-0.4c0.1-0.1,0-0.2-0.1-0.1c-0.1,0.1-0.2,0.1-0.3,0.2
				c0-0.2-0.1-0.5-0.1-0.7C242.6,166.9,242.8,166.9,242.9,166.9z"/>
		</g>
		<g>
			<g>
				<path class="st18" d="M237,165.4c-1.1,0.1-1.9,1.3-2,2.4c-0.1,1.1,0.4,2,1.4,2.4c0.1,0,0.1-0.1,0.1-0.1
					c-0.8-0.5-1.3-1.4-1.2-2.3c0.1-1,0.8-2.1,1.8-2.2C237.2,165.6,237.2,165.4,237,165.4z"/>
			</g>
			<g>
				<path class="st18" d="M238.9,167.9c-0.1-0.8-0.5-2.2-1.3-2.6c-0.1,0-0.1,0.1-0.1,0.1c0.7,0.4,1,1.5,1.1,2.2
					c0.1,0.9,0,1.8-0.9,2.2c-0.2,0.1,0,0.3,0.1,0.2C238.6,169.6,238.9,168.8,238.9,167.9z"/>
			</g>
			<g>
				<path class="st18" d="M240.7,167.4c-0.2-1.5-1.5-2.4-3-2.3c-0.1,0-0.1,0.1,0,0.1c1.2,0,2.4,0.7,2.6,2c0.3,1.2-0.5,2.4-1.6,2.8
					c-0.1,0.1-0.1,0.3,0.1,0.2C240,169.8,240.9,168.7,240.7,167.4z"/>
			</g>
		</g>
	</g>
	<g>
		<g>
			<g>
				<g>
					<path class="st8" d="M73.7,159.3c-0.2-0.1-0.5-0.1-0.7-0.2c-0.1-0.4-0.3-0.9-0.7-1c0.3-0.1,0.7-0.3,1-0.4
						c0.4-0.1,0.2-0.7-0.2-0.6c-0.2,0.1-0.4,0.1-0.6,0.2c0-0.6-0.1-1.1-0.5-1.5c-0.2-0.2-0.4-0.3-0.6-0.4c0-0.3,0.1-0.6,0-0.8
						c0-0.4-0.6-0.4-0.6,0c0,0.2,0,0.5-0.1,0.7c-0.4,0-0.8,0-1.1,0.2c0-1.3-1-2.5-2.2-2.7c0-0.2,0-0.5,0-0.7c0-0.4-0.6-0.4-0.6,0
						c0,0.2,0,0.5,0,0.7c-1.2,0.1-2.3,1.1-2.4,2.3c-0.3-0.2-0.6-0.3-1-0.3c0-0.3-0.1-0.6-0.2-0.9c-0.1-0.3-0.6-0.2-0.6,0.1
						c0,0.3,0.1,0.6,0.1,0.9c0,0-0.1,0-0.1,0.1c-0.6,0.2-1,0.6-1.4,1.1c-0.1,0.1-0.2,0.3-0.3,0.5c-0.2-0.1-0.3-0.3-0.5-0.4
						c-0.3-0.3-0.7,0.1-0.4,0.4c0.2,0.2,0.4,0.4,0.6,0.6c-0.3,0.8-0.5,1.7-0.5,2.6c0,0.7,0.2,1.4,0.7,1.8c0.5,0.4,1.1,0.6,1.7,0.7
						c1.4,0.3,2.9,0.4,4.4,0.4c2,0,4.3-0.3,5.5-1.9c0.2-0.2,0.3-0.5,0.4-0.8c0.2,0,0.4,0.1,0.7,0.1
						C73.9,159.9,74.1,159.4,73.7,159.3z"/>
				</g>
			</g>
			<g>
				<g>
					<path class="st18" d="M62.9,159.7c0-0.4-0.6-0.4-0.6,0c0,0.4,0,0.7,0.1,1.1c0.1,0.3,0.6,0.2,0.6-0.1
						C62.9,160.4,62.9,160,62.9,159.7z"/>
				</g>
				<g>
					<path class="st18" d="M62.8,157c-0.2,0.2-0.3,0.5-0.2,0.8c0,0.4,0.6,0.4,0.6,0c0-0.2,0-0.3,0.1-0.5
						C63.5,157.1,63.1,156.7,62.8,157z"/>
				</g>
				<g>
					<path class="st18" d="M66.6,160c0,0.2-0.1,0.5-0.1,0.7c-0.1,0.4,0.4,0.5,0.5,0.1c0.1-0.3,0.2-0.6,0.2-0.9
						C67.2,159.6,66.6,159.6,66.6,160z"/>
				</g>
				<g>
					<path class="st18" d="M67,158.3c0.1-0.4,0-0.8-0.2-1.2c-0.1-0.3-0.7-0.1-0.6,0.2c0.1,0.3,0.2,0.6,0.1,0.9
						C66.4,158.5,66.9,158.6,67,158.3z"/>
				</g>
				<g>
					<path class="st18" d="M66.5,155.6c0.4,0,0.4-0.6,0-0.6C66.1,155,66.1,155.6,66.5,155.6z"/>
				</g>
				<g>
					<path class="st18" d="M69.4,160c0,0.3-0.1,0.6-0.1,0.9c-0.1,0.4,0.4,0.5,0.5,0.1c0.1-0.3,0.2-0.7,0.2-1
						C70,159.8,69.4,159.7,69.4,160z"/>
				</g>
				<g>
					<path class="st18" d="M69.8,158.7c0-0.3-0.1-0.6-0.2-0.9c-0.2-0.3-0.7,0-0.5,0.3c0.1,0.2,0.2,0.4,0.2,0.6
						C69.2,159.1,69.8,159.1,69.8,158.7z"/>
				</g>
				<g>
					<path class="st18" d="M68.6,155.3c-0.4,0-0.4,0.6,0,0.6C69,155.9,69,155.3,68.6,155.3z"/>
				</g>
				<g>
					<path class="st18" d="M63.6,155.3c-0.4,0-0.4,0.6,0,0.6C64,155.9,64,155.3,63.6,155.3z"/>
				</g>
			</g>
		</g>
		<g>
			<g>
				<g>
					<path class="st1" d="M61.2,174.6c0.2,0.2,0.4,0.2,0.7,0.2c3.4-0.1,6.8,0.2,10.2,0.1c0.5-4.2,0.9-8.9,0.9-13.1
						c-2.4,0-4.7,0-7.1,0c-1.2,0-2.3,0-3.5,0c-0.7,0-2.6-0.1-2.7,0.3c-0.1,0.7,0.1,2.1,0.2,2.7c0.1,1.1,0.2,2.1,0.4,3.1
						c0.2,2,0.5,4,0.7,6.1C61.1,174.2,61.1,174.4,61.2,174.6z"/>
				</g>
				<g>
					<path class="st19" d="M70.2,168.3c-1.2,0.4-2.4,0.3-3.6,0.3c-1.4,0.1-2.9,0.2-4.4,0.3c-1,0-0.9,1.4,0,1.5
						c2.7,0.3,6.1,1.1,8.6,0.2C72.3,170.1,71.7,167.8,70.2,168.3z"/>
				</g>
				<g>
					<path class="st19" d="M62.5,171.9c-0.8,0-0.8,1.2,0,1.2C63.2,173.1,63.2,171.9,62.5,171.9z"/>
				</g>
				<g>
					<path class="st19" d="M65.8,172.3c-0.5,0-0.5,0.7,0,0.7S66.2,172.3,65.8,172.3z"/>
				</g>
				<g>
					<path class="st19" d="M70.3,172.3C70.3,172.3,70.3,172.3,70.3,172.3c-0.5-0.4-1.2-0.2-1.2,0.5s0.7,0.9,1.2,0.5c0,0,0,0,0,0
						C70.5,173,70.5,172.5,70.3,172.3z"/>
				</g>
			</g>
		</g>
	</g>
	<g>
		<path class="st20" d="M144.4,173c-1.1-6.9-3.2-13.6-3.9-20.5c-0.2-2.1-0.4-4.4-1.7-6c-1.7-2-4.6-2.3-7.1-2.4c-1-0.1-2.1-0.1-3,0.3
			c-1.4,0.7-2,2.3-2.3,3.8c-0.3,1.8-0.4,3.6-0.5,5.4c-0.5,6-2.5,11.8-3.6,17.8c-0.8,4.4,5.2,3.3,8,3.3c4.2,0.1,8.3,0,12.5-0.1
			c0.6,0,1.4-0.1,1.6-0.7C144.5,173.6,144.4,173.3,144.4,173z"/>
	</g>
	<g>
		<path class="st3" d="M241.2,178.4c-3.1-0.1-15.1-0.1-18.7-0.2l-172.5,0c-6.1,0.1-14.1,0.1-20.3,0.1c-3.7,0-2.7,0.1-3.5,1.4
			c-0.7,1.3-0.7,2.6-0.8,3.9c-0.1,1.3-0.1,2.6,0.1,3.9c0.1,0.6,0.2,1.2,0.4,1.9c0.1,0.4-0.8,1,0,1.4c-0.2,0.2,0,0.4,2.5,0.5
			c2.2,0.1,5.8,0.1,9.7,0.1c0.2,0,0.3,0,0.5,0c0.1,0,0.2,0,0.3,0c5.3,0,11.1-0.1,14.5-0.1c7,0,14,0,21.1,0c32.4,0,115.6,0,148,0
			c3.5,0,15.4,0,18.5-0.2c0.9-0.1,1.5-0.1,1.9-0.2c1.8-0.4,0.7-1,0.9-1.4h-0.2l0,0h-0.1c0.1-0.6-0.3-1.2-0.2-1.8
			c0.2-0.9,0.2-1.7,0.2-2.6c0-1-0.2-2.1-0.4-3.1c-0.2-0.9,0.8-2.3,1.2-3.3C244.4,178.5,244.4,178.5,241.2,178.4z"/>
	</g>
	<g>
		<path class="st11" d="M246.5,174.9c-36.5-1.2-131.2,0.3-167.7-0.2c-19.6-0.3-39.3,0.5-58.9,0.8c-2.7,1.5-1.5,3.6-1.1,5.4
			c56.4-0.1,171.7,0,228-0.7C247.5,178.6,247.4,176.8,246.5,174.9z"/>
	</g>
	<g>
		<path class="st3" d="M29.4,281c1.7,0.4,3,0.1,4.5,0.4c0.5-0.8,0.6-1.2,0.8-2.3c5.2-22.7,18.7-66.3,22.9-89.2c-0.5-2-2.7-1.8-4-0.3
			s-1.9,3.9-2.5,6.1c-3.4,14.1-7,28.1-10.6,42.2C38.8,244.8,30.6,274.2,29.4,281z"/>
	</g>
	<g>
		<path class="st3" d="M82.3,281c-1.7,0.4-3,0.1-4.5,0.4c-0.5-0.8-0.6-1.2-0.8-2.3c-5.2-22.7-18.7-66.3-22.9-89.2
			c0.5-2,2.7-1.8,4-0.3s1.9,3.9,2.5,6.1c3.4,14.1,7,28.1,10.6,42.2C72.9,244.8,81.1,274.2,82.3,281z"/>
	</g>
	<g>
		<g>
			<path class="st21" d="M75.1,155.2c-0.1,0-0.1,0.1,0,0.1C75.2,155.3,75.2,155.2,75.1,155.2z"/>
		</g>
	</g>
	<g>
		<path class="st3" d="M38.3,262.3c1.8,0,3.4,0.1,4.9,0.1l10.5,0l20.9,0c0.4,0,0.7,0.2,0.8,0.5c0,0,0,0,0.1,0c1.3-0.2,1.8,3,0.5,3.2
			c-6.3,1.1-12.9,0.3-19.2,0.4c-3.2,0-6.2-0.2-9.5-0.1c-2.6,0-5.2,0.1-7.9-0.1c-0.6,0-1.2,0-1.8,0c-0.5,0-0.8-0.5-0.8-1
			c0,0-0.1-1.5-0.1-1.5C36.9,262.3,37.2,262.3,38.3,262.3z"/>
	</g>
	<g>
		<path class="st3" d="M187.6,281c1.7,0.4,3,0.1,4.5,0.4c0.5-0.8,0.6-1.2,0.8-2.3c5.2-22.7,18.7-66.3,22.9-89.2
			c-0.5-2-2.7-1.8-4-0.3c-1.3,1.6-1.9,3.9-2.4,6.1c-3.4,14.1-7,28.1-10.6,42.2C196.9,244.8,188.8,274.2,187.6,281z"/>
	</g>
	<g>
		<path class="st3" d="M240.5,281c-1.7,0.4-3,0.1-4.5,0.4c-0.5-0.8-0.6-1.2-0.8-2.3c-5.2-22.7-18.7-66.3-22.9-89.2
			c0.5-2,2.7-1.8,4-0.3c1.3,1.6,1.9,3.9,2.4,6.1c3.4,14.1,7,28.1,10.6,42.2C231.1,244.8,239.3,274.2,240.5,281z"/>
	</g>
	<g>
		<path class="st3" d="M196.5,262.3c1.8,0,3.4,0.1,4.9,0.1l10.5,0l20.9,0c0.4,0,0.6,0.2,0.8,0.5c0,0,0,0,0.1,0
			c1.3-0.2,1.8,3,0.5,3.2c-6.3,1.1-12.9,0.3-19.2,0.4c-3.2,0-6.2-0.2-9.4-0.1c-2.6,0-5.2,0.1-7.9-0.1c-0.6,0-1.2,0-1.8,0
			c-0.6,0-0.8-0.5-0.8-1c0,0-0.1-1.5-0.1-1.5C195.1,262.3,195.4,262.3,196.5,262.3z"/>
	</g>
	<g>
		<path class="st22" d="M94.6,157.5c0.1,1.2,0.1,2.4,0.7,3.4c1.2,2.1,3.8,2.3,6,2.3c16.7,0.1,33.7,0.9,50.4,0
			c5.1-0.3,10.9-0.2,15.8-1.9c1.5-0.5,3.1-1.2,4.2-2.5c1.9-2.2,2.1-7.3,2.1-10.3c-0.3-14.1,0.7-26.7-0.5-40.8c-0.1-1-0.2-2-0.7-2.9
			c-1.2-2.2-6.2-2.4-8.5-2.4c-18.2,0-29-1.2-44.6-0.3c-3.8,0.2-7.7-0.7-11.5-0.1c-2.7,0.4-8.9,0.6-10.9,2.6
			c-1.6,1.7-2.6,8.5-2.6,10.9c0.1,4.3,0.2,8.6,0.3,12.9C95,138.1,94.1,147.8,94.6,157.5z"/>
	</g>
	<g>
		<path class="st23" d="M172.9,156.2c-0.3,1.2-0.6,1.8-1.3,2.6c-1.1,1.3-2.6,2-4.2,2.5c-4.8,1.6-10.7,1.6-15.8,1.9
			c-16.6,0.9-33.7,0.1-50.4,0c-2.2,0-4.8-0.3-6-2.3c-0.6-1-0.6-2.2-0.7-3.4L172.9,156.2z"/>
	</g>
	<g>
		<path class="st2" d="M98.1,149.1c0.1,0.9,0.1,1.9,0.6,2.6c1,1.6,4,1.1,6,1.1c15.1,0,30.5,0.5,45.6-0.3c4.6-0.2,9.3,0.4,13.7-0.9
			c1.4-0.4,2.8-1,3.8-2c1.7-1.7,1.9-5.7,1.9-8c-0.2-11,0.8-20.7-0.2-31.7c-0.1-0.8-0.2-1.6-0.6-2.2c-1.1-1.7-5.6-1.8-7.7-1.8
			c-16.4,0.1-26.2-1-40.3-0.2c-3.5,0.2-7-0.5-10.4,0c-2.4,0.3-8.1,0.5-9.9,2.1c-1.5,1.3-2.4,6.7-2.4,8.5c0.1,3.4,0.1,6.7,0.2,10.1
			C98.6,134,97.7,141.6,98.1,149.1z"/>
	</g>
	<g>
		<g>
			<path class="st3" d="M35.4,171.4c0-0.2,0-0.3,0.1-0.5c0.2-0.2,0.5-0.2,0.8-0.3c1.8-0.1,3.5-0.2,5.3-0.3c4.5-0.2,9.1-0.5,13.6,0.2
				c0.2,0,0.4,0.1,0.6,0.2c0.2,0.1,0.2,0.3,0.2,0.5c0.2,0.7,0.2,1.4,0.2,2.1c0,0.4-0.1,0.9-0.5,1.1c-0.3,0.1-0.6,0.2-1,0.2
				c-4.9,0.3-9.9,0.5-14.8,0.4c-1.1,0-3.3,0.2-4.2-0.4C34.9,174,35.4,172.1,35.4,171.4z"/>
		</g>
		<g>
			<path class="st3" d="M40.9,168.9c0-0.1,0-0.1,0-0.2c0.1-0.1,0.2-0.1,0.4-0.1c0.8,0,1.7-0.1,2.5-0.1c2.1-0.1,4.3-0.2,6.4,0.1
				c0.1,0,0.2,0,0.3,0.1s0.1,0.1,0.1,0.2c0.1,0.3,0.1,0.7,0.1,1c0,0.2,0,0.4-0.2,0.5c-0.1,0.1-0.3,0.1-0.5,0.1
				c-2.3,0.2-4.6,0.2-6.9,0.2c-0.5,0-1.6,0.1-2-0.2C40.7,170.2,40.9,169.3,40.9,168.9z"/>
		</g>
		<g>
			<path class="st3" d="M45.1,174.1c0.5,0,0.9-0.5,1.3-0.6c0.1-0.7,0.1-1.1,0.1-1.9c-0.1-18.8,0.6-55.7,0.2-74.4
				c-0.3-1.5-1-1.5-1.3,0c-0.3,1.5-0.2,4-0.2,5.8c0,11.7,0,23.4,0,35.2C45.2,143.8,45,168.4,45.1,174.1z"/>
		</g>
		<g>
			<path class="st3" d="M41.7,104.4c0.3,0.4,0.5,0.8,0.8,1.2c0.6-0.3,1.2-0.7,1.8-1.2C57.8,95.6,84.7,79.1,97.9,70
				c0.9-0.9,0.1-1.2-1.1-0.7c-1.2,0.5-2.6,1.4-3.9,2.2C84.5,77,76,82.4,67.6,87.8C63.5,90.4,45.7,101.7,41.7,104.4z"/>
		</g>
		<g>
			<path class="st3" d="M92.7,86c-0.2-1.2-0.2-2.4-0.1-3.6c0.3-1.9,1.2-4.3,2.2-5.8c1.6-2.1,3.7-3.2,6.2-4s5.4-0.7,7.8,0.8
				c1.2,0.7,2.2,1.7,3.1,2.8c1.5,1.8,2.8,3.8,3.8,6c0.1,0.2,0.2,0.4,0.2,0.5c0,0.3-0.2,0.6-0.5,0.8c-4.5,4.2-9.9,7.2-15.9,8.7
				c-1.2,0.3-3.8,1.1-4.9-0.4c-0.5-0.7-0.8-1.7-1.1-2.4C93.2,88.3,92.8,87.2,92.7,86z"/>
		</g>
		<g>
			<path class="st3" d="M97.8,75.2c0.9-0.4,1.5-0.8,2.2-1.1c0.1-0.1,0.1-0.1,0.1-0.2c-0.9-1.1-1-4.1-2.3-4.9c-0.5,0.1-1.6,0.7-2,1
				s-0.3,0.4-0.3,0.6c0.5,0.7,0.8,1.5,1.2,2.3C96.9,73.2,97.4,75,97.8,75.2z"/>
		</g>
		<g>
			<path class="st3" d="M97.4,75.9c1.5-0.7,1.6-0.8,2.9-1.4c0.7-0.4,1.3-0.7,1.3-0.7c-0.6-0.9-0.7-1.6-1.5-2.8
				c-0.8,0.3-2.7,1.2-3.4,1.7c-0.7,0.4-0.9,0.6-0.9,0.6c0.4,0.4,0.5,0.7,0.7,1.2C96.7,74.7,96.9,75.9,97.4,75.9z"/>
		</g>
		<g>
			<path class="st24" d="M103.2,87.8c1.4-0.7,2.8-1.4,4.2-2c2.6-1.2,5.2-2.3,8-2.7c-0.3,0.7-0.9,1.1-1.4,1.6c-0.5,0.4-1,0.8-1.4,1.1
				c-2.6,2-5.5,3.6-8.6,4.7c-1.5,0.6-3.1,1.1-4.7,1.4c-0.4,0.1-1.9,0.6-2.3,0.3c-0.3-0.3,1.1-1.3,1.4-1.5
				C99.8,89.6,101.5,88.7,103.2,87.8z"/>
		</g>
		<g>
			<path class="st2" d="M104.3,89.3c0.7,0.1,1.4-0.2,2.1-0.4c0.5-0.2,1.1-0.4,1.5-0.7s0.8-0.8,0.9-1.3c0.1-0.5-0.1-1-0.2-1.5
				c-1.5,0.6-3,1.2-4.4,2c-0.5,0.2-1.6,0.6-1.4,1.2C103,89,103.8,89.3,104.3,89.3z"/>
		</g>
	</g>
	<g>
		<g>
			<path class="st25" d="M202.5,174.6c6.3,0,10.3,0.1,15.3,0c3.9-0.1,7.9,0,11.8,0c0-3.4,0-6.9,0-10.3c-9-0.1-17.7,0-27.1,0
				C202.4,167.6,202.4,171.2,202.5,174.6z"/>
		</g>
		<g>
			<path class="st3" d="M202.9,173.4c1.4,0,2.2,0.1,3.3,0c0.8-0.1,1.7,0,2.5,0c0.1-2.7,0.1-6.1,0-8.8c-1.9-0.1-3.8,0-5.8,0
				C202.9,167.5,202.9,170.6,202.9,173.4z"/>
		</g>
		<g>
			<path class="st3" d="M209.1,173.4c1.4,0,2.2,0.1,3.3,0c0.8-0.1,1.7,0,2.5,0c0.1-2.7,0.1-6.1,0-8.8c-1.9-0.1-3.8,0-5.8,0
				C209,167.5,209.1,170.6,209.1,173.4z"/>
		</g>
		<g>
			<path class="st3" d="M217,173.4c1.4,0,2.2,0.1,3.3,0c0.8-0.1,1.7,0,2.5,0c0.1-2.7,0.1-6.1,0-8.8c-1.9-0.1-3.8,0-5.8,0
				C216.9,167.5,217,170.6,217,173.4z"/>
		</g>
		<g>
			<path class="st3" d="M223.2,173.4c1.4,0,2.2,0.1,3.3,0c0.8-0.1,1.7,0,2.5,0c0.1-2.7,0.1-6.1,0-8.8c-1.9-0.1-3.8,0-5.8,0
				C223.2,167.5,223.2,170.6,223.2,173.4z"/>
		</g>
		<g>
			<path class="st3" d="M215.4,167.7c0,0.3,0,0.4,0,0.7c0,0.2,0,0.3,0,0.5c0.3,0,0.7,0,1,0c0-0.4,0-0.8,0-1.2
				C216.1,167.7,215.8,167.7,215.4,167.7z"/>
		</g>
		<g>
			<path class="st3" d="M215.5,169.5c0,0.3,0,0.4,0,0.7c0,0.2,0,0.3,0,0.5c0.3,0,0.7,0,1,0c0-0.4,0-0.8,0-1.2
				C216.1,169.5,215.8,169.5,215.5,169.5z"/>
		</g>
		<g>
			<path class="st2" d="M205.2,172c0.2,0,0.4,0,0.6,0c0.1,0,0.3,0,0.4,0c0-1.8,0-4,0-5.7c-0.3-0.1-0.7,0-1,0
				C205.2,168.1,205.2,170.1,205.2,172z"/>
		</g>
		<g>
			<path class="st2" d="M213.9,171.8c0-1.7,0-3.9,0-5.5c-0.1,0-0.1,0-0.2,0l0,0c0,0,0,0,0,0c0,0,0,0-0.1,0c-0.8,0-1.7,0-2.6,0
				c0,0,0,0-0.1,0c-0.2,0-0.5,0-0.7,0v0h0c0,0.1,0,0.3,0,0.4v0c0,1.5,0,3.2,0,4.7c0,0.1,0,0.1,0,0.1c0,0.1,0,0.3,0,0.5c0,0,0,0,0,0
				c0,0,0,0.1,0,0.1c1.1,0,2.5,0,3.6,0c0,0,0-0.1,0-0.1l0,0C213.9,171.9,213.9,171.9,213.9,171.8
				C213.9,171.8,213.9,171.8,213.9,171.8z M211.3,171.1c0-1.2,0-2.6,0-3.8c0.5,0,1.1,0,1.6,0c0,1.3,0,2.6,0,3.8
				C212.3,171.1,211.8,171.1,211.3,171.1z"/>
		</g>
		<g>
			<path class="st2" d="M219.4,172c0.2,0,0.4,0,0.6,0c0.1,0,0.3,0,0.4,0c0-1.8,0-4,0-5.7c-0.3-0.1-0.7,0-1,0
				C219.4,168.1,219.4,170.1,219.4,172z"/>
		</g>
		<g>
			<path class="st2" d="M228.1,171.8c0-1.7,0-3.9,0-5.5c-0.1,0-0.1,0-0.2,0l0,0c0,0,0,0,0,0c0,0,0,0-0.1,0c-0.8,0-1.7,0-2.6,0
				c0,0,0,0-0.1,0c-0.2,0-0.5,0-0.7,0v0c0,0,0,0,0,0c0,0.1,0,0.3,0,0.4v0c0,1.5,0,3.2,0,4.7c0,0.1,0,0.1,0,0.1c0,0.1,0,0.3,0,0.5
				c0,0,0,0,0,0c0,0,0,0.1,0,0.1c1.1,0,2.5,0,3.6,0c0,0,0-0.1,0-0.1l0,0C228,171.9,228,171.9,228.1,171.8
				C228.1,171.8,228.1,171.8,228.1,171.8z M225.4,171.1c0-1.2,0-2.6,0-3.8c0.5,0,1.1,0,1.6,0c0,1.3,0,2.6,0,3.8
				C226.5,171.1,226,171.1,225.4,171.1z"/>
		</g>
	</g>
	<g>
		<path class="st26" d="M232.3,173.6c0.1,0.2,0.2,0.5,0.4,0.6c0.2,0.2,0.5,0.2,0.7,0.3c1.4,0.3,2.9,0.3,4.4,0.3c1,0,2.1,0,2.9-0.7
			c0.5-0.4,0.8-1,0.9-1.6c0.1-0.6,0.1-1.2,0.1-1.9c0-0.2,0-0.4-0.1-0.5c-0.2-0.3-0.6-0.3-0.9-0.4c-2.3-0.2-4.7,0-7,0.1
			c-0.6,0-2,0.1-2.1,0.8c-0.1,0.4,0.2,0.8,0.3,1.3C232,172.6,232.1,173.1,232.3,173.6z"/>
	</g>
	<g>
		<g>
			<g>
				<g>
					<path class="st8" d="M81.5,142.9c1.2-0.6,7.6-3.1,4.6-5c-1.8-1.1-3.5,0.3-4.6,2c0-1.7,0-3.4-0.1-5c0.1,0,0.1,0,0.2,0
						c0.8-0.3,1.8-0.8,2.1-1.6c0.2-0.6-0.2-1.1-0.8-1c-0.4,0-1.1,0.5-1.6,1c-0.1-1.5-0.2-3-0.5-4.5c0.7-0.6,2.4-2.1,1.1-2.9
						c-0.4-0.3-1-0.1-1.3,0.3c-0.2,0.3-0.3,0.7-0.3,1.1c-0.1-0.1-0.1-0.1-0.2-0.1c-0.6-0.9-1.6-1.8-2.3-1c-1.1,1.2,1.1,2,2.2,2.4
						c0,0.4,0.4,0.6,0.7,0.4c0.1,1.3,0.2,2.6,0.2,4c-0.4-0.3-0.9-0.6-1.3-0.8c-0.6-0.4-1.2-0.5-1.7,0.1c-1.6,1.6,2.1,2.2,2.8,2.5
						c0.1,0,0.2,0.1,0.3,0c0,2.2,0,4.4,0,6.5c0,0,0,0,0,0.1c-0.5-1.6-1.4-3.9-2.8-3.6c-0.7,0.1-0.8,0.8-0.6,1.4
						c0.1,0.3,0.4,0.5,0.6,0.8c0.2,0.2,0.3,0.3,0.5,0.5c0.5,0.8,1,1.5,1.6,2.2c0.1,0.1,0.2,0.2,0.3,0.2c0,0,0,0.1,0.1,0.1
						c0.1,0.1,0.2,0.2,0.3,0.2c0,1.4,0,2.8,0,4.2c-0.1,0-0.2-0.1-0.3-0.1c-1-1.2-2.9-3.1-3.9-1.8c-1.4,1.8,3.3,3.1,4.2,3.2
						c0,0,0,0,0,0c0.1,3.3,0.7,15.3,1.3,18.5c0.1,0.4,0.7,0.2,0.6-0.2c-0.6-3-1.2-14.8-1.3-17.9c0,0,0.1,0,0.1-0.1
						c0.8-0.6,4.6-2.3,2.9-3.9c-1.2-1.1-2.4,0.3-3.1,1.7C81.5,145.4,81.5,144.2,81.5,142.9z"/>
				</g>
			</g>
			<g>
				<g>
					<path class="st8" d="M79.7,157.3c0.6-0.7,3.7-4,1.6-4.8c-1.2-0.5-1.8,0.9-2.1,2.2c-0.1-0.7-0.2-1.4-0.3-2.1
						c-0.1-0.8-0.3-1.5-0.5-2.2c0,0,0,0,0-0.1c0.1-0.1,0.1-0.2,0.2-0.3c0.9-0.8,2.2-1.5,2.8-2.5c0.4-0.7,0.4-1.8-0.3-2.3
						c-1.5-1-2.7,2.1-3.1,3.6c-0.3-1.1-0.7-2.1-1.1-3.1c0,0,0.1-0.1,0.1-0.1c0.4-0.6,1.2-1.1,1.3-1.9c0.1-0.5-0.2-1.1-0.8-1.2
						c-0.8-0.1-1.3,0.6-1.5,1.4c-0.3-0.5-0.6-0.9-0.9-1.4c0.1,0,0.3-0.2,0.2-0.3c-0.1-0.1-0.1-0.1-0.2-0.2c-0.1-0.2-0.2-0.3-0.4-0.4
						c-0.4-0.4-0.8-0.7-1.4-0.9c-0.6-0.3-1.7-0.5-2.2,0c-0.5,0.4-0.3,1,0.2,1.3c0.9,0.6,2.2,0,3.2,0.5c0,0,0.1,0,0.1,0
						c0.1,0.1,0.2,0.2,0.4,0.1c0.3,0.6,0.7,1.3,0.9,1.9c0,0.1,0,0.2,0,0.2c-0.1,0-0.1,0-0.2,0c-0.1,0-0.2,0-0.2,0
						c-1-0.5-2.2-0.8-2.7,0.1c-0.9,1.5,2.9,1,3.4,1.2c0.1,0,0.2,0,0.3-0.1c0.4,1,0.7,2,0.9,3.1c-1-0.5-2.3-0.7-3.1,0.3
						c-1.4,2,2.9,1.1,3.3,1.2c0,0,0.1,0,0.1,0c0.3,1.4,0.5,2.9,0.7,4.4c-0.1-0.1-0.2-0.1-0.4-0.2c-1.2-0.9-2.9-1.8-3.8-0.2
						c-0.3,0.6,0,1.2,0.5,1.4c1.1,0.6,2.6,0.3,3.8,0.7c0.3,2.6,0.5,5.2,0.8,7.8c0.1,0.4,0.6,0.2,0.6-0.1c0.1-2.3-0.2-4.7-0.5-7.1
						C79.5,157.4,79.6,157.4,79.7,157.3z"/>
				</g>
			</g>
			<g>
				<path class="st8" d="M95.8,143.3c-0.3-1.5-1.9-1.4-3.1-0.9c0,0-0.1,0-0.1,0c-0.1,0.1-0.2,0.1-0.2,0.2c-0.1,0-0.1,0.1-0.1,0.1
					c0,0-0.1,0-0.1,0c0.2-0.8,0.2-2,0.1-2.4c-0.1-0.4-0.2-1.1-0.7-1.2c-0.5-0.1-0.8,0.5-0.9,0.9c-0.4,1.1-0.5,2.8,0.5,3.5
					c-1.1,0.8-2,1.8-2.8,2.8c0.1-0.5,0.2-0.9,0.2-1.3c0-0.7-0.1-2.1-1-2.2c-0.8-0.1-1.1,0.8-1.2,1.4c-0.1,0.9,0,1.8,0.2,2.6
					c0,0.5,0.1,1.1,0.4,1.3c0,0,0,0,0,0c0,0,0,0,0,0c-0.6,0.9-1.2,2-1.6,3c-0.1-0.3-0.1-0.6-0.2-0.8c-0.2-0.9-0.6-2.2-1.7-2.1
					c-1.2,0.1-1.4,1.4-1.1,2.3c0.3,1,1,1.7,1.8,2.3c0,0.1,0.1,0.1,0.1,0.2c0.1,0.1,0.2,0.2,0.3,0.2c-0.3,0.8-0.5,1.6-0.7,2.4
					c-0.2-0.2-0.3-0.5-0.5-0.9c-0.4-0.6-1-1.3-1.8-1.3c-0.5,0-1,0.4-0.9,0.9c0.1,0.4,0.6,0.7,0.8,1c0.7,0.6,1.3,1.1,2,1.6
					c-0.6,3-0.7,6.2-0.5,9.2c0,0.4,0.7,0.4,0.7,0c-0.1-2.9,0-5.9,0.5-8.9c0,0,0.1,0,0.1,0c0.8,0,5.4-0.6,4.1-2.3
					c-0.9-1.3-2.8,0-3.8,1.1c0,0-0.1,0-0.1,0c0.2-1,0.5-2.1,0.8-3.1c1.4,0.5,6.6,0.3,5.3-1.8c-0.7-1.1-2.1-0.9-3.1-0.5
					c-0.4,0.1-1.1,0.4-1.6,0.8c0.4-1.1,0.9-2.1,1.6-3.1l0,0c0.6,0.9,2.1,1,3.1,0.9c1.1-0.1,2.1-0.3,2-1.7c-0.2-1.9-2.6-1.5-4.1-0.6
					c0.8-1.2,1.8-2.3,3-3.3c0.1,0.1,0.1,0.1,0.2,0.2c0.4,0.2,1.1,0.3,1.6,0.5c0.5,0.1,1.2,0.3,1.7,0.3
					C95.4,144.6,95.9,144.1,95.8,143.3z"/>
			</g>
		</g>
		<g>
			<g>
				<path class="st27" d="M76.7,170.6c0,0.5,0,0.9,0.2,1.4c0.4,0.9,1.4,1.4,2.4,1.6c1.5,0.3,3.1,0.3,4.6,0.2c0.7,0,1.5-0.1,2.1-0.6
					c0.2-0.2,0.4-0.4,0.5-0.6c0.1-0.2,0.2-0.4,0.2-0.7c0.1-0.4,0.2-0.8,0.3-1.2c0.2-0.7,0.1-1.4,0.1-2.1c0.1-0.8,0.1-1.6,0.1-2.5
					c0-0.7,0-1.4,0.1-2.1c0.1-1.8-0.1-3.8,0.1-5.6c-3.1-0.7-6.1-0.6-9.3-0.1c-0.5,0.1-1.5,0.2-1.6,0.9c-0.1,0.3,0,0.7,0,1.1
					c0,0.5,0,0.9,0,1.4c0.1,1.9,0.1,3.8,0.2,5.7C76.6,168.5,76.7,169.6,76.7,170.6z"/>
			</g>
			<g>
				<path class="st28" d="M76.4,173.1c0.3-0.2,0.6-0.2,1-0.2c2.9,0,5.8,0.3,8.7,0.1c0.5-0.1,1.1-0.1,1.4,0.4
					c0.2,0.4,0.1,0.9-0.3,1.2c-0.4,0.3-0.8,0.3-1.3,0.4c-1.7,0.2-3.5,0-5.2,0c-0.9,0-1.8-0.1-2.7,0c-0.5,0-1.2,0.2-1.6-0.1
					C75.8,174.4,75.8,173.4,76.4,173.1z"/>
			</g>
		</g>
	</g>
	<g>
		<g>
			<path class="st17" d="M181.7,174.1c-1.6,0.7-3.3,1-5.1,1.2c-2.3,0.2-4.6,0.3-6.9-0.2c-3-0.7-5.6-2.2-8.1-4
				c-6.3-4.6-11.7-10.7-13.9-18.2c-1.3-4.5-0.8-12.5,6.1-10.7c2.1,0.6,3.8,2.1,5.1,3.9c2.8,3.8,4.1,8.4,6,12.6s4.8,8.5,9.3,10
				c0,0,2.6,1.3,3.6,1.1c1-0.2,4.9-0.9,5.4,1.1C183.7,172.8,181.7,174.1,181.7,174.1z"/>
		</g>
	</g>
	<g>
		<g>
			<path class="st17" d="M97.2,165.2c-1.1,1.7-2.3,3.5-2.2,5.5c0.1,2.1,1.9,4,4.1,4.3c3.3,0.3,5.8-2.7,7.6-5.4c2-2.9,4-5.9,6-8.9
				c1.9-2.9,3.9-5.8,4.6-9.2c0.4-2.3,0.1-5-1.6-6.6c-4.3-4.1-7.3,1.9-9,4.8C103.8,155,100.6,160.2,97.2,165.2z"/>
		</g>
	</g>
	<g>
		<g>
			<path class="st3" d="M156.7,263.4c-0.6-0.6-1.3-1.2-1.9-1.8c-2.8-2.6-5.7-5.1-8.5-7.7c-3.5-3.1-6.7-6.1-10.2-9.2
				c-5.1-4.6-10.4-9.4-15.6-14.1c0,0.3-0.1,0.5-0.2,0.8l18.6,16.8l11.4,10.3c1.6,1.5,3.4,3.1,5.3,4.8c1.2,1.1,1.6,1.4,1.9,1.4
				c0,0,0.1-0.3,0.1-0.3C157.5,264.3,157.3,264,156.7,263.4z"/>
		</g>
		<g>
			<path class="st3" d="M151.8,230.2c-5.4,4.8-10.9,9.8-16.2,14.6c-3.5,3.1-6.7,6.1-10.2,9.2c-2.8,2.5-5.7,5.1-8.5,7.7
				c-0.7,0.6-1.3,1.2-1.9,1.8c-0.6,0.5-0.8,0.9-0.7,0.9c0,0,0.1,0.3,0.1,0.3c0.3,0.1,0.7-0.3,1.9-1.4c1.9-1.8,3.7-3.3,5.3-4.8
				l11.4-10.3l19.3-17.4C152,230.6,151.9,230.4,151.8,230.2z"/>
		</g>
		<g>
			<g>
				<g>
					<path class="st3" d="M107.8,299.1c0.7-3.8,1.3-7.2,1.9-10.4l3.7-22.4l7.3-44.3c0.1-0.8,0.4-1.4,0.8-1.6c0,0,0-0.1,0-0.1
						c0.2-2.7,3.6-3.2,3.4-0.4c-1.1,13.6-4.3,27.5-6.4,41c-1.1,6.8-2.4,13.2-3.5,20c-0.9,5.6-1.7,11.2-2.8,16.7
						c-0.2,1.3-0.4,2.5-0.6,3.8c-0.2,1.2-0.8,1.6-1.3,1.5c0,0-1.5-0.1-1.6-0.1C107.3,302.2,107.4,301.5,107.8,299.1z"/>
				</g>
				<g>
					<path class="st3" d="M163.9,299.1c-0.6-3.8-1.3-7.2-1.9-10.4l-3.7-22.4l-7.3-44.3c-0.1-0.8-0.4-1.4-0.8-1.6c0,0,0-0.1,0-0.1
						c-0.2-2.7-3.6-3.2-3.4-0.4c1.1,13.6,4.3,27.5,6.4,41c1.1,6.8,2.4,13.2,3.5,20c0.9,5.6,1.7,11.2,2.8,16.7
						c0.2,1.3,0.4,2.5,0.6,3.8c0.2,1.2,0.8,1.6,1.3,1.5c0,0,1.5-0.1,1.6-0.1C164.4,302.2,164.3,301.5,163.9,299.1z"/>
				</g>
				<g>
					<g>
						<g>
							<g>
								<path class="st27" d="M150.9,160.9c4.8,4.7,7.4,8.5,8.4,18.2c1.7,15.3,6,23.8,7.7,39.1c0.1,1.2,0.2,4.2-0.5,5.2
									c-0.7,1-2,1.4-3.3,1.7c-14.5,3.6-29.6,3.3-44.6,2.4c-4.4-0.3-11.4-1.3-13.6-5.8c-1.8-3.8,0.5-10.3,0.9-14.2
									c1.5-13.3,4.4-16.1,6-29.4c0.6-5.1,0.7-7.8,3.3-12.2c3.1-5.3,1.9-4.6,7.8-6.3C123.3,159.6,147.5,157.5,150.9,160.9z"/>
							</g>
						</g>
					</g>
				</g>
			</g>
			<g>
				<g>
					<g>
						<g>
							<path class="st8" d="M151.3,165.1c-2.7,2.4-7.7,2.3-9,5.7c-0.6,1.6-0.1,3.3,0.3,4.9c0.5,2.3,0.7,4.7,0.6,7.1
								c-0.1,2-0.4,4-1.4,5.7c-1.4,2.4-3.8,3.9-6.1,5.4c-4.1,2.8-8.2,6.1-9.9,10.8c-0.9,2.5-1,5.2-1.9,7.7c-0.8,2.1-2.1,4.1-2.5,6.3
								c-0.4,2.7,0.6,5.4,1.4,8.1c1.5,4.9,2.1,10.4,0,15.1c-0.7,1.5-1.7,3-3.3,3.6c-1.1,0.4-2.4,0.3-3.6,0.2c-3-0.1-6,0.3-8.8,1.3
								c-2.3,0.8-4.6,1.9-7,2.1s-5.2-0.8-6.1-3.1c-1-2.6,1-5.4,2.2-7.9c1.8-3.8,1.8-8.2,2.1-12.4c0.9-11.2,4.3-22,7.5-32.7
								c1.7-5.9,3.4-11.7,4.2-17.8c0.4-3.3,0.6-6.7,1.4-10s2.2-6.5,4.8-8.7c2.8-2.4,6.7-3.2,10.4-3.7c7.2-0.9,14.5-0.8,21.7,0.5
								c3,0.5,4.9,0.5,5.2,3.8C153.9,159.8,153.6,163.2,151.3,165.1z"/>
						</g>
					</g>
					<g>
						<path class="st5" d="M97.2,247.3c-0.2-0.5-1-0.3-0.8,0.2c0.3,0.9-0.2,1.6-0.3,2.5c-0.1,0.7,0.2,1.4,0.4,2
							c0.1,0.1,0.3,0,0.2-0.1c-0.3-1.1-0.1-1.8,0.3-2.8C97.3,248.5,97.4,247.9,97.2,247.3z"/>
					</g>
					<g>
						<path class="st5" d="M99,247.4c-0.3-0.5-1-0.1-0.8,0.4c0.9,1.6-0.8,3.4,0.2,5.1c0.1,0.2,0.5,0.1,0.4-0.1
							C98.1,251,100.2,249.2,99,247.4z"/>
					</g>
					<g>
						<path class="st5" d="M100.2,247.6c-0.1-0.3-0.6-0.1-0.5,0.2c0.4,1.1,0.7,2.2,0.9,3.4c0,0.1,0.2,0.1,0.2,0
							C100.9,249.9,100.8,248.7,100.2,247.6z"/>
					</g>
					<g>
						<path class="st5" d="M102.4,249.1c-0.1-0.6-0.5-1.2-0.6-1.8c-0.1-0.5-0.9-0.3-0.8,0.2c0.1,0.5,0.4,1,0.6,1.5
							c0.2,0.6,0.1,1.3,0,1.9c0,0.2,0.3,0.3,0.4,0.1C102.3,250.4,102.5,249.7,102.4,249.1z"/>
					</g>
					<g>
						<path class="st5" d="M103.7,246.9c-0.2-0.4-0.8-0.1-0.6,0.4c0.3,0.8,0,1.6,0.1,2.4c0,0.6,0.2,1.1,0.4,1.6
							c0.1,0.2,0.4,0.1,0.3-0.1c-0.2-0.9-0.1-1.7,0-2.6C104,247.9,104,247.4,103.7,246.9z"/>
					</g>
					<g>
						<path class="st5" d="M105.5,246.6c-0.2-0.3-0.8-0.1-0.6,0.3c0.3,0.8,0.1,1.6,0.2,2.4c0,0.7,0.2,1.3,0.4,1.9
							c0.1,0.2,0.3,0.1,0.3-0.1C105.3,249.5,106.2,247.9,105.5,246.6z"/>
					</g>
					<g>
						<path class="st5" d="M106.9,246.7c0.1-0.4-0.5-0.5-0.6-0.2c-0.2,1.1,0.5,2,0.4,3c0,0.2,0.3,0.3,0.4,0.1
							C107.3,248.7,106.7,247.7,106.9,246.7z"/>
					</g>
					<g>
						<path class="st5" d="M108.9,247.5c-0.1-0.6-0.4-1.1-0.3-1.8c0-0.3-0.5-0.3-0.5,0c0,0.5,0.1,0.9,0.3,1.4c0.2,0.6,0.3,1.3,0.2,2
							c0,0.1,0.2,0.2,0.2,0.1C108.9,248.6,109,248,108.9,247.5z"/>
					</g>
					<g>
						<path class="st5" d="M110,245.1c0.1-0.5-0.6-0.7-0.8-0.2c-0.4,1.4,0.4,2.8,0.6,4.2c0,0.2,0.4,0.2,0.4,0
							C110.2,247.7,109.7,246.4,110,245.1z"/>
					</g>
					<g>
						<path class="st5" d="M111.4,245.2c-0.1-0.5-0.9-0.3-0.7,0.2c0.3,1,0.5,2,0.2,3c-0.1,0.3,0.4,0.4,0.4,0.1
							C111.6,247.4,111.7,246.4,111.4,245.2z"/>
					</g>
					<g>
						<path class="st5" d="M113.1,244.8c-0.1-0.5-0.8-0.3-0.7,0.2c0.2,1.1,0.2,2.2-0.1,3.2c-0.1,0.5,0.6,0.6,0.7,0.2
							C113.4,247.2,113.4,246,113.1,244.8z"/>
					</g>
					<g>
						<path class="st5" d="M115,247.7c-0.2-0.6-0.3-1.1-0.3-1.8c0-0.6,0.2-1.1,0.2-1.6c0-0.4-0.5-0.5-0.7-0.2
							c-0.6,1.1-0.3,2.7,0.3,3.8C114.7,248.2,115.1,248,115,247.7z"/>
					</g>
					<g>
						<path class="st5" d="M117.1,247.3c-0.2-0.5-0.3-1-0.2-1.6c0.1-0.4,0.1-0.8,0-1.3c-0.1-0.4-0.7-0.2-0.6,0.2
							c0.1,0.6-0.2,1.1-0.2,1.7c0,0.5,0.3,0.9,0.6,1.2C116.8,247.8,117.2,247.6,117.1,247.3z"/>
					</g>
					<g>
						<path class="st5" d="M118.9,244.3c0.1-0.6-0.7-0.8-0.9-0.2c-0.2,0.5,0,1,0,1.6c0,0.6-0.1,1.3-0.3,1.9
							c-0.1,0.3,0.4,0.5,0.5,0.1c0.2-0.6,0.5-1,0.6-1.6C119,245.4,118.8,244.8,118.9,244.3z"/>
					</g>
					<g>
						<path class="st5" d="M120.2,244.5c0.2-0.4-0.4-0.7-0.6-0.2c-0.2,0.4,0,0.8,0,1.2c0.1,0.6,0,1.3-0.3,1.8
							c-0.2,0.4,0.4,0.8,0.6,0.4c0.2-0.4,0.4-0.9,0.4-1.4C120.4,245.7,119.9,244.9,120.2,244.5z"/>
					</g>
					<g>
						<path class="st5" d="M95.9,246.7c-0.2-0.5-0.9-0.2-0.7,0.3c0.4,0.9-0.2,1.9-0.2,2.8c0,0.1,0.2,0.2,0.3,0
							C95.5,248.7,96.2,247.8,95.9,246.7z"/>
					</g>
					<g>
						<path class="st5" d="M107.4,246.1c-0.1-0.3-0.6-0.2-0.6,0.1c0,1.3,0.8,2.4,1,3.6c0.1,0.3,0.4,0.2,0.5-0.1
							C108.4,248.4,107.6,247.3,107.4,246.1z"/>
					</g>
				</g>
				<g>
					<path class="st5" d="M118.1,228.4c0.5,2,1.5,3.8,2,5.8c0.7,2.7,0.5,5.6-0.6,8.2c1.6-1.2,2.7-3.1,3-5.1c0.3-2-0.1-4.1-0.9-5.9
						c-0.6-1.4-1.5-2.7-1.8-4.2c-0.1-0.6,0-6.9-1.4-6.2c-0.3,0.1-0.3,2.3-0.4,2.6C117.8,225.2,117.7,226.7,118.1,228.4z"/>
				</g>
				<g>
					<path class="st5" d="M112.6,197.2c-2.3,3.5-5,6.9-6.7,10.8c-1.6,3.7-2.4,7.7-2.1,11.7c0.5-2.6,0.9-5.3,2-7.8
						c3.1-7.3,10.9-12.1,12.8-19.8c1-4,0.3-8.2,1-12.2c0.6-3.3,2.2-6.4,4.1-9.2c-2.3,1.6-3.8,4.2-4.7,6.8c-1.2,3.4-1.2,7-2,10.5
						C116.2,191.2,114.5,194.3,112.6,197.2z"/>
				</g>
				<g>
					<path class="st5" d="M140.5,172.3c0,2.3,1,4.4,1.5,6.6s0.6,4.8-0.9,6.5c0.6-1.6-0.3-3.4-1.1-5c-1.5-3.2-2.4-6.9-1.5-10.4
						c0.4-1.6,1.4-3.2,2.7-4.3c0.5-0.4,4-2.8,4.5-1.8c0.1,0.1-3.2,2.8-3.6,3.3C141.1,168.7,140.5,170.5,140.5,172.3z"/>
				</g>
				<g>
					<path class="st5" d="M117.8,159.7c-1.8,1.9-2.8,4.4-3.4,6.9c-0.6,2.5-0.7,5.2-0.8,7.8c0.3-2.7-0.5-5.4-0.2-8.1
						c0.3-3.2,2-6.1,4-8.6c1-1.2,2.2-2.4,3.6-3c1-0.4,2.9-0.8,3.8,0c-0.6,0.8-2.2,1.3-3.1,1.9C120.3,157.6,118.9,158.5,117.8,159.7z
						"/>
				</g>
				<g>
					<path class="st5" d="M99.9,234.7c1.3-0.9,2.7-1.6,4-2.6c2.2-1.6,3.8-3.9,5.6-5.9c1-1.2,2.1-2.3,2.9-3.7c0.8-1.4,1.2-3,0.7-4.5
						c-0.4,1.3-0.7,2.6-1.5,3.7c-0.6,1-1.5,1.8-2.4,2.6c-1.5,1.3-3.1,2.5-4.8,3.5c-1.4,0.9-2.9,1.7-4.2,2.8
						c-1.3,1.2-2.3,2.7-2.8,4.3c-0.1,0.4-0.5,1.6,0.3,1.6C98.2,236.6,99.5,235,99.9,234.7z"/>
				</g>
			</g>
		</g>
	</g>
	<g>
		<path class="st29" d="M109,151.1c-0.2-1.6-1.8-3.1-1.2-4.6c0.4-1.1,1.7-1.6,2.3-2.6c0.7-1.4-0.2-3.1,0.4-4.5
			c0.4-1,1.6-1.6,1.8-2.6c0.1-0.4,0-0.8,0.2-1.2c0.3-0.7,1.4-0.9,1.6-1.6c0.2-0.5-0.1-1.1,0.1-1.6c0.2-0.6,1-0.8,1.7-0.9
			c0.1,0,0.2,0,0.3,0c0.3-1.9,0.2-3.8,0.2-5.8c-0.1-3.6-0.1-7.2,0.2-10.7c0.2-2.6,0.4-5.2,1.2-7.7c0.6-1.9,1.6-3.7,3-5
			c1.8-1.7,4.2-2.5,6.6-3c4.2-0.9,8.5-0.7,12.6,0.4c1.6,0.4,3.1,1,4.4,1.9c2,1.4,3.3,3.6,4.4,5.8c1.1,2.3,2,4.6,2.6,7.1
			c0.8,2.9,1.3,5.9,2.1,8.9c0.7,2.4,1.7,4.7,2.1,7.2c0.1,0.7,0.2,1.5,0.2,2.2c0,0.1,0,0.1,0,0.2c0.2,0.9,0.2,1.9,0,2.9
			c-0.3,1-1,1.9-1.1,3c-0.1,1.7,1.6,3,3,3.9c1.5,0.9,3.1,2.4,2.7,4.1c-0.3,1.1-1.4,2-1.1,3.1c0.3,1.4,2.4,1.5,3.4,2.5
			c1.1,1.2,0.3,3.4-1.1,4.2c-1.4,0.9-3.2,0.9-4.9,1.1c-1.7,0.2-3.5,0.7-4.4,2.1c-0.3,0.5-0.5,1.1-0.8,1.6c-0.6,1.1-1.8,1.9-3,2.2
			c-1.5,0.3-3.1-0.3-4.6-0.5s-3.4,0-4.2,1.4c-0.6,1.1-0.4,2.6-1.4,3.4c-0.9,0.8-2.5,0.4-3.2,1.4c-0.2,0.3-0.3,0.7-0.5,1
			c-0.5,0.7-1.7,0.7-2.4,0.1c-0.7-0.6-1.1-1.4-1.5-2.2s-1-1.6-1.9-1.9c-0.9-0.3-1.9,0.1-2.9-0.1c-2-0.5-2.4-3.3-4.2-4.4
			c-0.7-0.4-1.5-0.5-2.3-0.6c-1.1-0.1-2.4-0.2-3.3,0.5c-0.2,0.2-0.4,0.4-0.7,0.5c-0.4,0.1-0.7-0.1-1.1-0.2c-0.7-0.4-1.5-0.8-1.9-1.6
			c-0.4-0.9-0.3-2.1-1.2-2.6c-0.4-0.2-1-0.1-1.4-0.2c-1.2-0.3-1.6-1.9-1.4-3.1S109.2,152.4,109,151.1z"/>
	</g>
	<g>
		<path class="st30" d="M8.3,273.1c0,0.6,0.1,1.1,0.4,1.6c0.3,0.4,0.7,0.6,1.2,0.8c1.2,0.5,2.6,0.5,3.9,0.5c3.2,0,6.5,0,9.7,0
			c0.8,0,1.7,0,2.4-0.4c1.5-0.8,1.9-2.8,2-4.5c1-10.7,2.1-21.4,3.2-32c0.1-0.6,0.1-1.2-0.1-1.8c-0.6-1.8-2.9-2-4.8-2
			c-4.8,0.1-9.7,0.4-14.5,0.8c-1.3,0.1-4.8-0.3-5.8,0.8c-1.1,1.2-0.2,4.5-0.1,6C6.7,252.9,7.5,263,8.3,273.1z"/>
	</g>
	<g>
		<path class="st31" d="M3.5,240.6c-0.1,0.3-0.2,0.7,0,1c0.2,0.5,0.9,0.8,1.4,0.7c0.6-0.1,1-0.5,1.5-0.8s1-0.6,1.6-0.5
			c0.8,0.1,1.4,0.8,2,1.3c1.1,0.9,2.5,1.2,3.8,0.9c1.4-0.3,2.5-1.3,3.7-2.1c1.2-0.8,2.5-1.5,3.9-1.2c0.5,0.1,0.9,0.3,1.4,0.4
			s1,0.1,1.4-0.3c0.3-0.3,0.4-0.8,0.7-1.2c0.5-0.9,1.8-1.2,2.7-0.7c0.3,0.1,0.5,0.4,0.8,0.4c0.6,0.1,1.2-0.4,1.8-0.3
			c0.2,0.1,0.4,0.2,0.6,0.2c0.5,0.1,0.9-0.5,0.9-1c0-0.8-0.7-1.6-1.4-1.9c-0.8-0.3-1.6-0.4-2.5-0.4c-5.7-0.1-11.4-0.1-17-0.1
			c-1.3,0-2.7,0-4,0.3c-1,0.2-1.3,1.1-1.8,1.9C4.3,238.2,3.8,239.4,3.5,240.6z"/>
	</g>
	<g>
		<path class="st3" d="M183.9,137.6c13.4-0.1,22.9,0,34,0c8.7,0,17.3,0,26-0.1c0.5-1.2,0.6-2.7-0.1-3.9c-19.9-0.1-39.3,0.1-59.9,0
			C183.8,135,183.8,136.4,183.9,137.6z"/>
	</g>
</g>
</svg>
