<?xml version="1.0" encoding="utf-8"?>
<!-- Generator: Adobe Illustrator 26.0.1, SVG Export Plug-In . SVG Version: 6.00 Build 0)  -->
<svg version="1.1" id="Ebene_1" xmlns="http://www.w3.org/2000/svg" xmlns:xlink="http://www.w3.org/1999/xlink" x="0px" y="0px"
	 viewBox="0 0 300 300" style="enable-background:new 0 0 300 300;" xml:space="preserve">
<style type="text/css">
	.st0{fill:#FFE0DA;}
	.st1{fill:#F9A630;}
	.st2{fill:#E47E79;}
	.st3{fill:#FFFFFF;}
	.st4{fill:#7E93E5;}
	.st5{fill:#C14C50;}
</style>
<g>
	
		<ellipse transform="matrix(0.7071 -0.7071 0.7071 0.7071 -63.7169 150.8823)" class="st0" cx="150.3" cy="152.4" rx="147.3" ry="147.3"/>
	<g>
		<path class="st1" d="M178,196.2c10-0.4,20-1.2,29.8-2.6c18.3-2.6,34.7-7.2,43.3-25c8.7-19.2-1.3-48-11.1-65.9
			c-6.1-11.1-12.3-22.1-16.6-34.1c-6-16.6-10.4-34.5-23.1-47.6c-0.5-0.5-1-1-1.5-1.5C185.8,7.1,168.2,0,150.2,0
			C124,0,98.7,15.4,87.3,39.1c-7.8,16.2-10.4,34.3-17.9,50.7c-7.8,17.2-17.1,33.9-20.3,52.7c-2.1,12.1,1.2,24.4,9.8,33.4
			c10.3,10.9,23.9,15.4,38.1,17.4C123.3,196.9,150.8,197.3,178,196.2z"/>
		<g>
			<rect x="115.9" y="133.3" class="st2" width="69" height="88"/>
			<g>
				<path class="st3" d="M277,228c-32.5-13.6-91.7-23.9-91.7-23.9c-22.8,19.1-51.5,19-69.4,0c0,0-60,8.9-93.8,20.7
					c24.2,43,69.3,72.6,121.6,75c2.3,0.1,4.7,0.2,7,0.2C204.4,299.9,251.3,271.1,277,228z"/>
			</g>
			<path class="st4" d="M101.9,206.4c-19.8,3.4-56.2,10.2-79.8,18.5c21.7,38.5,60.2,66.3,105.5,73.4
				C127.5,298.2,105,257.5,101.9,206.4z"/>
			<path class="st4" d="M198.7,206.4c19.8,3.4,56.2,10.2,79.8,18.5c-21.7,38.5-60.2,66.3-105.5,73.4
				C173,298.2,195.5,257.5,198.7,206.4z"/>
		</g>
		<g>
			<g>
				<path class="st2" d="M150.3,26.8L150.3,26.8L150.3,26.8L150.3,26.8L150.3,26.8c-44.5,0.1-54.6,33.4-53.7,66.9
					c0,24.2-1.7,32,0.5,38c1.3,8.5,18.5,52,53.1,52c34.6,0,50.4-41.2,53.4-52c2.2-6,0.2-13.8,0.2-38
					C204.9,60.1,194.7,26.8,150.3,26.8z"/>
			</g>
			<g>
				<path class="st5" d="M150.3,184.6c-11.9,0-25.7-6.8-35.1-17.4l1.5-1.3c9.1,10.2,22.4,16.8,33.7,16.8c11.4,0,25-6.7,33.8-16.7
					l1.5,1.3C176.4,177.6,162.2,184.6,150.3,184.6z"/>
			</g>
			<path class="st2" d="M97.6,96.9c0,0-9.1-10.7-18.5-4.4c-9.4,6.3-0.3,41.9,18.5,35.6C116.3,121.7,97.6,96.9,97.6,96.9z"/>
			<path class="st2" d="M203.1,96.9c0,0,9.1-10.7,18.5-4.4c9.4,6.3,0.3,41.9-18.5,35.6C184.4,121.7,203.1,96.9,203.1,96.9z"/>
			
				<rect x="94.3" y="112.2" transform="matrix(0.9904 -0.1381 0.1381 0.9904 -15.7318 14.3149)" class="st5" width="2" height="16.6"/>
			
				<rect x="197.3" y="119.5" transform="matrix(9.261721e-02 -0.9957 0.9957 9.261721e-02 66.5125 314.011)" class="st5" width="16.5" height="2"/>
			<path class="st5" d="M83.8,110.9c-2-5.4-2.2-9.2-0.5-11.6c1.6-2.1,4.1-2,4.2-2l-0.1,2c-0.1,0-1.6-0.1-2.5,1.2
				c-0.9,1.2-1.4,3.9,0.8,9.7L83.8,110.9z"/>
			<path class="st5" d="M217.6,110.9l-1.8-0.7c2.2-5.8,1.6-8.5,0.8-9.7c-0.9-1.3-2.4-1.2-2.5-1.2l-0.1-2c0.1,0,2.6-0.1,4.2,2
				C219.8,101.7,219.7,105.6,217.6,110.9z"/>
			<path class="st1" d="M90.7,91.6C99,76.8,138.2,78.8,150.4,45c11.7,38.6,46.4,27.3,61.7,47.9c0,0-7.3-77.7-61.7-77.7
				C96,15.1,90.7,91.6,90.7,91.6z"/>
		</g>
	</g>
</g>
</svg>
