<?xml version="1.0" encoding="utf-8"?>
<!-- Generator: Adobe Illustrator 26.0.0, SVG Export Plug-In . SVG Version: 6.00 Build 0)  -->
<svg version="1.1" id="Ebene_1" xmlns="http://www.w3.org/2000/svg" xmlns:xlink="http://www.w3.org/1999/xlink" x="0px" y="0px"
	 viewBox="0 0 251 312" style="enable-background:new 0 0 251 312;" xml:space="preserve">
<style type="text/css">
	.st0{fill:none;}
	.st1{fill:#FFB4A0;}
	.st2{fill:#A5B7E1;}
	.st3{fill:#F0A996;}
	.st4{fill:#EED59F;}
	.st5{fill:#1F3284;}
	.st6{fill:#8EA7D9;}
	.st7{fill:#2C2C2C;}
	.st8{fill:#4358A4;}
	.st9{fill:#806454;}
	.st10{fill:#F3BEC0;}
	.st11{fill:#EC928E;}
	.st12{fill:#D9D9D9;}
	.st13{fill:#7C665A;}
	.st14{fill:#2F2F2F;}
	.st15{fill:#F27B3B;}
	.st16{fill:#494949;}
	.st17{fill:#E2E2E2;}
	.st18{fill:#B6B6B6;}
	.st19{fill:#737373;}
</style>
<rect x="-0.5" y="-0.5" class="st0" width="251" height="312"/>
<g>
	<path class="st1" d="M26,158.5c-1-0.1-2.1-0.2-3,0.4c-0.8,0.5-1.2,1.4-1.4,2.3c-0.1,0.5-0.2,1.1,0.1,1.6c0.4,0.8,1.5,1,2.4,1
		c2.1,0,4.2-0.6,6.3-1.2c0.2-0.1,0.4-0.1,0.5-0.2s0.2-0.3,0.2-0.5c0.2-0.5,0.3-1.1,0.3-1.6c-0.1-1.1-0.6-1.4-1.6-1.5
		C28.4,158.7,27.2,158.6,26,158.5z"/>
	<path class="st2" d="M88.7,139.5c0.8,1.2,1.9,2.1,2.9,3c1.5,1.4,3,2.9,3.8,4.8c1.2,2.6,1,5.6,0.8,8.5c-0.1,1-0.2,2.1-0.2,3.1
		c0.6,2.8,2.4,3.1,4.1,3.5c1.1,0.1,3.7,1.6,4.3-1.4c0.2,0,0.2-0.7,0.4-0.6c0.7-8.4-0.2-16.9-3.2-24.7c-0.9-2.4-2-4.7-2.8-7.1
		c-0.6-1.6-1.1-3.3-2.3-4.5c-1.8-1.6-6.1-1.9-8.1-0.2c-2.2,1.9-1.1,6.7-1.1,9.1C87.4,135.2,87.5,137.6,88.7,139.5z"/>
	<path class="st2" d="M33.4,158.5c4.4-0.2,8.2-3.2,10.8-6.7c2.5-3.6,4.1-7.7,6.2-11.6c2.8-5.3,6.7-10,11.2-13.9
		c1.4-1.2,3.3-2.3,4.8-1.4c1.1,0.6,1.5,1.9,1.6,3.1c0.1,1.7-0.2,3.5-0.5,5.2c-0.6,3.1-1.2,6.3-1.8,9.4c-0.2,1.2-0.4,2.3-0.9,3.4
		c-1.3,2.9-4.1,4.6-6.8,6.2c-3.6,2.1-7.1,4.2-10.7,6.4c-1.9,1.1-3.8,2.3-5.9,3c-2.3,0.8-4.7,1.1-7.1,1.4c-1.2,0.1-2.5,0.3-3.4-0.5
		c-0.9-0.7-1.3-2.4-0.8-3.5C30.8,157.6,31.8,158.5,33.4,158.5z"/>
	<path class="st3" d="M90.5,249c-0.6-14.2,0.7-28.7,0.6-43c0.4-4.9-0.3-10-2-14.7c-0.1-0.3-0.2-0.6-0.4-0.8c-0.7-0.7-1.8-0.3-2.7,0
		c-8.5,3.5-18.5,2.7-26.2-2.3c-1.5,2.3-2,5.2-2.3,7.9c-0.6,4.5-1.3,8.9-1.4,13.4c0,1,0,1.9,0,2.9c0.1,5.6,1.2,11.1,2,16.6
		c0.6,3.9,0.9,7.7,0.8,11.6c0,4.4,0.9,9.1,1.3,13.6c0.9,9,2,18.1,3.1,27.1c0.2,2,0.5,4,0.8,6c0.8,0.2,5.7,1.3,5.7,0
		c0.5-15.3,1.6-22.5,2.1-37.7c0.2-6.4-0.3-28.2,1.4-34.3c0.7,0.1,1.3,0.1,2,0.2c3.7,20.2,7.4,47.5,11.1,67.8
		c0.3,1.8,0.7,3.7,1.9,4.9s3.4,0.8,3.7-1C90.7,271.8,91.2,264.4,90.5,249z"/>
	<path class="st3" d="M70.6,92.2c-1.4,0.8-2.8,1.7-3.7,3c-1.2,1.6-1.6,3.7-1.7,5.7c-0.2,2.7,0,5.5,0.4,8.2c0.6,3.7,1.8,7.4,4.5,10
		s7.1,3.7,10.2,1.7c2.9-1.8,3.9-5.5,4.5-8.8c0.5-2.8,0.9-5.6,1.2-8.4c0.2-2,0.3-4-0.1-6c-0.4-2.1-1.5-4-2.8-5.7
		C79.7,87.5,74.5,89.9,70.6,92.2z"/>
	<path class="st4" d="M64,91.7c0.2-0.6,0.8-1.1,1.3-1.4c2.3-1.7,4.8-3.2,7.2-4.8c0.7-0.4,1.5-0.9,2.4-0.9c0.9,0,1.7,0.7,2.6,1.1
		c1.5,0.7,3.2,0.9,4.8,1.3s3.3,1.1,4.1,2.5c0.6,1,0.7,2.2,1.1,3.2c0.9,3,3.6,5.3,3.9,8.4c0.1,0.7,0,1.4-0.3,2c-0.3,0.6-1,1.1-1.7,1
		c-0.7-0.1-1.3-0.7-1.7-1.3c-0.3-0.7-0.5-1.4-0.8-2c-0.6-1.2-1.7-2.1-2.8-3c-1.4-1.1-2.9-2.2-4.3-3.4c-0.6-0.5-1.2-1-2-1.3
		c-1.1-0.5-2.2-0.6-3.4-0.6c-3,0-6,0.8-8.6,2.3c-1.2,0.7-1.1,0.4-1.5-0.7C64.1,93.4,63.7,92.5,64,91.7z"/>
	<path class="st5" d="M68.5,95.9c-0.9,0.5-1.5,1.2-2.2,2c-0.4,0.5-0.8,0.9-1.1,1.5c-0.2,0.5-0.3,1.1-0.4,1.6
		c-0.2,1.4-0.4,2.7-0.6,4.1c-1-2.4-1.5-5.1-1-7.6c0.5-2.6,2.3-4.9,4.7-5.9c1.5-0.6,3.2-0.7,4.8-0.8c2.6-0.3,5.3-0.9,7.6,0.2
		c1,0.5,1.8,1.3,2.6,2.2c0.9,1,1.8,1.9,2.8,2.9c0.5,0.6,1.1,1.1,1.5,1.8c0.7,1.3,0.8,2.9,0.8,4.5c0,0.4,0,0.8-0.1,1.2
		c-0.2,0.4-0.4,0.7-0.6,1.1c-0.6,1.2-0.3,2.8-1.2,3.6c0.5-1.4,0.3-3.1-0.6-4.4c-0.4-0.6-1-1-1.3-1.7c-0.5-1-0.3-2.3-1.1-3.1
		c-0.6-0.5-1.4-0.6-2.2-0.9c-1-0.4-1.6-1.4-2.5-1.9c-1.1-0.6-2.3-0.5-3.5-0.6C72.8,95.6,70.4,94.9,68.5,95.9z"/>
	<path class="st4" d="M87.1,104.9c-0.3-0.6-0.9-1.1-1.3-1.6c-1.1-1.3-1.1-3.2-2.3-4.4c-1.1-1.1-2.9-1.3-4-2.4
		c-0.9-0.9-1.5-2.4-2.8-2.3c-0.7,0.1-1.3,0.7-2,0.6c-0.3,0-0.6-0.2-0.9-0.4c-1-0.6-3.3-0.9-3.8,0.4c-0.8-1-3.7,0.3-4.3,1.1
		c-1,1.3-1.3,3-1.5,4.6s-0.2,3.3-0.9,4.8c-0.2,0.6-0.6,1.1-0.6,1.7c0,0.4,0,0.9,0.1,1.3c0.5,2.8,1.1,5.6,1.7,8.4
		c0.1,0.5,0.2,0.9,0.5,1.3c0.7,0.9,2,0.9,3,1.4c-0.8-0.5-1.7-1.1-2.1-2c-0.3-0.6-0.4-1.3-0.4-2c-0.2-2.1-0.4-4.3-0.5-6.4
		c-0.1-1-0.2-2.1,0.1-3.1c0.2-0.9,0.6-1.7,0.8-2.5c0.2-1-0.1-2,0.2-2.9c0.5-1.8,3.5-2.7,4.2-4.3c0.5,1,1.8,1.8,2.7,1.8
		c0.9,0,1.8-0.4,2.6-0.5c0.9-0.2,2,0,2.4,0.8c0.2,0.4,0.2,0.9,0.4,1.3c0.9,1.4,3.7-0.2,4.5,1.2c0.4,0.8-0.1,1.8,0.3,2.5
		c0.4,0.7,1.3,0.7,1.9,1.2c0.6,0.5,0.7,1.5,0.6,2.3c-0.1,0.8-0.4,1.6-0.4,2.5c0,0.5,0.2,1,0.2,1.5c0,0.6-0.2,1.2-0.4,1.7
		c-0.6,1.8-1.1,3.6-1.3,5.5c1-2.2,1.9-4.5,2.3-6.9c0.1-0.8,0.2-1.5,0.4-2.3C86.7,107.5,87.7,106.1,87.1,104.9z"/>
	<path class="st4" d="M81.6,82.7c1.2-0.6,2.5-1.2,3.8-0.9c0.7,0.2,1.3,0.6,1.9,1.1c0.8,0.6,1.5,1.1,2.3,1.7c0.4,0.3,0.8,0.6,1.1,0.9
		c1.3,1.3,1.7,3.4,1.1,5.1s-2.3,3-4.2,3.1c-0.5,0-1.1,0-1.6-0.2c-0.5-0.2-0.9-0.7-1.3-1.1c-1.4-1.6-3.1-3-4.5-4.6
		C78.5,85.9,79.5,83.7,81.6,82.7z"/>
	<path class="st2" d="M83.9,122.5c0.9-0.2,1.8-0.5,2.6-0.2c0.6,0.2,1,0.6,1.4,1c2.3,2.8,1.6,6.9,2.7,10.3c0.5,1.7,1.5,3.2,2.2,4.9
		c1.4,3.4,1.5,7.1,1.7,10.7c0.1,3.3,0.2,6.7,0.4,10c0.1,2.6,0.2,5.2,0.8,7.7c0.4,1.7,1,3.3,1.2,5c0.6,3.3-0.1,6.7,0.5,10
		c0.2,1.2,0.5,2.4,0.3,3.5c-0.4,2.3-2.8,3.7-5,4.4c-7,2.5-14.6,2.2-22,1.9c-5.6-0.2-11.4-0.4-16.6-2.8c-0.4-0.2-0.9-0.4-1.2-0.9
		c-0.3-0.4-0.3-1-0.3-1.5c0.1-8.3,1.7-16.5,3.3-24.7c2.3-12.2,4.7-24.5,9.9-35.8c0.6-1.3,1.4-4,2.7-4.7c1.3-0.7,3.1,0.5,4.3,0.9
		C76.4,123.3,80.2,123.4,83.9,122.5z"/>
	<path class="st6" d="M69.7,122.9c1,1.6,0.8,3.7,0.6,5.6c-0.4,3.5-0.8,7-1.2,10.5c-0.2,1.3-0.2,2.8,0.7,3.7c0.6,0.6,1.5,0.7,2.3,0.8
		c2.2,0.3,4.5,0.4,6.8,0.3c1.7-0.1,3.6-0.3,4.8-1.5c1.1-1.1,1.3-2.8,1.4-4.4c0.4-4.1,0.7-8.2,1.1-12.3c0.1-1.1,0.2-2.2,0.9-3.1
		s2-1.3,2.9-0.6c0.7,0.6,0.7,1.5,0.7,2.4c0,3.9,0.1,7.8,0.1,11.7c0,1,0,2,0.5,2.8c0.4,0.7,1.1,1.1,1.5,1.7c0.6,0.9,0.8,2,0.9,3
		c1.8,14.9,3,30,3.6,45c0.2,5,0.3,10.1,0.4,15.1c0.1,4.9,2.3,42.7,2.4,47.6c0,0.9,0,1.9-0.5,2.7c-0.7,0.9-2.1,1.1-3.2,1.2
		c-13.5,0.7-31.9,0.9-45.3-0.8c-0.6-0.1-1.3-0.2-1.8-0.6c-0.5-0.4-0.8-1-1-1.6c-1.2-3.1,1.4-39.1,1.3-42.4c-0.3-8.7,0.1-17.4,1.3-26
		c0.8-5.5,1.8-11,2.9-16.5c1.5-7.4,3.2-14.7,4.9-22.1c1.7-7.1,3-14.9,5.6-21.8C64.9,120.7,68.2,120.3,69.7,122.9z"/>
	<path class="st5" d="M65.3,284.1c-0.4,0-1,0-1.2,0.3c-0.1,0.2-0.1,0.4-0.2,0.7c0,1.4,0,2.8,0.1,4.2c0,0.4,0.1,0.8-0.1,1.2
		c-0.1,0.3-0.3,0.6-0.5,0.9c-0.5,0.6-1.1,1-1.8,1.2c-0.9,0.2-1.9,0-2.8,0.2c-0.2,0-0.3,0.1-0.4,0.2c-0.1,0.1-0.2,0.2-0.2,0.4
		c-0.3,0.8-0.5,1.7-0.6,2.6c0,0.1,0,0.2,0.1,0.3c0.1,0.1,0.2,0.1,0.2,0.1c0.5,0.1,1,0.1,1.5,0.2c3.4,0.1,6.9,0,10.3-0.3
		c0.1,0,0.2,0,0.2-0.1c0.1-0.1,0.1-0.2,0.1-0.4c-0.2-4.1-0.3-8.2-0.5-12.3c-0.5-0.3-1.4,0.1-1.9,0.2C66.8,284,66.1,284.1,65.3,284.1
		z"/>
	<path class="st5" d="M91.5,282.7c0.7,3.8,1.3,7.5,2,11.3c0.1,0.5,0.2,1,0.1,1.5c-0.2,0.7-0.7,1.3-1.3,1.6c-0.7,0.3-1.4,0.4-2.1,0.4
		c-0.3,0-0.5,0-0.8-0.2c-0.2-0.1-0.3-0.3-0.5-0.4c-0.7-0.9-1-2.1-1.2-3.2c-0.5-2.6-0.8-5.2-0.9-7.8c0-0.6-0.1-1.3-0.1-1.9
		c0-0.8,0.1-0.8,0.9-0.9C87.9,283.1,91.5,282.7,91.5,282.7z"/>
	<path class="st2" d="M95.1,161c0.5-1.1,1-2.3,2.1-3c0.5-0.3,1-0.5,1.6-0.5c2.7-0.3,5.4,2.3,5.3,5c-0.1,1.3-0.7,2.5-1.3,3.7
		c-2.8,4.8-6.6,9.1-11.2,12.2c-0.7,0.5-1.4,0.9-2.2,1.2c-1.4,0.5-4.7,0.1-5.3-1.7c-0.5-1.4,2.6-4,3.4-5.1
		C90.4,169.1,93.2,165.3,95.1,161z"/>
	<g>
		<path class="st7" d="M103.3,216.4c-5.9-11.9-11.3-25.1-19.2-35.9c-1.8-2.4-4.7-6-8.1-5.5c-2.7,0.3-3.9,2.6-2.9,5
			c0.4,0.9,1.8,0.3,1.3-0.6c1.3-3.4,3.1-3.9,5.4-1.5c1,0.9,1.9,1.8,2.7,2.9c0.9,1.1,1.7,2.4,2.5,3.6c2.1,3.2,3.9,6.6,5.7,10
			c4,7.5,8,14.9,12.1,22.4C103,217.1,103.5,216.7,103.3,216.4z"/>
		<path class="st8" d="M115.2,227.4c0.6-3-1.2-6.6-1.8-9.7c-0.4-1.8-1.1-3.6-1.8-5.4c-0.2-0.7-0.5-1.4-0.8-2c-0.5-1-1.8-2.6-1.9-3.6
			c0-0.2-0.2-0.4-0.3-0.5c-0.6-0.3-1.2-2.1-1.9-2.6c-0.6-0.5-1.2-0.4-1.8-0.9c-0.8-0.7-1.4-1.7-2.1-2.7c-1.3-1.8-2.5-3.6-3.8-5.4
			c-1-1.5-1.9-3.1-2.9-4.6c-0.7-1-1.5-1.8-2.4-2.3c-1.3-0.8-1.8-0.1-3.2-0.6c-0.6-0.2-1-0.7-1.6-0.4c-0.1,0-0.1,0.1-0.2,0.1
			c-0.2-0.1-0.5-0.1-0.5,0.3c-0.2,0.8-0.4,1.4-0.7,2c0,0,0,0,0,0c0,0,0,0.1,0,0.1c-0.8,1.6-1.8,2.9-1.7,5.4c0.2,2.9,1.6,5.8,2.8,8.4
			c0.6,1.3,1.4,3.6,2.3,4.6c0.8,0.8,1.5,0.5,2.2,1.7c0.8,1.4,1.2,2.7,2.1,4c1.3,1.8,2.2,3.4,3.2,5.4c1,2,2.4,4.6,4.1,5.6
			c0.7,0.4,0.3-0.1,1.1,0.6c0.6,0.5,0.5,0.6,0.9,1c0.2,0.2,0.4,0.5,0.6,0.7c0.3,0.3,0.7,0.4,1,0.6c0.7,0.4,1.3,1,2,1.4
			c0.6,0.3,0.7,0.4,1.2,0.3c0.6-0.1,1.1-0.4,1.8-0.2c0.3,0.1,0.6,0.3,0.9,0.3c0.5,0,0.8-0.3,1.3-0.4c0.4-0.1,0.8,0.1,1.2,0
			C114.9,228.5,115.1,228,115.2,227.4z"/>
	</g>
	<path class="st1" d="M82.7,178.9c-0.4,0.3-0.9,0.7-1.3,1c-1,0.9-2.1,1.7-3.1,2.6c-0.1,0.1-0.3,0.2-0.3,0.4c-0.1,0.2,0,0.4,0.1,0.6
		c0.9,1.7,2.5,3.1,4.4,3.7c0.3,0.1,0.6,0.2,1,0.1c0.9-0.1,1.4-1.1,1.8-2c0.8-1.6,1.7-3.1,2.9-4.4c0.6-0.6,1.2-1.5,0.8-2.2
		c-0.1-0.2-0.3-0.4-0.5-0.6C86.4,176.3,84.6,177.5,82.7,178.9z"/>
	<path class="st9" d="M29.1,238.7c-0.1-10.5-0.2-21-0.3-31.4c-0.2-19-0.4-38.1-0.7-57.1c-0.1-9.6-0.3-19.2-0.5-28.8
		c-0.1-3.4-0.1-8.8-0.5-10.7c-0.4-1.9-1.5-1.2-1.7,0.2c0.8,52.8,1.1,86.1,1.7,155.9c0,0.3,0,0.5,0,0.7c0,0.2,0,1.3,0,1.3
		c0.8,1.6,1.3,1.4,2,0.8C29.3,259.4,29.2,249,29.1,238.7z"/>
	<g>
		<path class="st10" d="M43.3,288.2c-1-1.8-2-2.4-1.6-4.8c0.2-1,0.4-1.9,0.2-2.9c-0.4-2-2.4-3.2-3.1-5c-0.9-2.4-1-4.2-3-6
			c-1.4-1.3-2.9-2.1-4.7-2.1c0,0-0.1,0-0.1,0c-1.6-0.3-3.1-0.4-4.5,0.5c-1.1,0.7-1.9,1.6-3,2.2c-0.8,0.5-1.6,0.9-2.2,1.6
			c-1.2,1.3-2,2.9-3,4.3c-1.8,2.4-4.6,2.6-7,4c-2.1,1.2-3.9,2.8-6.3,3.3c-2,0.5-4.3,0-6,1.5c-1.2,1-1.4,2-1.2,3.5
			c0.1,0.7,0.4,1.2,0.3,2c0,0.6-0.4,1.1-0.4,1.7c0,0.6,0.1,0.9,0.5,1.4c0.9,1.1,3.2,1.6,4.4,1.8c2.3,0.5,4.7,0.4,7.1,0.2
			c2.6-0.3,4.8-0.5,7.4-0.1c2.3,0.3,4.6,0.5,6.9,0c1.2-0.3,2.3-0.7,3.5-0.9c1.4-0.2,2.9-0.1,4.3,0.1c2.5,0.2,5.1,0.7,7.6,0.2
			C42.1,294,44.9,291.1,43.3,288.2z"/>
		<path class="st11" d="M27.2,268.7c-1.6,1.2-3.5,2.8-4.2,4.8c-0.8,2.1-1.1,3.2-3,4.6c-1.5,1.1-2.9,1.7-4.9,1.7
			c-0.4,0-0.4,0.6,0,0.6c2.9-0.1,5.1-1.3,7-3.5c0.9-1,1-2.1,1.4-3.3c0.7-1.9,2.4-3.4,4-4.6C27.6,268.9,27.4,268.5,27.2,268.7z"/>
		<path class="st11" d="M26.3,288.4c-1.2,3.8-4.9,0.3-7.3,0.7c-1.1,0.2-1.9,0.9-2.9,1.3c-2.9,1.2-5.3-0.2-7.4-2.1
			c-0.1-0.1-0.3,0.1-0.2,0.2c1.4,1.2,2.9,2.4,4.7,2.7c2.5,0.5,3.8-1.5,6.2-1.7c0.6,0,1.3,0.1,1.9,0.4c0.2,0.2,1.6,1.1,1.6,1.1
			c0.4,0.1,0.4,0.2,1,0.1c1.4-0.2,2.7-1.2,3-2.6C27,288.2,26.4,288,26.3,288.4z"/>
		<path class="st12" d="M26.5,286.2c-0.1,0-0.1,0.2,0,0.2C26.6,286.4,26.6,286.2,26.5,286.2z"/>
		<path class="st11" d="M27,279.2c0,0.8,0,1.6-0.3,2.4c-0.2,0.8-0.8,1.4-1.1,2.1c-0.1,0.2,0.2,0.4,0.3,0.2c0.4-0.8,1-1.3,1.3-2.1
			c0.3-0.8,0.4-1.7,0.4-2.5C27.7,278.7,27,278.7,27,279.2z"/>
		<path class="st11" d="M31.9,275.2c-0.8-2-3.3-3.8-2.2-6.2c0.1-0.2-0.3-0.4-0.4-0.2c-0.5,1.1-0.5,2.2,0.1,3.4c1.1,2.4,2.8,4,2,7
			c-0.1,0.5,0.7,0.7,0.8,0.2C32.4,277.9,32.4,276.5,31.9,275.2z"/>
		<path class="st11" d="M36.9,279.2c-0.6-0.8-0.7-1.8-1-2.7c-0.3-0.7-0.6-1.3-1-1.9c-0.9-1.4-2-2.6-2.8-4.1c-0.1-0.2-0.4,0-0.3,0.2
			c0.8,1.6,2,3,2.8,4.6c0.7,1.4,0.6,3.3,1.7,4.4C36.7,280.2,37.2,279.6,36.9,279.2z"/>
		<path class="st11" d="M36.5,286.2c0.8-1.3,1.9-2,1.9-3.5c0-1.7-1-3.5-1.3-5.2c-0.3-1.8-0.6-3.5-1.4-5c-0.1-0.2-0.5,0-0.4,0.2
			c1,1.8,1.1,3.7,1.5,5.7c0.4,2.5,1.7,4.4-0.2,6.6c-0.7,0.8-1.2,1.8-1.4,2.9c-0.3,1.8,0.9,2,1,3.7c0,0.5,0.8,0.5,0.7,0
			c0-0.8,0-0.8-0.3-1.6C35.9,288.4,35.6,287.8,36.5,286.2z"/>
		<path class="st11" d="M40.1,291.6c-1-0.5-0.6-1.8-0.5-2.7c0.1-0.8,0.2-1.5,0.1-2.2c0-0.4-0.6-0.4-0.6,0c0.1,1.3-0.4,2.6-0.3,3.9
			c0,0.7,0.3,1.4,1.1,1.5C40.2,292.3,40.4,291.8,40.1,291.6z"/>
		<path class="st11" d="M12.9,281.4c-1.7,1.6-3.6,2.8-5.8,3.5c-1.1,0.4-2.4,0.5-3.2,1.3c-0.6,0.6-0.8,1.2-0.9,2
			c-0.2,1.2-0.5,3,0.2,4.1c0.3,0.4,1,0,0.7-0.4c-0.6-0.9-0.3-3.8,0.2-4.6c0.7-1.2,2.6-1.4,3.8-1.9c2-0.8,3.8-2,5.3-3.5
			C13.7,281.5,13.2,281.1,12.9,281.4z"/>
		<path class="st12" d="M7.4,293.1c-0.2,0-0.2,0.4,0,0.4C7.7,293.5,7.7,293.1,7.4,293.1z"/>
	</g>
</g>
<g>
	<path class="st13" d="M170.4,91.2c-0.1-0.9-0.5-1.8-1.2-2.5c-1.1-1-2.7-1.2-4.1-0.9c-1.4,0.3-2.7,1.2-3.9,2
		c-2.3,1.7-4.4,3.7-6.3,5.9c-2.9,3.6-4.9,7.8-6.6,12c-4,10.2-6.4,21-7,31.9c-0.9,6.1-0.9,12.4-0.1,18.5c0.1,0.8,0.2,1.6,0.7,2.2
		c0.5,0.6,1.4,1.1,2.1,0.7c0.6-0.3,0.8-0.9,1.1-1.4c0.5-1.2,1.1-2.5,1.2-3.8c0.1-2.5-1.4-4.8-1.6-7.2c-0.2-1.7,0.3-3.4,0.7-5.1
		c1.5-5.8,3.1-11.6,5.6-17.1c2.1-4.6,4.8-8.8,7.5-13c3.1-4.8,6.2-9.7,9.4-14.6C169.3,96.6,170.9,93.9,170.4,91.2z"/>
	<path class="st10" d="M145.5,130.7c1.9,0.9,3.8,2.1,5.9,1.7c0.2-0.8,0.5-1.7,0.7-2.5c0-0.2,0.1-0.3,0-0.5c-0.1-0.1-0.3-0.1-0.5-0.2
		c-0.8-0.2-0.8-1.4-0.5-2.2c2.7-6.7,9.4-11,13-17.4c0.9-1.7,1.7-3.6,2.6-5.2c1.1-1.8,2.4-3.4,3.5-5.3c1.2-2.1,1.9-4.5,2.5-6.8
		c0.2-0.8,0.5-1.7,0.2-2.6c-0.3-0.9-1.1-1.6-2-2c-2-0.9-4.4-1-6.5-0.4c-2.2,0.5-4.2,1.6-6,2.8c-1.1,0.7-2.1,1.5-3,2.4
		c-0.9,0.9-1.6,1.9-2.3,2.9c-3.4,5.2-5.8,10.9-8.2,16.7c-1.4,3.4-2.8,6.8-3,10.4c0,0.8,0,1.6-0.4,2.3c-0.4,0.7-1.5,1-2,0.4
		c0,0-0.4,1.9-0.4,2.2c0.1,1,0.3,1.2,1.1,1.5C141.9,129.7,143.8,129.9,145.5,130.7z"/>
	<path class="st13" d="M232.1,148.7c-0.1-0.7-0.6-1.4-1.2-1.5c-0.6-0.1-1.4,0-1.7-0.5c-0.1-0.1-0.1-0.3-0.1-0.5
		c-0.2-0.7-1.2-0.7-1.9-0.8c-0.9-0.1-1.9-0.8-2.9-1.2c-0.8-0.8-1.7-1.4-2.6-2.1c-2.3-1.8-4.1-4.1-5.8-6.5c-2.1-3.1-3.8-6.4-5.2-9.9
		c-3.1-8-4.1-16.6-7.4-24.5c-1.7-4.1-4.1-8-6.8-11.5c-0.5-0.6-1-1.2-1.7-1.5c-2.8-1-7.3,3.6-9,5.5c-2.5,2.9-1.6,6.8-0.3,10.2
		c3.1,8.1,8.9,14.7,14,21.7c6.6,9,12.6,19.3,22.5,24.5c0.4,0.2,0.9,0.5,1.4,0.5c1.7,0.8,3.6,1.1,5.3,1.9c0.7,0.3,1.4,0.7,2.1,0.4
		c0.7-0.3,0.9-1.2,1.1-1.9C232.1,150.1,232.2,149.4,232.1,148.7z"/>
	<path class="st10" d="M212.4,125.7c0.4-0.3,0.8-0.7,0.9-1.1c0.3-1-0.6-1.8-1.5-2.4c-0.4,0.3-0.8,0.6-1.2,0.9
		c-0.8-4.3-1.7-8.7-2.9-12.9c-2-7.2-5.1-14-9.1-20.3c-0.4-0.6-0.7-1.1-1.3-1.5c-1-0.6-2.3-0.4-3.5-0.1c-1.8,0.4-3.6,0.8-5.2,1.8
		c-2.5,1.6-4.1,4.5-4,7.5c0,1.3,0.4,2.7,0.8,4c1.6,5.7,3.2,11.5,6.1,16.6c2.1,3.6,4.9,6.8,7.7,9.9c0.4,0.5,0.9,1,1.4,1.3
		c0.2,0.1,0.5,0.3,0.7,0.5c0.2,0.4,0,0.9-0.1,1.4c-0.1,0.9,0.9,1.9,1.8,1.7c0.7-0.1,1.9-1.5,2.5-2
		C207.8,129.3,210.1,127.5,212.4,125.7z"/>
	<g>
		<path class="st14" d="M204.3,245.5c1.2-0.2,2.8-0.3,3.3,0.8c0.3,0.6,0.2,1.5,0.8,1.9c0.2,0.1,0.5,0.1,0.8,0.1c1.4,0,2.8,0,4.2,0
			c1.2,0,2.5,0.1,3.3,0.9c0.5,0.5,0.7,1.2,0.9,1.9c0.2,1,0.3,1.9,0.3,2.9c0,0.3,0,0.6-0.2,0.8c-0.1,0.2-0.4,0.3-0.6,0.4
			c-0.9,0.3-1.8,0.4-2.7,0.5c-4.4,0.5-8.9,0.8-13.4,0.8c-1.2,0-2.5-0.1-3.2-1.1c-0.3-0.4-0.4-0.9-0.4-1.4c-0.3-1.5-1.6-5.5-0.4-6.7
			c0.7-0.7,2.5-0.9,3.5-1.2C201.8,245.9,203.1,245.7,204.3,245.5z"/>
		<path class="st14" d="M171.4,244.8c0.2,0,0.5,0.1,0.7,0.2c0.3,0.2,0.3,0.6,0.3,0.9c0.2,2.9,0.3,5.7,0.2,8.6c0,0.2,0,0.3-0.1,0.5
			c-0.1,0.3-0.4,0.4-0.7,0.5c-2.5,1-5.4,0.9-8.1,0.9c-2.5,0-5.1,0.2-7.6,0.6c-0.5,0.1-1.1,0.2-1.6,0.1c-0.5-0.1-0.9-0.3-1.3-0.5
			c-0.7-0.4-1.3-0.8-1.8-1.4c-0.5-0.6-0.8-1.4-0.7-2.1c0.1-1.2,1.1-2.1,2.1-2.8c0.9-0.6,1.9-1.2,3-1.4c1.5-0.3,3.2,0,4.7-0.4
			c0.2-0.1,0.4-0.1,0.6-0.3c0.6-0.6,0.4-1.6,0.9-2.2c0.6-0.6,1.7-0.4,2.4-0.5C166.8,245.2,169.1,244.6,171.4,244.8z"/>
	</g>
	<path class="st13" d="M169.5,64.6c-0.3,4.5-0.1,9.2,2,13.2s6.7,7,11.1,6.1c2.6-0.5,4.8-2.3,6.6-4.2c5.2-5.8,7.2-14.3,5.1-21.9
		c-0.9-3.5-2.7-6.8-5.6-9c-3.2-2.5-10-4-13.6-1.5C170.5,50.7,169.9,59.4,169.5,64.6z"/>
	<path class="st11" d="M153.8,128.7c-2.1,22.4-1.1,44.9-1.1,44.9c-0.1,13.4,3.5,34.6,4.6,48c0.2,2.5,0.8,4.3,0.4,6.9
		c-0.1,1.1,0.1,3.3,0,4.3c-0.1,0.6-0.1,1.1-0.2,1.6c-0.1,1.1,0.4,2,0.4,3.1c-0.1,1.7-0.2,3.5,0,5.2c0.4,3.3,0.8,4.9,4.3,4.7
		c3.3-0.3,5.5-0.9,8.8-1.4c0.3-0.1,0.7-0.1,0.9-0.4c0.2-0.3,1-0.9,0.9-1.3c-0.3-1.6,0.1-3.4,0.3-5.1c0.1-0.8,0.2-1.6,0.3-2.4
		c0.1-0.8,0.2-1.6,0.4-2.3c0.1-0.4,0.1-0.7,0.1-1.1c0.1-0.8,0.2-1.7,0.3-2.5c1.6-13.4,4.4-26.9,6.5-40.3
		c3.2,12.7,8.5,27.6,11.2,41.9c0.2,1.1,0.4,2.2,0.7,3.3c0.1,0.7,0.3,1.4,0.4,2c0.2,1,0.5,2,0.7,3c0.6,2.4,1.3,4.7,2,6.9
		c0.2,0.5,0.4,1,0.8,1.2c0.3,0.2,0.7,0.1,1.1,0.1c4-0.3,7-1.1,10.7-2.6c-0.4-2.8-0.7-5.9-1.1-9.3c-0.1-1-0.2-2-0.3-3
		c-0.1-0.8-0.1-1.6-0.2-2.4c-0.1-0.9-0.1-1.8-0.2-2.6c-0.6-7.1,0.7-16.8,0.4-22.4c-0.4-7,0.9-14.4,0.6-21.5
		c-0.3-5.8-0.1-10.2,0-14.8c0-0.4,0-0.8,0-1.1c0-0.6,0-1.1,0-1.7c0-0.1,0-0.2,0-0.3c0,0,0,0,0-0.1c0-0.8,0-1.7-0.1-2.6
		c0,0,0-0.1,0-0.1c0,0,0-0.1,0-0.1c-0.1-1.7-0.2-3.5-0.4-5.4c0,0,0,0,0,0v0c0-0.2,0-0.4-0.1-0.6c0,0,0-0.1,0-0.1
		c-1.2-11.7-4.2-23.3-6.4-35c-0.2-1-0.4-2-0.5-3c-0.1-0.7-0.2-1.4-0.3-2.1c-0.2-1.2-0.4-2.5-0.5-3.7c-0.1-0.7-0.2-1.3-0.3-2
		c-0.9-7.8-1.1-15.8-2.7-23.5c0-0.2-0.1-0.4-0.1-0.7c0,0,0,0,0,0c-0.1-0.6-0.4-1.1-1.1-1.4c-4.3-1.6-7.6-2.5-12.2-2.2
		c-2.6,0.2-5.2,0.5-7.8,0.8c-1.8,0.2-3.6,0.5-5.5,0.8C169.5,86.5,155.1,115.5,153.8,128.7z"/>
	<path class="st8" d="M231.5,223c-0.1-11.2-0.2-22.4-0.3-33.6c-0.2-20.3-0.4-40.6-0.8-60.9c-0.2-10.2-0.4-20.5-0.6-30.7
		c-0.1-3.6,0-10.4-0.7-12.5l-3,0.2c1,56.3,1.3,93,1.9,167.5c0,0.3,0,0.6,0.1,0.8c0,0.3,0,1.4,0.1,1.4c1.4,1.7,2.3,1.5,3.6,0.9
		C231.7,245,231.6,234,231.5,223z"/>
	<path class="st10" d="M171.7,102.1c0.2,0.7,0.6,1.4,1.2,1.8c0.6,0.5,1.4,0.6,2.2,0.7c2.1,0.3,4.3,0.6,6.4,1c3.1,0.5,6.7,0.8,9-1.3
		c2-1.8,2.4-4.8,2.6-7.6c0.2-2.7,0.4-5.4,0.6-8.1c0.1-1,0.1-2-0.5-2.8s-1.7-0.9-2.6-1c-5.3-0.6-10.6-0.6-15.9-0.1
		c-2.7,0.3-2.3,5.2-2.8,7.5C171.3,95.5,170.5,98.9,171.7,102.1z"/>
	<path class="st14" d="M170.5,71.5c-0.1-0.4-0.2-0.8,0-1.1c0.2-0.2,0.6-0.2,0.8-0.2c0.6-0.2,0.8-0.8,0.9-1.4s-0.1-1.2,0.1-1.7
		c0.2-1,1.2-1.7,2.1-2.1c2.9-1.2,6.1-0.3,9.2,0c3.5,0.3,7.1-0.3,10.4-1.7c0.6-0.2,1.1-0.5,1.4-1.1c0.2-0.4,0.2-0.9,0.2-1.4
		c-0.1-2.6-1-5.1-2.1-7.4c-0.5-1.1-1.1-2.3-2-3.2c-1.4-1.5-3.3-2.5-5.3-2.9c-2-0.5-4.1-0.4-6.1-0.3c-1.9,0.2-3.9,0.5-5.6,1.4
		c-0.9,0.5-1.6,1.2-2.3,1.9c-1.6,1.6-2.9,3.4-3.7,5.5c-0.6,1.8-0.9,3.8-2.3,5.1c-0.8,0.7-2,1-2.7,1.9c-0.7,0.8-0.8,2-1.3,2.9
		c-0.4,0.7-0.9,1.2-1.2,1.9s-0.4,1.6,0.1,2.1c0.4,0.4,1.2,0.6,1.3,1.2c0,0.2-0.1,0.4-0.2,0.6c-0.3,0.5-0.5,1.1-0.5,1.7
		s0.6,1.2,1.2,1.1c0.3-0.1,0.6-0.3,0.9-0.2c0.6,0.2,0.1,1.4,0.6,1.8c0.4,0.3,1-0.1,1.5,0c0.3,0,0.5,0.2,0.8,0.3
		c0.8,0.4,1.7,0.8,2.6,1c0.4,0.1,0.9,0.2,1.4,0.2c0.6,0.1,0.7,0.1,0.8-0.5C171.5,75.3,171.1,73.2,170.5,71.5z"/>
	<path class="st15" d="M199.7,62.2c-0.9-0.5-1.9-0.8-2.9-1c-0.5-3.2-1.2-6.3-2.4-9.2c-1.4-3.4-3.9-6.3-7-7.4
		c-1.5-0.5-3.1-0.6-4.7-0.5c-4.1,0.4-8.2,2.1-11.4,5.2c-2.3,2.2-4,5.1-4.9,8.4c-0.1,0.5-0.4,1.2-0.5,2c-1.6,0.5-2.6,1.3-1.8,2.7
		c0.5,0.9,1.6,1.2,2.6,1.4c8.2,1.7,16.6,2.6,25,2.5c2.8,0,5.8-0.2,8.2-1.7c0.4-0.3,0.8-0.6,0.8-1.1
		C200.6,62.7,200.2,62.4,199.7,62.2z"/>
	<g>
		<path class="st2" d="M243.9,71.9c-1.6-0.6-4.1,0-5.7,0.2c-3.7,0.4-7.4,0.9-11.1,1.5c-3.3,0.5-6.6,1.1-9.9,1.6
			c-2,0.3-5.1,0.4-6.6,1.8c-2.1,1.8-1.4,6.4,1.3,7.7c2.2,1.1,5.9,0.3,8.3,0.1c3.5-0.3,7.1-0.7,10.6-1.2c0.5-0.1,1-0.1,1.6-0.2
			c1.9-0.2,3.9-0.4,5.8-0.6s4.1-0.5,5.7-1.4c1.3-0.5,2-1.3,2.2-2.7c0-0.1,0-0.1,0-0.2C246.9,75.9,246.3,72.7,243.9,71.9z"/>
		<path class="st6" d="M246.3,74.8c-0.2-0.9-0.9-1.8-1.9-2.3h0l0.2,0c-0.4-0.5-1.3-0.6-2-0.4c-0.7,0.2-1.2,0.7-1.6,1.3
			c-0.5,0.8-0.6,1.8-0.5,2.7s0.4,1.8,0.6,2.7c0.2,0.5,0.3,1,0.8,1.4c0.4,0.4,1,0.6,1.6,0.5c0.6,0,1.2-0.3,1.6-0.7
			c0.4-0.5,0.6-1.1,0.8-1.6c0.1-0.6,0.3-1.1,0.4-1.7C246.3,76,246.4,75.4,246.3,74.8z"/>
	</g>
	<path class="st8" d="M247.8,76.2c-0.4-1.3-2.2-0.6-3.6-0.5c-0.5,0.1-0.3,0.7,0.2,0.7c1.3-0.2,2.3-0.4,2.6,0.8
		c0.2,0.7,0.1,1.5,0.1,2.1c0,1.1-0.2,2.2-1.4,2.8c-0.8,0.4-2.1,0.6-3,0.8c-3.9,0.8-7.9,1.3-11.9,1.8c-4.1,0.5-8.2,0.8-12.3,1.2
		c-2.1,0.2-4.1,0.4-6.2,0.4c-0.7,0-1.2,0.1-1.8-0.2c-0.6-0.4-0.6-0.7-0.8-1.3c-0.2-0.6-1.3-2.7-0.2-3.3c-0.1-0.1-0.1-0.3-0.1-0.4
		c-1.4,0.3-1,2-0.7,2.9c0.2,0.8,0.3,2.2,1.1,2.8c0.6,0.4,1.8,0.3,2.5,0.2c6.2-0.2,12.5-0.9,18.7-1.6c3.2-0.4,6.3-0.8,9.4-1.3
		c2.1-0.4,5.5-0.6,6.9-2.1c0.6-0.6,0.5-1.2,0.5-1.9C248,78.9,248.1,77.4,247.8,76.2z"/>
	<path class="st16" d="M186.1,78.6c-0.9-0.8-2.1-1.1-3.2-1.1c-1,0-1.9,0.1-2.9,0.4c-0.3,0.1-0.5,0.2-0.7,0.4
		c-0.2,0.2-0.3,0.5-0.3,0.8c-0.2,1-0.6,2-1,3c-0.4,0.9-0.5,1.5,0.6,1.9c2.2,0.8,4.6,0,6.6-1.1c0.6-0.3,1.1-0.7,1.5-1.2
		C187.3,80.8,186.9,79.4,186.1,78.6z M184.4,81.6c-0.3-0.1-0.5-0.2-0.7-0.4c-0.1-0.1-0.1-0.2-0.2-0.3c-0.1-0.1,0.1,0-0.2-0.1
		c-0.2,0-0.5,0-0.8,0c-0.1,0-0.2,0-0.3,0c-0.1,0-0.1,0-0.1,0c-0.1,0.3-0.4,0.5-0.7,0.6c0,0.1,0,0.2,0,0.3c-0.2,1.2-2,0.7-1.8-0.5
		c0.2-1.2,0.6-2.2,1.9-2.4c1.1-0.2,2.6-0.3,3.5,0.4C185.8,79.8,186,82,184.4,81.6z"/>
	<g>
		<path class="st9" d="M162.5,145.9c-0.6-0.8-0.8-0.7-1.6-0.3c-1,0.5-0.9,1.5-1,2.5c0,1.7,0.2,3.4,0.4,5c0.2,1.5,0.6,3.4,0.2,5
			c-0.3,0-0.5,0.4-0.2,0.6c0.7,0.3,1.7,0.5,2.2-0.3c0.3-0.5,0.1-1.1,0-1.7c0-0.9-0.1-1.8,0-2.7c0.2-2.8,0.4-3,0.3-4.5
			C162.8,148.2,163.2,146.9,162.5,145.9z"/>
		<path class="st17" d="M156.6,168.3c0,0.4,0,0.8,0.2,1.1c0.2,0.3,0.8,0.5,1,0.2c0.2-0.2,0.2-0.4,0.4-0.5c0.5-0.2,0.7,0.8,1.3,0.9
			c0.5,0.1,1-0.7,1.5-0.5c0.3,0.1,0.4,0.4,0.6,0.5c0.3,0.1,0.5-0.4,0.8-0.5c0.5-0.2,1,0.2,1.5,0.2c0.3,0,0.6-0.2,0.8-0.4
			c0.5-0.3,1.3-0.2,1.6,0.2c0.4-0.9,0.4-1.9,0.3-2.9c-0.1-2.3-0.1-4.7-0.2-7c0-0.2,0-0.4-0.1-0.6c-0.2-0.4-0.9-0.6-1.4-0.6
			c-2.2-0.1-4.4-0.2-6.7-0.1c-2.4,0.1-2,1.8-2,3.5C156.5,164,156.6,166.1,156.6,168.3z"/>
		<path class="st18" d="M165.2,157.8c-1.4-0.1-2.9,0-4.3,0c-1.4,0-2.8,0.1-4.1,0.2c-0.2-0.2-0.7-0.1-0.7,0.1c0,0.5-0.3,1.3,0.4,1.7
			c0.6,0.4,2,0.4,2.8,0.4c1.6,0,3.1-0.1,4.7-0.1c0.7,0,2.1,0.2,2.6-0.3C167.4,159.1,166.4,158,165.2,157.8z"/>
	</g>
	<g>
		<path class="st14" d="M152.7,147.3c-0.3,0-0.6,0-0.8,0.1c-0.2,0.1-0.3,0.4-0.3,0.6c-0.3,1.5-0.3,3,0,4.5c0.1,0.6,0.3,1.1,0.8,1.5
			c0.6,0.5,1.4,0.5,2.2,0.6c16.8,0.9,33.7,0.7,50.5-0.4c0.6,0,1.2-0.1,1.7-0.4c0.5-0.4,0.6-1.1,0.6-1.6c0-2.3,0.5-6.2-2.8-6.4
			c-3.8-0.2-8.1,0.7-12,1c-8.5,0.6-17,0.9-25.5,0.9C162.2,147.5,157.4,147.4,152.7,147.3z"/>
		<path class="st19" d="M175.2,149.7c0.2,1.7,0.5,3.9,1.3,5.4c0.6,1.2,1.9,1,3.2,1.1c2.4,0.2,4.7,0.1,7.1-0.1c0.2,0,0.4-0.1,0.5-0.3
			c0,0,0-0.1,0-0.1c0,0,0-0.1,0-0.1l0,0c0,0,0,0,0,0c0-0.1,0-0.2,0-0.3c0.1-1.9,0.2-3.8-0.2-5.7c-0.2-1-0.6-3-1.6-3.7
			c-1.2-0.8-3.5-0.3-4.9-0.3c-1.4,0-3.4-0.3-4.6,0.7C175.1,147.1,175.1,148.5,175.2,149.7z M177.5,146.9c0.9-0.5,3.4-0.2,4.4-0.2
			c1.5,0,2.9-0.3,3.6,1.2c1.1,2,1.1,4.7,1.2,7h0c-1.4,0.1-2.8,0.3-4.1,0.3c-1.1,0-3.1,0.3-4.1-0.2c-1.1-0.4-1.4-1.7-1.6-2.9
			c1.4-0.1,2.8-0.3,4.2-0.7c0.2-0.1,0.2-0.5-0.1-0.4c-1.4,0.1-2.8,0.2-4.1,0.2c-0.1,0-0.1,0-0.1,0
			C176.3,149.7,175.8,147.8,177.5,146.9z"/>
	</g>
	<path class="st18" d="M192.6,147.8c0.1,0.9,0.5,1.7,0.8,2.6c2.6,6.9,1.1,14.6,1.7,22c0,0.2,0,0.3,0.1,0.5c0.1,0.1,0.2,0.2,0.4,0.3
		c1.8,1.1,4.1,1.4,6.1,1c0.6-0.1,1.1-0.3,1.5-0.6c0.4-0.3,0.6-0.8,0.8-1.3c1.3-3.6,0.7-7.5,0-11.3c-0.8-3.7-1.7-7.5-1.2-11.3
		c0.1-0.9,0.3-1.8,0-2.7c-0.3-0.7-0.9-1.2-1.7-1.5s-1.5-0.3-2.2-0.4c-1.6-0.1-3.4-0.2-5,0C192.7,145.4,192.4,146.6,192.6,147.8z"/>
</g>
</svg>
