<?xml version="1.0" encoding="utf-8"?>
<!-- Generator: Adobe Illustrator 26.0.1, SVG Export Plug-In . SVG Version: 6.00 Build 0)  -->
<svg version="1.1" id="Ebene_1" xmlns="http://www.w3.org/2000/svg" xmlns:xlink="http://www.w3.org/1999/xlink" x="0px" y="0px"
	 viewBox="0 0 300 300" style="enable-background:new 0 0 300 300;" xml:space="preserve">
<style type="text/css">
	.st0{fill:#FFE0DA;}
	.st1{fill:#E47E79;}
	.st2{fill:#FFFFFF;}
	.st3{fill:#F9A630;}
	.st4{fill:#EAADA8;}
	.st5{fill:#C14C50;}
	.st6{fill:#3F153D;}
</style>
<g>
	
		<ellipse transform="matrix(0.7071 -0.7071 0.7071 0.7071 -62.7499 150.3299)" class="st0" cx="150.1" cy="150.9" rx="149.1" ry="149.1"/>
	<g>
		<g>
			<rect x="111" y="131.3" class="st1" width="78.9" height="89.1"/>
			<g>
				<path class="st2" d="M277.9,228.4c-42.1-18.8-88-25.4-88-25.4c-21.1,22-60.3,22.3-78.9,0c0,0-45.9,6.7-88,25.4
					c26.2,43,73.4,71.6,127.4,71.6C204.4,300,251.7,271.3,277.9,228.4z"/>
				<path class="st3" d="M198.5,204.4v87.7c33.3-11.3,61.4-34.2,79.4-63.7C246.8,214.5,213.7,207.2,198.5,204.4z"/>
				<path class="st3" d="M102.3,204.4C87,207.3,54,214.5,23,228.4c18,29.5,46,52.3,79.2,63.7V204.4z"/>
				<path class="st4" d="M149.3,229.6c-0.2,0-0.5,0-0.7,0c-20.4-0.2-37.6-9.2-47.2-24.6l1.7-1.1c9.2,14.9,25.8,23.5,45.5,23.7
					c20.5,0.2,39.4-8.9,49-23.7l1.7,1.1C189.4,220.2,170.3,229.6,149.3,229.6z"/>
			</g>
		</g>
		<g>
			<path class="st1" d="M227.7,83.8c-4.4-10.4-13.2-5.3-13.2-5.3c5.1-47.3-18.9-78.5-64-78.5c-45.1,0-69.1,31.2-64,78.5
				c0,0-8.9-5.1-13.2,5.3c-4.4,10.4,3.6,34.8,8.5,42.6c4.9,7.8,12.4,4.5,12.4,4.5s1.8,17.8,4.1,23.9c2.3,6.1,28,33.9,35.6,38.1
				c9.9,5.8,24.5,5.8,33.4,0c7.6-4.3,33.3-32.1,35.6-38.1c2.3-6.1,4.1-24.2,4.1-24.2s7.5,3.6,12.4-4.2
				C224.1,118.6,232.1,94.2,227.7,83.8z"/>
			<g>
				<path class="st5" d="M150.9,198.2c-6.2,0-12.5-1.5-17.6-4.5c-4.6-2.6-15.1-13.1-23-21.8l1.5-1.3c8,8.9,18.3,19.1,22.5,21.4
					c9.6,5.6,23.8,5.7,32.4,0c4.3-2.4,14.5-12.6,22.5-21.5l1.5,1.3c-7.8,8.7-18.4,19.2-23,21.8C163.1,196.7,157.1,198.2,150.9,198.2
					z"/>
				
					<rect x="92.5" y="119.7" transform="matrix(0.9938 -0.1114 0.1114 0.9938 -13.3765 11.1937)" class="st5" width="2" height="11.2"/>
				
					<rect x="201.9" y="124.1" transform="matrix(0.1042 -0.9946 0.9946 0.1042 61.3016 318.3054)" class="st5" width="10.9" height="2"/>
				<g>
					<path class="st5" d="M79,107.2c-0.4-1.5-4-15.1,0.9-18.8c1.6-1.1,2.9-0.9,3.8-0.7c2.5,0.8,3.7,3.9,3.9,4.2l-1.9,0.7
						c-0.3-0.7-1.3-2.6-2.6-3.1c-0.6-0.2-1.3-0.1-2,0.4c-2.8,2.1-1.6,11.3-0.2,16.6L79,107.2z"/>
					<path class="st5" d="M221.9,107.2l-1.9-0.5c1.4-5.3,2.7-14.5-0.2-16.7c-0.7-0.4-1.3-0.6-1.9-0.4c-1.6,0.5-2.6,3-2.6,3l-1.9-0.7
						c0.1-0.3,1.4-3.4,3.9-4.2c0.8-0.3,2.2-0.4,3.7,0.6C225.9,92.1,222.3,105.7,221.9,107.2z"/>
				</g>
			</g>
			<g>
				<path class="st6" d="M92.8,103.4c13.4,0.1,3.3-43.1,13.8-53.6c5.3-5.3,82.6-5.1,87.7,0c10.5,10.5,0.4,53.6,13.8,53.6
					c-0.9-10-1-20.9,6.4-24.9l0,0c5.1-47.3-18.9-78.5-64-78.5c-45.1,0-69.1,31.2-64,78.5v0C92.4,82.4,93.8,92.9,92.8,103.4z"/>
			</g>
			<path class="st6" d="M150.5,117.7c0,0-31.7-0.7-33,20.5h33h33C182.2,117,150.5,117.7,150.5,117.7z"/>
		</g>
	</g>
</g>
</svg>
