<?xml version="1.0" encoding="utf-8"?>
<!-- Generator: Adobe Illustrator 26.0.1, SVG Export Plug-In . SVG Version: 6.00 Build 0)  -->
<svg version="1.1" id="Ebene_1" xmlns="http://www.w3.org/2000/svg" xmlns:xlink="http://www.w3.org/1999/xlink" x="0px" y="0px"
	 viewBox="0 0 300 300" style="enable-background:new 0 0 300 300;" xml:space="preserve">
<style type="text/css">
	.st0{enable-background:new    ;}
	.st1{fill:#354E57;}
	.st2{fill:#FA7870;}
</style>
<g class="st0">
	<path class="st1" d="M17.1,78l14.7,41.4L46.3,78h15.4v57.1H50v-15.6l1.2-26.9l-15.4,42.5h-8.1L12.3,92.6l1.2,26.9v15.6H1.7V78H17.1
		z"/>
	<path class="st1" d="M95.9,135.1c-0.5-1-0.9-2.3-1.1-3.8c-2.7,3.1-6.3,4.6-10.7,4.6c-4.2,0-7.6-1.2-10.3-3.6
		c-2.7-2.4-4.1-5.4-4.1-9.1c0-4.5,1.7-7.9,5-10.3s8.1-3.6,14.4-3.6h5.2v-2.4c0-2-0.5-3.5-1.5-4.7c-1-1.2-2.6-1.8-4.8-1.8
		c-1.9,0-3.4,0.5-4.5,1.4c-1.1,0.9-1.6,2.2-1.6,3.8H70.5c0-2.5,0.8-4.7,2.3-6.8c1.5-2.1,3.7-3.7,6.4-4.9c2.8-1.2,5.9-1.8,9.3-1.8
		c5.2,0,9.4,1.3,12.4,3.9c3.1,2.6,4.6,6.3,4.6,11.1v18.4c0,4,0.6,7.1,1.7,9.1v0.7H95.9z M86.5,127.2c1.7,0,3.2-0.4,4.6-1.1
		s2.5-1.7,3.1-3v-7.3H90c-5.7,0-8.7,2-9.1,5.9l0,0.7c0,1.4,0.5,2.6,1.5,3.5C83.4,126.7,84.8,127.2,86.5,127.2z"/>
	<path class="st1" d="M127.9,82.2v10.4h7.3v8.3h-7.3v21.2c0,1.6,0.3,2.7,0.9,3.4c0.6,0.7,1.7,1,3.4,1c1.3,0,2.4-0.1,3.3-0.3v8.6
		c-2.2,0.7-4.5,1-6.9,1c-7.9,0-12-4-12.1-12V101h-6.2v-8.3h6.2V82.2H127.9z"/>
	<path class="st1" d="M155,82.2v10.4h7.3v8.3H155v21.2c0,1.6,0.3,2.7,0.9,3.4c0.6,0.7,1.7,1,3.4,1c1.3,0,2.4-0.1,3.3-0.3v8.6
		c-2.2,0.7-4.5,1-6.9,1c-7.9,0-12-4-12.1-12V101h-6.2v-8.3h6.2V82.2H155z"/>
	<path class="st1" d="M188.1,135.8c-6.2,0-11.3-1.9-15.2-5.7c-3.9-3.8-5.9-8.9-5.9-15.2v-1.1c0-4.3,0.8-8.1,2.5-11.4
		c1.6-3.4,4-5.9,7-7.8c3-1.8,6.5-2.7,10.3-2.7c5.8,0,10.4,1.8,13.7,5.5c3.3,3.7,5,8.8,5,15.6v4.6h-27c0.4,2.8,1.5,5,3.3,6.7
		c1.8,1.7,4.2,2.5,7,2.5c4.4,0,7.8-1.6,10.2-4.7l5.6,6.2c-1.7,2.4-4,4.3-6.9,5.6C194.8,135.2,191.6,135.8,188.1,135.8z M186.8,101
		c-2.2,0-4.1,0.8-5.5,2.3c-1.4,1.5-2.3,3.7-2.7,6.5h15.8v-0.9c-0.1-2.5-0.7-4.5-2-5.8C191,101.7,189.2,101,186.8,101z"/>
	<path class="st1" d="M235.8,103.3c-1.5-0.2-2.9-0.3-4.1-0.3c-4.3,0-7.1,1.5-8.4,4.4v27.7h-11.3V92.7h10.7l0.3,5.1
		c2.3-3.9,5.4-5.8,9.4-5.8c1.3,0,2.4,0.2,3.5,0.5L235.8,103.3z"/>
</g>
<g class="st0">
	<path class="st1" d="M48.6,185.2c0,5.6-1,10.5-3,14.8c-2,4.2-4.8,7.5-8.5,9.8c-3.7,2.3-7.9,3.4-12.7,3.4c-4.7,0-8.9-1.1-12.7-3.4
		c-3.7-2.3-6.6-5.5-8.6-9.7S0,191,0,185.5v-2.8c0-5.6,1-10.6,3-14.8c2-4.3,4.9-7.5,8.6-9.8c3.7-2.3,7.9-3.4,12.7-3.4
		c4.8,0,9,1.1,12.7,3.4c3.7,2.3,6.6,5.6,8.6,9.8c2,4.3,3,9.2,3,14.8V185.2z M36.7,182.6c0-6-1.1-10.5-3.2-13.6
		c-2.1-3.1-5.2-4.7-9.2-4.7c-3.9,0-7,1.5-9.1,4.6c-2.1,3.1-3.2,7.6-3.3,13.5v2.8c0,5.8,1.1,10.3,3.2,13.6c2.1,3.2,5.2,4.8,9.2,4.8
		c3.9,0,7-1.5,9.1-4.6c2.1-3.1,3.2-7.6,3.2-13.5V182.6z"/>
	<path class="st1" d="M59.5,212.5v-34.1h-6.3v-8.3h6.3v-3.6c0-4.8,1.4-8.4,4.1-11.1c2.7-2.6,6.6-3.9,11.5-3.9c1.6,0,3.5,0.3,5.8,0.8
		l-0.1,8.8c-0.9-0.2-2.1-0.4-3.4-0.4c-4.3,0-6.4,2-6.4,6v3.4h8.4v8.3h-8.4v34.1H59.5z"/>
	<path class="st1" d="M146.5,164.9H129v47.5h-11.8v-47.5H100v-9.5h46.5V164.9z"/>
	<path class="st1" d="M152.4,159.1c0-1.7,0.6-3.1,1.7-4.2s2.7-1.6,4.6-1.6c1.9,0,3.5,0.5,4.6,1.6c1.1,1.1,1.7,2.5,1.7,4.2
		c0,1.7-0.6,3.1-1.7,4.2c-1.2,1.1-2.7,1.6-4.6,1.6c-1.9,0-3.4-0.5-4.6-1.6C153,162.2,152.4,160.8,152.4,159.1z M164.4,212.5H153
		v-42.4h11.4V212.5z"/>
	<path class="st1" d="M184.4,170.1l0.4,4.7c3-3.7,7.1-5.5,12.2-5.5c5.5,0,9.2,2.2,11.2,6.5c3-4.3,7.2-6.5,12.7-6.5
		c4.6,0,8,1.3,10.3,4c2.2,2.7,3.4,6.7,3.4,12.1v27.1h-11.4v-27c0-2.4-0.5-4.2-1.4-5.3s-2.6-1.7-5-1.7c-3.4,0-5.7,1.6-7.1,4.9l0,29.1
		h-11.3v-27c0-2.5-0.5-4.2-1.5-5.3c-1-1.1-2.6-1.6-4.9-1.6c-3.2,0-5.5,1.3-7,4v30h-11.3v-42.4H184.4z"/>
	<path class="st1" d="M262.7,213.2c-6.2,0-11.3-1.9-15.2-5.7c-3.9-3.8-5.9-8.9-5.9-15.2v-1.1c0-4.3,0.8-8.1,2.5-11.4
		c1.6-3.4,4-5.9,7-7.8c3-1.8,6.5-2.7,10.3-2.7c5.8,0,10.4,1.8,13.7,5.5c3.3,3.7,5,8.8,5,15.6v4.6h-27c0.4,2.8,1.5,5,3.3,6.7
		c1.8,1.7,4.2,2.5,7,2.5c4.4,0,7.8-1.6,10.2-4.7l5.6,6.2c-1.7,2.4-4,4.3-6.9,5.6S266.3,213.2,262.7,213.2z M261.4,178.4
		c-2.2,0-4.1,0.8-5.5,2.3c-1.4,1.5-2.3,3.7-2.7,6.5H269v-0.9c-0.1-2.5-0.7-4.5-2-5.8C265.7,179.1,263.8,178.4,261.4,178.4z"/>
</g>
<g class="st0">
	<path class="st2" d="M287.2,206.9c0-1.8,0.6-3.3,1.8-4.4c1.2-1.1,2.7-1.7,4.6-1.7c1.9,0,3.4,0.6,4.6,1.7c1.2,1.1,1.8,2.6,1.8,4.4
		c0,1.8-0.6,3.2-1.8,4.3c-1.2,1.1-2.7,1.7-4.6,1.7c-1.9,0-3.4-0.6-4.6-1.7C287.8,210.1,287.2,208.7,287.2,206.9z"/>
</g>
</svg>
