<?xml version="1.0" encoding="utf-8"?>
<!-- Generator: Adobe Illustrator 26.0.0, SVG Export Plug-In . SVG Version: 6.00 Build 0)  -->
<svg version="1.1" id="Ebene_1" xmlns="http://www.w3.org/2000/svg" xmlns:xlink="http://www.w3.org/1999/xlink" x="0px" y="0px"
	 viewBox="0 0 251 312" style="enable-background:new 0 0 251 312;" xml:space="preserve">
<style type="text/css">
	.st0{fill:none;}
	.st1{opacity:0.15;enable-background:new    ;}
	.st2{fill:#1F3284;}
	.st3{fill:#F0A996;}
	.st4{fill:#EC928E;}
	.st5{fill:#A5B7E1;}
	.st6{fill:#F3BEC0;}
	.st7{fill:#2F2F2F;}
	.st8{fill:#DBDBDB;}
	.st9{fill:#EEEEEE;}
	.st10{fill:#804B3F;}
	.st11{fill:#FFB4A0;}
	.st12{fill:#EED59F;}
</style>
<rect x="-0.5" y="-0.5" class="st0" width="251" height="312"/>
<g>
	<path class="st1" d="M205.4,289.9c-7.1-0.8-16.6-0.9-20.8-1c-22.5-0.2-45-0.5-67.5-0.7c-11-0.1-22-0.2-32.9,0.1
		c-7.2,0.2-14.5,0.7-20.5,2s-10.6,3.4-10.2,5.7c0.4,2.4,6.2,4.5,13.1,5.5c6.8,1,14.6,1.2,22.1,1.3c40,0.6,80.3-1,118.7-4.7
		c5.9-0.6,12.6-1.5,14.3-3.3C225,291.1,216.5,290,205.4,289.9z"/>
	<g>
		<path class="st2" d="M104.6,112.2c3.9,0.7,7.6,2.2,11.4,3.4c5.2,1.7,10.8,2.8,16.3,2.5c5.5-0.3,11-2.2,15.1-5.9
			c0.6-0.5,1.1-1.1,1.9-1.4c1.3-0.6,3-0.2,4.1,0.7c-7.9,9.9-20.2,16.1-32.9,16.7c-5.3,0.2-10.6-0.5-15.8-1.4
			c-3.3-0.6-6.8-1.4-9.2-3.7c-2.1-1.9-3.7-6.5-1.7-9.1C95.8,111.1,101.7,111.7,104.6,112.2z"/>
		<path class="st3" d="M77.2,238.9c0.6-15.9-0.6-32.2-0.5-48.2c-0.4-5.6,0.2-11.2,1.8-16.5c0.1-0.3,0.2-0.7,0.4-0.9
			c0.6-0.8,1.6-0.4,2.4,0.1c7.5,3.9,16.4,3,23.2-2.5c1.3,2.6,1.7,5.8,2.1,8.9c0.5,5,1.1,10,1.3,15.1v0l0,0c0,1.1,0.1,2.2,0,3.2
			c-0.1,6.3-1.1,12.5-1.8,18.6c-0.5,4-0.9,8.1-0.9,12.2c0,3.4,0.3,6.4-0.2,9.7c-1.4,8.1-1.4,16.9-2.1,25.1
			c-0.7,8.8-1.3,17.7-1.8,26.5c0,0.4,0,0.7-0.1,1.1c-0.3,0.1-5.7,1.7-5.7-0.1c-0.4-17.2-0.9-34.3-1.3-51.5
			c-0.2-7.2,0.2-31.6-1.2-38.5c-0.6,0.1-1.2,0.1-1.8,0.2c-3.3,22.7-7.1,62.5-10.4,85.2c-0.3,2-0.6,4.2-1.7,5.4c-1,1.3-3,0.9-3.3-1.1
			C76.5,273.6,76.6,256.2,77.2,238.9z"/>
		<path class="st4" d="M92.8,291c0.1-0.2,0.1-0.4,0.2-0.6c0.7-2.6,1-5.3,1-7.9c0-1.2-0.1-2.5,0.2-3.6c1.5,0,5.9-0.3,7.4-0.2
			c0.1,0,0.3,0,0.4,0.1c0.1,0.1,0.2,0.2,0.2,0.4c0.7,3.7-1.6,7.8-0.8,11.4c0.3,1.5,1.7,2,3,2.7c1.1,0.6,3.2,2.2,4.5,2.2
			c0.8,0.3,1.5,0.6,2.1,1.2c0.6,0.6,0.8,1.6,0.3,2.2c-0.4,0.5-1.2,0.6-1.9,0.6c-5.4,0.1-10.8-0.4-16.1-1.4c-0.3-0.1-0.7-0.1-0.9-0.4
			c-0.2-0.2-0.3-0.4-0.3-0.7C91.3,294.7,92.1,293.1,92.8,291z"/>
		<path class="st4" d="M73.1,292.4c0.2-0.6,0.6-1.1,0.8-1.6c0.2-0.6,0.1-1.3,0.1-1.9c0-2.8,0-5.6,0-8.4c0-0.8,0.1-1.8,0.8-2.3
			c0.5-0.3,1.1-0.2,1.7-0.1c1.6,0.3,3.3,0.6,4.9,0.8c0.4,0.1,0.9,0.2,1.2,0.5c0.2,0.4,0.2,0.8,0.1,1.3c-0.5,2.7-0.7,5.4-0.6,8.2
			c0,0.8,0.1,1.6,0,2.4c1.9,1.6,4,3,6.2,4.1c0.7,0.3,1.3,0.6,1.8,1.2c0.5,0.6,0.6,1.5,0.1,2c-0.4,0.5-1.2,0.5-1.8,0.4
			c-4.8-0.3-9.7-1-14.4-2.2c-0.3-0.1-0.6-0.2-0.8-0.4c-0.2-0.2-0.2-0.4-0.3-0.6C72.7,294.6,72.8,293.5,73.1,292.4z"/>
		<path class="st5" d="M82,111c3.1,0.2,6.3-0.4,9.3-1.1c0.8-0.2,1.6-0.4,2.4-0.1c1.2,0.4,1.7,1.7,2.1,2.8
			c5.6,17.5,10.1,35.2,13.7,53.1c5.4,27.4,8.5,55.1,9.2,82.9c-15.7,3.9-32.3,3.2-48.6,2.4c-6.1-0.3-12.2-0.6-18-2
			c-0.7-0.2-1.5-0.4-1.9-0.9c-0.5-0.6-0.5-1.5-0.5-2.2c0.4-7,1.9-13.9,3.3-20.8c6.8-33.1,12.6-66.5,17.6-99.9
			c0.6-4.1,0.2-10.5,2.1-14.2C74.6,107.2,78.5,110.8,82,111z"/>
		<path class="st3" d="M77.2,98.4c0.1,1.5,0.2,2.9,0.7,4.3c1.1,3,3.8,4.7,6.3,6c2,1,4.2,2,6.2,1c1.7-0.8,2.7-2.8,4-4.4
			c1-1.2,2.2-2.1,3.1-3.2c2.1-2.7,2.6-6.6,2.6-10.3c0-4.6-0.8-9.7-3.8-12.7c-1.6-1.6-3.6-2.4-5.7-2.8c-1.9-0.4-3.9-0.6-5.8,0
			c-2.3,0.8-4.3,2.7-5.7,5C75.7,86.9,76.8,92.1,77.2,98.4z"/>
		<g>
			<path class="st6" d="M178.9,93.1c-0.1-0.9-0.6-1.7-1.4-2.1c-0.6-0.3-1.3-0.3-1.9,0s-0.8,1.4-0.8,2.1c0,0.3,0.1,0.6,0,0.8
				c-0.1,0.4-0.9,0.2-0.9,0.7c0,0.3,0.2,0.6,0.4,0.8c0.5,0.6,0.8,0.8,1.4,1.3c0.6,0.6,1,0.1,1.4-0.5C178,95.2,178.9,94.5,178.9,93.1
				z"/>
			<path class="st6" d="M109.5,106.4c-2.7,1.3-5.9,0.8-8.8,1.7c-3.2,1-5.7,3.7-6.7,6.9c-1,3.2-0.5,6.7,0.9,9.7
				c1.8,3.8,5.3,6.9,9.4,7.6c4.1,0.7,8.8-1.3,10.6-5.1c0.2-0.5,0.4-0.9,0.7-1.3c0.6-0.7,1.7-1.1,2.6-0.8c0.9,0.3,1.6,1.1,1.7,2.1
				c-0.6-1.4,0.1-3.2,1.3-4.2s2.7-1.5,4.3-1.8c0.8-0.2,1.6-0.3,2.3-0.1s1.4,0.9,1.4,1.7c1.4,0,2.6-0.8,3.7-1.5
				c1.2-0.8,2.5-1.6,3.4-2.7c1.2-1.5,1.6-3.6,1.5-5.5c-0.1-1.9-0.8-3.8-1.4-5.7c-0.7-1.9-1.5-3.9-3.1-5.1c-1.4-1.1-3.2-1.5-4.9-1.7
				c-2.3-0.2-4.6,0.1-6.8,0.9c0.8,2.2-1.2,4.4-3.4,5.3c-1.9,0.7-4.5,0.5-5.3-1.3c-0.3-0.8-0.4-1.8-1.2-2.1
				C111.3,104.6,110.8,105.7,109.5,106.4z"/>
			<path class="st7" d="M133.2,107.2c1.6-0.7,3.3-1.3,5.1-1.9c3.5-1.2,7.2-2.1,10.9-3.2c3.8-1.1,7.4-2.4,11.1-3.6
				c2-0.7,4.1-1.3,6.1-1.9c0,0,0.1,0,0.1,0l7.6-3c0.2-0.1,0.5-0.1,0.8,0c0.2,0.1,0.3,0.3,0.4,0.5c0.5,0.8,0.6,0.8,1.1,1.6
				c0.2,0.4,0.5,1,0.2,1.4c-0.1,0.1-0.3,0.2-0.5,0.3l-7.8,2.5c0,0,0,0,0,0c-1.6,0.5-3.2,1-4.8,1.5c-3.5,1.2-7.1,2.2-10.7,3.2
				c-3.7,1.1-7.2,2.5-10.9,3.7c-1.8,0.6-3.6,1.1-5.4,1.7c-0.9,0.3-2.9,1-3.9,1.2l-13.9,4.8c0,0-1.5-3.4-1.3-3.8
				C117.7,111.8,133.2,107.2,133.2,107.2z"/>
			<path class="st4" d="M97.7,124.7c0.7-0.6,1.5-1.1,2.2-1.6c0.4-0.3,0.8-0.5,1.2-0.9c0.6-0.7,0.8-1.7,0.9-2.7
				c0.1-1.3,0.2-2.6,0.1-3.9c0-0.9-0.1-1.8-0.5-2.6c-0.3-0.6-0.7-1.1-1.2-1.6c-0.3-0.3-0.6-0.6-0.9-0.8c-1.3-0.9-3.3-0.6-4.3,0.8
				c-0.6,0.8-0.9,1.7-1.1,2.7c-0.7,2.8-1.3,5.8-0.8,8.6c0.2,1,0.6,2.9,1.6,3.3C95.9,126.4,97.1,125.2,97.7,124.7z"/>
			<path class="st8" d="M112.6,118.2c0,0.1,0.1,0.1,0.1,0.1c0,0,0.1,0,0.1,0c0.1-0.1,0.3-0.1,0.3-0.3c0-0.1,0-0.2,0-0.2
				c-0.3-1-0.7-2-1-3c-0.2-0.4-0.3-0.8-0.3-1.2c0-0.1-0.5,0-0.5,0.1c-0.1,0.2-0.1,0.1-0.1,0.3c0,0.4,0.3,0.9,0.4,1.3
				C111.9,116.3,112.2,117.2,112.6,118.2z"/>
			<path class="st9" d="M172.2,95.5c-1,0.3-0.2,0-1.3,0.3c-1.3,0.4-2.6,0.9-3.8,1.3c-3,1-6.1,2-9.2,3c-6.1,1.9-12.2,3.9-18.3,5.8
				c-6.2,2-12.5,4-18.7,6c-3.1,1-6.2,2-9.3,2.9c-3.1,0.9-6.2,2-9.2,2.9c-0.2,0.1-0.2,0.1,0,0c3.1-0.9,6.2-1.9,9.2-2.9
				c3-0.9,6-1.9,9-2.8c6.3-2,12.7-4.1,19-6.1c6-1.9,12-3.8,18-5.7c2.8-0.9,5.7-1.8,8.5-2.7c1.6-0.5,3.2-1.1,4.8-1.6
				C172,95.6,171.1,95.9,172.2,95.5C172.5,95.4,172.5,95.4,172.2,95.5z"/>
			<path class="st9" d="M169.4,97.1c-0.6,0.2-1.3,0.4-1.9,0.7c-3,1-6.1,2-9.2,3c-6.1,1.9-12.2,3.9-18.3,5.8c-6.2,2-12.5,4-18.7,6
				c-3.1,1-6.2,2-9.3,2.9c-3.1,0.9-6.2,2-9.2,2.9c-0.2,0.1-0.2,0.1,0,0c3.1-0.9,6.2-1.9,9.2-2.9c3-0.9,6-1.9,9-2.8
				c6.3-2,12.7-4.1,19-6.1c6-1.9,12-3.8,18-5.7c2.8-0.9,5.7-1.8,8.5-2.7C167.5,97.8,168.4,97.5,169.4,97.1
				C169.4,97.1,169.4,97.1,169.4,97.1z"/>
			<path class="st9" d="M170.4,97.6c-0.7,0.2-1.4,0.5-2.1,0.7c-3,1-6.1,2-9.2,3c-6.1,1.9-12.2,3.9-18.3,5.8c-6.2,2-12.5,4-18.7,6
				c-3.1,1-6.2,2-9.3,2.9c-3.1,0.9-6.6,2.1-9.7,3c-0.2,0.1-0.2,0.1,0,0c3.1-0.9,6.6-2.1,9.7-3c3-0.9,6-1.9,9-2.8
				c6.3-2,12.7-4.1,19-6.1c6-1.9,12-3.8,18-5.7c2.8-0.9,5.7-1.8,8.5-2.7C168.3,98.4,169.4,98.1,170.4,97.6
				C170.4,97.7,170.4,97.6,170.4,97.6z"/>
			<path class="st9" d="M174.6,97.1c-1,0.3-0.4,0.1-1.4,0.4c-1.3,0.4-2.6,0.9-3.8,1.3c-3,1-6.1,2-9.2,3c-6.1,1.9-12.2,3.9-18.3,5.8
				c-6.2,2-12.5,4-18.7,6c-3.1,1-6.2,2-9.3,2.9c-3.1,0.9-7.1,2.2-10.2,3.2c-0.2,0.1-0.2,0.1,0,0c3.1-0.9,7.1-2.2,10.2-3.1
				c3-0.9,6-1.9,9-2.8c6.3-2,12.7-4.1,19-6.1c6-1.9,12-3.8,18-5.7c2.8-0.9,5.7-1.8,8.5-2.7c1.6-0.5,3.2-1.1,4.8-1.6
				C174.3,97.3,173.6,97.5,174.6,97.1C175,97.1,174.9,97,174.6,97.1z"/>
			<path class="st4" d="M107.3,118.9c0.1-0.1,0.3-0.1,0.4-0.2c0.1-0.1,0.1-0.2,0.1-0.4c0.1-0.4,0.1-0.8,0.2-1.3c0-0.2,0-0.4,0-0.6
				c-0.2-0.7-1-0.9-1.7-0.9c-1.2,0-2.4,0.5-3.3,1.3c-0.9,0.8-1.7,1.8-2.2,2.9c-0.2,0.4-0.6,1.3,0.1,1.5c0.5,0.1,1.6-0.5,2.1-0.7
				C104.3,119.9,105.8,119.4,107.3,118.9z"/>
			<path class="st7" d="M119.3,117.8c-0.1,0.2,0.1,0.4,0.3,0.3c0.1,0.2,0.3,0.4,0.4,0.5c-0.5,1.1-1.2,1.5-2,1.2
				c-0.4,0-0.9-0.2-1.3-0.2c-0.6-0.1-1.2-0.2-1.9-0.2c-0.9,0-1.9,0.3-2.5,1.1c-0.9,1.1-0.3,3.5,1.3,2.3c0.4-0.3,0-0.9-0.4-0.7
				c-0.2-0.3-0.4-0.6-0.5-0.9c0.3-0.4,0.6-0.7,1.1-0.8c0.5-0.2,1-0.2,1.5-0.2c0.8,0,1.6,0.2,2.5,0.3c0.9,0.1,2.1,0.1,2.8-0.7
				C121.2,118.8,120.3,116.4,119.3,117.8z"/>
			<path class="st7" d="M116,108.7c-0.7,0-1.3,0.3-1.8,0.7c-0.3,0.2-0.6,0.4-0.8,0.7c-0.2,0.3-0.4,0.5-0.6,0.8
				c-0.6,0.8-1.4,0.9-2.3,0.2c0.2-0.3-0.4-0.7-0.5-0.3c-0.5,1.1,0.4,1.9,1.5,1.7c0.7-0.1,1.3-0.6,1.8-1.1c0.3-0.4,0.6-0.8,1-1.2
				c1.2-1.1,3-1.2,3.3,0.6c0,0.2,0.2,0.1,0.2,0C117.8,109.7,117.1,108.7,116,108.7z"/>
			<path class="st7" d="M167.8,94.8c0.1,0.1,0.1,0.2,0.3,0.3c0.1,0.1,0.3,0.1,0.4,0.1s0.2-0.2,0.2-0.3s0-0.3-0.1-0.4
				c-0.1-0.4-0.3-0.7-0.5-1.1c0,0,0-0.1-0.1-0.1c-0.1,0-0.1-0.1-0.2-0.1C166.7,93.2,167.5,94.3,167.8,94.8z"/>
			<path class="st7" d="M170.6,93.3c0.1,0.2,0.2,0.4,0.3,0.5c0.1,0.2,0.4,0.2,0.6,0.2c0.2,0,0.3-0.1,0.5-0.2c0,0,0.1-0.1,0.1-0.1
				c0-0.1,0-0.1,0-0.2c-0.1-0.3-0.2-0.6-0.4-0.9c0-0.1-0.1-0.2-0.2-0.2c0,0-0.1,0-0.1,0c-0.3,0-0.6,0-0.9,0.2
				c-0.1,0.1-0.2,0.1-0.1,0.3C170.4,93,170.5,93.1,170.6,93.3z"/>
			<path class="st7" d="M170.8,98.5c0.1,0,0.2-0.1,0.3-0.1c0.2,0,0.3,0.1,0.4,0.2c0.1,0.1,0.2,0.2,0.3,0.4c0.2,0.4,0.4,0.8,0.5,1.3
				c0,0,0,0.1,0,0.1c0,0,0,0-0.1,0.1c-0.3,0.2-0.7,0.3-1,0.3c-0.1,0-0.3,0-0.4-0.1c-0.1,0-0.1-0.1-0.2-0.2c-0.3-0.3-0.5-0.7-0.7-1.1
				c-0.2-0.3-0.3-0.6,0.1-0.7C170.3,98.7,170.5,98.6,170.8,98.5z"/>
			<path class="st7" d="M174.2,98.3c0.1,0.2,0.2,0.4,0.4,0.6c0.1,0.1,0.1,0.2,0.3,0.3c0.1,0.1,0.2,0.1,0.4,0.1
				c0.1,0,0.1-0.1,0.2-0.1s0.1-0.1,0.2-0.1c0,0,0.1-0.1,0.1-0.1c0-0.1,0.1-0.1,0.1-0.2c0-0.3-0.1-0.6-0.2-0.9
				c-0.1-0.1-0.1-0.2-0.2-0.4c0-0.1-0.1-0.1-0.1-0.1s-0.1,0-0.2,0c-0.2,0-0.4,0-0.7,0.1c-0.2,0.1-0.4,0.2-0.4,0.3
				c0,0.1,0.1,0.2,0.1,0.3C174.1,98.1,174.1,98.2,174.2,98.3z"/>
			<path class="st7" d="M170,98.5c-0.2-0.4-0.4-0.8-0.3-1.2c0,0,0-0.1,0.1-0.1c0,0,0.1,0,0.1,0c0.1,0,0.1-0.1,0.2-0.1
				c0.1,0,0.2,0,0.2,0.1c0.1,0.1,0.1,0.1,0.1,0.2c0.2,0.4,0.5,0.8,0.6,1.3c0,0,0,0.1,0,0.1c0,0,0,0-0.1,0.1
				c-0.1,0.1-0.4,0.2-0.6,0.2c-0.1,0-0.1-0.2-0.2-0.2C170.1,98.7,170,98.6,170,98.5z"/>
			<path class="st7" d="M173.9,96.8c0-0.1-0.1-0.2-0.1-0.2s0-0.2,0.1-0.2c0.1,0,0.1-0.1,0.2-0.1c0,0,0.1,0,0.1,0
				c0.1,0,0.1,0.1,0.1,0.1c0.2,0.3,0.4,0.6,0.6,1c0,0.1,0,0.2,0,0.2c0,0.1-0.1,0.1-0.2,0.1c-0.2,0.1-0.4,0.1-0.5-0.2
				C174.1,97.3,173.9,97.1,173.9,96.8z"/>
			<path class="st7" d="M168.4,95.6c0.1,0.2,0.3,0.4,0.4,0.6c0.1,0.3,0.2,0.5,0.4,0.8c0,0,0.1,0.1,0.1,0.1c0,0,0.1,0,0.1,0
				c0.1,0,0.2,0,0.2-0.1c0-0.1,0-0.1,0-0.2c-0.1-0.7-0.4-1.4-0.9-2c-0.1-0.2-0.6-0.4-0.6-0.1C168,95,168.3,95.4,168.4,95.6z"/>
			<path class="st7" d="M171.5,94.6c0.1,0.2,0.3,0.4,0.4,0.6c0.1,0.2,0.2,0.5,0.4,0.7c0,0,0,0,0.1,0c0,0,0.1,0,0.1,0
				c0.1,0,0.3-0.1,0.3-0.2c0-0.1,0-0.1,0-0.2c-0.1-0.3-0.2-0.5-0.3-0.8c-0.1-0.3-0.3-0.6-0.4-0.8c-0.1-0.2-0.2-0.3-0.4-0.4
				c-0.1,0-0.3,0-0.4,0.1C171,93.9,171.3,94.3,171.5,94.6z"/>
		</g>
		<path class="st10" d="M110.6,152.5c1.2-5,3.5-9.6,5.5-14.3c2-4.6,4.1-9.2,6.1-13.8c4.1-9.4,8.2-18.8,12.2-28.2
			c0.1-0.2-0.2-0.4-0.3-0.2c-4.4,9.6-8.8,19.3-13.1,28.9c-2.1,4.8-4.2,9.5-6.3,14.3c-1.9,4.3-3.9,8.5-5,13.1
			C109.4,153,110.4,153.2,110.6,152.5z"/>
		<path class="st11" d="M107.4,149.4c1.4-1.2,3.1-2,4.9-2.3c0.9-0.2,2-0.2,2.8,0.4c0.8,0.6,0.9,1.7,1,2.7c0.1,0.9,0.1,1.7,0.1,2.5
			c0,0.3,0,0.6-0.2,0.8c-0.1,0.1-0.3,0.2-0.6,0.2c-2.7,0.6-5.5,0.9-8.3,0.8c-0.5,0-1.1-0.1-1.4-0.4c-0.2-0.2-0.3-0.6-0.4-0.9
			C104.9,151.1,105.8,150.7,107.4,149.4z"/>
		<path class="st11" d="M149.3,106.7c0.3-1,0.5-1.9,1.1-2.8c0.6-0.8,1.5-1.5,2.5-1.4c1.1,0,2.1,0.9,2.4,2c0.4,1.1,0.2,2.2,0,3.3
			c-0.5,1.7-1.5,3.4-3.1,4.3c-1.1,0.6-3.4,0.9-4-0.5C147.7,110.4,149,107.7,149.3,106.7z"/>
		<path class="st2" d="M71.4,132.1c0,1.2,0.1,2.5,0.5,3.6c0.4,1.5,1.2,2.9,2.1,4.2c6.8,9.9,18.9,16,31,15.3c0.6,0,1.2-0.1,1.5-0.6
			c0.2-0.3,0.2-0.6,0.1-0.9c0-1-0.1-1.9-0.2-2.9c-3.2-0.5-6.3-1.1-9.4-1.9c-5.4-1.4-11.3-3.8-13.5-9c-1-2.3-1.1-4.9-1.2-7.4
			c-0.2-3.7-0.3-7.5,0.6-11.2c0.4-1.7,1-3.3,1.2-5c0.4-5.3-6.9-8.2-9.1-3C72.3,119.1,71.2,125.9,71.4,132.1z"/>
		<path class="st12" d="M93.9,74.9c-0.9,0.2-1.9,0.5-2.7,1c-1,0.6-1.9,1.5-2.9,2.2c-3,2.3-7.1,3.6-8.7,7.1c-0.9,1.9-0.8,4.1-0.1,6
			c0.7,1.9,1.9,3.7,3.2,5.3c-1.8-2.7-1.1-6.5,1-9s5.2-3.9,8.3-4.7c2.8-0.7,5.1-1.4,5.8-4.5C98.5,75.8,96.3,74.5,93.9,74.9z"/>
		<path class="st12" d="M76.9,92.4c-0.1,1.7,0.6,3.4,1.6,4.8c1,1.4,2.3,2.6,3.5,3.8c2.2,2.3,4.1,4.9,5.1,7.8s0.9,6.4-0.7,9.2
			c0.4-3.9-0.3-8.4-3.5-10.7c-2-1.4-4.5-1.8-6.6-3.1c-2.6-1.6-4.3-4.6-4.5-7.7s1.1-6.2,3.3-8.3c0.7-0.7,3.8-2.7,3.8-0.5
			c0,0.6-1.1,1.7-1.4,2.3C77.2,90.8,76.9,91.6,76.9,92.4z"/>
		<path class="st12" d="M99.4,97.2c-1.5,3.1-4.1,5.9-3.8,9.3c1-4.1,5.9-5.9,7.8-9.6c1.8-3.6,0.6-7.8-0.3-11.7
			c-0.3-1.5-0.6-3.1-1.3-4.5c-0.9-1.8-3.5-4.2-5.7-2.7c-2.3,1.7,0.2,3.9,1.4,5.2C101,86.9,101.5,92.7,99.4,97.2z"/>
		<path class="st12" d="M96.7,70.7c-4.3-2.7-9.9-1.5-14.8-2.7c-1.3-0.3-2.5-0.8-3.8-0.9c-2.8-0.2-5.4,1.7-7.1,4
			c-1.6,2.3-2.4,5.1-3.3,7.8c-1.2,3.9-2.7,7.8-5.5,10.7c-2.4,2.3-5.8,4-6.8,7.2c-1.4,4.2,2.1,8.7,1.3,13c-0.5,2.7-2.5,4.8-4.2,7
			c-2.6,3.5-4.1,8.5-1.7,12.1c0.9,1.3,2.2,2.3,3.3,3.4c1.5,1.4,2.7,2.9,3.7,4.6c1,1.8,1.8,3.9,1.4,5.9s-2.5,3.8-4.5,3.3
			c2,1.1,4.5,1.1,6.5,0c2-1.1,3.4-3.1,3.6-5.4c0.1-1.2-0.1-2.5,0.7-3.5c1.1-1.5,3.8-1.2,4.8-2.8c0.9-1.4-0.2-3.3-0.6-4.9
			c-0.4-1.4-0.2-2.8-0.1-4.2c0.3-2.4,0.6-4.8,1-7.1c0.3-1.5,0.6-3.1,1.6-4.4c1.8-2.4,5.1-2.9,8.1-2.6c1.4,0.1,3.2,0.3,4.1-0.8
			c0.8-0.9,0.5-2.4-0.2-3.4c-0.7-1-1.7-1.7-2.7-2.4c-3.5-2.8-5.8-7-6.4-11.4c-0.1-0.8-0.2-1.6,0.1-2.4c0.8-2.4,3.9-2.9,6.1-4
			c2.4-1.2,4.1-3.4,6.1-5.2c2-1.8,4.8-3.2,7.3-2.3c2.4,0.8,6.4,4.1,6.2-0.8C100.9,75.3,99.2,72.3,96.7,70.7z"/>
	</g>
	<path id="XMLID_2328_" class="st6" d="M126.6,75.6c0,0-5.5-1.2-6,1.1c-0.5,2.3,0.7,5.4,4.8,5c1.8-0.2,4.7-1.5,5.4-5.2
		c0.8-3.8,1.5-13.2,1.5-13.2s0.2-1.5,3.9-1.2c3.8,0.3,6.2,1.2,6.2,1.2s2.3,0.5,2,1.9c-0.3,1.5,0,8.9-1.1,10.9s-3.2-0.2-4.1,3.1
		c-0.9,3.3,2,6.3,4.6,5.3s3.2-16.4,3.2-16.4s1.4-9.3-0.4-9.9c-1.9-0.6-11.1-2.2-14.4-1.6c0,0-2,0-2.3,1.8
		C129.6,60.2,128.4,75.8,126.6,75.6z"/>
	<path id="XMLID_2327_" class="st4" d="M161.3,49c0,0-6.2-0.4-7.1,3.4c-0.9,3.8,6.3,4.6,8.3,4.5s6.1-3.3,3.3-9.8s-6.9-17-6.9-17
		s1.4-1.9,3.7-2.4s7.9-1.4,10.2-1.5c0,0,0.4-0.1,0.6-0.7s0.4-3.9,0.1-5.9s-18.1,1.9-21.4,3.1c0,0-1,0.5-0.1,2.9
		c0.3,0.9,1,3.9,2.2,6.8c2,5.1,4.8,11,5.8,12.8C161.4,47.8,161.3,49,161.3,49z"/>
</g>
</svg>
