<?xml version="1.0" encoding="utf-8"?>
<!-- Generator: Adobe Illustrator 26.0.0, SVG Export Plug-In . SVG Version: 6.00 Build 0)  -->
<svg version="1.1" id="Ebene_1" xmlns="http://www.w3.org/2000/svg" xmlns:xlink="http://www.w3.org/1999/xlink" x="0px" y="0px"
	 viewBox="0 0 251 312" style="enable-background:new 0 0 251 312;" xml:space="preserve">
<style type="text/css">
	.st0{fill:none;}
	.st1{opacity:6.000000e-02;enable-background:new    ;}
	.st2{clip-path:url(#SVGID_00000032616303766744878690000011656005070240958870_);}
	.st3{filter:url(#Adobe_OpacityMaskFilter);}
	.st4{clip-path:url(#SVGID_00000116929930891148853690000013512479759587463354_);}
	.st5{clip-path:url(#SVGID_00000027587747785545121080000017178462239948147608_);}
	.st6{clip-path:url(#SVGID_00000115489257932929845000000012379311384443057336_);}
	.st7{clip-path:url(#SVGID_00000136410546264855559910000013898888738293870985_);}
	.st8{clip-path:url(#SVGID_00000068647549056806806290000000438244946283869360_);}
	.st9{clip-path:url(#SVGID_00000027581928068742575690000009411792925886973067_);}
	.st10{clip-path:url(#SVGID_00000062892386807096004220000001665935621798975618_);}
	.st11{clip-path:url(#SVGID_00000018218358725330925200000014739693826679049662_);}
	.st12{clip-path:url(#SVGID_00000123431058937656355770000000072023082906512811_);}
	.st13{clip-path:url(#SVGID_00000092420853477490448350000000940437986358793364_);}
	.st14{clip-path:url(#SVGID_00000134234582814373789040000011091714379324944289_);}
	.st15{clip-path:url(#SVGID_00000178168548577857895770000012435395510237456294_);}
	.st16{clip-path:url(#SVGID_00000004533558919840646140000006634397243694385310_);}
	.st17{clip-path:url(#SVGID_00000090287606426155642350000006359993554989026198_);}
	.st18{clip-path:url(#SVGID_00000176023152806043997920000001666944340209172111_);}
	.st19{clip-path:url(#SVGID_00000059284938283474612490000018364266506025023124_);}
	.st20{clip-path:url(#SVGID_00000163775413391916645140000006703304988414927539_);}
	.st21{clip-path:url(#SVGID_00000054252179711604570890000013616941197830349487_);}
	.st22{clip-path:url(#SVGID_00000003069376885745761930000004494626192384940195_);}
	.st23{clip-path:url(#SVGID_00000005263385576029521070000016083858449787877266_);}
	.st24{clip-path:url(#SVGID_00000013905703123957901020000010104929443529058696_);}
	.st25{clip-path:url(#SVGID_00000017482203865370678050000002306802221346602398_);}
	.st26{clip-path:url(#SVGID_00000044158090962251481390000003024297177382381246_);}
	.st27{clip-path:url(#SVGID_00000183234448627739547060000011570724297223485375_);}
	.st28{clip-path:url(#SVGID_00000043421490090086758000000016991431234288820154_);}
	
		.st29{clip-path:url(#SVGID_00000103986052624944478660000000423362163200594592_);fill:url(#SVGID_00000062162798605303466670000010503512323845738675_);}
	
		.st30{clip-path:url(#SVGID_00000116929930891148853690000013512479759587463354_);mask:url(#SVGID_00000043440440479787821180000011883118595661882506_);fill:url(#SVGID_00000120529079862820292830000008044000518178541955_);}
	.st31{opacity:0.35;fill:url(#SVGID_00000141445815373312675640000014074048310711714969_);enable-background:new    ;}
	.st32{fill:#9FBCAB;}
	.st33{fill:#7BAD89;}
	.st34{fill:#DF9C65;}
	.st35{fill:#8BA485;}
	.st36{fill:#6C8965;}
	.st37{fill:#C2A385;}
	.st38{fill:#C5C5C5;}
	.st39{fill:#655044;}
	.st40{fill:#E5E5E5;}
	.st41{fill:#647549;}
	.st42{fill:#AB5451;}
	.st43{fill:#74A381;}
	.st44{fill:#D0742F;}
	.st45{fill:#DA7931;}
	.st46{fill:#EE8336;}
	.st47{fill:#E57F34;}
	.st48{fill:#D6D3A9;}
	.st49{fill:#948074;}
	.st50{fill:#7DA585;}
	.st51{fill:#B0612F;}
	.st52{fill:#596941;}
	.st53{fill:#52613D;}
	.st54{fill:#F3BEC0;}
	.st55{fill:#EC928E;}
	.st56{fill:#3A8F5C;}
	.st57{fill:#317D50;}
	.st58{fill:#2A6C45;}
	.st59{fill:#744339;}
	.st60{fill:#7C4B43;}
	.st61{fill:#8FD2B6;}
	.st62{fill:#837368;}
	.st63{fill:#C3DEE5;}
	.st64{fill:#4F3F35;}
	.st65{fill:#FFB4A0;}
	.st66{fill:#A5B7E1;}
	.st67{fill:#171836;}
	.st68{fill:#4358A4;}
	.st69{fill:#1F3284;}
	.st70{fill:#FFFFFF;}
	.st71{fill:#EEEEEE;}
</style>
<rect x="-0.5" y="-0.5" class="st0" width="251" height="312"/>
<g>
	<path class="st1" d="M97.6,272c-2.8,2.4-4.9,5.1-4.8,9c0.1,3.7,2.4,7.2,5.8,8.8c2.5,1.1,5.3,1.2,8,1.2c15.6-0.1,31.1-3.4,46.2-7.1
		c3.6-0.9,7.3-1.9,10.1-4.4s4-7,1.8-10c15.7-1.3,31.5-2.5,47.2-3.8c9.5-0.8,19.3-1.6,28-5.5c1.7-0.8,3.6-1.9,3.9-3.8
		c0.6-3.3-3.5-5.2-6.8-5.8c-16.4-3-33.1-3.9-49.8-4.5c-44.5-1.6-89.1-1.4-133.6-1.2c-8.4,0-16.9,0.1-25.2,1.6
		c-4.6,0.8-9.2,2.1-13.6,3.7c-4.6,1.7-9.5,6.2-5.5,11c4.5,5.4,11.8,7.6,18.6,9.1c11.6,2.5,23.4,3.9,35.2,4.1
		c5.9,0.1,11.8,0,17.7-0.5C86.5,273.5,92.3,272,97.6,272z"/>
	<g>
		<g>
			<g>
				<g>
					<g>
						<defs>
							<polygon id="SVGID_1_" points="1,1 2,1 1,2 							"/>
						</defs>
						<clipPath id="SVGID_00000090286181307166589020000010610290882891918527_">
							<use xlink:href="#SVGID_1_"  style="overflow:visible;"/>
						</clipPath>
					</g>
					<g>
						<defs>
							<polygon id="SVGID_00000068663768013965403630000015595099715361561274_" points="1,1 2,1 1,2 							"/>
						</defs>
						<defs>
							<polygon id="SVGID_00000175295020977751612700000002864269778757269173_" points="-1,-1 -2,-1 -1,-2 							"/>
						</defs>
						<clipPath id="SVGID_00000174587152094324641590000015383669951415453341_">
							<use xlink:href="#SVGID_00000068663768013965403630000015595099715361561274_"  style="overflow:visible;"/>
						</clipPath>
						
							<clipPath id="SVGID_00000163753252256309272110000011507763180701788067_" style="clip-path:url(#SVGID_00000174587152094324641590000015383669951415453341_);">
							<use xlink:href="#SVGID_00000175295020977751612700000002864269778757269173_"  style="overflow:visible;"/>
						</clipPath>
						<defs>
							<filter id="Adobe_OpacityMaskFilter" filterUnits="userSpaceOnUse" x="162.3" y="259.7" width="58.3" height="6.3">
								<feColorMatrix  type="matrix" values="1 0 0 0 0  0 1 0 0 0  0 0 1 0 0  0 0 0 1 0"/>
							</filter>
						</defs>
						
							<mask maskUnits="userSpaceOnUse" x="162.3" y="259.7" width="58.3" height="6.3" id="SVGID_00000043440440479787821180000011883118595661882506_">
							<g class="st3">
								<g>
									<g>
										<g>
											<defs>
												<polygon id="SVGID_00000041272209172193832140000004376969957964790707_" points="1,1 2,1 1,2 												"/>
											</defs>
											<defs>
												<polygon id="SVGID_00000142884704766912378340000012457341783234514097_" points="-1,-1 -2,-1 -1,-2 												"/>
											</defs>
											
												<clipPath id="SVGID_00000009585250298982132540000009619051351143690132_" style="clip-path:url(#SVGID_00000163753252256309272110000011507763180701788067_);">
												<use xlink:href="#SVGID_00000041272209172193832140000004376969957964790707_"  style="overflow:visible;"/>
											</clipPath>
											
												<clipPath id="SVGID_00000178185818682654805670000001506824493724913026_" style="clip-path:url(#SVGID_00000009585250298982132540000009619051351143690132_);">
												<use xlink:href="#SVGID_00000142884704766912378340000012457341783234514097_"  style="overflow:visible;"/>
											</clipPath>
										</g>
										<g>
											<defs>
												<polygon id="SVGID_00000103244967357569748030000010679975019769203866_" points="1,1 2,1 1,2 												"/>
											</defs>
											<defs>
												<polygon id="SVGID_00000025432384117643157130000000214974389518061491_" points="-1,-1 -2,-1 -1,-2 												"/>
											</defs>
											<defs>
												<polygon id="SVGID_00000146487245983308220690000013229984653088908222_" points="1,1 2,1 1,2 												"/>
											</defs>
											
												<clipPath id="SVGID_00000110467755803318173310000015138951902815453093_" style="clip-path:url(#SVGID_00000163753252256309272110000011507763180701788067_);">
												<use xlink:href="#SVGID_00000103244967357569748030000010679975019769203866_"  style="overflow:visible;"/>
											</clipPath>
											
												<clipPath id="SVGID_00000173152946821157608980000000274628156435999873_" style="clip-path:url(#SVGID_00000110467755803318173310000015138951902815453093_);">
												<use xlink:href="#SVGID_00000025432384117643157130000000214974389518061491_"  style="overflow:visible;"/>
											</clipPath>
											
												<clipPath id="SVGID_00000110453460567220687560000000408148955704670388_" style="clip-path:url(#SVGID_00000173152946821157608980000000274628156435999873_);">
												<use xlink:href="#SVGID_00000146487245983308220690000013229984653088908222_"  style="overflow:visible;"/>
											</clipPath>
										</g>
									</g>
									<g>
										<g>
											<defs>
												<polygon id="SVGID_00000117668837306262887780000009044958893890629285_" points="1,1 2,1 1,2 												"/>
											</defs>
											<defs>
												<polygon id="SVGID_00000124873029854033867540000007214958237555553960_" points="-1,-1 -2,-1 -1,-2 												"/>
											</defs>
											
												<clipPath id="SVGID_00000003814620455057290260000015734215136299138998_" style="clip-path:url(#SVGID_00000163753252256309272110000011507763180701788067_);">
												<use xlink:href="#SVGID_00000117668837306262887780000009044958893890629285_"  style="overflow:visible;"/>
											</clipPath>
											
												<clipPath id="SVGID_00000100357334984000508310000005789461379054721922_" style="clip-path:url(#SVGID_00000003814620455057290260000015734215136299138998_);">
												<use xlink:href="#SVGID_00000124873029854033867540000007214958237555553960_"  style="overflow:visible;"/>
											</clipPath>
										</g>
										<g>
											<defs>
												<polygon id="SVGID_00000087402573318136390850000009677833985627176639_" points="1,1 2,1 1,2 												"/>
											</defs>
											<defs>
												<polygon id="SVGID_00000168821876414670274570000015736614301620929722_" points="-1,-1 -2,-1 -1,-2 												"/>
											</defs>
											<defs>
												<polygon id="SVGID_00000103975486115994750700000006783089057903865997_" points="1,1 2,1 1,2 												"/>
											</defs>
											
												<clipPath id="SVGID_00000033331878704531672680000012389564592981676458_" style="clip-path:url(#SVGID_00000163753252256309272110000011507763180701788067_);">
												<use xlink:href="#SVGID_00000087402573318136390850000009677833985627176639_"  style="overflow:visible;"/>
											</clipPath>
											
												<clipPath id="SVGID_00000043432005308892324460000008394992644832277644_" style="clip-path:url(#SVGID_00000033331878704531672680000012389564592981676458_);">
												<use xlink:href="#SVGID_00000168821876414670274570000015736614301620929722_"  style="overflow:visible;"/>
											</clipPath>
											
												<clipPath id="SVGID_00000130630780536775835360000002270714970038341271_" style="clip-path:url(#SVGID_00000043432005308892324460000008394992644832277644_);">
												<use xlink:href="#SVGID_00000103975486115994750700000006783089057903865997_"  style="overflow:visible;"/>
											</clipPath>
										</g>
										<g>
											<defs>
												<polygon id="SVGID_00000148658251599238041260000007380327088246764678_" points="1,1 2,1 1,2 												"/>
											</defs>
											<defs>
												<polygon id="SVGID_00000051371270869241920210000009818299953261391526_" points="-1,-1 -2,-1 -1,-2 												"/>
											</defs>
											<defs>
												<polygon id="SVGID_00000100363667503749789410000002824836534404044950_" points="1,1 2,1 1,2 												"/>
											</defs>
											<defs>
												<polygon id="SVGID_00000139253127162141450450000010942177903408622007_" points="-1,-1 -2,-1 -1,-2 												"/>
											</defs>
											
												<clipPath id="SVGID_00000073698200784137056500000015293434846951509914_" style="clip-path:url(#SVGID_00000163753252256309272110000011507763180701788067_);">
												<use xlink:href="#SVGID_00000148658251599238041260000007380327088246764678_"  style="overflow:visible;"/>
											</clipPath>
											
												<clipPath id="SVGID_00000151544517287638452760000012103191827286947255_" style="clip-path:url(#SVGID_00000073698200784137056500000015293434846951509914_);">
												<use xlink:href="#SVGID_00000051371270869241920210000009818299953261391526_"  style="overflow:visible;"/>
											</clipPath>
											
												<clipPath id="SVGID_00000097460021590280152510000014660456409425780911_" style="clip-path:url(#SVGID_00000151544517287638452760000012103191827286947255_);">
												<use xlink:href="#SVGID_00000100363667503749789410000002824836534404044950_"  style="overflow:visible;"/>
											</clipPath>
											
												<clipPath id="SVGID_00000070100466267431072900000004730929445327234468_" style="clip-path:url(#SVGID_00000097460021590280152510000014660456409425780911_);">
												<use xlink:href="#SVGID_00000139253127162141450450000010942177903408622007_"  style="overflow:visible;"/>
											</clipPath>
										</g>
									</g>
									<g>
										<g>
											<defs>
												<polygon id="SVGID_00000046301671922756074970000003647037375893502343_" points="1,1 2,1 1,2 												"/>
											</defs>
											<defs>
												<polygon id="SVGID_00000058581658869326949120000012681337316168814489_" points="-1,-1 -2,-1 -1,-2 												"/>
											</defs>
											
												<clipPath id="SVGID_00000153674718239941451930000005310219080989849473_" style="clip-path:url(#SVGID_00000163753252256309272110000011507763180701788067_);">
												<use xlink:href="#SVGID_00000046301671922756074970000003647037375893502343_"  style="overflow:visible;"/>
											</clipPath>
											
												<clipPath id="SVGID_00000183219851144274927380000001118612540941270458_" style="clip-path:url(#SVGID_00000153674718239941451930000005310219080989849473_);">
												<use xlink:href="#SVGID_00000058581658869326949120000012681337316168814489_"  style="overflow:visible;"/>
											</clipPath>
										</g>
										<g>
											<defs>
												<polygon id="SVGID_00000125593538251304330620000015195253739275456404_" points="1,1 2,1 1,2 												"/>
											</defs>
											<defs>
												<polygon id="SVGID_00000153696044516431889390000008592671549038454186_" points="-1,-1 -2,-1 -1,-2 												"/>
											</defs>
											<defs>
												<polygon id="SVGID_00000023282858905500131290000010978496260853659820_" points="1,1 2,1 1,2 												"/>
											</defs>
											
												<clipPath id="SVGID_00000078749027476331194770000011342406588387403955_" style="clip-path:url(#SVGID_00000163753252256309272110000011507763180701788067_);">
												<use xlink:href="#SVGID_00000125593538251304330620000015195253739275456404_"  style="overflow:visible;"/>
											</clipPath>
											
												<clipPath id="SVGID_00000042696408363235690330000013589062024679069610_" style="clip-path:url(#SVGID_00000078749027476331194770000011342406588387403955_);">
												<use xlink:href="#SVGID_00000153696044516431889390000008592671549038454186_"  style="overflow:visible;"/>
											</clipPath>
											
												<clipPath id="SVGID_00000119111145645500147550000009614011113385022142_" style="clip-path:url(#SVGID_00000042696408363235690330000013589062024679069610_);">
												<use xlink:href="#SVGID_00000023282858905500131290000010978496260853659820_"  style="overflow:visible;"/>
											</clipPath>
										</g>
										<g>
											<defs>
												<polygon id="SVGID_00000019671020515201610270000015595372952427696825_" points="1,1 2,1 1,2 												"/>
											</defs>
											<defs>
												<polygon id="SVGID_00000119086847046417264670000017105948624562015109_" points="-1,-1 -2,-1 -1,-2 												"/>
											</defs>
											<defs>
												<polygon id="SVGID_00000052816662071079560580000004726363046920776331_" points="1,1 2,1 1,2 												"/>
											</defs>
											<defs>
												<polygon id="SVGID_00000150083247717680570740000008569172901448216253_" points="-1,-1 -2,-1 -1,-2 												"/>
											</defs>
											
												<clipPath id="SVGID_00000031929151538375510400000004739246844805331122_" style="clip-path:url(#SVGID_00000163753252256309272110000011507763180701788067_);">
												<use xlink:href="#SVGID_00000019671020515201610270000015595372952427696825_"  style="overflow:visible;"/>
											</clipPath>
											
												<clipPath id="SVGID_00000104678641449624084790000006700601411488033942_" style="clip-path:url(#SVGID_00000031929151538375510400000004739246844805331122_);">
												<use xlink:href="#SVGID_00000119086847046417264670000017105948624562015109_"  style="overflow:visible;"/>
											</clipPath>
											
												<clipPath id="SVGID_00000111181457045885770310000004217370483800006567_" style="clip-path:url(#SVGID_00000104678641449624084790000006700601411488033942_);">
												<use xlink:href="#SVGID_00000052816662071079560580000004726363046920776331_"  style="overflow:visible;"/>
											</clipPath>
											
												<clipPath id="SVGID_00000130613100035430227420000002537334927129444756_" style="clip-path:url(#SVGID_00000111181457045885770310000004217370483800006567_);">
												<use xlink:href="#SVGID_00000150083247717680570740000008569172901448216253_"  style="overflow:visible;"/>
											</clipPath>
										</g>
										<g>
											<defs>
												<polygon id="SVGID_00000018220482324789243200000013276461807014735264_" points="1,1 2,1 1,2 												"/>
											</defs>
											<defs>
												<polygon id="SVGID_00000156588751264188302820000014112237619255014293_" points="-1,-1 -2,-1 -1,-2 												"/>
											</defs>
											<defs>
												<polygon id="SVGID_00000070098708896367855110000016805065074939323838_" points="1,1 2,1 1,2 												"/>
											</defs>
											<defs>
												<polygon id="SVGID_00000120555706595021702250000001358546053704726913_" points="-1,-1 -2,-1 -1,-2 												"/>
											</defs>
											<defs>
												<polygon id="SVGID_00000163069925890266789460000016214290621332506761_" points="1,1 2,1 1,2 												"/>
											</defs>
											
												<clipPath id="SVGID_00000051350661231031061770000014535999841196431029_" style="clip-path:url(#SVGID_00000163753252256309272110000011507763180701788067_);">
												<use xlink:href="#SVGID_00000018220482324789243200000013276461807014735264_"  style="overflow:visible;"/>
											</clipPath>
											
												<clipPath id="SVGID_00000026141510533934304740000010416099719807524031_" style="clip-path:url(#SVGID_00000051350661231031061770000014535999841196431029_);">
												<use xlink:href="#SVGID_00000156588751264188302820000014112237619255014293_"  style="overflow:visible;"/>
											</clipPath>
											
												<clipPath id="SVGID_00000136397442711096622850000011855813085769984139_" style="clip-path:url(#SVGID_00000026141510533934304740000010416099719807524031_);">
												<use xlink:href="#SVGID_00000070098708896367855110000016805065074939323838_"  style="overflow:visible;"/>
											</clipPath>
											
												<clipPath id="SVGID_00000104682126658337021790000003015678985787199360_" style="clip-path:url(#SVGID_00000136397442711096622850000011855813085769984139_);">
												<use xlink:href="#SVGID_00000120555706595021702250000001358546053704726913_"  style="overflow:visible;"/>
											</clipPath>
											
												<clipPath id="SVGID_00000111172228035304561440000011310927033958104730_" style="clip-path:url(#SVGID_00000104682126658337021790000003015678985787199360_);">
												<use xlink:href="#SVGID_00000163069925890266789460000016214290621332506761_"  style="overflow:visible;"/>
											</clipPath>
										</g>
										<g>
											<defs>
												<polygon id="SVGID_00000159465864173305220550000013362860801096164535_" points="1,1 2,1 1,2 												"/>
											</defs>
											<defs>
												<polygon id="SVGID_00000067935406360859425330000014653063384019602111_" points="-1,-1 -2,-1 -1,-2 												"/>
											</defs>
											<defs>
												<polygon id="SVGID_00000148643888408826283970000007162380469559208342_" points="1,1 2,1 1,2 												"/>
											</defs>
											<defs>
												<polygon id="SVGID_00000052794526684418327330000000696620313754907531_" points="-1,-1 -2,-1 -1,-2 												"/>
											</defs>
											<defs>
												<polygon id="SVGID_00000138569571745744284940000002122036057586692505_" points="1,1 2,1 1,2 												"/>
											</defs>
											<defs>
												<polygon id="SVGID_00000141416610605694877490000003471434997003173764_" points="-1,-1 -2,-1 -1,-2 												"/>
											</defs>
											
												<clipPath id="SVGID_00000060019625492127695070000000538324122388163725_" style="clip-path:url(#SVGID_00000163753252256309272110000011507763180701788067_);">
												<use xlink:href="#SVGID_00000159465864173305220550000013362860801096164535_"  style="overflow:visible;"/>
											</clipPath>
											
												<clipPath id="SVGID_00000014598620556156144280000005100204766776131503_" style="clip-path:url(#SVGID_00000060019625492127695070000000538324122388163725_);">
												<use xlink:href="#SVGID_00000067935406360859425330000014653063384019602111_"  style="overflow:visible;"/>
											</clipPath>
											
												<clipPath id="SVGID_00000094582030029723386390000015641278919447894150_" style="clip-path:url(#SVGID_00000014598620556156144280000005100204766776131503_);">
												<use xlink:href="#SVGID_00000148643888408826283970000007162380469559208342_"  style="overflow:visible;"/>
											</clipPath>
											
												<clipPath id="SVGID_00000130605812506190178660000013568093809639806143_" style="clip-path:url(#SVGID_00000094582030029723386390000015641278919447894150_);">
												<use xlink:href="#SVGID_00000052794526684418327330000000696620313754907531_"  style="overflow:visible;"/>
											</clipPath>
											
												<clipPath id="SVGID_00000174560427842491909290000015128581309751325112_" style="clip-path:url(#SVGID_00000130605812506190178660000013568093809639806143_);">
												<use xlink:href="#SVGID_00000138569571745744284940000002122036057586692505_"  style="overflow:visible;"/>
											</clipPath>
											
												<clipPath id="SVGID_00000042009798980103465650000005908892049134758569_" style="clip-path:url(#SVGID_00000174560427842491909290000015128581309751325112_);">
												<use xlink:href="#SVGID_00000141416610605694877490000003471434997003173764_"  style="overflow:visible;"/>
											</clipPath>
											
												<linearGradient id="SVGID_00000098210918467638788430000014664832057875020728_" gradientUnits="userSpaceOnUse" x1="445.1844" y1="-975.8886" x2="503.4247" y2="-975.8886" gradientTransform="matrix(0.9987 5.110000e-02 4.120000e-02 -0.8045 -242.0872 -546.4325)">
												<stop  offset="0" style="stop-color:#FFFFFF"/>
												<stop  offset="1" style="stop-color:#000000"/>
											</linearGradient>
											
												<path style="clip-path:url(#SVGID_00000042009798980103465650000005908892049134758569_);fill:url(#SVGID_00000098210918467638788430000014664832057875020728_);" d="
												M162.6,261.6c-0.9,1.2,0.3,2.1,1.4,2.5c3.1,1.1,7.7,1,11.1,1.2c11.9,1,23.8,0.8,35.6,0.2c2.9-0.1,5.9-0.3,8.7-1
												c0.4-0.1,0.8-0.2,1-0.5c0.3-0.4,0.1-1-0.3-1.3c-0.4-0.3-1-0.5-1.6-0.6c-13.9-3.1-28.9-2.4-43.2-2.5
												C164.6,259.7,162.9,261.3,162.6,261.6z"/>
										</g>
									</g>
								</g>
							</g>
						</mask>
						
							<linearGradient id="SVGID_00000006700262228969176090000000429136578528716724_" gradientUnits="userSpaceOnUse" x1="445.1844" y1="-975.8886" x2="503.4247" y2="-975.8886" gradientTransform="matrix(0.9987 5.110000e-02 4.120000e-02 -0.8045 -242.0872 -546.4325)">
							<stop  offset="0" style="stop-color:#FFFFFF"/>
							<stop  offset="1" style="stop-color:#000000"/>
						</linearGradient>
						
							<path style="clip-path:url(#SVGID_00000163753252256309272110000011507763180701788067_);mask:url(#SVGID_00000043440440479787821180000011883118595661882506_);fill:url(#SVGID_00000006700262228969176090000000429136578528716724_);" d="
							M162.6,261.6c-0.9,1.2,0.3,2.1,1.4,2.5c3.1,1.1,7.7,1,11.1,1.2c11.9,1,23.8,0.8,35.6,0.2c2.9-0.1,5.9-0.3,8.7-1
							c0.4-0.1,0.8-0.2,1-0.5c0.3-0.4,0.1-1-0.3-1.3c-0.4-0.3-1-0.5-1.6-0.6c-13.9-3.1-28.9-2.4-43.2-2.5
							C164.6,259.7,162.9,261.3,162.6,261.6z"/>
					</g>
				</g>
			</g>
		</g>
		
			<linearGradient id="SVGID_00000110444161019365850060000011989410601299027862_" gradientUnits="userSpaceOnUse" x1="445.1844" y1="-975.8886" x2="503.4247" y2="-975.8886" gradientTransform="matrix(0.9987 5.110000e-02 4.120000e-02 -0.8045 -242.0872 -546.4325)">
			<stop  offset="0" style="stop-color:#1A1818"/>
			<stop  offset="1" style="stop-color:#FFFFFF"/>
		</linearGradient>
		<path style="opacity:0.35;fill:url(#SVGID_00000110444161019365850060000011989410601299027862_);enable-background:new    ;" d="
			M162.6,261.6c-0.9,1.2,0.3,2.1,1.4,2.5c3.1,1.1,7.7,1,11.1,1.2c11.9,1,23.8,0.8,35.6,0.2c2.9-0.1,5.9-0.3,8.7-1
			c0.4-0.1,0.8-0.2,1-0.5c0.3-0.4,0.1-1-0.3-1.3c-0.4-0.3-1-0.5-1.6-0.6c-13.9-3.1-28.9-2.4-43.2-2.5
			C164.6,259.7,162.9,261.3,162.6,261.6z"/>
		<g>
			<g>
				<g>
					<path class="st32" d="M91.4,158.4c-0.1,0-0.1-0.1,0-0.1c0.1,0,0.2,0,0.3,0c0-0.1,0-0.1,0.1-0.2c-0.1-0.1-0.1-0.2-0.2-0.3
						c0,0,0-0.1,0.1,0c0.1,0.1,0.1,0.1,0.2,0.2c0.1-0.1,0.1-0.2,0.2-0.3c0,0,0,0,0,0c-0.1-0.1-0.2-0.1-0.2-0.2c-0.1,0,0-0.1,0.1-0.1
						c0.1,0.1,0.2,0.1,0.3,0.2c0,0,0,0,0,0c0.1-0.1,0.2-0.2,0.3-0.3c0.1-0.1,0.1-0.1,0.2-0.1c-0.1-0.1-0.1-0.3-0.2-0.4
						c0-0.1,0.1-0.1,0.1-0.1c0.1,0.1,0.2,0.3,0.2,0.4c0.1,0,0.1-0.1,0.2-0.1l0,0c0-0.1,0.1-0.2,0.2-0.3c0,0,0.1,0,0.1,0
						c0,0.1-0.1,0.2-0.1,0.3c0.1,0,0.3-0.1,0.4-0.1c0,0,0,0,0,0c0-0.1,0-0.2,0-0.3c0,0,0.1-0.1,0.1,0c0,0.1,0,0.2,0.1,0.2
						c0,0,0,0,0,0.1c0.1,0,0.2,0,0.2,0c0.1,0,0.1,0,0.2,0c0.1-0.1,0.1-0.1,0.2-0.2c0.1-0.1,0.1,0,0.1,0.1s-0.1,0.1-0.1,0.2
						c0.1,0.1,0.3,0.1,0.4,0.2c0,0,0,0,0.1,0c0-0.1,0-0.2,0.1-0.3c0,0,0,0,0.1,0c0,0.1,0,0.2,0,0.3c0.1,0,0.2-0.1,0.3-0.1
						c0-0.1-0.1-0.1-0.1-0.2c0-0.1,0-0.1,0.1-0.1c0.1,0.1,0.1,0.1,0.2,0.2c0.1,0,0.2,0,0.4-0.1c0-0.1,0.1-0.2,0.1-0.2
						c0-0.1,0.1,0,0.1,0c0,0.1,0,0.1,0,0.2c0.3,0,0.5,0.1,0.8,0.2c0,0,0,0,0,0c0-0.1,0.1-0.1,0.1-0.2c0-0.1,0.1,0,0.1,0
						c0,0.1,0,0.1-0.1,0.2c0,0,0,0,0,0.1c0,0,0,0,0,0l0,0c0.1,0,0.3,0,0.4,0c0.1,0,0.1,0.1,0,0.1c-0.1,0-0.2,0-0.3,0
						c0.2,0.1,0.3,0.3,0.4,0.4l0,0c0.1-0.1,0.2-0.2,0.3-0.3c0,0,0.1,0,0,0.1c-0.1,0.1-0.2,0.2-0.3,0.3c0,0,0,0,0,0
						c0.1,0.1,0.1,0.2,0.1,0.2c0.1-0.1,0.1-0.1,0.2-0.2c0,0,0.1,0,0.1,0c-0.1,0.1-0.1,0.2-0.2,0.2l0,0c0,0.1,0.1,0.2,0.1,0.3
						c0.1,0,0.2,0,0.3,0c0.1,0,0.1,0.1,0,0.1s-0.2,0-0.2,0c0,0.3,0,0.5-0.1,0.8c0,0,0.1,0.1,0.1,0.1c0.1,0,0,0.1-0.1,0.1
						c-0.1,0-0.1-0.1-0.2-0.1c-0.1,0.1-0.1,0.2-0.2,0.3c0.1,0.1,0.2,0.2,0.2,0.3c0,0,0,0.1-0.1,0.1c-0.1-0.1-0.2-0.2-0.2-0.2
						c-0.3,0.3-0.8,0.6-1.2,0.7c0,0-0.1,0.1-0.1,0.1c-1.2,0-2.8,0.4-3.7-0.7c0,0,0,0,0,0c-0.1,0-0.2,0-0.3,0c-0.1,0-0.1-0.1,0-0.1
						c0.1,0,0.2,0,0.2,0c-0.1-0.1-0.2-0.3-0.2-0.5c0,0-0.1,0.1-0.1,0.1c0,0.1-0.1,0-0.1-0.1c0.1-0.1,0.1-0.1,0.1-0.2
						c0-0.1,0-0.1,0-0.2c0,0,0,0,0,0c-0.1-0.1-0.1-0.2-0.2-0.2c-0.1,0,0-0.1,0.1-0.1c0.1,0,0.1,0.1,0.2,0.1c0-0.1,0-0.3,0.1-0.4
						C91.6,158.4,91.5,158.4,91.4,158.4z"/>
				</g>
				<g>
					<g>
						<path class="st33" d="M95.1,157.5c0.7,0.1,1.2,0.8,1.2,1.5c0.1,0.6-0.3,1.2-0.8,1.5c0,0-0.1,0,0-0.1c0.5-0.3,0.8-0.9,0.7-1.4
							c-0.1-0.6-0.5-1.3-1.1-1.3C94.9,157.6,94.9,157.4,95.1,157.5z"/>
					</g>
					<g>
						<path class="st33" d="M93.9,159c0-0.5,0.3-1.4,0.8-1.6c0.1,0,0.1,0.1,0,0.1c-0.4,0.2-0.6,0.9-0.7,1.4c-0.1,0.5,0,1.1,0.5,1.4
							c0.1,0.1,0,0.2-0.1,0.1C94.1,160,93.9,159.5,93.9,159z"/>
					</g>
					<g>
						<path class="st33" d="M92.8,158.7c0.1-0.9,0.9-1.5,1.8-1.4c0,0,0,0.1,0,0.1c-0.8,0-1.5,0.4-1.6,1.2c-0.2,0.8,0.3,1.5,1,1.7
							c0.1,0,0.1,0.2,0,0.1C93.2,160.2,92.7,159.5,92.8,158.7z"/>
					</g>
				</g>
			</g>
			<g>
				<path class="st34" d="M97.2,164.9c-0.1,0.1-0.1,0.3-0.2,0.4c-0.1,0.1-0.3,0.1-0.4,0.2c-0.9,0.2-1.8,0.2-2.7,0.2
					c-0.6,0-1.3,0-1.8-0.4c-0.3-0.2-0.4-2.9-0.5-3.2c-0.1-0.4-0.1-0.8-0.1-1.1c0-0.1,0-0.2,0.1-0.3c0.1-0.2,0.3-0.2,0.5-0.2
					c1.4-0.1,2.8,0,4.3,0.1c0.4,0,1.2,0,1.3,0.5c0.1,0.3-0.1,0.5-0.2,0.8C97.4,161.9,97.3,164.5,97.2,164.9z"/>
			</g>
		</g>
		<g>
			<g>
				<path class="st35" d="M101.8,157.7c-0.8-0.6-1.5-1.3-2.1-2c-0.2-0.2-0.3-0.4-0.4-0.6c-0.1-0.5,0.1-1,0.4-1.4
					c0.3-0.3,0.6-0.7,1-0.8c0.4-0.1,0.8,0,1.1,0.3s0.6,0.6,0.8,0.9c0.6,1,0.8,2.1,1.1,3.2c0.1,0.2,0.1,0.4,0.1,0.6
					c-0.1,0.4-0.4,0.8-0.8,0.7C102.5,158.4,102.1,157.9,101.8,157.7z"/>
			</g>
			<g>
				<g>
					<path class="st35" d="M109.7,152.3c-0.4-0.6-1.3-0.6-1.9-0.3c-0.6,0.3-1,0.8-1.3,1.3c0-0.7,0-1.3-0.1-2
						c-0.1-0.6-0.2-1.2-0.5-1.8c-0.3-0.5-0.8-1-1.4-1.1c-1-0.2-2,0.6-2.4,1.6c-0.4,1-0.3,2.1-0.2,3.1c0.2,1.7,0.4,3.4,0.6,5.1
						c0,0.2-0.1,0.8,0.1,1c0.2,0.3,1.1,0.4,1.4,0.4c0.5,0.1,1.1,0.1,1.6-0.2c0.1,0,0.2-0.1,0.2-0.1c0.1-0.1,0.1-0.3,0.2-0.4
						c0-0.3,0.1-0.6,0.1-0.9c0,0,0.1,0,0.1-0.1c1.2-1,2.5-2.1,3.4-3.4c0.2-0.3,0.4-0.7,0.5-1.1C110,153.1,109.9,152.7,109.7,152.3z"
						/>
				</g>
				<g>
					<path class="st36" d="M103.5,150.4c0-0.2-0.4-0.3-0.4-0.1c-0.1,0.3-0.1,0.7-0.1,1c0,0.3,0.5,0.3,0.5,0
						C103.5,151.1,103.5,150.7,103.5,150.4z"/>
				</g>
				<g>
					<path class="st36" d="M105,152.1c0-0.3-0.4-0.3-0.4,0c0,0.2,0,0.4,0,0.6c0,0.3,0.4,0.3,0.4,0C105,152.4,105,152.3,105,152.1z"
						/>
				</g>
				<g>
					<path class="st36" d="M103.8,154.1c0.1-0.3-0.3-0.4-0.4-0.1c-0.1,0.2-0.1,0.4-0.1,0.6c0,0.3,0.5,0.3,0.4,0
						C103.7,154.4,103.7,154.2,103.8,154.1z"/>
				</g>
				<g>
					<path class="st36" d="M105.8,155.7c-0.1,0.1-0.2,0.2-0.2,0.3c-0.2,0.2,0.1,0.5,0.3,0.3c0.1-0.1,0.2-0.2,0.3-0.2
						C106.4,155.8,106,155.5,105.8,155.7z"/>
				</g>
				<g>
					<path class="st36" d="M108.1,153.4c-0.1,0.1-0.2,0.2-0.2,0.3c-0.2,0.2,0.1,0.6,0.3,0.3c0.1-0.1,0.2-0.2,0.3-0.3
						C108.7,153.5,108.3,153.2,108.1,153.4z"/>
				</g>
			</g>
			<g>
				<path class="st37" d="M100.6,165.8c0.1,0.2,0.3,0.2,0.5,0.2c2.3-0.1,4.6,0.1,6.9,0.1c0.4-2.9,0.6-6.1,0.7-8.9
					c-1.6,0-3.2,0-4.8,0c-0.8,0-1.6,0-2.3,0c-0.5,0-1.8-0.1-1.8,0.2c-0.1,0.5,0.1,1.4,0.1,1.9c0.1,0.7,0.2,1.4,0.2,2.1
					c0.2,1.4,0.3,2.7,0.5,4.1C100.5,165.5,100.6,165.7,100.6,165.8z"/>
			</g>
			<g>
				<path class="st36" d="M101.5,155.7c-0.1-0.3-0.4-0.6-0.7-0.8c-0.1-0.1-0.3,0.1-0.2,0.2c0.1,0.1,0.2,0.2,0.3,0.3s0.1,0.3,0.2,0.4
					C101.2,156.1,101.6,156,101.5,155.7z"/>
			</g>
			<g>
				<path class="st36" d="M103.5,156.1c0,0-0.1-0.1-0.1-0.1c-0.1,0-0.1-0.1-0.2-0.1c-0.1-0.1-0.3,0-0.2,0.2c0.1,0.1,0.1,0.2,0.2,0.2
					c0.1,0.1,0.2,0.1,0.2,0.2c0.1,0.2,0.4,0.1,0.5,0C103.9,156.2,103.7,156,103.5,156.1z"/>
			</g>
		</g>
		<g>
			<g>
				<path class="st36" d="M142.4,122c-1.1-1.3-2.3-1.6-3.9-1.4c-1.4,0.2-2.8,0.6-3.4,1.9c-1,1.9,0.1,3.8,1.8,4.5
					c1.2,0.8,2.7,0.6,4,0.2c1.1-0.3,2.1-0.8,2.5-1.9C143.8,124,143.2,122.9,142.4,122z"/>
			</g>
			<g>
				<path class="st35" d="M137.8,122.9c-0.1-0.2-0.2-0.5-0.2-0.8c-0.1-0.3-0.5-0.2-0.4,0.1c0.1,0.2,0.1,0.5,0.1,0.7
					c0,0.2,0.1,0.3,0.3,0.3C137.7,123.2,137.8,123.1,137.8,122.9z"/>
			</g>
			<g>
				<path class="st35" d="M139.7,121.8c0-0.3-0.5-0.3-0.4,0c0,0.1,0,0.3,0,0.4c0,0.1-0.1,0.3-0.1,0.4c0,0.3,0.5,0.4,0.5,0.1
					C139.8,122.4,139.7,122.1,139.7,121.8z"/>
			</g>
			<g>
				<path class="st35" d="M139.4,124.4c-0.1,0-0.3,0-0.4,0.1c-0.1,0-0.3,0.1-0.3,0.3c0,0.1,0.1,0.3,0.3,0.3c0.2,0,0.3,0,0.5,0
					c0.2,0,0.3-0.2,0.3-0.3C139.8,124.5,139.6,124.4,139.4,124.4z"/>
			</g>
			<g>
				<path class="st35" d="M136,124.2c-0.1,0-0.2,0.1-0.3,0.1c-0.1,0-0.2,0-0.3,0.1c-0.2,0-0.2,0.4,0,0.4c0.1,0,0.3,0,0.4,0
					c0.1,0,0.3,0,0.4-0.1C136.4,124.5,136.3,124.1,136,124.2z"/>
			</g>
			<g>
				<path class="st35" d="M141.5,123.8c-0.1-0.1-0.2-0.2-0.3-0.2c-0.1-0.1-0.2-0.2-0.2-0.2c-0.2-0.2-0.6,0.1-0.4,0.4
					c0.1,0.1,0.2,0.2,0.3,0.2c0.1,0.1,0.2,0.2,0.3,0.3s0.3,0,0.4-0.1C141.6,124,141.6,123.9,141.5,123.8z"/>
			</g>
			<g>
				<path class="st35" d="M143.7,125.5c-0.1-0.1-0.3-0.1-0.4-0.2c-0.1-0.1-0.2-0.1-0.4-0.2c-0.3-0.2-0.5,0.2-0.3,0.4
					c0.1,0.1,0.3,0.2,0.4,0.2c0.1,0.1,0.3,0.2,0.5,0.2C143.7,126,143.9,125.7,143.7,125.5z"/>
			</g>
			<g>
				<path class="st35" d="M143.9,123.4c-0.1-0.1-0.2-0.1-0.4-0.1c-0.2,0.1-0.4,0.2-0.5,0.4c-0.1,0.1-0.2,0.2-0.1,0.4
					c0.1,0.1,0.2,0.2,0.4,0.1c0.2-0.1,0.4-0.2,0.6-0.4C144,123.6,144,123.5,143.9,123.4z"/>
			</g>
			<g>
				<path class="st35" d="M142.2,121.3c-0.1,0-0.3,0-0.3,0.2c0,0.1-0.1,0.2-0.2,0.2c-0.1,0.1-0.2,0.2-0.1,0.4
					c0.1,0.1,0.3,0.2,0.4,0.1c0.2-0.1,0.4-0.4,0.4-0.6C142.4,121.5,142.3,121.3,142.2,121.3z"/>
			</g>
			<g>
				<path class="st35" d="M137.9,120.8c-0.1-0.2-0.1-0.4-0.2-0.6c-0.1-0.2-0.5-0.1-0.4,0.1c0.1,0.2,0.1,0.4,0.1,0.6
					c0,0.2,0.2,0.3,0.3,0.3C138,121.1,138,120.9,137.9,120.8z"/>
			</g>
			<g>
				<path class="st35" d="M135.7,125.4c-0.2,0.1-0.4,0.2-0.6,0.3c-0.2,0.1-0.1,0.3,0.1,0.3c0.2-0.1,0.4-0.1,0.6-0.1
					C136.2,125.8,136,125.3,135.7,125.4z"/>
			</g>
			<g>
				<path class="st35" d="M137.5,124.3c0,0.2,0,0.3,0,0.5c0,0.2,0,0.3-0.1,0.5c0,0.2,0.3,0.3,0.4,0.1c0-0.2,0.1-0.3,0.1-0.5
					c0-0.2,0.1-0.3,0.1-0.5C138,124,137.5,124,137.5,124.3z"/>
			</g>
			<g>
				<path class="st35" d="M135.7,122c-0.2-0.3-0.4-0.5-0.7-0.7c-0.1-0.1-0.4,0-0.3,0.2c0.1,0.3,0.3,0.6,0.5,0.8
					C135.5,122.6,135.9,122.3,135.7,122z"/>
			</g>
			<g>
				<path class="st35" d="M140.7,120.4c-0.1,0.3-0.2,0.5-0.3,0.8c-0.1,0.2,0.2,0.4,0.3,0.2c0.1-0.3,0.3-0.5,0.5-0.7
					C141.4,120.3,140.8,120,140.7,120.4z"/>
			</g>
		</g>
		<g>
			<g>
				<path class="st38" d="M135.2,134c0,0.3,0,0.6,0.2,0.9c0.3,0.6,1.1,0.9,1.8,1c1.1,0.2,2.3,0.2,3.4,0.1c0.5,0,1.1-0.1,1.5-0.3
					c0.1-0.1,0.3-0.2,0.4-0.4c0.1-0.1,0.1-0.3,0.1-0.4c0.1-0.2,0.1-0.5,0.2-0.7c0.1-0.4,0.1-0.9,0.1-1.3c0-0.5,0.1-1,0.1-1.5
					c0-0.4,0-0.9,0-1.3c0.1-1.1,0-2.3,0-3.5c-2.3-0.4-4.6-0.4-6.9-0.1c-0.4,0.1-1.1,0.1-1.2,0.5c-0.1,0.2,0,0.4,0,0.7
					c0,0.3,0,0.6,0,0.9c0,1.2,0.1,2.4,0.1,3.5C135.2,132.7,135.2,133.4,135.2,134z"/>
			</g>
			<g>
				<path class="st39" d="M135.1,135.4c0.2-0.1,0.5-0.1,0.7-0.1c2.2,0,4.3,0.2,6.5,0c0.4,0,0.8-0.1,1.1,0.3c0.2,0.3,0,0.7-0.2,0.9
					c-0.3,0.2-0.6,0.3-1,0.3c-1.3,0.1-2.6,0-3.9,0c-0.7,0-1.4,0-2,0c-0.4,0-0.9,0.2-1.2-0.1C134.7,136.4,134.6,135.7,135.1,135.4z"
					/>
			</g>
			<g>
				<path class="st40" d="M136.6,132.3c-0.1-0.1-0.2-0.1-0.4,0c-0.1,0.1-0.1,0.2,0,0.3C136.4,132.8,136.8,132.5,136.6,132.3z"/>
			</g>
			<g>
				<path class="st40" d="M138.6,133.8c-0.1-0.1-0.1-0.1-0.2-0.1c0-0.1,0-0.1-0.1-0.1c-0.1,0.1-0.2,0.1-0.2,0.3
					c0,0.1,0.1,0.2,0.2,0.3C138.5,134.2,138.8,134,138.6,133.8z"/>
			</g>
		</g>
		<g>
			<path class="st41" d="M135.7,66.7c-0.5,0.3-0.7,0.7-0.8,1.2c0,0,0,0,0,0c-0.1,0-0.2,0-0.3,0.1c0.1-0.2,0.1-0.3,0.2-0.5
				c0.1-0.3-0.1-0.6,0-0.9c0.1-1.1,0.7-2.2-0.1-3.2c-0.2-0.2-0.5-0.2-0.7,0c-0.5,0.5-0.1,0.8-0.2,1.4c0,0.1-0.2,0.3-0.3,0.4
				c-0.1,0.3-0.1,0.5,0,0.7c0,0.2,0,0.4-0.1,0.6c0-0.1,0-0.2,0-0.3c0-0.6-0.7-0.8-1.1-0.4c0,0,0,0,0,0c-0.1-0.3-0.2-0.6-0.2-1
				c-0.1-0.5,0.1-1.1-0.4-1.5c-0.4-0.3-0.9-0.2-1.2,0.2c-0.2,0.2-0.2,0.4-0.1,0.7c0,0.1,0.1,0.2,0.2,0.3c0,0,0,0.1,0,0.1
				c-0.1,0.3-0.2,0.5-0.1,0.8c0,0.2,0.2,0.3,0.2,0.4c0.1,0.4,0.1,0.6,0.1,1c0,0.3,0,0.6,0,0.9c0-0.1-0.1-0.1-0.1-0.2
				c-0.1-0.3-0.3-0.5-0.4-0.8c0-0.1,0-0.2,0-0.3c-0.1-0.6-0.6-1.5-0.6-2.1c0-0.3-0.4-0.7-0.8-0.6c-0.1,0.1-0.3,0.1-0.5,0.2
				c-0.7,0.2-0.5,1.1,0.1,1.1c0,0,0,0.1,0.1,0.2l0.1,0.4c0.1,0.4,0.2,0.9,0.4,1.3c0,0,0,0.1,0,0.1c0,0.6,0,1.3,0.2,1.9
				c0.1,0.2,0.2,0.3,0.3,0.4c0.1,0.2,0.2,0.5,0.3,0.7c-0.1-0.3-0.1-0.5-0.4-0.8c-0.1-0.1-0.4-0.1-0.4-0.2c-0.1-0.2,0.1-0.5,0-0.7
				c-0.1-0.4-1-1.2-0.9-1.5c0.2-0.4-0.3-0.8-0.6-0.4c-0.3,0.4-0.4,0.9-0.1,1.3c0.1,0.1,0.2,0.2,0.3,0.4c0.3,0.5,0.1,0.6,0.2,1.1
				c0.1,0.6,0.4,0.6,0.7,0.9c-0.1-0.1,0,0.3,0.1,0.4c0.2,0.6,0.5,0.9,0.6,1.6c0.1,0.7,0.9,0.8,1.2,0.4c0,0.1,0.1,0.1,0.1,0.1
				c0.3,0.3,0.9-0.1,0.7-0.5c0.4,0.1,0.7-0.2,0.9-0.5c0.1,0.1,0.2,0.3,0.4,0.3c0.1,0.1,0.2,0.1,0.3,0c0.1,0.6,1.1,0.5,1.2-0.2
				c0,0,0,0,0,0c0,0,0.1-0.1,0.1-0.1c0.2-0.6,0.5-1.1,1-1.6c0.3-0.3,0.6-0.5,0.6-1c0-0.1,0-0.2,0-0.2c0.2-0.1,0.3-0.2,0.4-0.3
				c0.1-0.1,0.1-0.2,0.1-0.3c0.2-0.2,0.4-0.6,0.6-0.8C136.8,67,136.3,66.3,135.7,66.7z"/>
		</g>
		<g>
			<path class="st38" d="M127.6,78.4c-0.2,0-0.6,0.1-0.8-0.1c-0.2-0.2-0.2-0.8-0.2-1.1c0-1.7,0-3-0.1-4.9c0-0.2,0-0.7,0.1-0.9
				c0.2-0.3,0.7-0.1,1-0.2c2.2-0.2,5.6-0.2,7.8,0c0.2,0,0.4,0,0.5,0.2c0.2,0.2,0.2,0.4,0.2,0.7c0,1.2-0.1,2.4,0,3.7
				c0,0.6,0,1.3,0,1.9c0,0.6,0.1,0.7-0.6,0.7C133.3,78.5,129.9,78.4,127.6,78.4z"/>
		</g>
		<g>
			<path class="st38" d="M113.7,78.4c-0.2,0-0.6,0.1-0.8-0.1c-0.2-0.2-0.2-0.8-0.2-1.1c0-1.7,0-3-0.1-4.9c0-0.2,0-0.7,0.1-0.9
				c0.2-0.3,0.7-0.1,1-0.2c2.2-0.2,5.6-0.2,7.8,0c0.2,0,0.4,0,0.5,0.2c0.2,0.2,0.2,0.4,0.2,0.7c0,1.2-0.1,2.4,0,3.7
				c0,0.6,0,1.3,0,1.9c0,0.6,0.1,0.7-0.6,0.7C119.4,78.5,116,78.4,113.7,78.4z"/>
		</g>
		<g>
			<g>
				<g>
					<path class="st32" d="M60.6,92.1c-0.2,0-0.2-0.2,0-0.3c0.3,0,0.5,0,0.8,0c0-0.1,0.1-0.3,0.2-0.4c-0.1-0.2-0.3-0.4-0.4-0.6
						c-0.1-0.1,0.1-0.2,0.2-0.1c0.1,0.2,0.2,0.3,0.4,0.4c0.1-0.3,0.3-0.5,0.5-0.8c0,0,0,0,0,0c-0.2-0.2-0.4-0.3-0.6-0.4
						c-0.1-0.1,0-0.3,0.1-0.2c0.2,0.1,0.4,0.3,0.7,0.4c0,0,0,0,0,0c0.2-0.2,0.4-0.4,0.6-0.6c0.1-0.1,0.3-0.2,0.4-0.3
						c-0.2-0.3-0.3-0.7-0.5-1C62.8,88.1,63,88,63,88.1c0.2,0.3,0.4,0.6,0.6,0.9c0.1-0.1,0.3-0.1,0.4-0.2v0c0.1-0.3,0.2-0.5,0.4-0.8
						c0-0.1,0.2,0,0.1,0.1c-0.1,0.2-0.2,0.4-0.2,0.6c0.3-0.1,0.6-0.2,0.9-0.2c0,0,0,0,0-0.1c0-0.2,0-0.4-0.1-0.6
						c0-0.1,0.2-0.1,0.2,0c0,0.2,0.1,0.4,0.1,0.5c0,0.1,0,0.1,0,0.1c0.2,0,0.3,0,0.5,0c0.2,0,0.3,0,0.4,0.1c0.1-0.2,0.3-0.3,0.4-0.5
						c0.1-0.1,0.3,0.1,0.2,0.2s-0.2,0.3-0.3,0.4c0.3,0.1,0.6,0.2,0.9,0.4c0.1,0,0.1,0.1,0.1,0.1c0-0.2,0.1-0.5,0.2-0.7
						c0,0,0.1,0,0.1,0c0.1,0.2,0,0.5-0.1,0.7c0.2,0,0.4-0.1,0.8-0.3c-0.1-0.2-0.2-0.3-0.3-0.5c-0.1-0.1,0.1-0.2,0.2-0.1
						c0.1,0.2,0.2,0.3,0.4,0.5c0.3-0.1,0.6-0.1,0.8-0.1c0.1-0.2,0.1-0.4,0.2-0.6c0.1-0.1,0.2,0,0.2,0.1c0,0.2,0,0.3,0,0.5
						c0.6,0.1,1.2,0.2,1.8,0.5c0,0,0,0,0-0.1c0.1-0.2,0.2-0.3,0.2-0.5c0-0.1,0.2-0.1,0.2,0.1c-0.1,0.2-0.1,0.3-0.1,0.6
						c0,0.1,0,0.1-0.1,0.1c0,0,0.1,0,0.1,0c0,0,0,0,0,0c0.3,0,0.7,0,1,0.1c0.1,0,0.1,0.2,0,0.2c-0.2,0-0.4,0-0.7,0
						c0.4,0.3,0.7,0.6,1,1l0,0c0.2-0.3,0.5-0.4,0.7-0.6c0.1-0.1,0.2,0.1,0.1,0.1c-0.2,0.2-0.4,0.5-0.6,0.7c0,0-0.1,0-0.1,0
						c0.1,0.2,0.2,0.4,0.3,0.6c0.1-0.1,0.2-0.2,0.4-0.4c0.1-0.1,0.2,0,0.1,0.1c-0.1,0.2-0.2,0.4-0.4,0.6l0,0
						c0.1,0.2,0.2,0.4,0.2,0.7c0.2,0,0.4,0,0.6,0c0.2,0,0.2,0.3,0,0.3c-0.2,0-0.4,0-0.6,0c0.1,0.7,0,1.2-0.3,1.8
						c0.1,0.1,0.2,0.2,0.3,0.2c0.1,0.1,0,0.3-0.1,0.2c-0.1-0.1-0.2-0.1-0.3-0.2c-0.2,0.3-0.3,0.5-0.5,0.7c0.2,0.2,0.3,0.4,0.5,0.6
						c0.1,0.1-0.1,0.2-0.1,0.1c-0.2-0.2-0.4-0.4-0.5-0.6c-0.7,0.7-1.8,1.3-2.8,1.6c-0.1,0.1-0.1,0.1-0.2,0.1
						c-2.8,0.1-6.4,0.8-8.5-1.6c0,0,0-0.1-0.1-0.1c-0.2,0-0.5,0-0.8,0c-0.1,0-0.1-0.2,0-0.2c0.2,0,0.4-0.1,0.5-0.1
						c-0.2-0.3-0.4-0.7-0.5-1.1c-0.1,0.1-0.1,0.1-0.2,0.2c-0.1,0.1-0.2,0-0.2-0.1c0.1-0.2,0.2-0.3,0.3-0.5c0-0.2,0-0.3-0.1-0.5
						c0,0,0,0-0.1-0.1c-0.2-0.2-0.3-0.4-0.5-0.5c-0.1-0.1,0-0.2,0.1-0.2c0.2,0.1,0.3,0.2,0.5,0.3c0-0.3,0.1-0.7,0.2-1
						C61,92.1,60.8,92.1,60.6,92.1z"/>
				</g>
				<g>
					<g>
						<path class="st33" d="M68.9,89.9c1.6,0.2,2.6,1.8,2.8,3.3c0.2,1.5-0.6,2.8-1.9,3.4c-0.1,0-0.2-0.1-0.1-0.1
							c1.1-0.7,1.8-1.9,1.7-3.3c-0.2-1.3-1.1-3-2.6-3C68.6,90.3,68.6,89.9,68.9,89.9z"/>
					</g>
					<g>
						<path class="st33" d="M66.3,93.4c0.1-1.2,0.7-3.1,1.9-3.7c0.1-0.1,0.2,0.1,0.1,0.2c-1,0.5-1.4,2.1-1.6,3.1
							c-0.2,1.2,0.1,2.4,1.2,3.1c0.2,0.1,0,0.5-0.2,0.3C66.6,95.8,66.2,94.7,66.3,93.4z"/>
					</g>
					<g>
						<path class="st33" d="M63.7,92.7c0.2-2.1,2.1-3.4,4.1-3.2c0.1,0,0.1,0.1,0,0.1c-1.8-0.1-3.3,1-3.7,2.8
							c-0.4,1.7,0.7,3.4,2.3,3.9c0.2,0.1,0.1,0.4-0.1,0.3C64.7,96.1,63.5,94.6,63.7,92.7z"/>
					</g>
				</g>
			</g>
			<g>
				<path class="st42" d="M73.8,106.9c-0.1,0.3-0.2,0.6-0.5,0.9c-0.3,0.2-0.7,0.3-1,0.4c-2,0.4-4.1,0.4-6.1,0.5c-1.4,0-3,0-4-0.9
					c-0.7-0.6-0.9-6.6-1.1-7.4c-0.2-0.9-0.2-1.7-0.1-2.6c0-0.3,0-0.5,0.2-0.8c0.2-0.4,0.8-0.5,1.2-0.5c3.3-0.2,6.5,0,9.8,0.1
					c0.9,0,2.8,0.1,3,1.2c0.1,0.6-0.3,1.2-0.4,1.8C74.4,100.2,74,106.1,73.8,106.9z"/>
			</g>
		</g>
		<g>
			<path class="st43" d="M147.6,66c-0.1-0.1-0.3-0.1-0.5-0.2c-0.2-0.2-0.4-0.3-0.7-0.3c-0.3,0-0.6,0.2-0.6,0.6
				c-0.2,0.2-0.4,0.4-0.4,0.7c-0.1,0.9,1.1,1.6,1.9,1.1l0,0c0.4-0.1,0.8-0.3,0.9-0.7C148.3,66.7,148.1,66.2,147.6,66z"/>
		</g>
		<g>
			<path class="st43" d="M154.9,65.3c-0.9,0-1.7,1-1.2,1.8c0.1,0.2,0.3,0.4,0.5,0.5c0.2,0.3,0.5,0.5,0.9,0.5c0.5,0,0.9-0.4,1.1-0.9
				C156.5,66.4,155.9,65.4,154.9,65.3z"/>
		</g>
		<g>
			<path class="st43" d="M163.4,65.9c-0.7-0.7-1.9-0.4-2.3,0.4c-0.2,0.5,0,1.1,0.3,1.4c0.1,0.5,0.6,0.8,1.2,0.8
				C163.9,68.6,164.2,66.8,163.4,65.9z"/>
		</g>
		<g>
			<g>
				<g>
					<path class="st44" d="M41.6,158.4c0-0.1,0-0.2-0.1-0.3c-0.1-0.1-0.3-0.1-0.5-0.1c-1.8,0-3.6,0.1-5.4,0.2
						c-0.2,0-0.5,0.1-0.6,0.2c-0.2,0.1-0.2,0.3-0.3,0.5c-0.6,2.2-0.7,4.5-0.7,6.8c0,0.3,7.1,0.4,8,0.2c1.7-0.4,1-1.5,0.7-2.8
						C42.3,161.6,41.9,160,41.6,158.4z"/>
				</g>
			</g>
			<g>
				<g>
					<path class="st45" d="M35.1,154.6c0-0.1,0-0.2,0.1-0.3c0.1-0.1,0.3-0.1,0.5-0.1c1.8,0,3.6,0.1,5.4,0.2c0.2,0,0.5,0.1,0.6,0.2
						c0.2,0.1,0.2,0.3,0.3,0.5c0.6,2.2,0.7,4.5,0.7,6.8c0,0.3-7.1,0.4-8,0.2c-1.7-0.4-1-1.5-0.7-2.8
						C34.4,157.8,34.8,156.2,35.1,154.6z"/>
				</g>
			</g>
			<g>
				<g>
					<path class="st44" d="M42.5,151.1c0-0.1,0-0.2-0.1-0.3c-0.1-0.1-0.3-0.2-0.5-0.2c-1.8-0.3-3.5-0.6-5.3-0.7
						c-0.2,0-0.5,0-0.6,0.1c-0.2,0.1-0.3,0.3-0.4,0.5c-1,2.1-1.5,4.3-1.9,6.6c-0.1,0.3,6.9,1.6,7.8,1.6c1.7-0.1,1.2-1.3,1.2-2.7
						C42.6,154.3,42.5,152.7,42.5,151.1z"/>
				</g>
			</g>
		</g>
		<g>
			<path class="st46" d="M51.2,161.9c0-0.1,0.1-0.3,0.2-0.4c0.1-0.1,0.2-0.5,0.3-0.5c0.8-0.4,1.7-0.8,2.5-1.2c0.7-0.3,1.3-0.5,2-0.7
				c1.2-0.3,2.4,0.1,3.1,1.2c0.6,0.9,0.7,2.1,0.3,3.2c-0.4,1-1.3,1.8-2.4,2.1c-0.4,0.1-0.8,0.1-1.2,0.1c0,0-0.1,0-0.1,0
				c-1.1,0-2.4-0.3-3.5-0.5c-0.5-0.1-1.1-0.3-1.3-0.7c-0.1-0.2-0.1-0.4-0.1-0.7C51,163.1,51.1,162.5,51.2,161.9z"/>
		</g>
		<g>
			<g>
				<path class="st47" d="M48.6,158.7c0-0.1,0-0.2-0.1-0.3c-0.1-0.1-0.3-0.1-0.5-0.1c-1.7,0-3.4,0.1-5.1,0.2c-0.2,0-0.4,0.1-0.6,0.2
					c-0.2,0.1-0.2,0.3-0.3,0.5c-0.6,2.2-0.6,4.5-0.7,6.8c0,0.3,6.7,0.4,7.6,0.2c1.6-0.4,0.9-1.5,0.7-2.8
					C49.2,161.8,48.9,160.3,48.6,158.7z"/>
			</g>
		</g>
		<g>
			<g>
				<path class="st45" d="M48.5,156.6c0-0.1,0-0.2-0.1-0.3c-0.1-0.1-0.3-0.1-0.5-0.1c-1.8,0-3.6,0.1-5.4,0.2c-0.2,0-0.5,0.1-0.6,0.2
					c-0.2,0.1-0.2,0.3-0.3,0.5c-0.6,2.2-0.7,4.5-0.7,6.8c0,0.3,7.1,0.4,8,0.2c1.7-0.4,1-1.5,0.7-2.8
					C49.2,159.7,48.8,158.1,48.5,156.6z"/>
			</g>
		</g>
		<g>
			<g>
				<path class="st47" d="M42,152.7c0-0.1,0-0.2,0.1-0.3c0.1-0.1,0.3-0.1,0.5-0.1c1.8,0,3.6,0.1,5.4,0.2c0.2,0,0.5,0.1,0.6,0.2
					c0.2,0.1,0.2,0.3,0.3,0.5c0.6,2.2,0.7,4.5,0.7,6.8c0,0.3-7.1,0.4-8,0.2c-1.7-0.4-1-1.5-0.7-2.8C41.3,155.9,41.7,154.3,42,152.7z
					"/>
			</g>
		</g>
		<g>
			<g>
				<path class="st46" d="M49,149.7c0-0.1,0-0.2-0.1-0.3c-0.1-0.1-0.3-0.1-0.5-0.1c-1.8-0.1-3.7-0.1-5.5,0c-0.2,0-0.5,0-0.6,0.2
					s-0.2,0.3-0.3,0.5c-0.7,2.2-0.9,4.5-1.1,6.8c0,0.3,7.2,0.8,8.1,0.6c1.7-0.3,1.1-1.5,0.8-2.8C49.6,152.9,49.3,151.3,49,149.7z"/>
			</g>
		</g>
		<g>
			<g>
				<g>
					<g>
						<path class="st35" d="M118.7,118.4c-0.4-0.6-1.3-0.6-1.9-0.3c-0.6,0.3-1,0.8-1.3,1.3c0-0.7,0-1.3-0.1-2
							c-0.1-0.6-0.2-1.2-0.5-1.8c-0.3-0.5-0.8-1-1.4-1.1c-1-0.2-2,0.6-2.4,1.6c-0.4,1-0.3,2.1-0.2,3.1c0.2,1.7,0.4,3.4,0.6,5.1
							c0,0.2-0.1,0.8,0.1,1c0.2,0.3,1.1,0.4,1.4,0.4c0.5,0.1,1.1,0.1,1.6-0.2c0.1,0,0.2-0.1,0.2-0.2c0.1-0.1,0.1-0.3,0.2-0.4
							c0-0.3,0.1-0.6,0.1-0.9c0,0,0.1,0,0.1-0.1c1.2-1,2.5-2.1,3.4-3.4c0.2-0.3,0.4-0.7,0.5-1.1C119,119.2,118.9,118.8,118.7,118.4z
							"/>
					</g>
					<g>
						<path class="st36" d="M112.5,116.5c0-0.2-0.4-0.3-0.4-0.1c-0.1,0.3-0.1,0.7-0.1,1c0,0.3,0.5,0.3,0.5,0
							C112.5,117.2,112.5,116.8,112.5,116.5z"/>
					</g>
					<g>
						<path class="st36" d="M114,118.2c0-0.3-0.4-0.3-0.4,0c0,0.2,0,0.4,0,0.6c0,0.3,0.4,0.3,0.4,0C114,118.5,114,118.4,114,118.2z"
							/>
					</g>
					<g>
						<path class="st36" d="M112.8,120.2c0.1-0.3-0.3-0.4-0.4-0.1c-0.1,0.2-0.1,0.4-0.1,0.6c0,0.3,0.5,0.3,0.4,0
							C112.7,120.5,112.7,120.3,112.8,120.2z"/>
					</g>
					<g>
						<path class="st36" d="M112.8,124c-0.1-0.2-0.1-0.4-0.1-0.6c0-0.3-0.4-0.3-0.5,0c0,0.3,0,0.5,0.1,0.8
							C112.4,124.4,112.9,124.3,112.8,124z"/>
					</g>
					<g>
						<path class="st36" d="M114.8,121.8c-0.1,0.1-0.2,0.2-0.2,0.3c-0.2,0.2,0.1,0.5,0.3,0.3c0.1-0.1,0.2-0.2,0.3-0.2
							C115.4,121.9,115,121.6,114.8,121.8z"/>
					</g>
					<g>
						<path class="st36" d="M117.1,119.5c-0.1,0.1-0.2,0.2-0.2,0.3c-0.2,0.2,0.1,0.6,0.3,0.3c0.1-0.1,0.2-0.2,0.3-0.3
							C117.7,119.6,117.3,119.3,117.1,119.5z"/>
					</g>
				</g>
				<g>
					<g>
						<path class="st37" d="M109.6,134.1c0.1,0.2,0.3,0.2,0.5,0.2c2.3-0.1,4.6,0.1,6.9,0.1c0.4-2.9,0.6-6.1,0.7-8.9
							c-1.6,0-3.2,0-4.8,0c-0.8,0-1.6,0-2.3,0c-0.5,0-1.8-0.1-1.8,0.2c-0.1,0.5,0.1,1.4,0.1,1.9c0.1,0.7,0.2,1.4,0.2,2.1
							c0.2,1.4,0.3,2.7,0.5,4.1C109.5,133.9,109.6,134,109.6,134.1z"/>
					</g>
					<g>
						<path class="st48" d="M115.7,129.9c-0.8,0.2-1.7,0.2-2.5,0.2c-1,0.1-2,0.1-3,0.2c-0.7,0-0.6,0.9,0,1c1.8,0.2,4.1,0.8,5.9,0.2
							C117.2,131.1,116.7,129.5,115.7,129.9z"/>
					</g>
					<g>
						<path class="st48" d="M110.5,132.3c-0.5,0-0.5,0.8,0,0.8C111,133.1,111,132.3,110.5,132.3z"/>
					</g>
					<g>
						<path class="st48" d="M112.7,132.6c-0.3,0-0.3,0.5,0,0.5C113,133.1,113,132.6,112.7,132.6z"/>
					</g>
					<g>
						<path class="st48" d="M115.8,132.6C115.8,132.6,115.8,132.6,115.8,132.6c-0.3-0.3-0.8-0.1-0.8,0.3c0,0.4,0.5,0.6,0.8,0.3
							c0,0,0,0,0,0C116,133.1,116,132.7,115.8,132.6z"/>
					</g>
				</g>
			</g>
			<g>
				<g>
					<g>
						<g>
							<path class="st49" d="M99.9,131.4c0,1.3,0.1,3,1.4,3.8c0.4,0.2,0.9,0.3,1.4,0.4c1.1,0.1,2.2,0,2.9-0.9
								c0.2-0.3,0.3-0.6,0.4-0.9c0.1-0.3,0.2-0.6,0.3-0.9c0.2-0.9,0.2-1.9,0.1-2.8c0-0.4-0.1-0.7-0.1-1.1c0-0.3-0.1-0.6-0.4-0.8
								c-0.1-0.1-0.3-0.1-0.4-0.1c-1.3-0.1-2.5-0.2-3.8-0.3c-0.6,0-1.3,0.1-1.6,0.7c-0.1,0.2-0.2,0.5-0.2,0.8
								C99.9,129.9,99.9,130.7,99.9,131.4z"/>
						</g>
						<g>
							<path class="st37" d="M105.9,127.9C105.9,127.9,105.8,127.9,105.9,127.9c-1.8-0.3-3.5-0.4-5.2-0.1c-0.1,0-0.3,0.1-0.4,0.2
								c-0.1,0.1-0.1,0.4,0,0.5c0.7,0.1,1.5,0.1,2.2,0.2c1.1,0.1,2.6,0.2,3.7-0.4C106.2,128.2,106,128,105.9,127.9z"/>
						</g>
					</g>
				</g>
				<g>
					<path class="st50" d="M104.1,121.6c0.1,0.9,0.1,1.8,0,2.7c0,0.3-0.1,0.5,0.1,0.8c0.1,0.2,0.5,0.3,0.6,0.1
						c0.2-0.3-0.3-0.8-0.1-1.1c0.2-0.2,0.6-0.1,0.7,0.2c0.3,0.5,0.2,1.3-0.3,1.6c-0.2,0.1-0.5,0.3-0.5,0.5c0.3,0.1,0.7,0.2,1,0.1
						c0.3-0.1,0.7-0.3,0.7-0.7c0-0.2,0-0.3,0-0.4c0-0.2,0.1-0.3,0.2-0.3c0.2,0,0.3,0.1,0.4,0.2c0.3,0.3,0.6,0.7,0.7,1.2
						c0.1,0.4-0.2,1-0.6,1.1c-0.6,0.1-1.1-0.5-1.7-0.4c-0.1,0-0.3,0.1-0.4,0.2c-0.2,0.1-0.5,0-0.7,0.1c-0.3,0.1-0.4,0.6-0.4,0.9
						c-0.4,0.1-0.7,0.1-1.1,0.1c-0.1,0-0.2,0-0.2-0.1c-0.1-0.1-0.1-0.2-0.1-0.4c0-0.5,0.1-0.9,0.1-1.4c0-0.1,0-0.3-0.1-0.3
						c-0.1-0.1-0.2-0.1-0.3-0.1c-0.4-0.1-0.8-0.4-0.9-0.8c-0.2-0.4-0.2-0.8-0.2-1.3c0.2,0,0.5,0.1,0.6,0.3c0.2,0.2,0.3,0.4,0.4,0.6
						c0.1,0.1,0.2,0.3,0.3,0.4s0.3,0.1,0.4,0c0.1-0.1,0.1-0.1,0.1-0.2c0.1-0.7-0.3-1.4-0.9-1.6c-0.1,0-0.2-0.1-0.3,0
						c-0.1,0-0.2,0.1-0.2,0.1c-0.2,0.1-0.4-0.1-0.5-0.3c-0.1-0.2-0.1-0.4,0-0.5c0.2-0.2,0.4-0.1,0.6,0c0.2,0.1,0.5,0.1,0.6-0.1
						c0.2-0.2-0.2-0.5-0.2-0.8c0-0.1,0-0.2,0-0.2c0,0,0.1-0.1,0.1-0.1c0.2,0,0.3,0.1,0.4,0.2c0.1,0.1,0.2,0.3,0.2,0.5
						c0.2,0.6,0.3,1.2,0.4,1.8c0.1,0.4,0.1,0.9,0.2,1.3c0,0.1,0.2,0.2,0.3,0.2c-0.2-1.2-0.3-2.4-0.3-3.7c0-0.2,0-0.5,0.1-0.7
						c0.1-0.2,0.3-0.4,0.5-0.3C103.9,120.9,104,121.3,104.1,121.6z"/>
				</g>
			</g>
			<g>
				<g>
					<path class="st51" d="M90.9,135.8c0,0.1,0.1,0.2,0.1,0.3c0.1,0.1,0.3,0.1,0.4,0.1c1.7,0,3.4-0.1,5.1-0.2c0.2,0,0.4-0.1,0.6-0.2
						c0.2-0.1,0.2-0.3,0.3-0.5c0.6-2.2,0.6-4.5,0.7-6.8c0-0.3-6.7-0.4-7.6-0.2c-1.6,0.4-0.9,1.5-0.7,2.8
						C90.3,132.7,90.6,134.2,90.9,135.8z"/>
				</g>
			</g>
			<g>
				<g>
					<path class="st52" d="M126.3,113.7c0.1,1.4,0.1,2.9,0.1,4.3c0,1.1,0,2.3-0.2,3.4c-0.1,0.8-0.3,1.6-0.6,2.3
						c-0.4,1.1-0.8,2.4-1.3,3.4c-0.3,0.5-0.5,0.4-0.6-0.2c-0.1-0.6,0-1.3,0-1.9c0.1-2.5,0.6-5,1.3-7.4
						C125.4,116.4,125.8,115.1,126.3,113.7z"/>
				</g>
				<g>
					<path class="st52" d="M122.1,115.2c0.6,2.2,1.5,4.3,1.9,6.6c0.2,1.2,0.3,2.3,0.2,3.5c-0.1,0.6-0.4,3-1.1,1.9
						c-0.3-0.4-0.4-1.3-0.5-1.9c-0.1-0.6-0.3-1.3-0.4-1.9c-0.2-1.3-0.3-2.6-0.3-3.9C121.8,118.2,121.9,116.7,122.1,115.2z"/>
				</g>
				<g>
					<path class="st53" d="M122.7,121.3c0.1-3.4,1.2-6.6,1.8-9.9c-0.2,3.4,0.4,6.8,0,10.2c-0.1,1-0.3,2-0.5,3
						c-0.1,0.4-0.6,2.6-0.8,2.6C122.6,127.2,122.7,121.9,122.7,121.3z"/>
				</g>
				<g>
					<path class="st41" d="M125.2,122.8c0.7-1.9,1.7-3.7,2.7-5.5c0,2.1-0.6,4.1-1.4,6c-0.3,0.9-0.7,1.7-1.1,2.6
						c-0.3,0.8-0.6,1.9-1,2.6c-0.5-0.5,0-2.1,0.1-2.7C124.6,124.8,124.9,123.8,125.2,122.8z"/>
				</g>
				<g>
					<path class="st41" d="M121.8,125.8c-1-2.8-1.3-5.8-0.9-8.8c0.3,0.8,0.5,1.6,0.8,2.3c0.3,0.9,0.6,1.8,0.8,2.7
						c0.3,1.6,0.7,4,0,5.6C122.2,127,122,126.4,121.8,125.8z"/>
				</g>
				<g>
					<g>
						<path class="st51" d="M121.5,134.7c0,0.1,0,0.1,0.1,0.2c0.1,0.1,0.2,0.1,0.3,0.1c1.1,0,2.2,0,3.3-0.2c0.1,0,0.3,0,0.4-0.1
							c0.1-0.1,0.1-0.2,0.2-0.4c0.4-1.4,0.5-6.4,0.6-7.9c0-0.2-4.4-0.3-4.9-0.1c-1,0.2-0.6,1-0.4,1.8
							C121.2,129.1,121.3,133.7,121.5,134.7z"/>
					</g>
				</g>
			</g>
			<g>
				<path class="st34" d="M84.9,136.4c0.1,0.3,0.1,0.5,0.3,0.8c0.3,0.4,0.8,0.4,1.3,0.4c14.2,0.5,28.4,0.9,42.5-0.5
					c0.8-0.1,1.8-0.2,2.2-0.9c0.3-0.4,0.3-0.9,0.3-1.4c0.1-1.5,0.1-2.9,0.1-4.4c0-0.4,0-0.8-0.3-1.1c-0.4-0.5-1.2-0.5-1.9-0.5
					c-14,1.3-28.1,1.6-42.1,1.2c-1.2,0-2.6-0.3-2.9,1.1C84,132.5,84.6,134.8,84.9,136.4z"/>
			</g>
		</g>
		<g>
			<path class="st38" d="M144.6,78.4c-0.6,0-1.6,0.1-2.1-0.1c-0.6-0.3-0.4-1.1-0.4-1.6c0-2.6-0.1-4.4-0.1-7.1c0-0.4-0.1-1,0.3-1.3
				c0.6-0.4,1.7-0.2,2.6-0.2c5.7-0.3,14.4-0.3,20.1,0c0.5,0,0.9,0.1,1.3,0.2c0.4,0.2,0.5,0.6,0.5,0.9c0.1,1.8-0.1,3.6-0.1,5.4
				c0,0.9,0.1,1.8,0.1,2.8c0,0.9,0.1,1-1.4,1C159.3,78.5,150.6,78.4,144.6,78.4z"/>
		</g>
		<g>
			<path class="st38" d="M37.7,137.1c-0.8,0-1.9,0.1-2.6-0.1c-0.7-0.2-0.6-0.9-0.6-1.2c0-2.1-0.1-3.6-0.2-5.8c0-0.3-0.1-0.8,0.4-1
				c0.7-0.3,2.2-0.1,3.2-0.2c7.1-0.2,18-0.2,25.1,0c0.6,0,1.2,0.1,1.6,0.2c0.5,0.2,0.6,0.5,0.6,0.8c0.1,1.4-0.2,2.9-0.1,4.3
				c0,0.7,0.1,1.5,0.1,2.2c0,0.7,0.2,0.8-1.8,0.8C56.1,137.2,45.1,137.1,37.7,137.1z"/>
		</g>
		<g>
			<g>
				<path class="st54" d="M30.7,141.7c30.8-0.1,52.6,0,78.2,0c19.9,0,39.9-0.1,59.8-0.1c1.2-1.5,1.4-3.4-0.1-4.9
					c-45.9-0.1-90.4,0.1-137.7,0C30.5,138.4,30.5,140.1,30.7,141.7z"/>
			</g>
		</g>
		<g>
			<g>
				<path class="st54" d="M169.6,113.1c-30.8-0.1-52.6,0-78.2,0c-19.9,0-39.9-0.1-59.8-0.1c-1.2-1.5-1.4-3.3,0.1-4.8
					c45.9-0.1,90.4,0.1,137.7,0C169.8,109.8,169.7,111.5,169.6,113.1z"/>
			</g>
		</g>
		<g>
			<path class="st54" d="M99.8,82.9c15.8-0.1,26.9,0,40,0c10.2,0,20.4-0.1,30.6-0.1c0.6-1.5,0.7-3.3-0.1-4.8
				c-23.5-0.1-46.3,0.1-70.5,0C99.7,79.6,99.7,81.3,99.8,82.9z"/>
		</g>
		<g>
			<g>
				<path class="st54" d="M98.9,52c0.1,13.2,0,22.6,0,33.6c0,8.6,0.1,17.1,0.1,25.7c1.5,0.5,3.3,0.6,4.8-0.1
					c0.1-19.7-0.1-38.8,0-59.1C102.2,51.9,100.6,51.9,98.9,52z"/>
			</g>
		</g>
		<g>
			<path class="st54" d="M169.6,54.4c-30.8-0.1-52.6,0-78.2,0c-19.9,0-39.9,0-59.8-0.1c-1.2-1.5-1.4-3.3,0.1-4.8
				c45.9-0.1,90.4,0.1,137.7,0C169.8,51.1,169.7,52.8,169.6,54.4z"/>
		</g>
		<g>
			<g>
				<g>
					<g>
						<path class="st55" d="M165.8,168.1c-2.3-0.1-11.1-0.1-13.7-0.1l-99.3,0c-4.5,0.1-10.3,0.1-14.8,0.1c-2.7,0-2,0-2.6,1
							c-0.5,0.9-0.5,1.9-0.6,2.9c-0.1,0.9-0.1,1.9,0.1,2.9c0.1,0.5,0.2,0.9,0.3,1.4c0.1,0.3-0.6,0.7,0,1c-0.1,0.2,0,0.3,1.8,0.4
							c1.6,0.1,4.2,0.1,7.1,0.1c0.1,0,0.2,0,0.4,0c0.1,0,0.1,0,0.2,0c3.9,0,8.1,0,10.6,0c5.1,0,10.3,0,15.4,0c23.7,0,57.7,0,81.4,0
							c2.5,0,11.3,0,13.6-0.1c0.6,0,1.1-0.1,1.4-0.1c1.3-0.3,0.5-0.7,0.6-1h-0.1l0,0h-0.1c0.1-0.4-0.2-0.9-0.1-1.3
							c0.1-0.6,0.2-1.3,0.2-1.9c0-0.8-0.1-1.5-0.3-2.3c-0.2-0.7,0.6-1.7,0.9-2.4C168.2,168.2,168.2,168.2,165.8,168.1z"/>
					</g>
				</g>
				<g>
					<g>
						<path class="st54" d="M169.6,165.6c-26.8-0.9-69.1,0.2-95.8-0.2c-14.4-0.2-28.8,0.4-43.2,0.6c-2.3,0.1-1.1,2.6-0.8,3.9
							c41.3-0.1,98.7,0,140-0.5C170.4,168.2,170.3,166.9,169.6,165.6z"/>
					</g>
				</g>
				<g>
					<g>
						<path class="st55" d="M38.7,258.3c1.6,0.3,2.9,0.2,4.4-0.1c0.3-0.6,0.5-1.4,0.4-2.2c-0.6-16.6,1.7-64.3,0.1-80.8
							c-1-1.3-3.2-0.8-4.1,0.5c-0.9,1.3-0.9,3-0.9,4.6c0.2,10.3,0.2,20.6,0.2,30.9C38.8,216.4,38.1,253.3,38.7,258.3z"/>
					</g>
				</g>
				<g>
					<g>
						<path class="st55" d="M157.5,174.3c0-0.4,0-0.9,0.3-1.1c0.3-0.2,0.7-0.2,1-0.2c1.3,0,2.6,0.1,3.9,0.1
							c-0.8,6.6-1.1,13.3-0.9,19.9c0.2,6.9,0.9,13.9,0.3,20.8c-0.4,4.9-1.6,37.1-0.8,41.9c0,0.1-3.4-0.1-3.9-1.4
							c-0.7-1.8,0-32.6,0-34.5c0-5.1,0-10.2,0-15.3C157.5,194.5,157.5,184.4,157.5,174.3z"/>
					</g>
				</g>
			</g>
		</g>
		<g>
			<g>
				<g>
					<path class="st54" d="M118.8,194.6c-0.7,0-2.6,0-3.2-0.2c-1.2-0.4-0.4-1.5-0.6-2.2c-0.6-2.4-0.9-5.3-0.8-7.7
						c0.1-1.9,0.2-4.6,0.6-6.5c0.1-0.3,0.9-0.5,2-0.5c1.5,0,1.5,0,2.5,0c2.8,0.1,5,0,7.9,0c9.1,0,18.1,0.1,27.2,0.1
						c1.2,0,3-0.5,3.6,0.1c0.3,0.3,0,1.2,0,1.5c0,2.4,0,4.9,0.1,7.4c0.1,1.3,0.1,2.5,0.2,3.8c0.1,1-0.1,2.4-0.6,3.5
						c-0.7,1.6-7.2,1-9.7,1c-4.6-0.1-9.3-0.1-13.9-0.2C129.1,194.4,123.9,194.7,118.8,194.6z"/>
				</g>
			</g>
			<g>
				<g>
					<path class="st55" d="M134.6,185.9c0,0.6,0.5,1,1,1.2c0.6,0.3,1.4,0.4,2.1,0.1c0.6-0.3,1.1-1.1,0.9-1.8
						C137.9,183.7,134.4,183.8,134.6,185.9z"/>
				</g>
			</g>
		</g>
		<g>
			<g>
				<g>
					<path class="st56" d="M76.1,122.5c0.1-1.6,0.2-3.2,0.9-4.6c0.4-0.8,1.1-1.5,1.9-1.3c0.7,0.2,1.1,1,1.2,1.8
						c0.5,3.1-0.5,6.1-1.1,9.2c-0.2,1.2-0.4,2.8-1.6,3.5c-0.8,0.5-1.3,0.1-1.5-0.7c-0.3-1.1-0.1-2.2,0-3.3
						C75.9,125.4,75.9,123.9,76.1,122.5z"/>
				</g>
				<g>
					<path class="st57" d="M69,119.3c-0.2-0.8-0.3-1.9,0.4-2.4c0.4-0.2,0.9-0.2,1.4,0c0.4,0.2,0.7,0.6,1,1c0.9,1.4,1.4,3,1.8,4.6
						c0.6,2,1.1,4,1.3,6.1c0,0.6,0.1,1.2-0.2,1.8c-0.6,1.2-2,1.1-2.6,0c-0.4-0.7-0.3-1.8-0.4-2.6C71,124.9,69.8,122.1,69,119.3z"/>
				</g>
				<g>
					<path class="st57" d="M81.5,122.9c0.6-0.9,1.2-1.9,1.1-3c0-1.1-1-2.2-2-1.9c-0.6,0.2-1,0.7-1.3,1.3c-1.7,3-2.5,6.4-3.2,9.8
						c-0.2,0.8-0.1,2.1,1.1,2c0.8-0.1,0.8-1,1.1-1.7C79.1,127.1,80.3,124.9,81.5,122.9z"/>
				</g>
				<g>
					<path class="st58" d="M72.4,119.5c-0.2-0.9-0.2-2.1,0.6-2.6c0.7-0.5,1.7-0.1,2.3,0.6c0.5,0.7,0.7,1.6,0.8,2.4
						c0.3,2.1,0.7,4.2,1,6.2c0.1,0.7,0.2,1.3,0.3,2c0.1,0.6,0.1,1.3-0.2,1.9c-0.3,0.8-1.6,1.9-2.4,1.1c-0.5-0.5-0.4-2.3-0.5-3
						C73.8,125.2,72.9,122.3,72.4,119.5z"/>
				</g>
			</g>
			<g>
				<path class="st59" d="M69.5,131.1c0.1,1.2,0.2,2.4,0.7,3.4c0.2,0.5,0.6,0.9,1,1.3c0.4,0.4,1,0.6,1.6,0.8
					c1.5,0.5,3.2,0.4,4.7-0.2c1.5-0.6,2.7-1.9,3.2-3.4c0.4-1,0.4-2.1,0.5-3.2c0.1-1,0.1-2-0.2-3c-0.1-0.2-0.2-0.4-0.3-0.6
					c-0.2-0.2-0.4-0.2-0.7-0.3c-0.7-0.1-1.4-0.2-2.1-0.2c-0.9-0.1-1.8-0.1-2.6-0.2c-1.1-0.1-2.2-0.2-3.3-0.1c-0.7,0-1.9-0.1-2.4,0.5
					c-0.3,0.5-0.2,1.5-0.2,2C69.4,129,69.4,130,69.5,131.1z"/>
			</g>
			<g>
				<path class="st60" d="M72.9,134.4c-1.5-1.8-1.2-4.2-1.2-6.4c0-0.2-0.4-0.2-0.4,0c-0.1,2.4-0.7,4.9,1.1,6.9
					C72.7,135.3,73.2,134.8,72.9,134.4z"/>
			</g>
			<g>
				<path class="st60" d="M74.9,134c-1.3-0.8-1.6-2.6-1.5-3.9c0-0.3-0.5-0.3-0.5,0c-0.1,1.5,0.1,3.9,1.5,4.8
					C75,135.1,75.4,134.4,74.9,134z"/>
			</g>
			<g>
				<path class="st60" d="M78,133.2c-1,0.7-2.2-0.2-2.6-1.2c-0.1-0.4-0.7-0.2-0.6,0.2c0.3,1.5,2.3,3.3,3.8,1.9
					C79,133.6,78.5,132.9,78,133.2z"/>
			</g>
		</g>
		<g>
			<g>
				<g>
					<path class="st54" d="M64.8,265.2c-0.1-2.2,0.4-8.5,0.5-10.8L66,239l1.5-30.7c0-0.6,0.2-1,0.4-1.2c0,0,0-0.1,0-0.1
						c-0.1-1.9,2-2.5,2.1-0.6c0.2,9.3-0.8,19-1.2,28.4c-0.2,4.7-0.6,9.2-0.8,13.9c-0.2,3.9-0.5,11.6-0.8,15.5c0,0.9-0.1,1.8-0.1,2.6
						c0,0.8-0.4,1.2-0.7,1.1c0,0-0.1,0-0.1,0C65.4,268.3,64.8,266.8,64.8,265.2z"/>
				</g>
			</g>
			<g>
				<g>
					<path class="st54" d="M92.2,265.2c0.1-2.2,0-8.5-0.1-10.8L91.3,239l-1.5-30.7c0-0.6-0.2-1-0.4-1.2c0,0,0-0.1,0-0.1
						c0.1-1.9-2-2.5-2.1-0.6c-0.2,9.3,0.8,19,1.2,28.4c0.2,4.7,0.6,9.2,0.8,13.9c0.2,3.9,0.1,11.6,0.5,15.5c0,0.9,0.1,1.8,0.1,2.6
						c0,0.8,0.4,1.2,0.7,1.1c0,0,0.1,0,0.1,0C91.6,268.3,92.1,266.8,92.2,265.2z"/>
				</g>
			</g>
			<g>
				<path class="st54" d="M74.2,249.4c0.7,0,1.3,0,2,0c0.7,0,1.5,0,2.2,0c3.9,0,7.8,0,11.7,0c1.8,0,1.8-1.7,0.1-1.8
					c-3.9,0-7.8,0-11.7,0c-1.9,0-3.7,0-5.6,0c-1.9-0.1-3.9-0.2-5.8-0.3c-1.9-0.1-1.9,1.7-0.1,1.9C69.4,249.4,71.8,249.4,74.2,249.4z
					"/>
			</g>
			<g>
				<path class="st54" d="M74,254.6c0.8,0,1.6,0,2.3,0c0.9,0,1.8,0,2.6,0c4.7,0,9.3,0.1,14,0c2.1,0,2.2-2.1,0.1-2.1
					c-4.7,0-9.3,0-14,0c-2.2,0-4.5,0-6.7,0c-2.3-0.1-4.6-0.2-6.9-0.3c-2.3-0.1-2.3,2.1-0.1,2.3C68.2,254.6,71.1,254.6,74,254.6z"/>
			</g>
			<g>
				<path class="st39" d="M67.3,249.6c0.2-0.3,0.4-0.6,0.4-0.9c0.1-0.3-0.1-0.7-0.4-0.8c-0.3-0.1-0.7,0-0.9,0.2
					c-0.5,0.4-0.8,0.8-1.2,1.3c-0.7,0.9-1.2,1.9-1.8,3c-0.7,1.3,0,2.6,1.1,1.1C65.5,252.2,66.4,250.8,67.3,249.6z"/>
			</g>
			<g>
				<path class="st39" d="M91.9,252.3c0.3,0.5,0.7,1.1,1.3,1.1c0.1,0,0.3,0,0.4-0.1c0.2-0.1,0.2-0.4,0.2-0.6c0-0.3-0.2-0.6-0.3-0.9
					c-0.3-0.6-0.6-1.2-1-1.8c-0.3-0.5-0.5-1-0.8-1.5c-0.1-0.2-0.2-0.3-0.3-0.4c-0.3-0.3-1-0.4-1.3-0.1c-0.4,0.4-0.2,0.6,0.1,1.1
					C90.7,250.1,91.3,251.2,91.9,252.3z"/>
			</g>
			<g>
				<path class="st54" d="M61.2,268.9c-0.1-2.7,0.2-5.6,0.4-8.3l0.9-18.6l1.8-36.9c0-0.7,0.2-1.1,0.5-1.4c0,0,0-0.1,0-0.1
					c-0.1-2.2,2.4-3,2.5-0.8c0.3,11.1-0.9,22.8-1.4,34c-0.2,5.7-0.7,11-0.9,16.7c-0.2,4.6-0.3,9.3-0.7,13.9c0,1.1-0.1,2.1-0.1,3.2
					c0,1-0.5,1.4-0.9,1.4c0,0-0.1,0-0.1,0C61.9,272.6,61.3,270.8,61.2,268.9z"/>
			</g>
			<g>
				<g>
					<path class="st54" d="M96.2,268.9c0.1-2.7-0.2-5.6-0.4-8.3L94.9,242l-1.8-36.9c0-0.7-0.2-1.1-0.5-1.4c0,0,0-0.1,0-0.1
						c0.1-2.2-2.4-3-2.5-0.8c-0.3,11.1,0.9,22.8,1.4,34c0.2,5.7,0.7,11,0.9,16.7c0.2,4.6,0.3,9.3,0.7,13.9c0,1.1,0.1,2.1,0.1,3.2
						c0,1,0.5,1.4,0.9,1.4c0,0,0.1,0,0.1,0C95.5,272.6,96.1,270.8,96.2,268.9z"/>
				</g>
			</g>
			<g>
				<g>
					<path class="st55" d="M62.6,206.3c2.1,1.2,18.8,3.6,27.7,1.1c1.1-0.3,2.2-0.7,3.1-1.5c0.8-0.8,1.4-2,1-3.1
						c-0.1-0.1-0.1-0.3-0.3-0.4c-0.1-0.1-0.3-0.1-0.4-0.1c-8.9-0.1-17.9-0.2-26.8-0.2c-1.2,0-3-0.1-4,0.8
						C61.9,203.8,61.9,204.6,62.6,206.3z"/>
				</g>
				<g>
					<g>
						<path class="st54" d="M66,205.6c-1.1-0.2-2.2-0.4-3-1.2c-0.4-0.4-0.6-0.8-0.7-1.3c-0.1-1,0.7-1.9,1.5-2.4
							c1.7-1,3.6-1.5,5.5-1.6c4.4-0.1,8.3-0.1,13.1,0c3.7,0.1,7.7-0.2,10.7,1.8c0.5,0.3,0.9,0.7,1.1,1.2c0.2,0.7-0.2,1.4-0.7,1.9
							c-0.6,0.4-1.2,0.7-1.9,0.8c-4.2,1.1-8.7,1.6-13,1.4C74.4,206.1,70.2,206.4,66,205.6z"/>
					</g>
				</g>
			</g>
		</g>
		<g>
			<g>
				<g>
					<path class="st61" d="M119.9,95.4c-0.2-0.1-0.4-0.1-0.6-0.2c0-0.4-0.2-0.7-0.6-0.9c0.3-0.1,0.6-0.2,0.8-0.3
						c0.3-0.1,0.2-0.6-0.1-0.5c-0.2,0-0.3,0.1-0.5,0.2c0-0.4-0.1-0.9-0.4-1.2c-0.1-0.1-0.3-0.2-0.5-0.3c0-0.2,0-0.5,0-0.7
						c0-0.3-0.5-0.3-0.5,0c0,0.2,0,0.4-0.1,0.6c-0.3,0-0.6,0-0.9,0.2c0-1.1-0.8-2.1-1.8-2.2c0-0.2,0-0.4,0-0.6c0-0.3-0.5-0.3-0.5,0
						c0,0.2,0,0.4,0,0.6c-1,0.1-1.9,0.9-2,1.9c-0.2-0.2-0.5-0.3-0.8-0.3c0-0.3-0.1-0.5-0.2-0.8c-0.1-0.3-0.5-0.2-0.5,0.1
						c0,0.3,0.1,0.5,0.1,0.8c0,0-0.1,0-0.1,0c-0.5,0.2-0.8,0.5-1.2,0.9c-0.1,0.1-0.2,0.2-0.2,0.4c-0.1-0.1-0.3-0.2-0.4-0.4
						c-0.2-0.2-0.6,0.1-0.4,0.4c0.2,0.2,0.3,0.3,0.5,0.5c-0.3,0.7-0.4,1.4-0.4,2.1c0,0.6,0.2,1.1,0.6,1.5c0.4,0.3,0.9,0.5,1.4,0.6
						c1.2,0.2,2.4,0.3,3.7,0.4c1.7,0,3.6-0.3,4.6-1.6c0.2-0.2,0.3-0.4,0.3-0.7c0.2,0,0.4,0.1,0.5,0.1
						C120.1,95.9,120.2,95.5,119.9,95.4z"/>
				</g>
				<g>
					<g>
						<path class="st33" d="M110.9,95.8c0-0.3-0.5-0.3-0.5,0c0,0.3,0,0.6,0.1,0.9c0.1,0.3,0.5,0.2,0.5-0.1
							C110.9,96.3,110.9,96.1,110.9,95.8z"/>
					</g>
					<g>
						<path class="st33" d="M110.8,93.6c-0.2,0.2-0.2,0.4-0.2,0.7c0,0.3,0.5,0.3,0.5,0c0-0.1,0-0.3,0.1-0.4
							C111.4,93.6,111.1,93.3,110.8,93.6z"/>
					</g>
					<g>
						<path class="st33" d="M113.9,96.1c0,0.2,0,0.4-0.1,0.6c-0.1,0.3,0.3,0.4,0.4,0.1c0.1-0.2,0.2-0.5,0.2-0.7
							C114.5,95.7,114,95.7,113.9,96.1z"/>
					</g>
					<g>
						<path class="st33" d="M114.3,94.6c0.1-0.3,0-0.7-0.1-1c-0.1-0.3-0.6-0.1-0.5,0.2c0.1,0.2,0.1,0.5,0.1,0.7
							C113.8,94.8,114.3,94.9,114.3,94.6z"/>
					</g>
					<g>
						<path class="st33" d="M113.9,92.4c0.3,0,0.3-0.5,0-0.5C113.6,91.9,113.6,92.4,113.9,92.4z"/>
					</g>
					<g>
						<path class="st33" d="M116.3,96.1c0,0.3-0.1,0.5-0.1,0.8c0,0.3,0.3,0.4,0.4,0.1c0.1-0.3,0.1-0.6,0.2-0.8
							C116.8,95.8,116.3,95.8,116.3,96.1z"/>
					</g>
					<g>
						<path class="st33" d="M116.6,94.9c0-0.3-0.1-0.5-0.2-0.7c-0.2-0.3-0.6,0-0.4,0.2c0.1,0.2,0.1,0.3,0.1,0.5
							C116.2,95.2,116.7,95.2,116.6,94.9z"/>
					</g>
					<g>
						<path class="st33" d="M115.7,92.1c-0.3,0-0.3,0.5,0,0.5S116,92.1,115.7,92.1z"/>
					</g>
					<g>
						<path class="st33" d="M111.5,92.2c-0.3,0-0.3,0.5,0,0.5S111.8,92.2,111.5,92.2z"/>
					</g>
				</g>
			</g>
			<g>
				<g>
					<g>
						<path class="st49" d="M109.5,108.2c0.1,0.2,0.4,0.2,0.6,0.2c2.8-0.1,5.6,0.2,8.4,0.1c0.4-3.5,0.8-7.4,0.8-10.9
							c-2,0-3.9,0-5.9,0c-1,0-1.9,0-2.9,0c-0.6,0-2.2-0.1-2.2,0.2c-0.1,0.6,0.1,1.7,0.2,2.3c0.1,0.9,0.2,1.7,0.3,2.6
							c0.2,1.7,0.4,3.3,0.6,5C109.4,107.8,109.4,108,109.5,108.2z"/>
					</g>
					<g>
						<path class="st62" d="M116.9,102.9c-1,0.3-2,0.2-3,0.3c-1.2,0.1-2.4,0.2-3.6,0.2c-0.8,0-0.8,1.1,0,1.2c2.2,0.2,5,0.9,7.2,0.2
							C118.7,104.4,118.2,102.5,116.9,102.9z"/>
					</g>
					<g>
						<path class="st62" d="M110.6,105.9c-0.7,0-0.7,1,0,1C111.2,106.9,111.2,105.9,110.6,105.9z"/>
					</g>
					<g>
						<path class="st62" d="M113.3,106.3c-0.4,0-0.4,0.6,0,0.6C113.7,106.9,113.7,106.3,113.3,106.3z"/>
					</g>
					<g>
						<path class="st62" d="M117.1,106.3C117,106.2,117,106.2,117.1,106.3c-0.4-0.3-1-0.2-1,0.4c0,0.5,0.6,0.7,1,0.4c0,0,0,0,0,0
							C117.3,106.8,117.3,106.4,117.1,106.3z"/>
					</g>
				</g>
			</g>
		</g>
		<g>
			<g>
				<g>
					<g>
						<path class="st35" d="M93.7,76.9c-0.7-0.8-2-0.9-2.8-0.5c-0.9,0.4-1.4,1.2-2,2c0-1,0-2-0.2-3c-0.1-0.9-0.3-1.8-0.8-2.6
							c-0.4-0.8-1.2-1.5-2.1-1.6c-1.5-0.3-3,0.9-3.5,2.4c-0.5,1.4-0.4,3.1-0.2,4.6c0.3,2.5,0.6,5,0.8,7.5c0,0.4-0.1,3.6,0.1,3.9
							c0.3,0.4,1.6,0.6,2.1,0.6c0.8,0.1,2.4,0.1,3.1-0.3c0.1-0.1,0.2-0.1,0.3-0.2c0.2-0.2,0.2-0.4,0.2-0.7c0.1-0.4-0.7-3.3-0.6-3.7
							c0,0,0.1-0.1,0.1-0.1c1.8-1.6,3.7-3.1,5.1-5c0.3-0.5,0.6-1,0.7-1.6C94.2,78.1,94.1,77.4,93.7,76.9z"/>
					</g>
					<g>
						<path class="st36" d="M86.8,76.6c0-0.4-0.6-0.4-0.6,0c0,0.3,0,0.5,0,0.8c0,0.4,0.6,0.4,0.6,0C86.8,77.1,86.8,76.8,86.8,76.6z"
							/>
					</g>
					<g>
						<path class="st36" d="M84.9,79.5c0.1-0.4-0.5-0.5-0.6-0.2c-0.1,0.3-0.1,0.5-0.1,0.8c0,0.4,0.7,0.4,0.6,0
							C84.9,79.9,84.9,79.8,84.9,79.5z"/>
					</g>
					<g>
						<path class="st36" d="M85,85.2c-0.1-0.3-0.1-0.6-0.1-0.9c0-0.4-0.7-0.4-0.7,0c0,0.4,0,0.8,0.1,1.1
							C84.4,85.8,85.1,85.6,85,85.2z"/>
					</g>
					<g>
						<path class="st36" d="M87.9,81.9c-0.1,0.1-0.2,0.3-0.3,0.4c-0.3,0.3,0.2,0.8,0.5,0.5c0.1-0.1,0.3-0.2,0.4-0.3
							C88.8,82.1,88.3,81.6,87.9,81.9z"/>
					</g>
					<g>
						<path class="st36" d="M91.4,78.5c-0.1,0.2-0.2,0.3-0.4,0.5c-0.3,0.3,0.2,0.8,0.5,0.5c0.1-0.1,0.3-0.3,0.4-0.4
							C92.2,78.7,91.6,78.1,91.4,78.5z"/>
					</g>
					<g>
						<path class="st35" d="M80,76.4c-0.2-0.4-0.4-0.8-0.8-0.9c-0.2,0-0.4,0-0.6,0.1c-0.4,0.2-0.8,0.7-0.9,1.1
							c-0.2,0.5-0.2,1-0.2,1.5c0,0.9,0.1,1.9,0.5,2.7c0.4,0.8,1.2,1.5,2.1,1.6c0.4,0.1,0.9-0.1,1.3-0.2c0.6-0.1,1.2-0.3,1.6-0.8
							c0.2-0.3,0.3-0.7,0.3-1c0.1-0.4,0.1-0.8,0.1-1.2s-0.4-0.8-0.8-0.8c-0.6-0.1-1.6,1-2.1,0.3c-0.2-0.3-0.1-0.9-0.1-1.2
							C80.2,77.2,80.2,76.8,80,76.4z"/>
					</g>
					<g>
						<path class="st36" d="M84.9,74.4c0-0.4-0.6-0.4-0.6,0c0,0.3,0,0.5,0,0.8c0,0.4,0.6,0.4,0.6,0C84.9,75,84.9,74.7,84.9,74.4z"/>
					</g>
					<g>
						<path class="st36" d="M78.7,77.7c0-0.4-0.6-0.4-0.6,0c0,0.3,0,0.5,0,0.8c0,0.4,0.6,0.4,0.6,0C78.7,78.2,78.7,77.9,78.7,77.7z"
							/>
					</g>
					<g>
						<path class="st36" d="M79.6,80.7c-0.4-0.1-0.6,0.4-0.2,0.6c0.3,0.1,0.5,0.2,0.8,0.3c0.4,0.1,0.6-0.5,0.2-0.6
							C80.1,80.9,79.8,80.8,79.6,80.7z"/>
					</g>
				</g>
				<g>
					<path class="st36" d="M87.6,88.3c-0.1-0.3-0.1-0.6-0.1-0.9c0-0.4-0.7-0.4-0.7,0c0,0.4,0,0.8,0.1,1.1C87,89,87.7,88.8,87.6,88.3
						z"/>
				</g>
			</g>
			<g>
				<path class="st38" d="M79,103.2c0,0.6,0,1.2,0.3,1.8c0.5,1.2,1.8,1.8,3.1,2.1c1.9,0.4,4,0.4,6,0.3c0.9,0,2-0.1,2.7-0.7
					c0.3-0.2,0.5-0.5,0.6-0.8c0.1-0.3,0.2-0.6,0.3-0.9c0.1-0.5,0.2-1,0.3-1.6c0.2-0.9,0.1-1.9,0.2-2.8c0.1-1.1,0.2-2.1,0.1-3.2
					c0-0.9,0-1.8,0.1-2.8c0.1-2.4-0.1-5,0.1-7.3c-4.1-1-8-0.8-12.1-0.2c-0.7,0.1-1.9,0.3-2.1,1.2c-0.1,0.4,0,1,0.1,1.4
					c0,0.6,0,1.2,0.1,1.8c0.1,2.5,0.2,5,0.2,7.5C78.9,100.4,79,101.8,79,103.2z"/>
			</g>
			<g>
				<path class="st39" d="M78.8,106.4c0.4-0.2,0.8-0.2,1.3-0.2c3.8,0.1,7.6,0.4,11.3,0.1c0.7-0.1,1.5-0.1,1.8,0.5
					c0.3,0.5,0.1,1.2-0.4,1.6s-1.1,0.4-1.7,0.5c-2.3,0.2-4.5,0.1-6.8,0c-1.2,0-2.4-0.1-3.5,0c-0.6,0-1.5,0.3-2.1-0.1
					C78,108.2,78,106.9,78.8,106.4z"/>
			</g>
			<g>
				<path class="st40" d="M81,91.2c-0.2-0.1-0.4-0.2-0.5-0.1c-0.2,0.1-0.3,0.4-0.3,0.6c0,0.1,0.2,0.1,0.2,0c0-0.2,0.2-0.5,0.4-0.4
					c0.2,0.1,0.1,0.3-0.1,0.3c-0.2,0-0.3,0.3-0.1,0.3C81,92.1,81.3,91.5,81,91.2z"/>
			</g>
			<g>
				<path class="st40" d="M88.4,93.5C88.4,93.5,88.4,93.5,88.4,93.5c-0.4-0.4-0.9-0.1-0.8,0.4c0.1,0.5,0.8,0.6,1,0.1
					C88.6,93.8,88.6,93.7,88.4,93.5z"/>
			</g>
			<g>
				<path class="st40" d="M80.8,91.5c-0.1-0.1-0.2-0.2-0.3-0.2c-0.1,0-0.3,0-0.3,0.1c-0.1,0.1-0.1,0.2-0.1,0.4
					c0.1,0.1,0.3,0.2,0.4,0.1C80.8,91.9,80.9,91.7,80.8,91.5z"/>
			</g>
			<g>
				<path class="st40" d="M85.6,88.6c-0.3,0.1-0.4,0.6-0.2,0.8c0.3,0.3,0.9,0.1,0.9-0.4C86.4,88.7,85.9,88.3,85.6,88.6z"/>
			</g>
			<g>
				<path class="st40" d="M84.2,96.8c-0.1-0.1-0.3-0.2-0.5-0.2c0-0.1,0-0.1-0.1-0.1c-0.3,0-0.7,0.1-0.9,0.5c-0.1,0.3,0,0.6,0.3,0.8
					c0.3,0.2,0.8,0.2,1.1-0.1C84.4,97.4,84.5,97,84.2,96.8z"/>
			</g>
			<g>
				<path class="st40" d="M81.4,101c-0.1-0.2-0.4-0.2-0.6-0.1c-0.2,0.1-0.3,0.4-0.1,0.6C81.1,101.8,81.7,101.3,81.4,101z"/>
			</g>
			<g>
				<path class="st40" d="M79.8,94.9c-0.4-0.3-0.8,0.4-0.7,0.8c0,0,0,0.1,0.1,0.1c0,0,0,0.1,0,0.1c0.1,0.2,0.3,0.2,0.5,0.2
					C80.2,95.8,80.2,95.2,79.8,94.9z"/>
			</g>
			<g>
				<path class="st40" d="M84,88.4c-0.1-0.1-0.2-0.1-0.4-0.1c0,0-0.1,0-0.1,0c-0.2,0.1-0.4,0.2-0.6,0.4c-0.1,0.2-0.1,0.4,0.1,0.6
					c0.3,0.3,0.8,0.1,1.1-0.3C84.2,88.8,84.2,88.6,84,88.4z"/>
			</g>
			<g>
				<path class="st40" d="M88.3,98.4c0-0.1-0.1-0.2-0.2-0.2c-0.1,0-0.1,0-0.1,0c-0.1,0-0.2,0-0.2,0.2c0,0,0,0.1,0,0.1l0,0l0,0l0,0
					l0,0c0,0.1,0.1,0.2,0.1,0.2C88.2,98.9,88.4,98.6,88.3,98.4z"/>
			</g>
			<g>
				<path class="st40" d="M83.9,93c-0.1,0.1-0.1,0.2,0,0.3c0.1,0.1,0.2,0.2,0.4,0.1C84.7,93.2,84.2,92.7,83.9,93z"/>
			</g>
			<g>
				<path class="st40" d="M84.9,103.5c-0.1-0.1-0.2-0.2-0.3-0.2c0-0.1-0.1-0.2-0.2-0.2c-0.2,0.1-0.4,0.3-0.4,0.5
					c0,0.2,0.1,0.4,0.3,0.5C84.7,104.3,85.2,103.9,84.9,103.5z"/>
			</g>
			<g>
				<path class="st40" d="M90.1,91.2c-0.1-0.1-0.2-0.1-0.2-0.1c-0.1,0-0.1,0-0.2,0c0,0-0.1,0-0.1,0.1c-0.2,0.1,0,0.4,0.2,0.3
					c0.1,0,0.2,0.1,0.2,0C90.1,91.5,90.1,91.3,90.1,91.2z"/>
			</g>
		</g>
		<g>
			<g>
				<path class="st33" d="M127.9,98.4c-1.2-2.3-3.5-4.3-5.2-6.2c0,0-0.1,0-0.1,0l0,0c-0.1-0.1-0.2,0.1-0.2,0.2
					c1.8,2,3.2,4.1,4.4,6.5c0.1,0.2,0.4,0,0.3-0.2c0,0,0-0.1,0-0.1c0.1,0,0.1,0,0.1,0l0,0c0.1,0,0.2,0.1,0.4,0.2
					C127.8,98.9,128,98.6,127.9,98.4z"/>
			</g>
			<g>
				<path class="st33" d="M129.4,94.4c0.6-1.8,1.7-3.5,3.2-4.7c-0.4,0.6-0.8,1.2-1.1,1.9c-1,2.1-1.1,4.5-1.3,6.8
					c0,0.4-0.9,0.2-1.1,0.1c-0.3-0.2-0.3-0.5-0.3-0.8C128.8,96.6,129.1,95.5,129.4,94.4z"/>
			</g>
			<g>
				<path class="st33" d="M125.5,97.6c-0.5-0.4-1-0.9-1.6-1.2c-1.3-0.6-2.8-0.7-4.2-0.6c0.5-0.4,1.1-0.4,1.7-0.4
					c2.1,0.1,4.1,1.1,5.9,2.1c0.1,0.1,0.2,0.1,0.3,0.2c0.3,0.4-0.1,1.4-0.7,1.2C126.4,98.8,125.9,97.9,125.5,97.6z"/>
			</g>
			<g>
				<path class="st43" d="M128,93.9c0.2-1.7,0.6-3.4,1.5-4.9c-0.4,2.9-0.7,5.8-0.1,8.7c0.1,0.6-0.1,1-0.7,1c-0.5,0-0.7-0.2-0.7-0.7
					C127.8,96.7,127.8,95.3,128,93.9z"/>
			</g>
			<g>
				<path class="st33" d="M133.4,94.9c1-0.8,2.1-1.3,3.4-1.5c-1,0.3-1.8,0.9-2.6,1.6c-1.1,1-2.1,2.3-2.1,3.7c0-0.1-1.4-0.2-1.5-0.4
					c-0.1-0.2,0.6-1,0.7-1.2C132,96.3,132.6,95.5,133.4,94.9z"/>
			</g>
			<g>
				<path class="st33" d="M131.9,92.5c0.6-0.8,1.4-1.6,2.4-1.6c-1.4,1.1-2.2,2.8-2.8,4.6c-0.2,0.6-0.4,1.3-0.3,1.9
					c0,0.4,0.1,0.8,0.1,1.2c-0.5,0-1.7,0.3-1.9-0.3c-0.2-0.5,0.3-1.5,0.4-2C130.3,95,131,93.7,131.9,92.5z"/>
			</g>
			<g>
				<path class="st43" d="M128.3,96.8c-1.1-2-2.3-4-4.1-5.3c1.7,2,2.8,4.6,3.1,7.2c0,0.2,1.3,0,1.5-0.3
					C129.1,98,128.6,97.2,128.3,96.8z"/>
			</g>
			<g>
				<path class="st43" d="M125.1,96.7c-1.1-1.3-2.3-2.7-3.9-3.4c0.3,0.1,0.5,0.2,0.8,0.3c1,0.5,2,0.9,2.9,1.5c0.7,0.5,1.4,1,2.1,1.5
					c0.6,0.4,1.2,0.7,1.6,1.2c0,0.1,0.1,0.1,0.1,0.2c0,0.1-0.1,0.2-0.2,0.2c-0.5,0.2-1.6,1-2.1,0.5c-0.2-0.3-0.3-0.7-0.5-1
					C125.7,97.3,125.4,97,125.1,96.7z"/>
			</g>
			<g>
				<path class="st33" d="M126.2,92.1c-0.2-0.6-0.5-1.2-0.5-1.9c0.9,0.8,1.5,1.9,2.1,3c0.7,1.4,1.3,2.9,1.9,4.4
					c0.1,0.3,0.3,0.7,0.3,1.1c-1.6,0.4-1.7-0.8-2.1-2C127.3,95.2,126.8,93.6,126.2,92.1z"/>
			</g>
			<g>
				<path class="st43" d="M134.2,92.9c-1.4,0.6-2.4,1.9-3.3,3.1c-0.6,0.8-1.2,1.7-1.6,2.7c0.3,0.1,1.4,0.6,1.8,0.4
					c0.3-0.2,0.4-1.2,0.5-1.5c0.4-1.1,0.8-2.2,1.4-3.2C133.2,94,133.7,93.1,134.2,92.9z"/>
			</g>
		</g>
		<g>
			<g>
				<path class="st63" d="M125.6,105.6c0,0.3,0,0.6,0.2,0.9c0.3,0.6,1,0.9,1.7,1c1.1,0.2,2.2,0.2,3.3,0.2c0.5,0,1.1-0.1,1.5-0.3
					c0.1-0.1,0.3-0.2,0.3-0.4c0.1-0.1,0.1-0.3,0.1-0.4c0.1-0.3,0.1-0.5,0.2-0.8c0.1-0.4,0.1-0.9,0.1-1.4c0-0.5,0.1-1,0.1-1.6
					c0-0.4,0-0.9,0-1.4c0.1-1.2,0-2.4,0-3.6c-2.2-0.5-4.4-0.4-6.6-0.1c-0.4,0.1-1,0.2-1.1,0.6c-0.1,0.2,0,0.5,0,0.7
					c0,0.3,0,0.6,0,0.9c0,1.2,0.1,2.5,0.1,3.7C125.5,104.2,125.5,104.9,125.6,105.6z"/>
			</g>
			<g>
				<path class="st39" d="M125.4,107.1c0.2-0.1,0.4-0.1,0.7-0.1c2.1,0,4.1,0.2,6.2,0c0.4,0,0.8-0.1,1,0.3c0.2,0.3,0,0.7-0.2,0.8
					c-0.3,0.2-0.6,0.2-0.9,0.3c-1.2,0.1-2.5,0-3.7,0c-0.6,0-1.3,0-1.9,0c-0.3,0-0.8,0.2-1.1-0.1
					C124.9,108.1,124.9,107.4,125.4,107.1z"/>
			</g>
		</g>
		<g>
			<g>
				<g>
					<path class="st55" d="M123.8,145.6c0-0.6,0.1-1.3,0.4-1.7c0.4-0.5,0.5-0.6,1.2-0.7c3.6-0.2,7-0.1,10.9-0.1
						c0.5,0,1.4-0.1,1.8,0.3c0.5,0.5,0.5,0.2,0.5,1c0.2,5.7,0.3,14.6,0,20.5c0,0.4,0.1,1.1-0.2,1.4c-0.3,0.4-1.3,0.2-1.8,0.2
						c-2.6,0.1-5.1-0.1-7.7-0.1c-1.3,0-2.6,0.1-4,0.1c-1.2,0-1.3,0.1-1.3-1.4C123.6,159.5,123.8,151.2,123.8,145.6z"/>
				</g>
			</g>
			<g>
				<g>
					<path class="st54" d="M124.2,149.4c0,0.1,0,0.3,0.1,0.4c0.1,0.1,0.3,0.1,0.4,0.1c1.9,0.1,3.8,0,5.6,0c2.2,0.1,4.5,0.3,6.7,0
						c0.2,0,0.4-0.1,0.6-0.2c0.1-0.2,0.2-0.4,0.2-0.6c0.1-1.6,0.2-3.3,0.2-4.9c0-0.1,0-0.3-0.1-0.4s-0.3-0.1-0.4-0.1c-3,0-6,0-8.9,0
						c-0.9,0-1.7,0-2.6,0.1c-0.5,0-1.7,0-1.8,0.6c-0.1,0.3,0.1,0.7,0.1,1c0,0.4,0,0.9,0,1.3C124.2,147.6,124.2,148.5,124.2,149.4z"
						/>
				</g>
			</g>
			<g>
				<g>
					<path class="st54" d="M137.5,150.4c0.1,0,0.2,0,0.3,0.1c0.1,0.1,0.2,0.3,0.2,0.5c0.1,2,0.2,4,0.2,6c0,0.1,0,0.2-0.1,0.3
						c-0.1,0.1-0.2,0.1-0.3,0.1c-0.9,0.1-1.9,0.1-2.8,0.1c-3.2-0.1-6.5,0.1-9.7,0c-0.3,0-0.7-0.1-0.8-0.3c-0.1-0.1-0.1-0.5-0.1-0.7
						c0-1.3-0.1-2.6-0.1-3.9c0-0.6-0.2-1.4-0.1-1.9c0.1-0.5,0.6-0.3,1-0.3c2.6,0.1,5.2,0.1,7.8,0.2
						C134.6,150.4,136,150.4,137.5,150.4z"/>
				</g>
			</g>
			<g>
				<g>
					<path class="st54" d="M136.9,157.9c0.2,0,0.4,0,0.6,0c0.2,0.1,0.4,0.2,0.4,0.4c0,0.1,0,0.2,0,0.3c-0.1,2.2,0.2,4.3,0.1,6.5
						c0,0.1,0,0.2-0.1,0.4c-0.1,0.2-0.7,0.3-0.9,0.4c-2.2,0.5-4.5,0.2-6.8,0.1c-1.5-0.1-3-0.1-4.5,0c-0.4,0-0.9,0-1.1-0.3
						c-0.1-0.2-0.2-0.4-0.2-0.6c-0.1-0.8-0.2-1.6-0.2-2.4c0-1.2,0.3-2.4,0.2-3.5c0-0.3-0.2-0.9,0-1.1c0.2-0.2,0.6-0.1,0.9-0.1
						c0.9,0,1.9,0.1,2.8,0.1c1.9,0.1,3.7,0.1,5.6,0C134.8,157.9,135.9,157.9,136.9,157.9z"/>
				</g>
			</g>
			<g>
				<g>
					<path class="st55" d="M129.8,161.9c-0.1-0.1-0.1-0.2-0.1-0.4c0,0,0-0.1,0-0.1c0.1-0.1,0.2-0.1,0.3-0.1c0.6,0,1.2,0,1.8,0
						c0.1,0,0.2,0,0.3,0.1c0.1,0.1,0.2,0.3,0.2,0.4c0,0,0,0.1,0,0.1c0,0-0.1,0.1-0.1,0.1c-0.1,0-0.2,0-0.2,0c-0.4,0-0.8,0-1.2,0
						C130.5,162,130,162.1,129.8,161.9z"/>
				</g>
			</g>
			<g>
				<g>
					<path class="st55" d="M132.2,154c0.1-0.1,0.1-0.2,0.1-0.4c0,0,0-0.1,0-0.1c-0.1-0.1-0.2-0.1-0.3-0.1c-0.6,0-1.2,0-1.8,0
						c-0.1,0-0.3,0-0.4,0c-0.1,0.1-0.1,0.3-0.1,0.5c0,0,0,0.1,0,0.1c0,0,0.1,0.1,0.1,0.1c0.1,0,0.2,0,0.2,0c0.4,0,0.8,0,1.2,0
						C131.5,154.1,132,154.2,132.2,154z"/>
				</g>
			</g>
			<g>
				<path class="st55" d="M132.2,146.9c0.1-0.1,0.1-0.2,0.1-0.4c0,0,0-0.1,0-0.1c-0.1-0.1-0.2-0.1-0.3-0.1c-0.6,0-1.2,0-1.8,0
					c-0.1,0-0.3,0-0.4,0c-0.1,0.1-0.1,0.3-0.1,0.5c0,0,0,0.1,0,0.1c0,0,0.1,0.1,0.1,0.1c0.1,0,0.2,0,0.2,0c0.4,0,0.8,0,1.2,0
					C131.5,147,132,147.1,132.2,146.9z"/>
			</g>
		</g>
		<g>
			<g>
				<g>
					<path class="st55" d="M138.1,145.6c0-0.6-0.1-1.5,0.2-1.9c0.4-0.5,1.6-0.4,2.2-0.4c3.6,0,6.3-0.1,10.1-0.1
						c0.5,0,1.4-0.1,1.8,0.3c0.5,0.5,0.2,1.6,0.3,2.4c0.4,5.4,0.4,13.6,0,18.9c0,0.4-0.1,0.9-0.4,1.2c-0.3,0.4-0.9,0.4-1.4,0.4
						c-2.5,0.1-5.1-0.1-7.6-0.1c-1.3,0-2.6,0.1-3.9,0.1c-1.2,0-1.4,0.1-1.4-1.3C137.9,159.5,138.1,151.3,138.1,145.6z"/>
				</g>
			</g>
			<g>
				<g>
					<path class="st54" d="M138.7,149.5c0,0.1,0,0.2,0.1,0.4c0.1,0.1,0.3,0.1,0.4,0.1c1.9,0.1,3.7,0,5.6,0c2.2,0.1,4.5,0.3,6.7,0
						c0.2,0,0.4-0.1,0.6-0.2c0.1-0.2,0.2-0.4,0.2-0.6c0.1-1.6,0.2-3.2,0.2-4.9c0-0.1,0-0.3-0.1-0.4c-0.1-0.1-0.3-0.1-0.4-0.1
						c-3,0-5.9,0-8.9,0c-0.9,0-1.7,0-2.6,0.1c-0.5,0-1.7,0-1.8,0.6c-0.1,0.3,0,0.7,0.1,1c0,0.4,0,0.9,0,1.3
						C138.6,147.7,138.7,148.6,138.7,149.5z"/>
				</g>
			</g>
			<g>
				<g>
					<path class="st54" d="M151.9,150.5c0.1,0,0.2,0,0.3,0.1c0.1,0.1,0.2,0.3,0.2,0.5c0.1,2,0.2,3.9,0.2,5.9c0,0.1,0,0.2-0.1,0.3
						c-0.1,0.1-0.2,0.1-0.3,0.1c-0.9,0.1-1.9,0.1-2.8,0.1c-3.2-0.1-6.4,0.1-9.7,0c-0.3,0-0.7-0.1-0.8-0.3c-0.1-0.1-0.1-0.5-0.1-0.7
						c0-1.3-0.1-2.6-0.1-3.9c0-0.6-0.2-1.4-0.1-1.9c0.1-0.5,0.6-0.3,1-0.3c2.6,0.1,5.2,0.1,7.8,0.2
						C148.9,150.5,150.4,150.5,151.9,150.5z"/>
				</g>
			</g>
			<g>
				<g>
					<path class="st54" d="M151.3,157.9c0.2,0,0.4,0,0.6,0c0.2,0.1,0.4,0.2,0.4,0.4c0,0.1,0,0.2,0,0.3c-0.1,2.1-0.1,4.3-0.2,6.4
						c0,0.1,0,0.2-0.1,0.4c-0.1,0.2-0.4,0.3-0.6,0.4c-2.2,0.5-4.5,0.2-6.7,0.1c-1.5-0.1-3-0.1-4.5,0c-0.4,0-0.9,0-1.1-0.3
						c-0.1-0.2-0.1-0.4-0.2-0.6c-0.1-0.8-0.2-1.6-0.2-2.4c0-1.2,0.3-2.4,0.2-3.5c0-0.3-0.2-0.9,0-1.1c0.2-0.2,0.6-0.1,0.9-0.1
						c0.9,0,1.9,0.1,2.8,0.1c1.9,0.1,3.7,0.1,5.6,0C149.2,158,150.2,157.9,151.3,157.9z"/>
				</g>
			</g>
			<g>
				<g>
					<path class="st55" d="M144.2,162c-0.1-0.1-0.1-0.2-0.1-0.4c0,0,0-0.1,0-0.1c0.1-0.1,0.2-0.1,0.3-0.1c0.6,0,1.2,0,1.8,0
						c0.1,0,0.2,0,0.3,0.1c0.1,0.1,0.2,0.3,0.2,0.4c0,0,0,0.1,0,0.1c0,0,0,0.1-0.1,0.1c-0.1,0-0.2,0-0.2,0c-0.4,0-0.8,0-1.2,0
						C144.9,162.1,144.4,162.2,144.2,162z"/>
				</g>
			</g>
			<g>
				<g>
					<path class="st55" d="M146.6,154c0.1-0.1,0.1-0.2,0.1-0.4c0,0,0-0.1,0-0.1c-0.1-0.1-0.2-0.1-0.3-0.1c-0.6,0-1.2,0-1.8,0
						c-0.1,0-0.3,0-0.4,0c-0.1,0.1-0.1,0.3-0.1,0.5c0,0,0,0.1,0,0.1c0,0,0,0.1,0.1,0.1c0.1,0,0.2,0,0.2,0c0.4,0,0.8,0,1.2,0
						C145.9,154.1,146.4,154.2,146.6,154z"/>
				</g>
			</g>
			<g>
				<path class="st64" d="M146.6,147.1c0.1-0.1,0.1-0.2,0.1-0.4c0,0,0-0.1,0-0.1c-0.1-0.1-0.2-0.1-0.3-0.1c-0.6,0-1.2,0-1.8,0
					c-0.1,0-0.3,0-0.4,0c-0.1,0.1-0.1,0.3-0.1,0.5c0,0,0,0.1,0,0.1c0,0,0,0.1,0.1,0.1c0.1,0,0.2,0,0.2,0c0.4,0,0.8,0,1.2,0
					C145.9,147.1,146.4,147.3,146.6,147.1z"/>
			</g>
		</g>
		<g>
			<g>
				<path class="st45" d="M47.8,145.7c0-0.1-0.1-0.2-0.2-0.3c-0.1-0.1-0.3-0.1-0.5-0.1c-1.8,0.2-3.6,0.4-5.3,0.8
					c-0.2,0.1-0.5,0.1-0.6,0.3c-0.2,0.1-0.2,0.4-0.2,0.6c-0.4,2.3-0.2,4.6,0,6.8c0,0.3,7.1-0.3,7.9-0.6c1.6-0.5,0.8-1.6,0.4-2.9
					C48.9,148.7,48.3,147.2,47.8,145.7z"/>
			</g>
		</g>
		<g>
			<path class="st45" d="M59.5,161.7c0.2,0.9-0.1,1.9-0.7,2.6c-0.4,0.5-0.9,1-1.5,0.9c-0.2,0-0.3-0.1-0.5-0.1
				c-1-0.5-1.6-1.7-1.5-2.9c0.1-1.2,0.9-2.6,2-2.9C58.4,158.9,59.3,160.8,59.5,161.7z"/>
		</g>
		<g>
			<g>
				<g>
					<g>
						<path class="st32" d="M149.1,137.9c0.1,0,0.1-0.1,0-0.2c-0.2,0-0.3,0-0.5,0c0-0.1-0.1-0.2-0.1-0.2c0.1-0.1,0.2-0.2,0.2-0.4
							c0-0.1-0.1-0.1-0.1-0.1c-0.1,0.1-0.1,0.2-0.2,0.3c-0.1-0.2-0.2-0.3-0.3-0.4c0,0,0,0,0,0c0.1-0.1,0.2-0.2,0.4-0.3
							c0.1-0.1,0-0.2-0.1-0.1c-0.1,0.1-0.2,0.2-0.4,0.2c0,0,0,0,0,0c-0.1-0.1-0.2-0.3-0.4-0.4c-0.1-0.1-0.2-0.1-0.2-0.2
							c0.1-0.2,0.2-0.4,0.3-0.6c0-0.1-0.1-0.1-0.1-0.1c-0.1,0.2-0.2,0.4-0.3,0.6c-0.1,0-0.2-0.1-0.3-0.1c0,0,0,0,0,0
							c-0.1-0.1-0.1-0.3-0.2-0.4c0,0-0.1,0-0.1,0c0.1,0.1,0.1,0.2,0.1,0.4c-0.2-0.1-0.4-0.1-0.6-0.1c0,0,0,0,0,0c0-0.1,0-0.2,0-0.4
							c0-0.1-0.1-0.1-0.1,0c0,0.1-0.1,0.2-0.1,0.3c0,0,0,0.1,0,0.1c-0.1,0-0.2,0-0.3,0c-0.1,0-0.2,0-0.3,0.1
							c-0.1-0.1-0.1-0.2-0.2-0.3c-0.1-0.1-0.2,0-0.1,0.1c0.1,0.1,0.1,0.2,0.2,0.2c-0.2,0.1-0.4,0.1-0.5,0.2c0,0-0.1,0-0.1,0
							c0-0.1-0.1-0.3-0.1-0.4c0,0-0.1,0-0.1,0c0,0.1,0,0.3,0,0.4c-0.1,0-0.2-0.1-0.5-0.2c0.1-0.1,0.1-0.2,0.1-0.3
							c0-0.1-0.1-0.1-0.1-0.1c-0.1,0.1-0.1,0.2-0.2,0.3c-0.2,0-0.3-0.1-0.5-0.1c0-0.1-0.1-0.2-0.1-0.3c0-0.1-0.1,0-0.1,0
							c0,0.1,0,0.2,0,0.3c-0.4,0-0.7,0.1-1.1,0.3c0,0,0,0,0,0c-0.1-0.1-0.1-0.2-0.1-0.3c0-0.1-0.1,0-0.1,0c0,0.1,0.1,0.2,0.1,0.3
							c0,0,0,0.1,0,0.1c0,0,0,0,0,0s0,0,0,0c-0.2,0-0.4,0-0.6,0.1c-0.1,0-0.1,0.1,0,0.1c0.1,0,0.3,0,0.4,0c-0.2,0.2-0.4,0.4-0.6,0.6
							l0,0c-0.1-0.1-0.3-0.3-0.4-0.4c-0.1,0-0.1,0-0.1,0.1c0.1,0.1,0.2,0.3,0.4,0.4c0,0,0,0,0.1,0c-0.1,0.1-0.1,0.2-0.2,0.3
							c-0.1-0.1-0.1-0.1-0.2-0.2c0,0-0.1,0-0.1,0.1c0.1,0.1,0.1,0.2,0.2,0.3l0,0c-0.1,0.1-0.1,0.3-0.1,0.4c-0.1,0-0.2,0-0.4,0
							c-0.1,0-0.1,0.2,0,0.2c0.1,0,0.2,0,0.3,0c-0.1,0.4,0,0.7,0.1,1.1c-0.1,0.1-0.1,0.1-0.2,0.1c-0.1,0.1,0,0.2,0.1,0.1
							c0.1,0,0.1-0.1,0.2-0.1c0.1,0.1,0.2,0.3,0.3,0.4c-0.1,0.1-0.2,0.2-0.3,0.4c0,0.1,0,0.1,0.1,0.1c0.1-0.1,0.2-0.2,0.3-0.3
							c0.4,0.4,1,0.8,1.6,1c0,0.1,0.1,0.1,0.1,0.1c1.7,0.1,3.8,0.5,5-0.9c0,0,0,0,0-0.1c0.1,0,0.3,0,0.4,0c0.1,0,0.1-0.1,0-0.1
							c-0.1,0-0.2,0-0.3-0.1c0.1-0.2,0.2-0.4,0.3-0.6c0,0,0.1,0.1,0.1,0.1c0,0.1,0.1,0,0.1-0.1c-0.1-0.1-0.1-0.2-0.2-0.3
							c0-0.1,0-0.2,0-0.3c0,0,0,0,0.1,0c0.1-0.1,0.2-0.2,0.3-0.3c0.1-0.1,0-0.1-0.1-0.1c-0.1,0.1-0.2,0.1-0.3,0.2
							c0-0.2,0-0.4-0.1-0.6C148.8,138,149,137.9,149.1,137.9z"/>
					</g>
					<g>
						<g>
							<path class="st33" d="M144.2,136.7c-0.9,0.1-1.6,1.1-1.7,2c-0.1,0.9,0.4,1.6,1.1,2c0.1,0,0.1-0.1,0.1-0.1
								c-0.7-0.4-1.1-1.1-1-1.9c0.1-0.8,0.6-1.8,1.5-1.8C144.4,136.9,144.3,136.6,144.2,136.7z"/>
						</g>
						<g>
							<path class="st33" d="M145.7,138.7c-0.1-0.7-0.4-1.9-1.1-2.2c-0.1,0-0.1,0.1-0.1,0.1c0.6,0.3,0.8,1.3,0.9,1.9
								c0.1,0.7,0,1.4-0.7,1.9c-0.1,0.1,0,0.3,0.1,0.2C145.5,140.1,145.8,139.5,145.7,138.7z"/>
						</g>
						<g>
							<path class="st33" d="M147.2,138.3c-0.1-1.2-1.2-2-2.5-1.9c-0.1,0-0.1,0.1,0,0.1c1,0,2,0.6,2.2,1.7c0.2,1-0.4,2-1.4,2.3
								c-0.1,0-0.1,0.2,0.1,0.2C146.7,140.3,147.4,139.4,147.2,138.3z"/>
						</g>
					</g>
				</g>
				<g>
					<path class="st42" d="M141.2,143.6c0.1,0.2,0.1,0.4,0.3,0.5c0.2,0.1,0.4,0.2,0.6,0.2c1.2,0.2,2.4,0.3,3.6,0.3
						c0.8,0,1.8,0,2.4-0.6c0.4-0.3,0.6-0.8,0.7-1.3c0.1-0.5,0.1-1,0.1-1.6c0-0.1,0-0.3-0.1-0.4c-0.1-0.2-0.4-0.3-0.7-0.3
						c-1.9-0.1-3.9,0-5.8,0.1c-0.5,0-1.7,0.1-1.8,0.7c-0.1,0.4,0.2,0.7,0.2,1.1C140.9,142.7,141.1,143.2,141.2,143.6z"/>
				</g>
			</g>
			<g>
				<g>
					<path class="st65" d="M144.7,143.9c-0.9-0.1-1.8-0.1-2.6,0.3c-0.7,0.4-1.1,1.2-1.2,2c-0.1,0.5-0.1,1,0.1,1.4
						c0.4,0.7,1.3,0.9,2.1,0.9c1.8,0,3.6-0.5,5.4-1c0.1,0,0.3-0.1,0.4-0.2c0.1-0.1,0.2-0.3,0.2-0.4c0.1-0.4,0.3-0.9,0.2-1.4
						c-0.1-1-0.6-1.2-1.4-1.3C146.8,144.1,145.8,144,144.7,143.9z"/>
				</g>
				<g>
					<path class="st66" d="M198.9,127.5c0.6,1,1.6,1.8,2.5,2.6c1.3,1.2,2.6,2.5,3.3,4.1c1,2.3,0.9,4.9,0.7,7.4
						c-0.1,0.9-0.1,1.8-0.2,2.7c0.5,2.4,2.1,2.6,3.5,3c0.9,0.1,3.2,1.3,3.7-1.2c0.2,0,0.2-0.6,0.4-0.6c0.6-7.3-0.1-14.6-2.7-21.4
						c-0.8-2.1-1.7-4-2.4-6.1c-0.5-1.4-0.9-2.9-2-3.9c-1.6-1.4-5.3-1.6-7-0.2c-1.9,1.6-1,5.8-0.9,7.9
						C197.8,123.8,197.9,125.8,198.9,127.5z"/>
				</g>
				<g>
					<path class="st66" d="M151.1,143.9c3.8-0.1,7.1-2.7,9.3-5.8c2.2-3.1,3.6-6.6,5.4-10c2.5-4.6,5.8-8.7,9.7-12
						c1.2-1,2.8-2,4.2-1.2c0.9,0.5,1.3,1.7,1.3,2.7c0.1,1.5-0.2,3-0.4,4.5c-0.5,2.7-1,5.4-1.5,8.1c-0.2,1-0.4,2-0.8,3
						c-1.1,2.5-3.6,4-5.9,5.4c-3.1,1.8-6.2,3.7-9.2,5.5c-1.6,1-3.3,2-5.1,2.6c-2,0.7-4.1,1-6.1,1.2c-1,0.1-2.1,0.2-2.9-0.4
						c-0.7-0.6-1.1-2.1-0.7-3C148.8,143.1,149.8,143.9,151.1,143.9z"/>
				</g>
				<g>
					<path class="st65" d="M200.6,216.1c-0.6-12.3,0.6-24.8,0.5-37.2c0.4-4.3-0.2-8.6-1.7-12.7c-0.1-0.2-0.2-0.5-0.4-0.7
						c-0.6-0.6-1.6-0.3-2.3,0c-7.3,3-16,2.3-22.6-2c-1.3,2-1.7,4.5-2,6.9c-0.5,3.9-1.1,7.7-1.2,11.6c0,0,0,0,0,0l0,0
						c0,0.8-0.1,1.7,0,2.5c0.1,4.8,1,9.6,1.8,14.4c0.5,3.1,0.9,6.2,0.9,9.4c0,2.6-0.3,4.9,0.2,7.4c1.4,6.2,1.4,13,2,19.3
						c0.6,6.8,0.8,6.6,1.3,13.4c0,0.3,0,0.5,0.1,0.8c0.3,0.1,5.6,1.3,5.6-0.1c0.4-13.2,1.4-19.4,1.8-32.6c0.2-5.6-0.2-24.3,1.2-29.6
						c0.6,0.1,1.2,0.1,1.7,0.2c3.2,17.5,6.4,41.1,9.6,58.6c0.3,1.5,0.6,3.2,1.6,4.2c1,1,2.9,0.7,3.2-0.8
						C200.8,235.8,201.2,229.5,200.6,216.1z"/>
				</g>
				<g>
					<path class="st65" d="M183.2,86.6c-1.2,0.7-2.4,1.4-3.2,2.6c-1,1.4-1.4,3.2-1.5,4.9c-0.2,2.4,0,4.7,0.4,7.1
						c0.5,3.2,1.6,6.4,3.9,8.7c2.3,2.2,6.1,3.2,8.9,1.4c2.5-1.6,3.4-4.7,3.9-7.6c0.4-2.4,0.8-4.8,1-7.3c0.1-1.7,0.2-3.5-0.1-5.2
						c-0.4-1.8-1.3-3.4-2.4-4.9C191.1,82.5,186.6,84.7,183.2,86.6z"/>
				</g>
				<g>
					<g>
						<path class="st67" d="M177.5,86.2c0.2-0.6,0.7-0.9,1.1-1.3c2-1.4,4.1-2.8,6.2-4.1c0.6-0.4,1.3-0.8,2.1-0.7
							c0.8,0,1.5,0.6,2.2,0.9c1.3,0.6,2.7,0.8,4.1,1.1s2.8,0.9,3.6,2.2c0.5,0.8,0.6,1.9,0.9,2.8c0.8,2.6,3.1,4.6,3.3,7.3
							c0.1,0.6,0,1.2-0.3,1.7c-0.3,0.5-0.9,0.9-1.5,0.9c-0.6-0.1-1.1-0.6-1.4-1.1c-0.3-0.6-0.4-1.2-0.7-1.8
							c-0.5-1.1-1.5-1.8-2.4-2.6c-1.2-1-2.5-1.9-3.7-2.9c-0.5-0.4-1.1-0.8-1.7-1.1c-0.9-0.4-1.9-0.5-2.9-0.5c-2.6,0-5.2,0.7-7.4,2
							c-1,0.6-1,0.3-1.3-0.6C177.6,87.7,177.3,86.9,177.5,86.2z"/>
					</g>
				</g>
				<g>
					<g>
						<path class="st68" d="M181.5,89.8c-0.8,0.4-1.3,1.1-1.9,1.7c-0.4,0.4-0.7,0.8-0.9,1.3c-0.2,0.4-0.3,0.9-0.3,1.4
							c-0.2,1.2-0.3,2.4-0.5,3.5c-0.9-2.1-1.3-4.4-0.9-6.6c0.5-2.2,1.9-4.2,4-5.1c1.3-0.5,2.7-0.6,4.1-0.7c2.2-0.3,4.6-0.8,6.6,0.2
							c0.9,0.4,1.6,1.2,2.2,1.9c0.8,0.8,1.6,1.7,2.4,2.5c0.5,0.5,0.9,1,1.3,1.6c0.6,1.2,0.7,2.5,0.7,3.9c0,0.3,0,0.7-0.1,1
							c-0.1,0.3-0.4,0.6-0.6,0.9c-0.5,1-0.2,2.4-1.1,3.1c0.5-1.2,0.2-2.7-0.6-3.8c-0.4-0.5-0.9-0.9-1.1-1.4c-0.4-0.9-0.2-2-0.9-2.7
							c-0.5-0.5-1.2-0.5-1.9-0.8c-0.8-0.4-1.3-1.2-2.1-1.6c-0.9-0.5-2-0.4-3-0.5C185.2,89.5,183.1,88.9,181.5,89.8z"/>
					</g>
				</g>
				<g>
					<g>
						<path class="st67" d="M197.5,97.6c-0.2-0.6-0.8-0.9-1.1-1.4c-0.9-1.1-1-2.8-2-3.8c-0.9-1-2.5-1.2-3.5-2.1
							c-0.8-0.8-1.3-2.1-2.4-2c-0.6,0.1-1.1,0.6-1.7,0.5c-0.3,0-0.5-0.2-0.8-0.3c-0.9-0.5-2.8-0.8-3.3,0.4c-0.7-0.8-3.2,0.3-3.7,0.9
							c-0.9,1.1-1.1,2.6-1.3,4c-0.1,1.4-0.2,2.9-0.8,4.2c-0.2,0.5-0.5,0.9-0.6,1.4c-0.1,0.4,0,0.8,0.1,1.1c0.5,2.4,0.9,4.8,1.4,7.2
							c0.1,0.4,0.2,0.8,0.4,1.2c0.6,0.8,1.7,0.8,2.6,1.2c-0.7-0.5-1.4-1-1.8-1.7c-0.3-0.5-0.3-1.1-0.4-1.7c-0.2-1.8-0.3-3.7-0.5-5.5
							c-0.1-0.9-0.1-1.8,0.1-2.7c0.2-0.7,0.6-1.4,0.7-2.2c0.1-0.8-0.1-1.7,0.2-2.5c0.4-1.6,3-2.3,3.6-3.7c0.4,0.9,1.6,1.6,2.4,1.6
							c0.8,0,1.5-0.3,2.3-0.5c0.8-0.1,1.7,0,2.1,0.7c0.2,0.4,0.2,0.8,0.4,1.1c0.8,1.2,3.2-0.2,3.9,1.1c0.4,0.7-0.1,1.6,0.3,2.2
							c0.3,0.6,1.1,0.6,1.7,1c0.6,0.5,0.6,1.3,0.5,2s-0.4,1.4-0.4,2.1c0,0.4,0.1,0.8,0.1,1.3c0,0.5-0.2,1-0.4,1.5
							c-0.5,1.5-0.9,3.1-1.1,4.7c0.8-1.9,1.7-3.9,2-6c0.1-0.7,0.1-1.3,0.3-2C197.2,99.8,198,98.7,197.5,97.6z"/>
					</g>
				</g>
				<g>
					<g>
						<path class="st67" d="M192.7,78.4c1-0.5,2.2-1.1,3.3-0.8c0.6,0.2,1.2,0.6,1.7,0.9c0.6,0.5,1.3,1,2,1.5c0.3,0.2,0.7,0.5,1,0.8
							c1.1,1.1,1.5,2.9,0.9,4.4c-0.6,1.5-2,2.6-3.6,2.7c-0.5,0-0.9,0-1.4-0.2c-0.4-0.2-0.8-0.6-1.1-1c-1.2-1.3-2.7-2.6-3.9-4
							C190.1,81.2,191,79.3,192.7,78.4z"/>
					</g>
				</g>
				<g>
					<path class="st66" d="M194.7,112.8c0.8-0.2,1.5-0.4,2.3-0.2c0.5,0.2,0.9,0.5,1.2,0.9c2,2.4,1.4,5.9,2.3,8.9
						c0.4,1.5,1.3,2.8,1.9,4.2c1.2,2.9,1.3,6.1,1.4,9.3c0.1,2.9,0.2,5.8,0.3,8.7c0.1,2.2,0.2,4.5,0.7,6.7c0.3,1.4,0.8,2.8,1.1,4.3
						c0.5,2.8-0.1,5.8,0.4,8.6c0.2,1,0.5,2,0.3,3.1c-0.4,2-2.4,3.2-4.3,3.8c-6,2.1-12.6,1.9-19,1.7c-4.9-0.2-9.9-0.4-14.3-2.4
						c-0.4-0.2-0.8-0.4-1-0.7c-0.2-0.4-0.2-0.8-0.2-1.3c0.1-7.2,1.5-14.3,2.8-21.4c2-10.5,4.1-21.2,8.6-31c0.5-1.1,1.2-3.5,2.3-4.1
						c1.1-0.6,2.6,0.5,3.7,0.8C188.2,113.5,191.6,113.6,194.7,112.8z"/>
				</g>
				<g>
					<g>
						<path class="st69" d="M182.4,113.1c0.8,1.4,0.7,3.2,0.5,4.8c-0.4,3-0.7,6-1,9.1c-0.1,1.1-0.2,2.4,0.6,3.2
							c0.5,0.5,1.3,0.6,2,0.7c1.9,0.2,3.9,0.3,5.8,0.3c1.5,0,3.1-0.2,4.1-1.3c0.9-1,1.1-2.4,1.2-3.8c0.3-3.6,0.6-7.1,0.9-10.7
							c0.1-0.9,0.2-1.9,0.8-2.7c0.6-0.8,1.8-1.2,2.5-0.5c0.6,0.5,0.6,1.3,0.6,2.1c0,3.4,0.1,6.7,0.1,10.1c0,0.8,0,1.7,0.5,2.4
							c0.4,0.6,0.9,1,1.3,1.5c0.5,0.7,0.7,1.7,0.8,2.6c1.6,12.9,2.6,25.9,3.1,38.9c0.2,4.4,0.3,8.7,0.4,13.1
							c0.1,4.3,2,36.9,2.1,41.1c0,0.8,0,1.7-0.5,2.3c-0.6,0.8-1.8,0.9-2.8,1c-11.7,0.6-27.6,0.7-39.2-0.7c-0.6-0.1-1.1-0.1-1.6-0.5
							c-0.5-0.3-0.7-0.9-0.9-1.4c-1-2.7,1.2-33.8,1.1-36.6c-0.3-7.5,0.1-15,1.1-22.4c0.6-4.8,1.6-9.5,2.5-14.3
							c1.3-6.4,2.7-12.7,4.2-19.1c1.5-6.2,2.6-12.9,4.8-18.8C178.3,111.3,181.1,110.9,182.4,113.1z"/>
					</g>
				</g>
				<g>
					<path class="st68" d="M177.2,237.9c-0.7,0-2.3-0.3-2.7,0.3c-0.2,0.3,0.7,6.5,0.7,6.8c-0.1,2.1,0,4.3,0.1,6.4
						c0,0.6,0.1,1.3-0.1,1.9c-0.1,0.5-0.4,1-0.8,1.4c-0.7,0.9-1.7,1.6-2.8,1.8c-1.4,0.3-2.9-0.1-4.3,0.4c-0.2,0.1-0.5,0.2-0.7,0.4
						c-0.1,0.2-0.2,0.4-0.3,0.6c-0.5,1.3-0.8,2.6-0.9,4c0,0.2,0,0.4,0.1,0.5c0.1,0.1,0.2,0.1,0.4,0.2c0.7,0.2,1.5,0.2,2.3,0.2
						c5.2,0.1,10.5,0,15.7-0.4c0.1,0,0.3,0,0.4-0.1c0.1-0.1,0.1-0.3,0.1-0.5c-0.2-6.2-0.6-18.1-0.8-24.4c-0.8-0.5-2.1,0.2-3,0.4
						C179.5,237.8,178.4,237.9,177.2,237.9z"/>
				</g>
				<g>
					<path class="st68" d="M202.1,237.1c0.1,5.7,2.1,14.9,3.1,20.5c0.1,0.8,0.3,1.5,0.1,2.3c-0.2,1.1-1,1.9-2,2.4
						c-1,0.5-2.1,0.6-3.1,0.6c-0.4,0-0.8-0.1-1.2-0.3c-0.3-0.1-0.5-0.4-0.7-0.6c-1.1-1.4-1.4-3.1-1.8-4.8c-0.7-3.9-1.2-7.8-1.4-11.7
						c0-1-1-6.9-1-7.8c0-1.2,0.1-1.1,1.3-1.3C196.1,236.4,202.1,234.5,202.1,237.1z"/>
				</g>
				<g>
					<path class="st66" d="M204.5,146.1c0.4-1,0.9-2,1.8-2.6c0.4-0.3,0.9-0.4,1.4-0.4c2.4-0.2,4.7,2,4.6,4.3
						c-0.1,1.1-0.6,2.2-1.1,3.2c-2.4,4.2-5.7,7.8-9.7,10.6c-0.6,0.4-1.2,0.8-1.9,1c-1.2,0.4-4.1,0.1-4.6-1.5c-0.4-1.2,2.2-3.5,3-4.4
						C200.4,153.1,202.8,149.8,204.5,146.1z"/>
				</g>
				<g>
					<g>
						<path class="st70" d="M191.8,163.8c0.6,0.8,1.2,1.7,1.8,2.5c0.5,0.7,1,1.5,1.3,2.4c0.4,1.3,0.4,2.7,1.1,3.8
							c0.7,1.1,2.1,1.7,3.4,1.5c1.3-0.2,2.5-1,3.2-2.1s1-2.4,1-3.8c0-0.4,0-0.8-0.1-1.1c-0.1-0.4-0.3-0.7-0.5-1.1
							c-0.4-0.6-1-1.2-1.7-1.5c-0.6-0.2-1.2-0.3-1.8-0.4c-2.2-0.3-4.4-0.9-6.1-2.3c-0.8-0.7-1.9-1.8-2.9-0.8
							C189.6,162,191.2,163,191.8,163.8z"/>
					</g>
					<g>
						<path class="st71" d="M190.7,163.2c0.8-0.7,1.6-1.4,2.3-2.2c0.1-0.1,0.2-0.3,0.2-0.5c0-0.2-0.2-0.5-0.5-0.7
							c-0.3-0.3-0.6-0.6-0.9-0.9c-0.1-0.1-0.3-0.2-0.4-0.3c-0.2,0-0.3,0.1-0.4,0.2c-0.5,0.4-0.9,0.9-1.4,1.3
							c-0.2,0.2-0.5,0.5-0.7,0.8c-0.3,0.4-0.5,1.1,0.1,1.6c0.2,0.2,0.5,0.4,0.8,0.6C190.2,163.4,190.4,163.5,190.7,163.2z"/>
					</g>
					<g>
						<path class="st70" d="M188.1,162.9c0,0.1,0,0.1,0.1,0.2c0.1,0.2,0.3,0.4,0.4,0.6c0,0,0.1,0.1,0.1,0.1c0,0,0.1,0,0.1,0
							c0.1,0,0.3,0,0.4-0.1s0.2-0.2,0.3-0.4c0.1-0.2,0.2-0.3,0.4-0.5c0.1-0.1,0.1-0.1,0.1-0.2c0-0.1,0-0.1-0.1-0.1
							c-0.2-0.3-0.6-0.8-1-0.6C188.7,162.1,188.1,162.7,188.1,162.9z"/>
					</g>
					<g>
						<path class="st63" d="M200.7,166.9c0.7-0.1,1.4,0,1.9,0.5c0.2,0.3,0.4,0.7,0.4,1.1s-0.1,0.8-0.2,1.2c-0.1,0.4-0.2,0.8-0.4,1.2
							c-0.1,0.3-0.3,0.5-0.6,0.8c-0.3,0.4-0.7,0.8-1.2,1c-0.6,0.3-1.4,0.3-2.1,0.2c-0.4,0-0.9,0-1.3-0.3c-0.2-0.2-0.4-0.5-0.5-0.7
							c-0.3-0.6-0.5-1.1-0.7-1.7c-0.2-0.5-0.5-1.3-0.4-1.9c0.1-0.5,0.5-0.5,1-0.5c0.6,0,1.3-0.2,1.9-0.3
							C199.2,167.2,200,167,200.7,166.9z"/>
					</g>
					<g>
						<path class="st71" d="M191.2,164.7c0.3,0.6,0.4,1.3,0.6,2c0,0.1,0.1,0.2,0.2,0.3c0.1,0,0.2-0.1,0.3-0.2s0-0.2,0-0.4
							c-0.1-0.3-0.2-0.6-0.3-1c-0.1-0.5-0.3-1-0.4-1.5c-0.1-0.2-0.2-0.5-0.2-0.8c-0.1-0.2-0.1-0.4-0.2-0.5s-0.4-0.2-0.5,0
							C190.2,163.1,191.1,164.4,191.2,164.7z"/>
					</g>
				</g>
				<g>
					<path class="st65" d="M193.7,161.5c-0.4,0.3-0.8,0.6-1.1,0.9c-0.9,0.7-1.8,1.5-2.7,2.2c-0.1,0.1-0.2,0.2-0.3,0.4
						c-0.1,0.2,0,0.4,0.1,0.5c0.8,1.5,2.2,2.7,3.8,3.2c0.3,0.1,0.6,0.1,0.8,0.1c0.8-0.1,1.2-1,1.6-1.7c0.6-1.4,1.5-2.7,2.5-3.8
						c0.5-0.5,1-1.3,0.7-1.9c-0.1-0.2-0.3-0.3-0.4-0.5C196.9,159.3,195.4,160.3,193.7,161.5z"/>
				</g>
			</g>
		</g>
	</g>
</g>
</svg>
