<?xml version="1.0" encoding="utf-8"?>
<!-- Generator: Adobe Illustrator 26.0.0, SVG Export Plug-In . SVG Version: 6.00 Build 0)  -->
<svg version="1.1" id="Ebene_1" xmlns="http://www.w3.org/2000/svg" xmlns:xlink="http://www.w3.org/1999/xlink" x="0px" y="0px"
	 viewBox="0 0 251 312" style="enable-background:new 0 0 251 312;" xml:space="preserve">
<style type="text/css">
	.st0{fill:none;}
	.st1{fill:#242224;}
	.st2{fill:#8EA7D9;}
	.st3{fill:#A5B7E1;}
	.st4{fill:#1F3284;}
	.st5{fill:#CCCCCC;}
	.st6{fill:#2A2A2F;}
	.st7{fill:#EC928E;}
	.st8{fill:#D39B8B;}
	.st9{opacity:0.35;fill:#7C9FC4;enable-background:new    ;}
	.st10{fill:#F3BEC0;}
	.st11{fill:#F0A996;}
	.st12{fill:#73655D;}
	.st13{fill:#343438;}
	.st14{fill:#3B3B3B;}
	.st15{fill:#424242;}
	.st16{fill:#6E6E6E;}
	.st17{fill:#C1C1C1;}
	.st18{fill:#101010;}
</style>
<rect x="-0.5" y="-0.5" class="st0" width="251" height="312"/>
<g>
	<g>
		<g>
			<path class="st1" d="M179.4,273.8c8.4,7.2,20,8,29.5,3.2c3.2-1.6,6.1-3.7,8.6-6.5c2.3-2.6,4.1-5.8,5.4-9.2
				c2.5-7,2.4-15.5-1.2-21.8c-3.2-5.6-8.7-8.6-14.2-10.3c-7.8-2.4-16-2.6-23.8-0.5c-4,1.1-8.1,2.9-10.8,6.7c-1.2,1.6-2,3.6-2.6,5.6
				C166.7,252.6,171,266.6,179.4,273.8z M179.8,248.7c0-1.2,0-2.4,0.5-3.5c0.8-1.7,2.7-2.2,4.3-2.6c6.7-1.4,13.6-2.9,20.4-1.8
				c2,0.3,4.1,0.9,5.6,2.6c2.4,2.8,2.3,7.5,1.4,11.3c-1,4.4-3.1,9-6.7,10.7c-1.8,0.8-3.7,0.9-5.6,1c-3.4,0.1-6.8,0.2-10-0.8
				s-6.4-3.1-8.1-6.6C180,256,179.8,252.3,179.8,248.7z"/>
			<path class="st1" d="M188.6,247.3c2-1.6,4.5-2,7-2c2.2,0,4.4,0.3,6.6,0.8c0.5,0.1,1,0.2,1.4,0.6c1.3,1,1.4,3.3,1,5
				c-0.9,3.5-3.4,6.3-6.3,7.4s-6.2,0.6-8.9-1.1c-1.2-0.7-2.3-1.8-2.9-3.2C185.4,252.2,186.6,248.9,188.6,247.3z"/>
		</g>
		<g>
			<path class="st1" d="M22.2,271.6c8.4,7.2,20,8,29.5,3.2c3.2-1.6,6.2-3.7,8.6-6.5c2.3-2.6,4.2-5.8,5.4-9.2
				c2.5-7,2.4-15.5-1.2-21.8c-3.2-5.6-8.7-8.6-14.2-10.3c-7.8-2.4-16-2.6-23.8-0.5c-4,1.1-8.1,2.9-10.8,6.7c-1.2,1.6-2,3.6-2.6,5.6
				C9.5,250.4,13.8,264.4,22.2,271.6z M22.6,246.5c0-1.2,0-2.4,0.5-3.5c0.8-1.7,2.7-2.2,4.3-2.6c6.7-1.4,13.6-2.9,20.4-1.8
				c2,0.3,4.1,0.9,5.6,2.6c2.4,2.8,2.3,7.5,1.3,11.3c-1,4.4-3.1,9-6.7,10.7c-1.8,0.8-3.7,0.9-5.6,1c-3.4,0.1-6.8,0.2-10-0.8
				s-6.4-3.1-8.1-6.6C22.8,253.8,22.6,250.1,22.6,246.5z"/>
			<path class="st1" d="M31.4,245.1c2-1.6,4.5-2,7-2c2.2,0,4.4,0.3,6.6,0.8c0.5,0.1,1,0.2,1.4,0.6c1.3,1,1.4,3.3,1,5
				c-0.9,3.5-3.4,6.3-6.3,7.4c-2.9,1.1-6.2,0.6-8.9-1.1c-1.2-0.7-2.3-1.8-2.9-3.2C28.2,250,29.4,246.7,31.4,245.1z"/>
		</g>
		<path class="st2" d="M114.9,192.3c0.1-4.2,3.8-5.5,6.6-5.5c10.6,0,21.3,0.1,31.9,0.1c7.3,0,15.1,0.2,21.4,5.8
			c6.8,6,10.9,18.2,10.1,30c-0.8,11.8-6.4,22.6-13.8,26.3c-3.8,1.9-7.8,2.1-11.8,2.2c-24.9,0.7-49.8-0.3-74.7-3
			c-2.8-0.3-5.6-0.6-8.2-1.7c-11.6-4.6-19.2-22.6-20.8-40.6c-1.6-18,1.6-36.2,5-53.6c1.6-8,4.3-17.4,9.8-18.5
			c-4.4,15.2-7.7,31.6-6.8,48.1c0.6,10.6,2.9,20.9,6.6,29.8c1.3,3.1,2.9,6.2,5,8.1c2.8,2.5,6.2,2.8,9.4,2.9
			c10.6,0.5,21.1,0.5,31.7,0c2.2-8.4,1.9-18.2-0.7-26.4C115.3,195.1,114.9,193.7,114.9,192.3z"/>
		<path class="st3" d="M55,125.5c5.4,0.8,10.5,3.5,14.6,7.8c-0.4,0.9-0.6,1.9-0.5,2.8c-0.4,0.6-0.7,1.4-1,2
			c-4.1,12.1-8.2,24.3-10.1,37.1s-1.4,26.6,3.5,38.2c2.9,6.9,7.2,12.8,12.2,17.7c4,3.8,9,8.5,8,14.5C68.7,248,56.9,235.2,51,221
			C38.7,191.5,43.5,155.4,55,125.5z"/>
		<path class="st3" d="M59.1,215.7c7,10.8,13.9,21.5,20.9,32.3c-13.7-0.5-27.5-1.6-41.1-3.4c-7.8-1-16.2-2.6-21.8-9.4
			c-4.9-5.9-6.7-15-5.9-23.5c0.8-8,4.2-16.3,10.3-19.3c4-2,8.6-1.4,12.8,0c5.8,2,11.2,5.7,15.7,10.6
			C53.4,206.9,56.3,211.3,59.1,215.7z"/>
		<path class="st4" d="M47.5,120.9c-2.5,8-0.8,17.7,4.4,23.7c1.4,1.6,3,3,5,3.3c3.1,0.5,6-1.7,8.2-4.2c3.1-3.4,5.6-7.7,6.5-12.5
			c1.2-6.7-1.1-14.2-6-17.8c-4.8-3.6-11.8-2.7-15.6,2.4C48.9,117.3,48.1,119.1,47.5,120.9z"/>
		<path class="st5" d="M65.3,134.9c-0.9,1.5-2.1,2.8-3.4,4c-1.7,1.6-3.5,3.1-5.7,3.5c-3.3,0.6-6.5-1.8-8.4-5
			c-1.9-3.2-2.6-7.2-3-11.2c-0.2-2.2-0.3-4.6,0.4-6.7c0.5-1.5,1.3-2.8,2.3-3.9c4.4-4.7,11.7-4.7,16.1,0.1
			C68,120.4,68.7,129.2,65.3,134.9z"/>
		<path class="st6" d="M89.5,177.4c0.9-0.9,2.1-1.5,3.3-2c8.5-3.2,18.9-1.9,25.9-7.7c2.3-1.9-5.6-5.7-7-6.1
			c-5.6-1.6-13.4,0.1-19.1,0.8c-5.1,0.6-17.1,3.7-19.9,8.5c-1.6,2.7-0.6,6.1,0.5,9.1c3.8,10.6,8.4,20.9,12.8,31.3
			c1.3,3,2.3,7.3-0.5,9.1c-1,0.7-2.3,0.8-3.3,1.6c-0.9,0.8-1,2.7,0.2,2.9c0.3,0.1,0.7-0.1,1-0.2c3.5-1.3,6.9-2.6,10.4-4
			c0.6-0.2,1.2-0.5,1.5-1c0.3-0.6,0.2-1.2,0-1.8c-2.3-10.3-4.6-20.6-6.8-30.9C87.8,183.6,87.2,179.8,89.5,177.4z"/>
		<path class="st4" d="M84.7,132c-0.7,0.6-1.6,0.4-2.5,0.2c-5.6-1.2-10.7-4.5-14.3-8.9c-0.2-0.3-0.4-0.5-0.6-0.8
			c-0.4-0.8-0.2-1.9,0.5-2.5c1-0.9,2.6-0.7,3.8-0.2c3.9,1.6,6.5,5.5,10.2,7.5c1,0.5,2,1,2.7,1.8C85.3,129.9,85.5,131.3,84.7,132z"/>
		<path class="st7" d="M142.3,84.9c-1-0.8-2.3-0.4-4,0.1c-1.9,0.5-3.8,1.3-5.5,2.3c-3.5,2-6.6,4.6-9.5,7.3c-4.5,4-9.2,8.2-11.8,13.6
			c-1.6,3.4-2.3,7.1-3.1,10.7c-2.9,14.6-5.9,29.3-8.8,43.9c12.4-0.9,25.2,3.6,34.2,12.2c1.6,1.5,3.3,3.2,5.5,3.2
			c4.3-0.1,6.7-8.4,7.9-11.7c1.8-5.2,2.7-10.6,3-16.1c0.6-8.9-0.1-17.8-0.3-26.7c-0.1-3.7,0-7.4-0.3-11.1c-0.4-4.7-1.3-9.2-2.4-13.7
			c-0.6-2.3-1.3-4.5-2-6.7c-0.6-2-1.1-4.9-2.2-6.7C142.7,85.3,142.5,85.1,142.3,84.9z"/>
		<path class="st8" d="M137.4,78.8c-0.3,1.6-0.7,3.3-1.7,4.5c-1,1.2-2.6,1.8-4.1,2.3c-2,0.6-4.2,1.1-6.3,1
			c-4.7-0.4-8.7-4.3-10.2-8.8s-0.9-9.5,0.5-14c1-3.2,2.6-6.4,5.6-7.9c1.5-0.8,3.2-1,4.9-1c2.1,0,4.2,0.3,5.8,1.6
			c1.6,1.2,2.5,3,3.3,4.8c1.2,2.6,2.4,5.2,2.8,8C138.6,72.4,138,75.6,137.4,78.8z"/>
		<path class="st8" d="M74.7,127.1c-0.4,0.8-0.9,1.8-0.6,2.7c0.5,1.2,2.2,1.4,3.4,0.9c1.2-0.6,2.1-1.7,3.2-2.4
			c3.1-2.2,7.3-1.5,11.1-0.9c6,1,12.2,1.6,18.2,0.9c6.1-0.7,12.1-2.6,17-6.2c5.4-3.9,9.2-9.6,12.2-15.5c0.5-0.9,0.9-1.8,1-2.8
			c0.1-1-0.4-2.1-1.3-2.5c-1.1-0.5-2.4,0.2-3.4,0.9c-3.1,2-13.8,11.9-16.9,13.9c-9.8,6.4-12.3,5.2-23.9,7.1
			c-3.4,0.5-6.8,0.7-10.2,0.4c-2.9-0.2-6.2-0.7-8.3,1.4C75.6,125.5,75.1,126.3,74.7,127.1z"/>
		<path class="st6" d="M107.5,82.1c0.1-0.7,0.3-1.4,0.9-1.8c0.3-0.2,0.7-0.2,1.1-0.2c3.4-0.1,6.7-0.1,10.1-0.2c3-0.1,6-0.1,8.9-0.9
			c2.3-0.6,4.6-1.8,6.4-3.6c0.1-2,0-4-1.3-5.4c-1.7-1.9-4.2-2.9-6.6-3.3c-5-1-10.2-1.1-15.2-0.9c-1.3,0.1-2.1-1.2-2.5-2.6
			c-0.4-1.4-0.6-3.1-0.5-4c0.3-2.4,1.4-4.5,2.9-6.4c4.4-5.6,11.8-8.4,18.8-7.6c6.3,0.8,14.4,4.6,16.5,11.1c0.5,1.6,0.6,3.3,0.7,5.1
			c0.1,4.7-0.2,9.9-1.9,14.4c-1,2.7-1.9,4.7-3.9,5.7c-0.9,2.6-3.7,3.8-6.1,4.4c-7,1.8-14.3,2.6-21.5,2c-1.6-0.1-3.2-0.3-4.6-1.2
			C108.4,85.8,107.3,84,107.5,82.1z"/>
		<path class="st9" d="M134.1,74.1c0.8-1.5,0.1-3.4-1.1-4.6c-1.2-1.2-2.9-1.9-4.6-2.4c-3.4-1-6.9-1.3-10.4-1.4
			c-2.8-0.1-7.3-1.1-8.9,2c-0.4,0.9-0.6,1.8-0.8,2.8c-0.5,3-0.5,7.5,2.4,9.3c1.3,0.8,3.1,0.9,4.7,0.9c5.1-0.1,10.1-1.1,14.8-2.8
			c1.9-0.7,3.8-1.6,4.7-3.2C136,73,136.1,74.3,134.1,74.1z"/>
		<path class="st10" d="M141.9,96.4c-2.7-1-5.9-0.6-8.4,0.9c-2.1,1.3-3.6,3.3-5.1,5.2c-3.3,4-7.1,7.6-10.9,11.1
			c-2.4,2.2-4.9,4.5-7.9,5.6c-2.1,0.7-4.3,0.8-6.4,0.9c-7.2,0.3-14.3,0.6-21.5,0.9c1.6,2,2.7,4.4,3.1,6.9c8.8,0.2,16.4,0.9,25.2,1.1
			c2.5,0.1,6.4-0.4,8.8-1c2.6-0.6,4.9-2,7-3.5c5.8-4.2,10.2-10,14.5-15.7c1.8-2.4,3.7-5,4.1-8c0.1-1.1,0-2.4-0.7-3.2
			C143.2,97,142.5,96.7,141.9,96.4z"/>
		<path class="st11" d="M106.8,131.1c6.3,2.4,12.8,3.7,19.5,4.3c6,0.6,13.5,1.4,19.3-0.4c0.6-0.2,0.8,0.7,0.3,0.9
			c-5.8,2.4-13.4,1.5-19.6,1.1c-6.5-0.4-12.9-1.8-19.1-3.9c0,0-0.1,0-0.1,0c-0.3-0.1-0.5-0.2-0.8-0.3
			C105.2,132.4,105.7,130.7,106.8,131.1z"/>
		<path class="st11" d="M105.2,138.8c12.7,5.8,25.3,6.3,39,4.8c0.5-0.1,0.6,0.8,0.1,0.9c-12.9,3.3-28.1,2.1-39.9-4.2
			C103.3,139.8,104.2,138.4,105.2,138.8z"/>
		<path class="st3" d="M169.6,202.6c-5.6,0.4-12.2-0.3-15.7,5c-3.2,4.8-1.7,11.8-0.1,17.6c1.6,5.8,3.3,11.8,6.9,15.9
			c4.9,5.7,12.3,6.8,19.1,7.5c13,1.3,26.1,2.2,39.1,2.7c3.3,0.1,6.7,0.2,9.9-0.9c9.7-3.4,14.8-17.7,12.1-29.3
			c-2.7-11.6-11.4-20.2-21-24.1c-6.3-2.6-13.1-3.4-19.7-2.4C189.8,196.1,180.1,202,169.6,202.6z"/>
		<path class="st12" d="M222.9,188.6c0.6-1.3,1.2-2.6,1.6-4.2c1.9-7.2-0.9-16.5-4.6-19.5c-3.7-3-7.9-1.6-11.9-0.3
			c-28.9,9.6-58.4,12.3-87.6,7.9c-1.7-0.2-3.4-0.5-4.9,1.2c-1.9,2.1-2.8,7-2.5,11.4c0.4,7.1,3.2,12.8,6.4,15.7s6.8,3.4,10.3,3.9
			c17.8,2.6,35.6,5.2,53.4,7.8c5.2,0.8,10.5,1.5,15.8,0.2C207.9,210.4,216.5,201.8,222.9,188.6z"/>
		<path class="st13" d="M142.1,177.2c-16.2,5.6-34.1-0.5-51,2.1c8.3,15.4,16.7,30.7,25.1,46.1c0.7,1.2,1.2,3,0.2,3.8
			c-0.6,0.4-1.3,0.4-2,0.4c-6.1-0.3-12.1-0.5-18.2-0.8c1.2-3.5,5.3-5.7,8.9-4.8c-9.5-12-17.9-24.8-25.2-38.2
			c-1.9-3.4-3.7-7.5-2.2-11.1c0.7-1.7,2.2-3.1,3.6-4.2c7.7-6,18-8.4,27.5-6.4c0-0.7,0.7-0.5,1.4-0.6c5.3-1.1,10.8,0.1,15.8,2.3
			c4.9,2.2,9.3,5.4,13.7,8.6C141.3,175.5,141.1,175.3,142.1,177.2z"/>
	</g>
	<g>
		<path class="st14" d="M168.6,147.4c3.4,4.1,8.6,5.5,13.5,6.4c10,1.9,20.8,3.2,31,3c7.8-0.2,16.7-1.9,21.5-8.7
			c4.2-5.9,4.8-13.7,4.8-20.7c-0.1-6.1,0.2-15-5.5-18.8c-2.2-1.5-4.9-2.2-7.5-2.7c-10.2-1.9-20.7-1.2-30.6,1.7
			c-11.4,3.3-27.8,7.3-31.4,20.4C162.4,134.6,164.3,142.3,168.6,147.4z"/>
		<path class="st15" d="M227.9,127.3c-7.5,2.3-15.3,3.5-23.1,3.9c-8.2,0.4-16.5,0.6-24.6-0.8c-3.7-0.6-7.3-1.7-10.9-2.7
			c-1.4-0.4-2.9-0.8-4.4-1.3c4.5-11.8,19.9-15.7,30.9-18.8c10-2.8,20.4-3.7,30.6-1.7c2.6,0.5,5.3,1.2,7.5,2.7
			c4.5,3,5.3,8.9,5.5,14.3C235.5,125.1,230.8,126.5,227.9,127.3z"/>
		<g>
			<path class="st7" d="M162.6,200.1c0,0.9,0,1.8,0,2.7c0,4.4,28.4,1.7,33.1,1.6c9.8-0.2,21.9,1.6,31.5-0.3
				c5.2-1.1,3.4-5.1,3.5-10.1c0.1-4.7,0.1-9.4,0.2-14.1c0.1-9.7,0.1-19.4-0.1-29.1c-4.3,0-8-1.4-12.3-1.5c-3.9-0.1-7.9,0.6-11.8,0.6
				c-12.1,0-24.3-0.3-36.4,0.2c-3,0.1-6.1-0.3-7.7,2.4c-2,3.5-0.1,12.2-0.1,16.2C162.6,179.1,162.6,189.6,162.6,200.1z"/>
			<path class="st10" d="M158.1,170.8c0,0.5,0,0.9,0.2,1.4c0.9,1.5,6.7,1.3,8.4,1.3c3.2,0.1,6.4-0.1,9.6-0.1
				c6.2-0.1,12.4-0.4,18.5-0.4c10.8-0.1,24.1,0.8,34.6-0.2c5.8-0.5,3.8-2.6,3.9-5.1c0.1-2.4,0.2-4.8,0.2-7.2c0.1-2.9,0.1-5.8,0-8.7
				c0-2.1,0.9-5-1.3-6.6c-1.1-0.8-2.5-0.9-3.9-0.9c-1.7,0-3.3,0.1-5,0.3c-5.4,0.4-10.9,0.6-16.3,0.6c-15.2,0-30.5,0.3-45.7-0.2
				c-0.5,0-0.9,0-1.4,0.2c-0.5,0.2-0.7,0.7-0.8,1.2c-0.5,1.7-0.6,3.4-0.6,5.2c-0.1,4.3-0.2,8.6-0.2,12.8
				C158.2,166.5,158.1,168.6,158.1,170.8C158.1,170.8,158.1,170.8,158.1,170.8z"/>
			<path class="st16" d="M193.2,167.7c2.1,0.1,4.2,0.3,6.3,0.4c0.1,3.8,0.2,7.6,0.3,11.4c-2.2-0.1-4.4-0.2-6.6-0.6
				C193.1,175.1,193.2,171.4,193.2,167.7z"/>
		</g>
		<path class="st17" d="M165.1,126.9c12,3.6,24.3,4.7,36.8,4.1c6.4-0.3,12.9-1.1,19.2-2.2c6.2-1,12.4-2.4,17.7-5.9
			c0.5-0.3,0.9,0.4,0.4,0.8c-9.4,7-23.1,7.7-34.4,8.6c-13.5,1.1-27.2,0.1-40.2-3.9C163.7,128.1,164.1,126.6,165.1,126.9z"/>
		<path class="st18" d="M172.7,127.7c0.1-0.4,0.3-0.8,0.5-1.1c0.4-0.4,1-0.3,1.4-0.6c0.3-0.2,0.5-0.1,0.7,0c0.2-0.1,0.4,0,0.5,0.3
			c0.2,0.7-0.1,1.3-0.3,2c-0.3,1.2-0.3,2.4-0.1,3.6c0.2,1-0.5,1.2-1.3,1.3c-0.3,0.3-0.8,0.2-1,0c-0.2,0-0.3,0-0.5,0
			c-0.5,0-0.7-0.4-0.7-0.9C172.3,130.7,172.5,129.2,172.7,127.7z"/>
	</g>
</g>
</svg>
